<svg width="112" height="112" viewBox="0 0 112 112" fill="none" xmlns="http://www.w3.org/2000/svg">
<path d="M111.021 55.5107L55.5107 0L3.42338e-06 55.5107L55.5107 111.021L111.021 55.5107Z" fill="#0F0F0F"/>
<path d="M55.5107 1.41421L109.607 55.5107L55.5107 109.607L1.41422 55.5107L55.5107 1.41421Z" stroke="#50D91D" stroke-width="2"/>
<g filter="url(#filter0_d_1_696)">
<path d="M83.9153 54.5848L82.8781 42.725L82.8849 42.7174L72.0131 33.5945L70.4147 35.4998L80.4889 43.9536L81.3485 53.7753L76.3909 59.6835L76.254 63.7153L83.9153 54.5848Z" fill="#50D91D"/>
<path d="M77.6399 45.081L78.5675 45.8598L79.8912 44.2818L70.9886 36.8135L69.6648 38.3906L70.5924 39.1694L67.813 42.4853L64.1247 39.3905L59.3142 46.7823L61.2578 48.4131L70.1579 55.8814L72.1015 57.5121L78.5462 51.4909L74.8579 48.396L77.6399 45.081Z" fill="#50D91D"/>
<path d="M60.2883 49.5746L45.8518 66.7727L54.7514 74.2433L69.1879 57.0452L60.2883 49.5746Z" fill="#50D91D"/>
<path d="M42.9313 66.3068L36.4866 72.328L50.9081 84.4292L55.7186 77.0374L42.9313 66.3068Z" fill="#50D91D"/>
<path d="M44.6683 66.1061L44.7176 66.1469L44.7763 66.0771L44.6683 66.1061Z" fill="#50D91D"/>
<path d="M35.8744 71.1598L32.7745 71.9743L38.602 63.3633L28.3007 61.957L36.9797 56.2316L27.9997 50.99L38.2092 49.0217L31.9175 40.7431L42.1032 42.8313L39.4615 32.7748L48.0726 38.6023L49.4788 28.301L55.2068 36.9792L60.4467 28L62.2568 37.389L62.6216 39.3726L60.5513 42.5541L59.1782 35.4343L55.342 42.0049L51.1521 35.652L50.1225 43.1909L43.8215 38.9262L45.7557 46.2849L38.3018 44.7545L42.9049 50.8131L35.434 52.2577L42.0045 56.0939L35.6517 60.2838L43.1906 61.3125L35.8744 71.1598Z" fill="#50D91D"/>
</g>
<defs>
<filter id="filter0_d_1_696" x="17.9997" y="18" width="75.9156" height="76.4292" filterUnits="userSpaceOnUse" color-interpolation-filters="sRGB">
<feFlood flood-opacity="0" result="BackgroundImageFix"/>
<feColorMatrix in="SourceAlpha" type="matrix" values="0 0 0 0 0 0 0 0 0 0 0 0 0 0 0 0 0 0 127 0" result="hardAlpha"/>
<feOffset/>
<feGaussianBlur stdDeviation="5"/>
<feComposite in2="hardAlpha" operator="out"/>
<feColorMatrix type="matrix" values="0 0 0 0 0.313726 0 0 0 0 0.85098 0 0 0 0 0.113725 0 0 0 0.4 0"/>
<feBlend mode="normal" in2="BackgroundImageFix" result="effect1_dropShadow_1_696"/>
<feBlend mode="normal" in="SourceGraphic" in2="effect1_dropShadow_1_696" result="shape"/>
</filter>
</defs>
</svg>
