<svg width="112" height="112" viewBox="0 0 112 112" fill="none" xmlns="http://www.w3.org/2000/svg">
<path d="M111.022 55.5107L55.511 0L0.000308599 55.5107L55.511 111.021L111.022 55.5107Z" fill="#0F0F0F"/>
<path d="M55.511 1.41421L109.608 55.5107L55.511 109.607L1.41452 55.5107L55.511 1.41421Z" stroke="#00D1FF" stroke-width="2"/>
<g filter="url(#filter0_d_1_818)">
<path d="M83.784 50.688L82.564 36.739L82.572 36.73L69.785 26L67.905 28.241L79.754 38.184L80.765 49.736L74.934 56.685L74.773 61.427L83.784 50.688Z" fill="#00D1FF"/>
<path d="M76.403 39.51L77.494 40.426L79.051 38.57L68.58 29.786L67.023 31.641L68.114 32.557L64.845 36.457L60.507 32.817L54.849 41.511L57.135 43.429L67.603 52.213L69.889 54.131L77.469 47.049L73.131 43.409L76.403 39.51Z" fill="#00D1FF"/>
<path d="M55.9947 44.7952L39.015 65.023L49.4824 73.8096L66.4621 53.5818L55.9947 44.7952Z" fill="#00D1FF"/>
<path d="M35.58 64.475L28 71.557L44.962 85.79L50.62 77.096L35.58 64.475Z" fill="#00D1FF"/>
</g>
<defs>
<filter id="filter0_d_1_818" x="18" y="16" width="75.784" height="79.79" filterUnits="userSpaceOnUse" color-interpolation-filters="sRGB">
<feFlood flood-opacity="0" result="BackgroundImageFix"/>
<feColorMatrix in="SourceAlpha" type="matrix" values="0 0 0 0 0 0 0 0 0 0 0 0 0 0 0 0 0 0 127 0" result="hardAlpha"/>
<feOffset/>
<feGaussianBlur stdDeviation="5"/>
<feComposite in2="hardAlpha" operator="out"/>
<feColorMatrix type="matrix" values="0 0 0 0 0 0 0 0 0 0.819608 0 0 0 0 1 0 0 0 0.4 0"/>
<feBlend mode="normal" in2="BackgroundImageFix" result="effect1_dropShadow_1_818"/>
<feBlend mode="normal" in="SourceGraphic" in2="effect1_dropShadow_1_818" result="shape"/>
</filter>
</defs>
</svg>
