<svg width="112" height="112" viewBox="0 0 112 112" fill="none" xmlns="http://www.w3.org/2000/svg">
<path d="M111.021 55.5107L55.5107 0L3.42338e-06 55.5107L55.5107 111.021L111.021 55.5107Z" fill="#0F0F0F"/>
<path d="M55.5107 1.41421L109.607 55.5107L55.5107 109.607L1.41422 55.5107L55.5107 1.41421Z" stroke="#00D1FF" stroke-width="2"/>
<g filter="url(#filter0_d_1_797)">
<path d="M47.7565 83.9988C47.6158 83.9183 47.4798 83.7743 47.3343 83.7659C44.7541 83.6002 42.4098 82.6818 40.2314 81.3877C37.3601 79.6818 35.0819 77.3733 33.6312 74.3193C33.0069 73.0048 32.4693 71.6626 32.1974 70.2293C32.2479 70.1992 32.2985 70.1692 32.349 70.1392C32.45 70.3013 32.5883 70.4525 32.6473 70.629C33.6433 73.611 35.0975 76.3301 37.3746 78.5366C39.2522 80.3565 41.4619 81.6422 43.9494 82.5006C46.7353 83.4622 49.5728 83.3601 52.4284 83.1236C53.0575 83.072 53.6758 82.8739 54.2977 82.7431C54.3241 82.7947 54.3506 82.8475 54.3771 82.8991C54.2532 83 54.1425 83.1656 54.0042 83.1908C52.9228 83.3925 51.8342 83.5618 50.7516 83.7563C50.4377 83.8127 50.1322 83.9171 49.823 84C49.1338 83.9988 48.4457 83.9988 47.7565 83.9988Z" fill="#00D1FF" stroke="#00D1FF"/>
<path d="M70.374 55.6086C70.5207 63.4165 63.834 70.7875 54.6056 70.2389C47.1358 69.7947 41.1431 63.8403 40.7426 56.3001C40.2614 47.2353 47.5304 40.072 56.6433 40.6302C63.7871 41.0672 70.5508 47.042 70.374 55.6086ZM62.6444 45.9123C61.1059 44.8031 59.4411 44.072 57.5827 43.7899C57.1328 43.7215 56.677 43.5498 56.2355 43.5834C55.0411 43.6746 53.8466 43.8067 52.6666 44.0048C51.1955 44.2521 49.8964 44.9387 48.6935 45.7983C48.5829 45.8775 48.5095 46.1656 48.566 46.2929C48.969 47.2053 48.981 47.2004 48.2882 47.8943C48.1402 48.0432 47.9646 48.1728 47.8467 48.3433C47.4883 48.8583 47.0949 48.8763 46.6258 48.4934C46.3407 48.2605 46.046 48.2605 45.8608 48.6146C45.3423 49.6062 44.7614 50.575 44.3524 51.611C43.674 53.3301 43.7052 55.1548 43.84 56.9652C43.8893 57.623 43.9723 58.3085 44.2117 58.9135C44.6218 59.9496 45.1487 60.9412 45.6623 61.9328C45.969 62.5258 46.1158 62.551 46.6896 62.1969C47.0829 61.9544 47.4005 61.9147 47.7276 62.3145C47.9923 62.6374 48.3002 62.9315 48.6202 63.2017C49.0339 63.5498 49.0977 63.9303 48.7705 64.3433C48.3988 64.8151 48.6021 65.1056 49.0376 65.3373C49.6715 65.6746 50.2958 66.0384 50.9525 66.3265C52.2901 66.9135 53.6987 67.2473 55.1638 67.2005C56.2054 67.1668 57.2567 67.0948 58.2816 66.9159C59.7804 66.6542 61.1348 66 62.3894 65.1404C62.6516 64.9604 62.731 64.8079 62.5397 64.4886C62.0862 63.7335 62.1091 63.7191 62.7526 63.0756C62.8741 62.9544 62.9956 62.8319 63.1171 62.7107C63.8268 62.0024 63.8376 61.9832 64.6808 62.461C64.9575 62.6182 65.103 62.5798 65.2305 62.3325C65.7526 61.3217 66.3288 60.3337 66.7738 59.2905C67.3753 57.8799 67.3969 56.3529 67.356 54.8535C67.3295 53.8919 67.2429 52.8883 66.9314 51.9904C66.5441 50.8727 65.8933 49.8475 65.3677 48.7755C65.1848 48.4033 64.9683 48.2893 64.6171 48.5726C64.089 48.9988 63.6512 48.8775 63.2831 48.3433C63.2302 48.2665 63.1508 48.2053 63.0834 48.138C62.1259 47.1872 62.1259 47.1872 62.6444 45.9123Z" fill="#00D1FF"/>
<path d="M73.7011 69.4706C72.5584 69.1357 71.6057 68.8356 70.6398 68.5835C70.0192 68.4214 69.3816 68.3181 68.7477 68.2161C68.3424 68.1501 68.0537 68.3554 68.008 68.7539C67.9358 69.3734 67.8829 70.0012 67.8985 70.6243C67.919 71.4214 68.0032 72.2185 68.0825 73.0132C68.1271 73.4562 68.2161 73.8956 68.3147 74.5282C67.7301 74.2281 67.2959 73.9952 66.852 73.7803C65.7442 73.2437 64.6339 72.7107 63.5189 72.1885C63.336 72.1033 63.1207 72.03 62.9247 72.0372C62.4616 72.0552 62.2655 71.838 62.2126 71.2677C62.6492 71.2941 63.0678 71.2485 63.4419 71.3554C64.3164 71.6063 65.168 71.934 66.0305 72.2269C66.7137 72.4586 66.9627 72.2725 67.018 71.5306C67.089 70.5835 67.1708 69.6375 67.2658 68.6927C67.3464 67.8908 67.6375 67.5847 68.4482 67.6159C69.283 67.6483 70.113 67.7983 70.9466 67.8824C71.1462 67.9028 71.3519 67.868 71.5552 67.8584C71.5239 67.6651 71.5215 67.4622 71.4578 67.2809C71.1715 66.461 70.8251 65.6591 70.5833 64.826C70.368 64.0865 70.6314 63.7611 71.4349 63.6447C72.1903 63.5354 72.9505 63.467 73.7059 63.3578C73.896 63.3302 74.074 63.2149 74.2581 63.1393C74.1775 62.9544 74.1282 62.7479 74.0127 62.5883C73.5556 61.9556 73.0564 61.3518 72.6137 60.7083C72.1543 60.0408 72.2144 59.5066 72.8507 59.0132C73.6939 58.3602 74.578 57.7575 75.4621 57.1585C75.8663 56.8836 75.9096 56.6699 75.5235 56.3301C74.8066 55.6999 74.1113 55.0456 73.4293 54.3782C72.5103 53.4766 72.4381 52.9892 73.0432 51.844C73.5243 50.9364 74.0235 50.0372 74.5347 49.1465C74.7669 48.7419 74.7464 48.515 74.2545 48.3349C73.244 47.9628 72.2385 47.5666 71.2605 47.1165C69.9494 46.5114 69.9662 45.958 70.2056 44.6519C70.291 44.1861 70.4522 43.7335 70.5472 43.2689C70.6386 42.8247 70.6904 42.3734 70.7722 41.8379C70.5424 41.8524 70.3487 41.8644 70.1539 41.8752C69.0352 41.9388 67.9178 42.0372 66.7991 42.0504C66.2241 42.0576 65.9619 41.6507 65.998 41.0852C66.0677 40.0048 66.1495 38.9256 66.2193 37.8451C66.2349 37.6014 66.2217 37.3565 66.2217 36.9916C66.0148 37.1225 65.8681 37.2113 65.7249 37.3061C64.7434 37.9592 63.7847 38.6507 62.7731 39.2545C62.1729 39.6123 61.7663 39.4934 61.4295 38.886C60.9532 38.0252 60.5622 37.1153 60.1412 36.2233C59.7792 35.4538 59.7515 35.4454 59.1356 36.0012C58.4319 36.6363 57.7259 37.2677 57.021 37.9016C56.9464 37.8656 56.8706 37.8307 56.7961 37.7947C56.8646 37.5162 56.8526 37.1741 57.015 36.97C57.9388 35.8067 58.9023 34.6771 59.8549 33.5366C59.9704 33.3986 60.0967 33.2689 60.2808 33.0636C60.5069 33.91 60.6933 34.6531 60.905 35.389C61.1504 36.2425 61.379 37.1044 61.6869 37.9364C62.0117 38.8139 62.4784 38.9436 63.1965 38.2809C64.3296 37.2341 65.4435 36.1549 66.4587 34.9952C67.4739 33.8355 68.358 32.5606 69.3011 31.3373C69.4141 31.1909 69.538 31.0528 69.7605 30.9568C69.7401 31.066 69.7389 31.1813 69.698 31.2821C69.0232 32.9352 68.281 34.5642 67.6856 36.2449C67.2189 37.5642 66.8953 38.9388 66.5802 40.3061C66.3745 41.1993 66.9928 41.6423 67.9671 41.3806C69.3973 40.9964 70.8287 40.6147 72.2613 40.2365C72.3443 40.2149 72.4405 40.2425 72.6186 40.2521C72.3227 41.0036 72.04 41.6975 71.7766 42.3974C71.477 43.1957 71.1667 43.9916 70.9141 44.8055C70.6254 45.7323 70.866 46.2473 71.7838 46.5306C72.8182 46.85 73.8792 47.0876 74.9365 47.3265C75.5103 47.4562 76.1009 47.5126 76.683 47.6063C77.1582 47.6831 77.0788 47.9088 76.8442 48.1921C76.1502 49.0288 75.4417 49.856 74.7801 50.7179C74.3531 51.2737 73.997 51.8836 73.6109 52.4706C73.2849 52.964 73.4269 53.407 73.8419 53.7347C74.6153 54.3458 75.4116 54.9316 76.2211 55.4946C76.9188 55.9796 77.6477 56.4166 78.4452 56.928C77.6237 57.3121 76.8647 57.6507 76.1213 58.0204C75.2865 58.4358 74.4529 58.8584 73.6422 59.3193C73.0119 59.6771 72.894 60.1321 73.3691 60.6819C74.1522 61.5895 75.0147 62.4298 75.8495 63.2941C76.0828 63.5354 76.3366 63.7563 76.7059 64.1045C76.3607 64.1249 76.1827 64.1441 76.0058 64.1441C74.8006 64.1465 73.5965 64.1417 72.3912 64.1465C72.1831 64.1477 71.9642 64.1489 71.7681 64.2101C71.1426 64.4034 71.0199 64.6195 71.3255 65.2101C71.945 66.4058 72.6186 67.5739 73.2729 68.7527C73.3776 68.946 73.4979 69.1333 73.7011 69.4706Z" fill="#00D1FF" stroke="#00D1FF"/>
<path d="M51.4216 75.3733C51.904 74.9447 52.3478 74.5378 52.8061 74.1476C53.2993 73.7275 53.7853 73.2941 54.3157 72.9267C54.4769 72.8151 54.7752 72.9015 55.011 72.8979C54.9051 73.108 54.8414 73.3577 54.6874 73.5234C53.8995 74.3709 53.072 75.1812 52.2925 76.036C51.9076 76.4561 51.5997 76.9459 51.2472 77.3961C51.1522 77.5186 51.0199 77.611 50.8419 77.7755C50.6133 76.8883 50.4305 76.1008 50.2055 75.3265C49.9577 74.473 49.7015 73.6194 49.3912 72.7875C49.1566 72.1584 48.6683 72.042 48.115 72.4537C46.538 73.6254 45.2702 75.1008 44.0625 76.6302C43.1796 77.7491 42.322 78.8883 41.4535 80.018C41.4042 79.9964 41.3536 79.9736 41.3043 79.9519C41.5172 79.4357 41.7229 78.9171 41.9443 78.4057C42.939 76.1032 43.9073 73.7923 44.3825 71.3121C44.439 71.0156 44.5557 70.7239 44.5713 70.4261C44.6134 69.6326 44.3861 69.3901 43.6102 69.473C42.9715 69.5414 42.34 69.695 41.7109 69.8355C41.1925 69.9507 40.6812 70.0984 40.1688 70.2377C39.6648 70.3745 39.1632 70.5186 38.4944 70.7058C38.7097 70.1476 38.8697 69.7395 39.0261 69.3289C39.4158 68.2989 39.8164 67.2737 40.1893 66.2377C40.5838 65.1404 40.0822 64.4033 38.8144 64.15C37.4359 63.8739 36.0574 63.5918 34.6813 63.3013C34.4841 63.2593 34.3 63.1536 34.021 63.042C34.199 62.8127 34.3313 62.6434 34.4612 62.4718C35.4825 61.1224 36.5085 59.7743 37.5225 58.4201C37.8389 57.9964 37.7547 57.5594 37.3842 57.2401C36.7082 56.6578 36.0105 56.0948 35.2828 55.5798C34.602 55.0984 33.8658 54.695 33.1597 54.2461C33.0454 54.1728 32.9649 54.0456 32.8686 53.9435C32.9805 53.8583 33.0827 53.7527 33.2066 53.6902C34.5875 53.0072 35.9949 52.3745 37.3457 51.6374C38.2298 51.1548 38.2623 50.6038 37.5466 49.8583C36.7142 48.9916 35.8457 48.1584 34.9965 47.3073C34.8269 47.1368 34.6693 46.9543 34.4937 46.7647C35.3934 46.7647 36.2379 46.7875 37.0799 46.7587C37.8786 46.731 38.6785 46.6746 39.4724 46.581C39.9764 46.5222 40.1315 46.2172 39.8898 45.7695C39.2222 44.533 38.5233 43.3133 37.8377 42.0864C37.7474 41.9255 37.662 41.7623 37.4924 41.4477C37.8593 41.5306 38.0855 41.575 38.3068 41.6326C39.6275 41.9771 40.9435 42.3397 42.269 42.6638C42.6888 42.7671 43.0605 42.6014 43.1279 42.1344C43.2109 41.5558 43.2638 40.9663 43.2482 40.3841C43.2265 39.605 43.1363 38.8283 43.0581 38.0516C43.0184 37.6566 42.9294 37.2665 42.8873 36.8715C42.8741 36.7382 42.9402 36.5978 42.9703 36.4609C43.0918 36.4909 43.2229 36.5006 43.3312 36.5558C44.6687 37.228 46.0003 37.9099 47.3391 38.5786C47.5917 38.7046 47.8984 38.7382 48.1258 38.8943C48.299 39.0132 48.3844 39.2569 48.5095 39.4453C48.4602 39.5042 48.4097 39.563 48.3603 39.6218C47.7276 39.4573 47.0901 39.3121 46.4646 39.1236C45.8668 38.9435 45.2894 38.6938 44.6868 38.533C44.5677 38.5006 44.261 38.7142 44.2417 38.8427C44.1479 39.4813 44.1383 40.132 44.0685 40.7755C44.0024 41.3793 43.9398 41.9904 43.7967 42.5786C43.692 43.012 43.3769 43.3157 42.8729 43.2725C41.925 43.1908 40.9808 43.084 40.0329 43.0072C39.47 42.9615 39.4375 43.0444 39.6456 43.5666C39.9824 44.4105 40.3035 45.2617 40.6043 46.12C40.7823 46.6278 40.6043 46.9771 40.0618 47.0876C39.1332 47.2773 38.1901 47.4009 37.2531 47.5546C37.1075 47.5786 36.9632 47.611 36.6913 47.665C37.2603 48.4261 37.7775 49.1164 38.2936 49.8079C39.0838 50.8643 38.9648 51.4609 37.8617 52.2028C36.992 52.7875 36.1464 53.4045 35.2238 54.0528C35.3682 54.2317 35.4656 54.3865 35.5943 54.5066C36.2222 55.0912 36.8537 55.6746 37.4948 56.2449C38.6219 57.2461 38.7374 57.7959 38.0337 59.138C37.5827 59.9976 37.1232 60.8547 36.618 61.683C36.3377 62.1416 36.4628 62.3565 36.9103 62.5306C37.8461 62.8931 38.7783 63.2629 39.7057 63.6458C40.9338 64.1536 41.3007 64.9615 40.9579 66.2557C40.7306 67.114 40.5513 67.9844 40.3096 69.0216C41.178 68.9579 41.943 68.9039 42.7069 68.8451C42.7814 68.8391 42.8524 68.7899 42.927 68.7827C44.4161 68.6422 45.3243 68.569 45.1403 70.5462C45.0597 71.4141 44.9743 72.2821 44.8997 73.15C44.8804 73.3697 44.8973 73.5918 44.8973 73.9483C45.1547 73.7659 45.3135 73.6506 45.4747 73.5378C46.3335 72.9375 47.1719 72.3037 48.0596 71.7491C48.9197 71.2124 49.4598 71.3781 49.9169 72.2833C50.386 73.2148 50.7973 74.1752 51.2364 75.1212C51.2556 75.168 51.2977 75.2088 51.4216 75.3733Z" fill="#00D1FF" stroke="#00D1FF"/>
<path d="M38.0674 36.6482C41.9334 28.2941 53.9272 25.2353 61.3609 30.4405C60.8401 30.7599 60.3818 30.9375 59.8056 30.527C58.3213 29.473 56.624 28.9411 54.8366 28.7167C53.8562 28.5942 52.8579 28.491 51.8751 28.5378C48.9293 28.6794 46.2144 29.5534 43.7618 31.2293C42.1151 32.3553 40.727 33.7083 39.7069 35.4273C39.6203 35.5738 39.5277 35.7215 39.4675 35.8799C39.2258 36.5078 38.7735 36.7479 38.0674 36.6482Z" fill="#00D1FF" stroke="#00D1FF"/>
<path d="M80.7355 61.2197C80.2447 60.7611 80.1533 60.2701 80.4372 59.8404C81.5703 58.1273 82.221 56.2521 82.3798 54.2053C82.4339 53.5054 82.5783 52.8031 82.553 52.1069C82.4616 49.6531 81.954 47.2761 80.7042 45.1453C79.9596 43.8752 79.0972 42.6411 78.1036 41.5582C77.335 40.7203 76.3186 40.084 75.3406 39.473C74.7512 39.1045 74.2713 38.7851 74.3807 37.8956C77.7043 39.5342 80.0523 42.0756 81.5402 45.3409C83.9928 50.7275 83.7643 56.0336 80.7355 61.2197Z" fill="#00D1FF" stroke="#00D1FF"/>
<path d="M73.1189 74.1165C73.0793 74.2761 73.0732 74.3866 73.0263 74.4766C72.0171 76.4214 70.5953 78.024 68.8969 79.3926C67.1527 80.7983 65.1728 81.7803 63.0341 82.3758C60.6801 83.03 58.2756 83.1741 55.8338 82.7803C53.8935 82.4682 52.0904 81.8295 50.386 80.8848C50.2043 80.7839 50.0804 80.5786 49.9301 80.4214C50.137 80.3241 50.3403 80.1621 50.5532 80.1477C50.7793 80.1321 51.0451 80.2065 51.2412 80.3265C52.5487 81.1309 53.9248 81.7683 55.4597 81.9652C56.7395 82.1297 58.035 82.3902 59.31 82.3277C63.3288 82.1297 66.8292 80.6135 69.6631 77.7443C70.4546 76.9436 71.0789 75.952 71.6539 74.9748C72.0087 74.377 72.4706 74.2197 73.1189 74.1165Z" fill="#00D1FF" stroke="#00D1FF"/>
<path d="M30.3931 49.6807C30.8911 50.1284 30.9753 50.6326 30.683 51.072C29.5559 52.7683 28.9076 54.6266 28.7596 56.6579C28.6983 57.5102 28.5178 58.3709 28.5864 59.2113C28.8294 62.1873 29.6666 64.9736 31.4504 67.4286C32.5944 69.0036 33.9235 70.3685 35.6268 71.3433C35.7086 71.3902 35.782 71.4646 35.8698 71.4898C36.5398 71.6783 36.7984 72.1405 36.7719 72.8031C35.1083 72.5762 31.3133 69.3241 29.6606 65.7155C27.1778 60.2881 27.3294 54.9544 30.3931 49.6807Z" fill="#00D1FF" stroke="#00D1FF"/>
<path d="M40.8388 32.2761C40.6812 32.3781 40.5369 32.521 40.3649 32.5762C35.0482 34.2713 31.0571 37.4766 28.8679 42.6927C28.2051 44.2725 27.7095 45.9208 27.7252 47.6663C27.7384 49.2041 27.7528 50.7431 27.8202 52.2797C27.843 52.8031 28.0343 53.3193 28.1293 53.8415C28.1486 53.9472 28.0764 54.0684 28.0451 54.1837C27.9525 54.0936 27.7985 54.0156 27.7781 53.9124C27.5808 52.8896 27.4016 51.8631 27.2272 50.8367C27.1394 50.3169 27.0179 49.7947 27.0046 49.2725C26.9421 46.94 27.4774 44.7131 28.3434 42.569C29.2684 40.2809 30.6385 38.2725 32.3923 36.5306C34.0967 34.8355 36.1164 33.6326 38.3669 32.8127C39.1428 32.5306 39.9379 32.3013 40.7233 32.0468C40.7618 32.1236 40.8003 32.2005 40.8388 32.2761Z" fill="#00D1FF" stroke="#00D1FF"/>
<path d="M70.3487 78.581C70.4943 78.491 70.629 78.3674 70.7866 78.3145C73.386 77.455 75.7833 76.2269 77.8486 74.413C79.8766 72.6327 81.3501 70.4646 82.3593 67.9604C83.2495 65.7503 83.5815 63.449 83.5153 61.0996C83.4792 59.8139 83.2158 58.5354 83.063 57.2533C83.0402 57.0576 83.0594 56.8559 83.146 56.6591C84.8938 61.6639 84.1853 66.4118 81.4981 70.8727C78.9673 75.0744 75.2191 77.6471 70.4714 78.7611C70.4305 78.7011 70.3896 78.6411 70.3487 78.581Z" fill="#00D1FF" stroke="#00D1FF"/>
<path d="M78.8349 40.7407C78.7255 40.617 78.5607 40.5102 78.5162 40.3673C77.7163 37.7947 76.4906 35.4502 74.75 33.3877C73.1273 31.4646 71.1498 29.9904 68.8271 29.0276C67.6423 28.5366 66.4153 28.0432 65.1608 27.8463C63.591 27.6014 61.9732 27.5954 60.377 27.6134C59.3954 27.6242 58.4175 27.8763 57.4359 28.0072C57.2134 28.0372 56.9825 28.012 56.7599 27.952C64.4222 24.8979 76.422 29.2005 78.8349 40.7407Z" fill="#00D1FF" stroke="#00D1FF"/>
<path d="M55.5354 45.8259C61.0807 45.922 64.9346 49.9376 65.18 54.9232C65.4495 60.3962 61.4547 65.1729 55.1974 65.006C50.078 64.8704 46.2108 61.0744 45.9618 55.9388C45.6828 50.2329 49.9818 45.9412 55.5354 45.8259Z" fill="#00D1FF"/>
</g>
<defs>
<filter id="filter0_d_1_797" x="16.4997" y="16.5011" width="78.1018" height="77.999" filterUnits="userSpaceOnUse" color-interpolation-filters="sRGB">
<feFlood flood-opacity="0" result="BackgroundImageFix"/>
<feColorMatrix in="SourceAlpha" type="matrix" values="0 0 0 0 0 0 0 0 0 0 0 0 0 0 0 0 0 0 127 0" result="hardAlpha"/>
<feOffset/>
<feGaussianBlur stdDeviation="5"/>
<feComposite in2="hardAlpha" operator="out"/>
<feColorMatrix type="matrix" values="0 0 0 0 0 0 0 0 0 0.819608 0 0 0 0 1 0 0 0 0.4 0"/>
<feBlend mode="normal" in2="BackgroundImageFix" result="effect1_dropShadow_1_797"/>
<feBlend mode="normal" in="SourceGraphic" in2="effect1_dropShadow_1_797" result="shape"/>
</filter>
</defs>
</svg>
