<svg width="112" height="112" viewBox="0 0 112 112" fill="none" xmlns="http://www.w3.org/2000/svg">
<path d="M111.021 55.5107L55.5107 0L3.3941e-05 55.5107L55.5107 111.021L111.021 55.5107Z" fill="#0F0F0F"/>
<path d="M55.5107 1.41421L109.607 55.5107L55.5107 109.607L1.41425 55.5107L55.5107 1.41421Z" stroke="#FF8900" stroke-width="2"/>
<g filter="url(#filter0_d_1_1031)">
<g opacity="0.5">
<path d="M48.326 59.383L66.17 41.536L84.011 59.383V50.483L66.17 32.642L48.326 50.486V59.383Z" fill="#FF9B26"/>
<path d="M50.239 62.644L66.17 46.713L82.101 62.644V73.981L66.17 58.049L50.239 73.981V62.644Z" fill="#FF9B26" stroke="#FFCD4B" stroke-miterlimit="10"/>
<path d="M51.696 70.465L66.171 55.99L80.646 70.465V63.248L66.171 48.773L51.696 63.248V70.465Z" fill="#FF9B26"/>
<path d="M54.276 80.852L66.171 68.957L78.071 80.852V74.922L66.171 63.022L54.276 74.922V80.852Z" fill="#FF9B26"/>
</g>
<path d="M39.886 22C40.229 22.055 40.571 22.114 40.916 22.163C41.633 22.263 42.351 22.363 43.069 22.471C43.1068 22.4792 43.1427 22.4948 43.1745 22.5169C43.2062 22.5391 43.2333 22.5673 43.254 22.6C43.7207 23.4113 44.1837 24.226 44.643 25.044C44.692 25.1463 44.7193 25.2576 44.723 25.371C44.817 26.571 44.906 27.763 44.997 28.959C45.007 29.089 45.023 29.218 45.037 29.359L45.68 29.294L45.98 26.68C46.254 26.662 46.517 26.642 46.78 26.626C47.575 26.58 48.37 26.535 49.165 26.483C49.295 26.474 49.343 26.525 49.383 26.637C49.683 27.459 49.983 28.281 50.291 29.103C50.306 29.144 50.323 29.184 50.329 29.203C50.703 29.203 51.063 29.203 51.422 29.203C51.468 29.203 51.522 29.146 51.559 29.103C51.729 28.897 51.889 28.682 52.065 28.482C52.0911 28.4557 52.1223 28.4349 52.1567 28.421C52.1911 28.4071 52.2279 28.4003 52.265 28.401C53.4083 28.525 54.5507 28.6543 55.692 28.789C55.7997 28.8028 55.9053 28.8304 56.006 28.871C56.456 29.049 56.906 29.236 57.354 29.414C57.4279 29.4424 57.5081 29.45 57.586 29.436C58.338 29.284 59.086 29.123 59.84 28.971C59.9181 28.9556 59.9989 28.9615 60.074 28.988C60.978 29.3353 61.8807 29.6867 62.782 30.042C62.8598 30.0759 62.9242 30.1346 62.965 30.209C63.126 30.515 63.275 30.829 63.444 31.173L63.838 29.891L65.004 29.991C64.978 30.298 64.955 30.591 64.928 30.881L64.608 34.381C64.5133 35.407 64.4183 36.433 64.323 37.459C64.1763 39.0663 64.0307 40.674 63.886 42.282C63.804 43.182 63.703 44.082 63.643 44.982C63.6475 45.2872 63.681 45.5912 63.743 45.89C63.803 46.355 63.871 46.819 63.926 47.285C63.9293 47.318 63.9261 47.3513 63.9164 47.3831C63.9068 47.4148 63.891 47.4444 63.87 47.47C63.18 48.146 62.485 48.816 61.77 49.503C61.633 49.351 61.492 49.209 61.37 49.053C61.343 49.019 61.361 48.931 61.384 48.879C61.612 48.368 61.841 47.854 62.084 47.351C62.1999 47.1255 62.2527 46.873 62.237 46.62C62.216 46.277 62.22 45.932 62.204 45.589C62.1998 45.5204 62.1747 45.4548 62.132 45.401C61.988 45.23 61.837 45.064 61.679 44.906C61.6549 44.8858 61.6266 44.8711 61.5962 44.8632C61.5657 44.8552 61.5339 44.8541 61.503 44.86C61.261 44.934 61.022 45.023 60.757 45.116C60.81 44.655 60.857 44.216 60.917 43.78C60.925 43.721 60.993 43.666 61.04 43.616C61.174 43.473 61.392 43.35 61.426 43.188C61.46 43.026 61.316 42.825 61.243 42.645C60.914 41.827 60.571 41.015 60.26 40.191C60.187 39.9406 60.1434 39.6825 60.13 39.422C60.0387 38.6887 59.9517 37.958 59.869 37.23C59.778 36.419 59.69 35.608 59.6 34.796C59.59 34.705 59.574 34.613 59.559 34.513L54.459 36.238C54.405 36.969 54.354 37.72 54.291 38.469C54.196 39.588 54.091 40.706 53.991 41.823C53.982 41.923 53.945 42.002 53.834 42.018C53.51 42.064 53.418 42.246 53.413 42.57C53.401 43.497 53.324 44.423 53.322 45.35C53.3467 45.7685 53.4022 46.1846 53.488 46.595C53.635 47.595 53.794 48.595 53.923 49.603C53.9299 49.7534 53.9744 49.8997 54.0525 50.0285C54.1306 50.1573 54.2398 50.2644 54.37 50.34C55.47 51.025 56.55 51.747 57.634 52.46C57.7194 52.5168 57.793 52.5894 57.851 52.674C58.6277 53.8273 59.4017 54.982 60.173 56.138C60.206 56.187 60.241 56.238 60.286 56.301L60.939 55.85C60.985 56.134 61.027 56.398 61.067 56.664C61.216 57.649 61.367 58.634 61.511 59.62C61.5229 59.7109 61.515 59.8034 61.488 59.891C60.5627 62.9903 59.6333 66.0873 58.7 69.182C58.6686 69.3023 58.6501 69.4257 58.645 69.55C58.5817 70.3774 58.6994 71.2087 58.99 71.986C59.164 72.46 59.29 72.953 59.424 73.44C59.4481 73.5212 59.4481 73.6078 59.424 73.689C59.067 74.717 58.701 75.744 58.344 76.769C58.3396 76.7922 58.3306 76.8142 58.3175 76.8339C58.3045 76.8535 58.2876 76.8704 58.268 76.8834C58.2483 76.8965 58.2262 76.9054 58.2031 76.9098C58.1799 76.9142 58.1561 76.9139 58.133 76.909C57.338 76.863 56.543 76.827 55.748 76.779C55.7136 76.7734 55.6809 76.7604 55.6521 76.7409C55.6232 76.7214 55.599 76.6958 55.581 76.666C55.053 75.5993 54.53 74.5327 54.012 73.466C53.9834 73.3977 53.9764 73.3224 53.992 73.25C54.198 72.2427 54.4073 71.2357 54.62 70.229C54.6389 70.1777 54.6425 70.122 54.6302 70.0687C54.618 70.0154 54.5904 69.9669 54.551 69.929C54.2706 69.6305 54.0994 69.2461 54.065 68.838C53.934 68.062 53.772 67.286 53.631 66.509C53.6222 66.4325 53.6422 66.3556 53.687 66.293C53.846 66.078 54.015 65.871 54.187 65.668C54.2225 65.6321 54.2484 65.5877 54.2622 65.5391C54.276 65.4905 54.2773 65.4392 54.266 65.39C54.022 63.99 53.784 62.59 53.545 61.19C53.545 61.169 53.536 61.149 53.53 61.123L51.749 61.023C51.226 60.993 50.703 60.961 50.181 60.938C50.0955 60.9337 50.0103 60.9494 49.932 60.984C49.325 61.267 48.722 61.559 48.115 61.842C48.0686 61.8623 48.0272 61.8924 47.9935 61.9302C47.9599 61.968 47.9348 62.0126 47.92 62.061C46.5067 65.9537 45.0897 69.8453 43.669 73.736C43.6517 73.7747 43.6448 73.8173 43.6488 73.8595C43.6528 73.9018 43.6677 73.9422 43.692 73.977C44.7587 75.7003 45.8253 77.4247 46.892 79.15C46.9107 79.188 46.9403 79.2196 46.9769 79.2408C47.0136 79.2619 47.0557 79.2718 47.098 79.269C47.524 79.269 47.949 79.289 48.377 79.294C48.4166 79.289 48.4566 79.2985 48.4897 79.3208C48.5228 79.343 48.5467 79.3765 48.557 79.415C48.775 79.978 49.002 80.538 49.22 81.102C49.2433 81.1726 49.2478 81.2481 49.233 81.321C49.112 81.974 48.982 82.621 48.862 83.278C48.8493 83.3564 48.8576 83.4368 48.886 83.511C49.328 84.6583 49.774 85.8043 50.224 86.949C50.2441 86.9921 50.2529 87.0395 50.2496 87.087C50.2462 87.1344 50.2309 87.1802 50.205 87.22C49.587 88.2973 48.972 89.3767 48.36 90.458C48.34 90.5042 48.3054 90.5426 48.2615 90.5673C48.2176 90.5921 48.1669 90.6018 48.117 90.595C47.686 90.579 47.255 90.576 46.824 90.558C46.7895 90.5547 46.7562 90.5441 46.7261 90.5269C46.6961 90.5096 46.6702 90.4861 46.65 90.458C46.1113 89.4673 45.578 88.474 45.05 87.478C45.0185 87.4163 45.0057 87.3468 45.013 87.278C45.121 86.49 45.235 85.703 45.345 84.915C45.3513 84.8626 45.3422 84.8094 45.319 84.762C45.076 84.299 44.831 83.837 44.58 83.378C44.5405 83.3142 44.4863 83.2607 44.422 83.222C43.673 82.735 42.922 82.252 42.17 81.766C42.1066 81.7303 42.0492 81.6847 42 81.631C40.1407 79.3537 38.2783 77.0707 36.413 74.782L36.926 74.195C36.9908 74.1072 37.0638 74.0259 37.144 73.952C37.2317 73.8714 37.3003 73.7721 37.3448 73.6616C37.3893 73.551 37.4085 73.4319 37.401 73.313C37.447 72.765 37.501 72.213 37.543 71.669C37.5451 71.6318 37.5391 71.5947 37.5253 71.5601C37.5114 71.5255 37.4902 71.4944 37.463 71.469C37.3032 71.3756 37.1779 71.233 37.1058 71.0625C37.0337 70.892 37.0187 70.7027 37.063 70.523C37.163 69.679 37.197 68.823 37.263 67.979C37.321 67.174 37.405 66.37 37.428 65.564C37.4793 64.798 37.6151 64.0401 37.833 63.304C38.3343 61.3213 38.8343 59.338 39.333 57.354C39.342 57.318 39.356 57.283 39.372 57.238L40.212 57.786C40.265 57.564 40.312 57.356 40.363 57.147C40.6423 55.947 40.921 54.7493 41.199 53.554C41.216 53.4697 41.2183 53.3831 41.206 53.298C41.085 52.325 40.948 51.354 40.841 50.379C40.6961 49.2065 40.4827 48.0436 40.202 46.896C40.102 46.472 40.015 46.047 39.928 45.642C39.638 45.642 39.36 45.636 39.083 45.642C39.0384 45.6476 38.9933 45.638 38.9548 45.6148C38.9163 45.5915 38.8868 45.556 38.871 45.514C38.484 44.757 38.091 44.004 37.699 43.251C37.669 43.193 37.637 43.137 37.599 43.068C37.546 43.089 37.499 43.106 37.45 43.129L33.481 45.05C33.4368 45.068 33.398 45.0971 33.3686 45.1347C33.3391 45.1722 33.3199 45.2168 33.313 45.264C32.939 47.132 32.558 48.998 32.192 50.864C32.1727 51.0479 32.1883 51.2339 32.238 51.412C32.2953 51.6718 32.2839 51.942 32.205 52.196C32.1841 52.2742 32.1894 52.3571 32.22 52.432C32.417 52.8706 32.4863 53.3558 32.42 53.832C32.3968 54.0573 32.3855 54.2836 32.386 54.51C32.178 54.352 32.002 54.21 31.815 54.079C31.7542 54.045 31.6843 54.0307 31.615 54.038C31.5305 54.037 31.4467 54.0531 31.3686 54.0854C31.2905 54.1177 31.2197 54.1655 31.1606 54.2258C31.1014 54.2862 31.0551 54.3579 31.0244 54.4366C30.9937 54.5154 30.9793 54.5995 30.982 54.684C30.9592 54.889 30.9115 55.0905 30.84 55.284C30.8132 55.36 30.8066 55.4416 30.821 55.5209C30.8354 55.6002 30.8702 55.6743 30.922 55.736C31.262 56.243 31.587 56.76 31.922 57.268C31.9517 57.3015 31.9682 57.3447 31.9682 57.3895C31.9682 57.4343 31.9517 57.4775 31.922 57.511C31.671 57.879 31.429 58.254 31.177 58.636L29.947 57.7C29.359 57.2467 28.771 56.795 28.183 56.345C28.1415 56.3166 28.1098 56.2761 28.0919 56.2291C28.074 56.1821 28.0709 56.1308 28.083 56.082C28.1823 55.238 28.277 54.3933 28.367 53.548C28.3736 53.4231 28.3736 53.2979 28.367 53.173C28.367 51.945 28.383 50.717 28.367 49.49C28.348 48.29 28.294 47.09 28.252 45.89C28.218 44.963 28.179 44.036 28.142 43.11C28.1007 42.228 28.062 41.3457 28.026 40.463C28.0209 40.4082 28.0122 40.3537 28 40.3V39.809C28.239 39.788 28.479 39.772 28.717 39.746C28.7376 39.7412 28.759 39.7405 28.7799 39.7441C28.8008 39.7477 28.8208 39.7555 28.8386 39.767C28.8564 39.7785 28.8717 39.7934 28.8837 39.8109C28.8956 39.8285 28.9039 39.8482 28.908 39.869C29.108 40.383 29.308 40.893 29.508 41.405C29.527 41.453 29.549 41.5 29.578 41.566C29.645 41.488 29.693 41.429 29.744 41.374C30.0394 41.0035 30.3587 40.6527 30.7 40.324C31.585 39.564 32.5 38.844 33.41 38.108C33.625 37.934 33.838 37.758 34.053 37.582L33.763 37.125L36.153 36.225C35.953 35.438 35.753 34.664 35.562 33.888C35.5565 33.8595 35.5576 33.8301 35.565 33.8021C35.5724 33.774 35.5861 33.748 35.605 33.726C36.139 33.286 36.678 32.853 37.213 32.421L39.82 34.727L40.14 34.113C40.089 34.072 40.052 34.04 40.013 34.013C39.522 33.633 39.028 33.254 38.54 32.871C38.4626 32.8129 38.3994 32.738 38.355 32.652C37.5797 31.0113 36.8083 29.3663 36.041 27.717C36.0099 27.6452 36.0015 27.5657 36.017 27.489C36.308 26.267 36.607 25.046 36.896 23.824C36.9057 23.7744 36.9265 23.7276 36.9568 23.687C36.9871 23.6465 37.0261 23.6134 37.071 23.59C37.871 23.1167 38.6687 22.643 39.464 22.169C39.552 22.116 39.635 22.057 39.721 22.001L39.886 22ZM42.064 25.53L40.357 26.725L39.182 27.313L37.214 27.813L37.826 29.183C37.826 29.183 39.089 28.583 39.626 28.352C40.34 29.813 41.633 32.652 41.633 32.652L42.409 32.247L40.717 27.856L42.492 26.856L42.064 25.53Z" fill="#FF9B26"/>
</g>
<defs>
<filter id="filter0_d_1_1031" x="18" y="12" width="76.011" height="88.5971" filterUnits="userSpaceOnUse" color-interpolation-filters="sRGB">
<feFlood flood-opacity="0" result="BackgroundImageFix"/>
<feColorMatrix in="SourceAlpha" type="matrix" values="0 0 0 0 0 0 0 0 0 0 0 0 0 0 0 0 0 0 127 0" result="hardAlpha"/>
<feOffset/>
<feGaussianBlur stdDeviation="5"/>
<feComposite in2="hardAlpha" operator="out"/>
<feColorMatrix type="matrix" values="0 0 0 0 1 0 0 0 0 0.537255 0 0 0 0 0 0 0 0 0.4 0"/>
<feBlend mode="normal" in2="BackgroundImageFix" result="effect1_dropShadow_1_1031"/>
<feBlend mode="normal" in="SourceGraphic" in2="effect1_dropShadow_1_1031" result="shape"/>
</filter>
</defs>
</svg>
