<svg width="112" height="112" viewBox="0 0 112 112" fill="none" xmlns="http://www.w3.org/2000/svg">
<path d="M111.022 55.5107L55.5112 0L0.000522222 55.5107L55.5112 111.021L111.022 55.5107Z" fill="#0F0F0F"/>
<path d="M55.5112 1.41397L109.608 55.5105L55.5112 109.607L1.41474 55.5105L55.5112 1.41397Z" stroke="#00D1FF" stroke-width="2"/>
<g filter="url(#filter0_d_1_858)">
<path d="M55.6195 76.1494C53.1145 76.1494 50.6108 76.1467 48.1058 76.152C47.8667 76.152 47.6916 76.0762 47.5217 75.9063C45.8465 74.2154 44.1634 72.5324 42.483 70.8467C40.0185 68.3731 37.5567 65.8955 35.0843 63.4297C34.7942 63.1409 34.7015 62.8286 34.7028 62.434C34.7132 59.6703 34.708 56.9066 34.708 54.1429C34.708 52.367 34.7054 50.5912 34.7093 48.8153C34.7093 48.5135 34.7394 48.2116 34.7394 47.9098C34.7394 47.6628 34.8426 47.4812 35.0125 47.3139C35.8331 46.509 36.6498 45.7001 37.4665 44.89C39.6356 42.7391 41.8035 40.5869 43.9727 38.4374C45.1683 37.2522 46.3666 36.0683 47.5714 34.8922C47.6511 34.8151 47.7883 34.7629 47.9007 34.7589C48.3802 34.7433 48.8611 34.7485 49.342 34.7485C53.8162 34.7485 58.2917 34.7485 62.7659 34.7485C62.8313 34.7485 62.8953 34.7537 62.9606 34.7485C63.2285 34.7289 63.4297 34.8373 63.6179 35.0268C65.1612 36.5818 66.7109 38.1303 68.2607 39.6787C70.7788 42.1968 73.2942 44.7201 75.8227 47.2277C76.182 47.5831 76.3297 47.9804 76.3297 48.4651C76.3284 53.1288 76.331 57.7925 76.3284 62.4562C76.3284 62.6705 76.3153 62.89 76.267 63.0991C76.2395 63.222 76.1494 63.3422 76.0592 63.435C75.3562 64.151 74.648 64.8619 73.9384 65.5727C72.1129 67.4035 70.2861 69.2316 68.4593 71.061C66.8011 72.7231 65.1442 74.3866 63.4833 76.0461C63.4311 76.0984 63.3474 76.1467 63.2782 76.1467C60.7248 76.152 58.1715 76.1507 55.6182 76.1507C55.6195 76.1507 55.6195 76.1494 55.6195 76.1494ZM39.5586 55.541C39.5572 55.541 39.5559 55.541 39.5546 55.541C39.5546 56.5015 39.5533 57.4632 39.5546 58.4237C39.5559 59.2012 39.5599 59.9787 39.5625 60.7562C39.5638 60.9809 39.6278 61.1756 39.7898 61.3416C40.1923 61.7558 40.5778 62.1857 40.9842 62.5947C43.3376 64.9586 45.6923 67.3198 48.0509 69.6798C48.5619 70.1907 49.0832 70.6925 49.6072 71.1903C49.6883 71.2674 49.8072 71.3354 49.9156 71.3498C50.1927 71.3851 50.4749 71.4007 50.7545 71.402C53.087 71.4047 55.4182 71.4046 57.7507 71.3994C58.77 71.3968 59.7905 71.3824 60.8098 71.3641C60.9156 71.3628 61.0371 71.3197 61.1208 71.2557C61.4017 71.0388 61.6853 70.8192 61.9388 70.571C63.9224 68.6226 65.8968 66.6678 67.8765 64.7155C68.9258 63.6806 69.9816 62.6535 71.0257 61.6134C71.1263 61.5141 71.2008 61.3625 71.2296 61.224C71.2766 60.9992 71.2949 60.764 71.2949 60.5327C71.3001 59.1345 71.3014 57.7363 71.2936 56.3381C71.291 55.9187 71.2505 55.4992 71.2309 55.0785C71.2243 54.9334 71.2283 54.7871 71.2348 54.642C71.2531 54.2435 71.2884 53.8449 71.2923 53.4464C71.2962 53.0099 71.2648 52.5735 71.2622 52.1357C71.2596 51.6823 71.274 51.2302 71.2779 50.7767C71.2805 50.5389 71.2858 50.3011 71.2727 50.0659C71.2675 49.9666 71.24 49.849 71.1773 49.7771C70.9656 49.5327 70.7382 49.3014 70.5109 49.0715C68.1601 46.6972 65.8093 44.3241 63.4572 41.9511C62.7424 41.2311 62.0276 40.5111 61.305 39.799C61.2227 39.718 61.0959 39.65 60.9823 39.6369C60.5641 39.5912 60.1433 39.5468 59.7239 39.5442C57.543 39.5363 55.362 39.5376 53.1811 39.5442C52.2155 39.5468 51.2498 39.5677 50.2841 39.5899C50.1744 39.5925 50.0437 39.6369 49.9627 39.7075C49.4544 40.157 48.946 40.6104 48.4573 41.0809C46.6031 42.8658 44.7554 44.6587 42.9051 46.4489C41.8623 47.459 40.8208 48.4691 39.782 49.4831C39.7075 49.555 39.6252 49.653 39.6121 49.747C39.5742 50.0241 39.5559 50.305 39.5559 50.5833C39.5559 52.2363 39.5586 53.888 39.5586 55.541Z" fill="#00D1FF"/>
<path d="M27.8621 58.2106C28.0228 58.1989 28.1849 58.1806 28.3456 58.178C28.7232 58.1714 29.0225 58.3622 29.276 58.6105C30.2129 59.5278 31.1407 60.4543 32.0697 61.3807C32.7924 62.1007 33.5071 62.8286 34.2311 63.546C35.9703 65.2708 37.7187 66.9879 39.4553 68.7167C41.9655 71.2138 44.4745 73.7123 46.9716 76.2212C48.7487 78.0075 50.5076 79.812 52.2743 81.6101C52.3801 81.7172 52.4742 81.8362 52.5709 81.9525C52.844 82.2804 52.8976 82.6607 52.8205 83.0658C52.7839 83.2566 52.7382 83.4447 52.6898 83.6329C52.6349 83.8446 52.486 83.9504 52.269 83.9217C51.4785 83.8132 50.6801 83.744 49.9013 83.5767C48.8742 83.3572 47.8458 83.1324 46.8514 82.7822C46.4241 82.632 45.9876 82.5078 45.5643 82.3484C45.0298 82.1472 44.4993 81.9355 43.9779 81.7029C43.3494 81.4219 42.7313 81.1148 42.1106 80.8169C41.878 80.7058 41.6506 80.5791 41.4141 80.4759C41.0992 80.3387 40.8561 80.1178 40.617 79.8787C39.258 78.5132 37.8938 77.1529 36.5309 75.7913C35.3927 74.6544 34.2572 73.5176 33.1164 72.3833C32.4239 71.6947 31.7182 71.0191 31.0348 70.3213C30.8349 70.1162 30.6676 69.8679 30.533 69.6131C30.1606 68.9075 29.8039 68.1927 29.4589 67.4727C29.276 67.0885 29.1192 66.6912 28.9702 66.2914C28.6853 65.523 28.3887 64.7586 28.1457 63.9759C27.9209 63.2507 27.7393 62.511 27.5772 61.7688C27.3669 60.7992 27.1944 59.8231 27.0101 58.8483C26.9931 58.7555 27.001 58.6549 27.0088 58.5595C27.0232 58.3949 27.1173 58.2877 27.2793 58.2603C27.4701 58.2276 27.6635 58.2093 27.8556 58.1845C27.8595 58.1949 27.8608 58.2028 27.8621 58.2106ZM40.796 76.8223C40.9711 76.8 41.1462 76.7556 41.3213 76.7582C41.631 76.7622 41.9198 76.6955 42.2021 76.5792C42.5693 76.4276 42.956 76.3113 43.1952 75.9507C43.4813 75.5208 43.5754 75.0321 43.1782 74.6492C42.3824 73.8821 41.6023 73.0981 40.813 72.3245C40.7255 72.2383 40.6209 72.1703 40.5229 72.0959C40.3936 71.9978 40.276 72.0266 40.1636 72.1311C39.5455 72.7022 38.9222 73.2654 38.312 73.8442C37.9983 74.1422 38.0036 74.231 38.3054 74.5512C38.9457 75.2294 39.5965 75.8984 40.2315 76.5805C40.3909 76.753 40.5556 76.8562 40.796 76.8223ZM35.5169 67.6151C35.513 67.5994 35.5077 67.585 35.5038 67.5694C35.3627 67.653 35.2163 67.7288 35.0817 67.8203C34.7237 68.0646 34.4597 68.3612 34.4232 68.8317C34.3866 69.3138 34.3003 69.7934 34.235 70.273C34.2088 70.4624 34.2624 70.6206 34.4009 70.7565C34.6727 71.0191 34.9328 71.2935 35.2072 71.5523C35.6698 71.9887 36.1402 72.4173 36.6067 72.8485C36.6916 72.9269 36.7713 72.957 36.868 72.8537C37.1921 72.5075 37.5279 72.1716 37.8494 71.8227C38.163 71.4817 38.4648 71.1289 38.768 70.7787C38.8738 70.6571 38.8608 70.5369 38.7458 70.4206C38.5785 70.2521 38.4139 70.0809 38.2518 69.9084C37.6599 69.2812 37.0588 68.6605 36.4799 68.0215C36.216 67.7301 35.8958 67.6203 35.5169 67.6151Z" fill="#00D1FF"/>
<path d="M58.7765 83.9152C58.7111 83.9152 58.6471 83.9165 58.5818 83.9152C58.3819 83.9087 58.2982 83.842 58.2643 83.6421C58.2264 83.4239 58.2081 83.203 58.1649 82.9861C58.0735 82.5196 58.2264 82.1407 58.5556 81.814C59.1188 81.2547 59.6755 80.6902 60.2361 80.1283C63.7642 76.5963 67.2911 73.0655 70.8192 69.5347C72.8486 67.5041 74.8805 65.4761 76.9086 63.4441C78.4374 61.9126 79.9611 60.3759 81.486 58.8405C81.746 58.5779 82.0218 58.3361 82.3746 58.2081C82.4477 58.1819 82.5314 58.1636 82.6085 58.1689C82.8829 58.1845 83.156 58.212 83.4304 58.2329C83.9544 58.2747 84.0524 58.4825 83.9779 58.915C83.842 59.7056 83.6996 60.4948 83.5349 61.2789C83.386 61.9897 83.2148 62.6967 83.0332 63.401C82.9443 63.7446 82.8123 64.0766 82.696 64.4137C82.5209 64.9168 82.3537 65.4238 82.1603 65.9203C81.78 66.8938 81.3671 67.8543 80.8666 68.7742C80.7255 69.0343 80.5883 69.2982 80.4628 69.5661C80.306 69.9019 80.0499 70.1567 79.7951 70.4115C78.0951 72.1142 76.3963 73.8208 74.6937 75.5208C73.4301 76.7831 72.1586 78.0376 70.8911 79.2959C70.814 79.3717 70.7343 79.4449 70.665 79.5272C70.1437 80.1571 69.4158 80.4824 68.7285 80.8771C67.8817 81.3632 66.9775 81.7147 66.0771 82.0727C65.3624 82.3576 64.6241 82.5863 63.8962 82.8398C63.0429 83.1377 62.1635 83.3298 61.2776 83.4944C60.4778 83.6434 59.6742 83.7715 58.8732 83.9074C58.8418 83.9126 58.8092 83.9126 58.7765 83.9152ZM67.5642 75.134C67.589 75.3209 67.6021 75.5104 67.6413 75.6946C67.6622 75.7887 67.7118 75.8893 67.7772 75.9599C68.1326 76.3441 68.5677 76.5767 69.0917 76.6498C69.4694 76.7021 69.8431 76.7818 70.2168 76.8537C70.4181 76.8929 70.5696 76.8537 70.7173 76.689C71.3877 75.9429 72.0724 75.2085 72.7519 74.4702C72.9479 74.2572 72.9583 74.1409 72.7427 73.9514C72.0606 73.3556 71.3681 72.7715 70.6794 72.1821C70.5932 72.1077 70.5278 72.1194 70.4442 72.1978C70.0365 72.5833 69.621 72.961 69.2133 73.3451C68.718 73.8103 68.2254 74.2794 67.7354 74.7499C67.6308 74.8531 67.5367 74.9681 67.5642 75.134ZM76.7165 70.2391C76.6577 69.655 76.5989 69.0708 76.5374 68.4867C76.5335 68.4462 76.5178 68.3953 76.4891 68.3704C76.28 68.1862 76.0801 67.9876 75.8514 67.8334C75.6855 67.721 75.4725 67.6805 75.2921 67.5864C75.1811 67.5289 75.1053 67.542 75.0203 67.623C74.1017 68.5037 73.1792 69.3805 72.2632 70.2652C72.0214 70.4978 72.0175 70.7644 72.2566 71.0061C72.8721 71.6268 73.4993 72.2357 74.1213 72.8499C74.2285 72.9557 74.3226 72.9544 74.4375 72.8394C75.1157 72.1599 75.7965 71.4817 76.4852 70.8127C76.6498 70.6481 76.7531 70.4782 76.7165 70.2391Z" fill="#00D1FF"/>
<path d="M28.236 52.7969C27.8897 52.7708 27.614 52.7538 27.3409 52.7264C27.1409 52.7068 27.0508 52.6271 27.0442 52.4297C27.0377 52.2664 27.0743 52.1018 27.0926 51.9384C27.1161 51.7189 27.1305 51.4981 27.1644 51.2811C27.2324 50.8447 27.3069 50.4109 27.3853 49.9757C27.448 49.6321 27.516 49.2897 27.5931 48.9499C27.6793 48.5723 27.7629 48.192 27.874 47.8209C28.0413 47.2643 28.2268 46.7128 28.4137 46.1627C28.5809 45.6688 28.743 45.1722 28.9416 44.6913C29.2134 44.0341 29.5139 43.3885 29.8132 42.7443C30.0079 42.3236 30.2104 41.9041 30.4352 41.5003C30.5724 41.2534 30.7344 41.009 30.9304 40.8091C32.0281 39.6931 33.1388 38.5916 34.2456 37.4835C36.0201 35.7089 37.7946 33.9344 39.5692 32.1586C39.9703 31.7574 40.3519 31.3353 40.7792 30.9655C41.085 30.7003 41.4378 30.4781 41.7945 30.2834C42.3381 29.9868 42.8961 29.7098 43.4632 29.4602C44.2485 29.1152 45.0404 28.7846 45.8427 28.4854C46.402 28.2763 46.9822 28.1234 47.5571 27.9588C48.0746 27.8111 48.5947 27.6648 49.12 27.5485C49.7825 27.4021 50.4515 27.2806 51.1193 27.1591C51.3257 27.1212 51.5374 27.1159 51.7465 27.0924C51.8902 27.0767 52.0366 27.065 52.1777 27.0336C52.4717 26.967 52.5998 27.0362 52.6847 27.3237C52.7292 27.474 52.7932 27.619 52.8232 27.7706C52.9291 28.3155 52.7775 28.7846 52.3842 29.174C51.855 29.698 51.3231 30.2194 50.7952 30.7434C48.6417 32.8786 46.4896 35.0151 44.3361 37.1502C42.2584 39.2096 40.1794 41.2664 38.1017 43.3258C35.5562 45.8478 33.012 48.3711 30.4652 50.8917C29.9125 51.4379 29.3519 51.9763 28.79 52.5121C28.6162 52.6767 28.4372 52.8453 28.236 52.7969ZM40.8249 34.1474C40.7204 34.2245 40.5923 34.3029 40.4852 34.4022C39.9115 34.9327 39.3405 35.4672 38.7734 36.0056C38.5551 36.2133 38.35 36.4355 38.1396 36.6511C38.0521 36.7399 38.0468 36.821 38.1448 36.9124C38.3421 37.0954 38.529 37.2901 38.7289 37.4717C39.1745 37.8781 39.6293 38.2766 40.0736 38.6843C40.3663 38.9522 40.3702 38.9601 40.6577 38.683C41.2718 38.0924 41.8821 37.4978 42.4923 36.9033C42.751 36.6511 43.0058 36.395 43.2593 36.1388C43.3417 36.0552 43.3913 35.9572 43.3521 35.8318C43.2672 35.5587 43.1914 35.2842 43.1025 35.0125C43.0163 34.7485 42.8177 34.5904 42.5602 34.5316C42.116 34.4297 41.6651 34.3539 41.2182 34.2624C41.0993 34.235 40.983 34.1931 40.8249 34.1474ZM36.778 38.2048C36.7689 38.2178 36.761 38.2322 36.7519 38.2453C36.5572 38.2191 36.4383 38.3524 36.322 38.4661C35.679 39.0973 35.044 39.7349 34.405 40.3713C34.2717 40.5046 34.2338 40.6588 34.2652 40.8444C34.358 41.3906 34.452 41.9381 34.5239 42.4882C34.5749 42.8802 34.7983 43.1037 35.1498 43.2304C35.2805 43.2775 35.4125 43.3245 35.5405 43.3781C35.7692 43.4761 35.8698 43.4643 36.0475 43.284C36.5663 42.7574 37.0812 42.2282 37.5973 41.6989C37.9514 41.3357 38.3056 40.9724 38.6531 40.6039C38.8309 40.4157 38.8269 40.3739 38.6636 40.1818C38.499 39.9898 38.3317 39.799 38.1644 39.6082C37.8103 39.2083 37.4601 38.8046 37.0981 38.4138C37.0132 38.3237 36.8852 38.274 36.778 38.2048Z" fill="#00D1FF"/>
<path d="M82.9025 52.81C82.5628 52.8596 82.3654 52.6506 82.1511 52.4376C80.5569 50.8421 78.9549 49.2544 77.3542 47.6641C75.7312 46.0503 74.1083 44.4378 72.4827 42.8253C70.7278 41.0848 68.9689 39.3481 67.2153 37.6063C65.297 35.7011 63.3814 33.7919 61.4644 31.8841C60.5118 30.9355 59.5671 29.9802 58.604 29.042C58.229 28.6761 58.0852 28.2619 58.1793 27.7549C58.2055 27.6177 58.212 27.4753 58.2447 27.3394C58.3126 27.048 58.4864 26.9486 58.7713 27.0244C58.8079 27.0349 58.8431 27.0506 58.8797 27.0558C59.4116 27.1329 59.946 27.2035 60.4766 27.2871C60.8006 27.338 61.1221 27.4047 61.4435 27.4713C61.8434 27.555 62.2445 27.6373 62.6405 27.7366C62.911 27.8045 63.1736 27.9052 63.4402 27.9849C63.8636 28.1116 64.2909 28.2214 64.7103 28.3599C65.0984 28.488 65.4813 28.6356 65.8602 28.7898C66.4849 29.042 67.1147 29.2851 67.7236 29.5725C68.2934 29.8404 68.8265 30.188 69.3975 30.452C70.0849 30.7695 70.537 31.3471 71.0492 31.8567C73.1439 33.937 75.2255 36.0277 77.3124 38.1146C78.2009 39.0032 79.0869 39.8956 79.982 40.779C80.31 41.1017 80.4929 41.5108 80.7007 41.9054C80.8614 42.2112 81.0326 42.5117 81.1842 42.8214C81.3815 43.2278 81.5736 43.6394 81.7513 44.0549C81.98 44.5907 82.2139 45.1251 82.4073 45.674C82.6137 46.2581 82.7705 46.8592 82.96 47.4498C83.2632 48.3906 83.4461 49.3589 83.6643 50.3207C83.7453 50.6787 83.7728 51.0302 83.7963 51.3909C83.8068 51.5503 83.8643 51.7071 83.8969 51.8652C83.9191 51.9711 83.9427 52.0769 83.9518 52.1841C83.9766 52.4898 83.8107 52.7094 83.5101 52.7551C83.3115 52.7851 83.1064 52.7917 82.9025 52.81ZM76.7727 40.6091C76.7452 40.5542 76.7165 40.4471 76.6498 40.3739C76.4917 40.1975 76.3166 40.0368 76.1468 39.8708C75.6293 39.3664 75.1131 38.8607 74.5931 38.3589C74.3631 38.1368 74.0847 38.1224 73.8809 38.3433C73.3033 38.9692 72.7388 39.6056 72.1691 40.2393C72.0946 40.3216 72.0842 40.4105 72.1639 40.4993C72.2109 40.5516 72.2514 40.6091 72.2998 40.6601C72.7702 41.1658 73.2393 41.6715 73.7123 42.1733C74.0743 42.5574 74.4428 42.9364 74.8061 43.3206C74.9054 43.4251 75.0099 43.4891 75.1628 43.4473C75.432 43.3741 75.7038 43.3062 75.9743 43.2409C76.2879 43.1651 76.5061 42.9743 76.5492 42.6581C76.6407 41.9942 76.6969 41.3278 76.7727 40.6091ZM67.5472 35.9219C67.5916 36.0003 67.6439 36.1454 67.7419 36.2486C67.9536 36.4707 68.1875 36.672 68.4136 36.8797C69.0865 37.503 69.7595 38.1263 70.4351 38.747C70.601 38.8986 70.6298 38.8973 70.7983 38.7431C71.1485 38.423 71.5001 38.1028 71.8476 37.7801C72.0972 37.5488 72.3494 37.3201 72.5859 37.077C72.846 36.8092 72.8499 36.6955 72.5899 36.4381C71.9169 35.769 71.2361 35.1052 70.5488 34.4505C70.4612 34.3669 70.307 34.3016 70.1894 34.3107C69.6197 34.3525 69.0513 34.4192 68.4828 34.4819C68.2921 34.5028 68.1248 34.5668 67.9876 34.7223C67.704 35.0464 67.6152 35.441 67.5472 35.9219Z" fill="#00D1FF"/>
<path d="M48.7108 77.0562C48.7683 77.0496 48.8559 77.03 48.9447 77.03C52.1893 77.0261 55.4326 77.0235 58.6772 77.0222C59.865 77.0209 61.0528 77.0209 62.2393 77.0248C62.2968 77.0248 62.3556 77.0601 62.4131 77.0784C62.3896 77.1228 62.3752 77.1751 62.3412 77.2091C61.143 78.4152 59.9447 79.6213 58.7425 80.8222C58.4106 81.1541 58.0852 81.4964 57.7207 81.7904C57.1927 82.2151 56.5917 82.5 55.9043 82.5797C55.2457 82.6555 54.595 82.5954 54.0148 82.2883C53.6476 82.0936 53.3327 81.7813 53.0321 81.482C51.7581 80.2158 50.4958 78.9352 49.2335 77.656C49.0493 77.4717 48.8885 77.2626 48.7108 77.0562ZM55.5005 77.7487V77.7474C55.004 77.7474 54.5087 77.7514 54.0122 77.7448C53.858 77.7422 53.7469 77.7971 53.6437 77.9069C53.3379 78.2335 53.3275 78.3289 53.6398 78.6465C54.1389 79.1535 54.6473 79.6513 55.1582 80.1466C55.3895 80.37 55.6404 80.3583 55.8651 80.1335C55.937 80.0616 56.0115 79.9898 56.082 79.9166C56.5289 79.4566 56.9758 78.9967 57.4201 78.5328C57.5168 78.4308 57.6148 78.3185 57.5717 78.1617C57.522 77.9826 57.1954 77.75 57.0033 77.7487C56.5041 77.7474 56.0023 77.7487 55.5005 77.7487Z" fill="#00D1FF"/>
<path d="M48.6559 33.8089C48.6794 33.7749 48.6977 33.737 48.7264 33.7083C50.011 32.4368 51.2955 31.1667 52.5813 29.8966C53.0033 29.4797 53.428 29.059 53.9468 28.7636C54.2042 28.6173 54.5035 28.5376 54.7909 28.4513C54.9856 28.3925 55.1934 28.3468 55.3946 28.3468C55.6285 28.3481 55.8651 28.3938 56.0964 28.4422C56.4988 28.5258 56.8752 28.6761 57.2345 28.8852C57.9467 29.2994 58.4811 29.9096 59.0522 30.4807C60.0518 31.4803 61.0423 32.4878 62.038 33.4914C62.1099 33.5645 62.1935 33.6247 62.2641 33.6991C62.2941 33.7305 62.3046 33.7802 62.3229 33.822C62.285 33.835 62.2471 33.8586 62.2079 33.8599C62.0354 33.8677 61.8629 33.8729 61.6904 33.8729C57.7023 33.8716 53.7142 33.8703 49.7261 33.8664C49.5 33.8664 49.274 33.8403 49.0479 33.835C48.9238 33.8324 48.7983 33.8481 48.6742 33.8559C48.669 33.8403 48.6624 33.8246 48.6559 33.8089ZM55.5096 33.1764C55.5096 33.1738 55.5096 33.1699 55.5096 33.1673C55.5319 33.1673 55.5528 33.1673 55.575 33.1673C56.0715 33.1686 56.5681 33.1712 57.0646 33.1686C57.194 33.1686 57.4632 32.9896 57.458 32.8785C57.4527 32.7687 57.3691 32.6629 57.3194 32.5558C57.3155 32.5466 57.3051 32.5401 57.2972 32.5322C56.8072 32.0305 56.3172 31.53 55.8272 31.0269C55.4796 30.6702 55.4365 30.6636 55.0836 31.0282C54.8066 31.3144 54.5505 31.6214 54.2787 31.9142C54.0435 32.1663 53.7952 32.4068 53.5626 32.6616C53.5208 32.7073 53.4921 32.8276 53.5208 32.8654C53.6593 33.0497 53.8279 33.1856 54.0879 33.1791C54.5597 33.1673 55.0353 33.1764 55.5096 33.1764Z" fill="#00D1FF"/>
<path d="M33.8364 48.4821C33.8364 53.0569 33.8364 57.5795 33.8364 62.1465C33.7567 62.0851 33.707 62.055 33.6678 62.0158C32.4042 60.7392 31.1406 59.4625 29.877 58.1858C29.6797 57.9859 29.4798 57.7899 29.2798 57.5926C29.2537 57.5664 29.2276 57.5338 29.1962 57.5181C28.7454 57.2946 28.5964 56.8752 28.505 56.4296C28.4344 56.0872 28.3782 55.7423 28.339 55.396C28.3246 55.2745 28.3769 55.1438 28.403 55.017C28.4187 54.9373 28.4592 54.8589 28.4553 54.7818C28.4305 54.365 28.6905 54.071 28.8695 53.7364C29.3373 52.8622 30.0652 52.2141 30.7499 51.5294C31.7103 50.5676 32.6799 49.615 33.6456 48.6585C33.6953 48.6076 33.7475 48.5631 33.8364 48.4821ZM33.1308 55.5162C33.1308 55.5162 33.1294 55.5162 33.1308 55.5162C33.1308 54.9883 33.1308 54.4604 33.1294 53.9311C33.1294 53.8841 33.1268 53.8318 33.1098 53.7887C32.9687 53.449 32.7806 53.4111 32.527 53.6685C31.9599 54.2448 31.3928 54.821 30.827 55.3986C30.6676 55.5606 30.661 55.5802 30.8205 55.737C31.3288 56.2349 31.8423 56.7262 32.3546 57.2189C32.4591 57.3195 32.5649 57.4201 32.6825 57.505C32.7257 57.5364 32.8237 57.5547 32.855 57.5299C32.9975 57.4096 33.1386 57.2894 33.1347 57.066C33.1242 56.5511 33.1308 56.0337 33.1308 55.5162Z" fill="#00D1FF"/>
<path d="M77.2419 48.6833C77.3085 48.7382 77.3504 48.7696 77.3856 48.8049C78.6388 50.0606 79.8919 51.319 81.1464 52.5735C81.5998 53.0256 81.9984 53.5195 82.3015 54.084C82.3838 54.2369 82.4165 54.4159 82.4649 54.5858C82.4949 54.6943 82.5041 54.8093 82.5341 54.9164C82.6491 55.3163 82.6556 55.7135 82.5341 56.1121C82.5158 56.1735 82.4962 56.2375 82.4923 56.3015C82.4636 56.7707 82.2153 57.1352 81.9265 57.4737C80.7478 58.8536 79.3915 60.0623 78.1331 61.3651C77.8717 61.6369 77.6117 61.91 77.3504 62.1831C77.3334 62.2014 77.3085 62.2132 77.2576 62.251C77.2393 62.1557 77.2118 62.0825 77.2105 62.008C77.2053 60.5837 77.2014 59.1593 77.2014 57.735C77.2001 54.9347 77.2014 52.1344 77.2014 49.3328C77.2014 49.176 77.204 49.0192 77.2092 48.8637C77.2105 48.8153 77.2262 48.7657 77.2419 48.6833ZM78.2141 53.4882C78.1827 53.5025 78.1553 53.5091 78.137 53.5261C77.9854 53.662 77.8652 53.8096 77.8652 54.0344C77.8613 54.9896 77.8521 55.9435 77.8378 56.8987C77.8351 57.0921 77.8809 57.2568 77.9985 57.4096C78.1592 57.6174 78.1893 57.6305 78.3735 57.4501C78.9472 56.8869 79.5169 56.3198 80.084 55.7488C80.2604 55.5711 80.2604 55.5319 80.0827 55.3489C79.5104 54.7622 78.9328 54.1794 78.3565 53.5966C78.3147 53.5535 78.2624 53.5234 78.2141 53.4882Z" fill="#00D1FF"/>
<path d="M40.2942 55.3528C40.2942 53.7717 40.2942 52.1893 40.2942 50.6081C40.2942 50.3873 40.289 50.1651 40.3086 49.9456C40.3164 49.8581 40.3674 49.7587 40.4301 49.696C40.8809 49.2387 41.337 48.7865 41.7969 48.3383C43.9909 46.1966 46.1862 44.0575 48.3802 41.9158C48.8559 41.4519 49.3302 40.9893 49.8045 40.5241C49.9561 40.3752 50.1456 40.353 50.3429 40.353C51.4275 40.3543 52.5134 40.3556 53.5979 40.3556C55.9892 40.3556 58.3805 40.3569 60.7718 40.353C60.9992 40.353 61.1769 40.4314 61.3337 40.5882C63.2716 42.543 65.2095 44.4979 67.1473 46.4514C68.147 47.4589 69.1453 48.469 70.1489 49.4713C70.456 49.777 70.6102 50.122 70.6036 50.5676C70.5827 51.8848 70.5879 53.2007 70.5853 54.5178C70.5827 55.8886 70.5827 57.2593 70.5801 58.6301C70.5775 59.418 70.5762 60.206 70.5605 60.9926C70.5579 61.1063 70.5108 61.2448 70.4351 61.3258C70.0822 61.7048 69.7151 62.0707 69.3479 62.4353C66.7383 65.0226 64.1301 67.6125 61.5128 70.192C60.8842 70.8127 61.0593 70.6964 60.2831 70.6977C56.9954 70.7055 53.7077 70.6964 50.4213 70.7068C50.0463 70.7081 49.7732 70.5944 49.5105 70.3265C46.6841 67.4361 43.8485 64.5561 41.0155 61.6721C40.8339 61.4879 40.6575 61.2984 40.4772 61.1129C40.3504 60.9822 40.2929 60.8345 40.2942 60.6477C40.2994 58.8823 40.2968 57.1182 40.2968 55.3528C40.2955 55.3528 40.2942 55.3528 40.2942 55.3528ZM69.5818 55.3097C69.5792 55.3097 69.5765 55.3097 69.5739 55.3097C69.5739 53.7116 69.5713 52.1148 69.5765 50.5166C69.5778 50.3285 69.5203 50.1887 69.3884 50.058C68.6174 49.2949 67.853 48.5252 67.0846 47.7595C64.9756 45.6543 62.8652 43.5518 60.7614 41.4428C60.5575 41.2389 60.3524 41.1004 60.0518 41.1553C59.9734 41.1697 59.8898 41.1527 59.8101 41.1527C57.0843 41.154 54.3585 41.1553 51.6326 41.1566C51.3033 41.1566 50.974 41.1736 50.6461 41.1605C50.4801 41.154 50.352 41.1932 50.2384 41.3069C49.9914 41.5565 49.7405 41.8008 49.4948 42.0517C47.6471 43.9282 45.8034 45.8072 43.9517 47.6798C43.2056 48.435 42.4477 49.1812 41.6885 49.9247C41.5304 50.0789 41.4507 50.2422 41.4611 50.4657C41.4755 50.7662 41.465 51.0681 41.4676 51.3699C41.4768 52.2337 41.4951 53.0961 41.4951 53.9599C41.4964 54.8563 41.4768 55.7514 41.4742 56.6478C41.4703 57.7324 41.4663 58.8183 41.4807 59.9028C41.4859 60.3079 41.5853 60.6934 41.9159 60.977C42.0426 61.0854 42.1576 61.2082 42.2752 61.3272C43.8328 62.8991 45.3891 64.4711 46.9467 66.0431C47.9986 67.1055 49.0492 68.1692 50.109 69.2224C50.2371 69.3491 50.4135 69.4497 50.5846 69.502C50.7597 69.5569 50.9584 69.549 51.1465 69.549C53.3915 69.553 55.6377 69.5556 57.8827 69.5517C58.6327 69.5504 59.3828 69.5151 60.1316 69.519C60.4478 69.5203 60.6647 69.3844 60.8764 69.1701C62.4614 67.5641 64.053 65.966 65.6407 64.364C66.8978 63.0952 68.1535 61.825 69.4119 60.5575C69.5347 60.4334 69.5818 60.2948 69.5805 60.1224C69.5792 58.5164 69.5818 56.9131 69.5818 55.3097Z" fill="#00D1FF"/>
<path d="M42.5013 75.0647C42.47 75.2411 42.4595 75.3718 42.4229 75.4946C42.3746 75.6567 42.2779 75.786 42.0949 75.8135C41.6702 75.8762 41.2443 75.9285 40.8196 75.9964C40.6797 76.0186 40.5765 75.9781 40.4877 75.8814C40.0264 75.3757 39.5664 74.87 39.1038 74.3643C39.0202 74.2729 39.0137 74.1879 39.1051 74.0991C39.4397 73.7776 39.7664 73.4496 40.1074 73.136C40.3387 72.923 40.3766 72.9204 40.6013 73.1321C41.0443 73.5502 41.4742 73.9815 41.9094 74.4075C42.0518 74.5473 42.2034 74.678 42.338 74.8243C42.4138 74.904 42.4621 75.0046 42.5013 75.0647Z" fill="#00D1FF"/>
<path d="M35.0791 70.3213C35.1314 69.8692 35.1771 69.4733 35.2228 69.0773C35.2346 68.9754 35.2411 68.8735 35.2542 68.7729C35.2908 68.475 35.5038 68.3338 35.7756 68.4462C35.9063 68.4998 36.0395 68.5782 36.1375 68.6788C36.7321 69.2956 37.3162 69.9215 37.9068 70.5422C37.9761 70.6154 37.963 70.6663 37.9055 70.7343C37.6194 71.0701 37.345 71.4177 37.0457 71.7418C36.9503 71.845 36.7961 71.8999 36.6602 71.9561C36.6184 71.973 36.5309 71.9351 36.4917 71.8959C36.0591 71.453 35.6292 71.0061 35.2059 70.5526C35.1366 70.4808 35.1052 70.3723 35.0791 70.3213Z" fill="#00D1FF"/>
<path d="M71.9496 74.2219C71.6804 74.512 71.4086 74.8099 71.1329 75.1026C70.9003 75.3496 70.6546 75.5861 70.4259 75.837C70.3018 75.9729 70.1672 76.0056 69.9921 75.9716C69.851 75.9442 69.7033 75.9442 69.5596 75.9337C69.3244 75.9167 69.0879 75.9037 68.8526 75.8867C68.837 75.8854 68.8134 75.8841 68.8069 75.8749C68.6788 75.6685 68.5443 75.4633 68.4332 75.2477C68.4123 75.2072 68.4841 75.1144 68.5233 75.0504C68.9938 74.2872 69.6916 73.7476 70.3658 73.1857C70.4782 73.0916 70.5997 73.0642 70.7186 73.1609C71.1263 73.4967 71.5288 73.8364 71.9339 74.1762C71.9391 74.1827 71.9404 74.1958 71.9496 74.2219Z" fill="#00D1FF"/>
<path d="M75.9037 70.0444C75.9782 70.3083 75.8149 70.5448 75.5757 70.7709C75.2007 71.1263 74.8414 71.5 74.4807 71.8712C74.3696 71.9861 74.2873 71.9861 74.171 71.8764C73.8692 71.5915 73.5542 71.321 73.2511 71.0375C72.9871 70.7905 72.9793 70.4991 73.2289 70.2364C73.6888 69.7516 74.1527 69.2708 74.6153 68.7886C74.7016 68.6997 74.7865 68.6096 74.8767 68.5233C74.9145 68.4867 74.959 68.4515 75.0073 68.4306C75.2595 68.3195 75.8136 68.6527 75.8345 68.931C75.8606 69.2734 75.8776 69.6184 75.9037 70.0444Z" fill="#00D1FF"/>
<path d="M40.3217 37.9905C40.2485 37.9526 40.1623 37.9304 40.1035 37.8755C39.7925 37.5854 39.4841 37.2914 39.1823 36.9908C38.9745 36.7844 38.9823 36.7425 39.194 36.5348C39.6056 36.131 40.0199 35.7285 40.4276 35.3208C40.7556 34.9928 41.1332 34.8909 41.5775 35.0242C41.8088 35.0935 42.0414 35.1588 42.274 35.2202C42.4099 35.2555 42.4647 35.347 42.5196 35.4685C42.6385 35.7311 42.5876 35.9219 42.3837 36.1271C41.8597 36.655 41.354 37.2012 40.8483 37.7461C40.7072 37.9016 40.5439 37.98 40.3217 37.9905Z" fill="#00D1FF"/>
<path d="M35.1496 41.9485C35.1274 41.5787 35.1143 41.2494 35.0843 40.9227C35.0686 40.7424 35.1209 40.5947 35.2358 40.4627C35.6409 40.0002 36.0473 39.5376 36.4524 39.075C36.5138 39.0044 36.5857 38.943 36.6706 39.0227C37.0966 39.4187 37.5461 39.7911 37.8728 40.2811C37.9355 40.3739 37.9277 40.4471 37.8545 40.5255C37.4338 40.9737 37.0169 41.4258 36.5922 41.8701C36.3466 42.1275 36.0865 42.3719 35.8356 42.6241C35.7546 42.7051 35.6749 42.7273 35.586 42.6397C35.5743 42.628 35.5612 42.6188 35.5455 42.6123C35.2136 42.4908 35.0372 42.2804 35.1496 41.9485Z" fill="#00D1FF"/>
<path d="M75.1603 42.628C75.0571 42.5613 74.9355 42.5117 74.8532 42.4241C74.3279 41.874 73.8105 41.3173 73.293 40.7607C73.0173 40.464 73.0173 40.4588 73.2656 40.1491C73.5217 39.8303 73.7856 39.5154 74.0444 39.1978C74.1345 39.0868 74.2325 39.0567 74.3475 39.1573C74.5161 39.3076 74.6873 39.4552 74.8519 39.6107C75.1694 39.9113 75.4804 40.2171 75.798 40.5176C75.9443 40.6561 76.0058 40.7881 75.9443 41.0102C75.8241 41.4493 75.7588 41.9027 75.6699 42.3509C75.6503 42.4516 75.6137 42.5326 75.4896 42.543C75.389 42.5509 75.2884 42.5783 75.1877 42.5966C75.1773 42.6097 75.1681 42.6188 75.1603 42.628Z" fill="#00D1FF"/>
<path d="M70.2233 35.0386C70.2664 35.0634 70.3475 35.0895 70.3997 35.1431C70.8884 35.6384 71.3719 36.1388 71.8593 36.6341C71.9299 36.706 71.9208 36.7608 71.8528 36.8236C71.4438 37.1986 71.0361 37.5762 70.6271 37.9513C70.5199 38.0493 70.4442 38.0362 70.3344 37.9238C69.9254 37.5096 69.4994 37.111 69.0813 36.706C68.8957 36.5256 68.7128 36.3414 68.5246 36.1637C68.424 36.0683 68.3913 35.9598 68.4266 35.8265C68.4527 35.7272 68.4723 35.6266 68.4984 35.5286C68.5377 35.3783 68.6213 35.2999 68.7885 35.2764C69.2407 35.2124 69.6889 35.1248 70.1397 35.0477C70.1554 35.0464 70.1711 35.0451 70.2233 35.0386Z" fill="#00D1FF"/>
<path d="M54.561 78.6203C55.1909 78.6647 55.8037 78.6974 56.316 78.6164C56.0651 78.9078 55.7698 79.2528 55.464 79.6069C55.1438 79.2567 54.8524 78.9392 54.561 78.6203Z" fill="#00D1FF"/>
<path d="M56.2585 32.4134C55.7345 32.4303 55.2105 32.4473 54.6813 32.4643C54.6865 32.4513 54.6891 32.4225 54.7048 32.4042C54.9243 32.1585 55.1425 31.9129 55.3686 31.6751C55.3974 31.645 55.4967 31.6332 55.5228 31.6568C55.7855 31.892 56.039 32.135 56.2951 32.3768C56.2846 32.3898 56.2716 32.4016 56.2585 32.4134Z" fill="#00D1FF"/>
<path d="M32.4421 56.4505C32.1703 56.1879 31.922 55.9527 31.6816 55.7083C31.6528 55.6796 31.6463 55.5802 31.6724 55.5515C31.9259 55.2614 32.1912 54.9831 32.5401 54.7544C32.3506 55.3189 32.4525 55.869 32.4421 56.4505Z" fill="#00D1FF"/>
<path d="M78.5184 56.4832C78.5994 55.9069 78.6269 55.3594 78.5093 54.774C78.5798 54.8158 78.6308 54.838 78.6713 54.872C78.8895 55.0562 79.1051 55.2431 79.3208 55.43C79.3796 55.4822 79.4292 55.5371 79.3521 55.6194C79.0973 55.8899 78.8438 56.1617 78.5903 56.4335C78.5772 56.4479 78.5576 56.457 78.5184 56.4832Z" fill="#00D1FF"/>
<path d="M55.5175 68.5233C53.9259 68.5233 52.333 68.522 50.7414 68.5259C50.5885 68.5259 50.4801 68.4802 50.3716 68.373C48.814 66.8245 47.2512 65.2826 45.6922 63.7355C44.6116 62.6639 43.5388 61.5846 42.4568 60.5144C42.2556 60.3158 42.1719 60.1067 42.1719 59.8153C42.1824 57.0084 42.1902 54.2016 42.1654 51.3961C42.1602 50.8433 42.33 50.4435 42.7168 50.0554C45.2127 47.553 47.6902 45.031 50.173 42.5169C50.2305 42.4594 50.2919 42.4058 50.3468 42.347C50.4762 42.2072 50.6303 42.1497 50.8224 42.151C53.8932 42.1549 56.964 42.1602 60.0361 42.151C60.3563 42.1497 60.5915 42.2543 60.8097 42.4738C62.3294 43.9987 63.8531 45.5198 65.3767 47.0421C66.2692 47.9346 67.1643 48.8258 68.0542 49.7222C68.275 49.9443 68.4893 50.173 68.6866 50.4147C68.7637 50.5075 68.8212 50.6447 68.8264 50.7636C68.846 51.2915 68.846 51.8208 68.8474 52.3487C68.8513 54.8158 68.8513 57.2816 68.8565 59.7486C68.8565 59.9538 68.7454 60.0949 68.6187 60.2269C67.9771 60.8973 67.3355 61.5676 66.6873 62.2314C64.7168 64.2503 62.7423 66.2653 60.7731 68.2868C60.6124 68.4514 60.453 68.5337 60.2125 68.5324C58.6484 68.5181 57.0829 68.5246 55.5175 68.5233ZM60.1276 55.6874C60.1433 55.686 60.1577 55.6847 60.1733 55.6834C60.1263 55.3816 60.0675 55.081 60.0374 54.7779C59.9969 54.3846 59.8532 54.0265 59.6598 53.6933C59.3096 53.0909 58.8522 52.5747 58.3113 52.1357C58.2446 52.0821 58.178 52.0259 58.1035 51.9841C57.8826 51.8613 57.6527 51.7554 57.4371 51.6234C57.1444 51.4431 56.8438 51.3124 56.4897 51.2981C56.244 51.2876 55.9984 51.2367 55.7579 51.1818C55.5253 51.1282 55.3045 51.1308 55.0758 51.2027C54.9086 51.255 54.7269 51.3111 54.5583 51.2981C54.1912 51.268 53.9154 51.4366 53.6436 51.6365C53.5914 51.6744 53.5378 51.711 53.4868 51.7502C53.1523 52.0129 52.793 52.2494 52.4924 52.546C52.1997 52.8348 51.9593 53.1811 51.7097 53.5117C51.6182 53.6332 51.5464 53.7782 51.498 53.9233C51.3765 54.2957 51.2693 54.672 51.1661 55.0497C51.1282 55.1882 51.0995 55.3319 51.0955 55.4744C51.0838 55.8781 51.1583 56.2675 51.2471 56.6648C51.3543 57.1443 51.5764 57.556 51.826 57.9506C52.0795 58.3491 52.4049 58.7007 52.7119 59.0626C52.8152 59.1841 52.9445 59.2939 53.0831 59.3697C53.5927 59.6519 54.0905 59.946 54.6746 60.0845C55.2169 60.2138 55.7514 60.3249 56.2924 60.1812C56.6648 60.0819 57.0673 60.0649 57.4005 59.8218C57.7141 59.5945 58.0891 59.439 58.3635 59.175C59.0103 58.5504 59.631 57.897 59.8885 56.9915C60.01 56.5642 60.2008 56.1525 60.1276 55.6874Z" fill="#00D1FF"/>
<path d="M59.2483 55.3711C59.2483 55.6834 59.2693 55.9983 59.2418 56.308C59.2222 56.5289 59.1412 56.7445 59.0772 56.9601C58.9426 57.4201 58.6355 57.7742 58.3532 58.1466C57.9168 58.7202 57.3275 59.0626 56.6663 59.2782C56.2651 59.4089 55.8391 59.4546 55.4092 59.3867C55.1753 59.3501 54.9375 59.3475 54.7023 59.32C54.4096 59.286 54.1521 59.1567 53.8895 59.0286C53.142 58.6693 52.7409 58.0094 52.324 57.3403C51.834 56.555 51.8614 55.7396 52.064 54.8942C52.1385 54.5805 52.2221 54.2695 52.307 53.9585C52.3253 53.8919 52.3528 53.824 52.3933 53.7691C52.7775 53.2595 53.193 52.7903 53.7314 52.4245C54.0515 52.2062 54.39 52.1396 54.748 52.0638C55.0982 51.9893 55.4497 51.9253 55.8025 51.9671C56.239 52.0181 56.6885 52.0625 57.0975 52.2062C57.4176 52.3186 57.6881 52.5747 57.9756 52.7733C58.0945 52.8557 58.1964 52.9628 58.314 53.0491C58.7766 53.3836 58.9622 53.8867 59.1647 54.3885C59.2954 54.7138 59.2902 55.0392 59.2483 55.3711Z" fill="#00D1FF"/>
</g>
<defs>
<filter id="filter0_d_1_858" x="17" y="17" width="77" height="76.9263" filterUnits="userSpaceOnUse" color-interpolation-filters="sRGB">
<feFlood flood-opacity="0" result="BackgroundImageFix"/>
<feColorMatrix in="SourceAlpha" type="matrix" values="0 0 0 0 0 0 0 0 0 0 0 0 0 0 0 0 0 0 127 0" result="hardAlpha"/>
<feOffset/>
<feGaussianBlur stdDeviation="5"/>
<feComposite in2="hardAlpha" operator="out"/>
<feColorMatrix type="matrix" values="0 0 0 0 0 0 0 0 0 0.819608 0 0 0 0 1 0 0 0 0.4 0"/>
<feBlend mode="normal" in2="BackgroundImageFix" result="effect1_dropShadow_1_858"/>
<feBlend mode="normal" in="SourceGraphic" in2="effect1_dropShadow_1_858" result="shape"/>
</filter>
</defs>
</svg>
