<svg width="112" height="112" viewBox="0 0 112 112" fill="none" xmlns="http://www.w3.org/2000/svg">
<path d="M111.021 55.5107L55.5107 0L3.42338e-06 55.5107L55.5107 111.021L111.021 55.5107Z" fill="#0F0F0F"/>
<path d="M55.5107 1.41421L109.607 55.5107L55.5107 109.607L1.41422 55.5107L55.5107 1.41421Z" stroke="#00FEEF" stroke-width="2"/>
<g filter="url(#filter0_d_1_1051)">
<path d="M50.9406 71.8245V52.897L49.8519 50.0721L49.8375 46.4922H45.6182L45.6055 50.0721L44.5169 52.897V71.8245L45.0635 72.4559V73.0801L44.5169 73.4183V74.0497H50.9415V73.4183L50.3949 73.0801V72.4559L50.9406 71.8245Z" fill="#00FFF0"/>
<path d="M48.1139 35.3115H47.3346L45.6209 45.7742H49.8249L48.1139 35.3115Z" fill="#00FFF0"/>
<path d="M58.7912 71.8245V52.897L57.7026 50.0721L57.6891 46.4922H53.4688L53.4544 50.0721L52.3666 52.897V71.8245L52.9132 72.4559V73.0801L52.3666 73.4183V74.0497H58.7912V73.4183L58.2447 73.0801V72.4559L58.7912 71.8245Z" fill="#00FFF0"/>
<path d="M55.9645 35.3115H55.1852L53.4715 45.7742H57.6764L55.9645 35.3115Z" fill="#00FFF0"/>
<path d="M66.7122 71.8245V52.897L65.6236 50.0721L65.6091 46.4922H61.3898L61.3753 50.0721L60.2867 52.897V71.8245L60.8333 72.4559V73.0801L60.2867 73.4183V74.0497H66.7113V73.4183L66.1647 73.0801V72.4559L66.7122 71.8245Z" fill="#00FFF0"/>
<path d="M63.8864 35.3115H63.1071L61.3934 45.7742H65.5992L63.8864 35.3115Z" fill="#00FFF0"/>
<path d="M23.9378 55.5L55.5 23.9369L74.2923 42.7959L70.0909 46.9973H82.4153V34.6783L77.7612 39.3324L55.5 17L17 55.5L24.8299 63.136L28.2979 59.6679L23.9378 55.5Z" fill="#00FFF0"/>
<path d="M85.6226 46.9999L82.1546 50.468L87.0631 55.4991L55.5 87.0621L36.1936 67.8342L40.8919 63.1359H28.5703V75.4621L32.7274 71.305L55.5027 94.0018L94 55.4991L85.6226 46.9999Z" fill="#00FFF0"/>
</g>
<defs>
<filter id="filter0_d_1_1051" x="7" y="7" width="97" height="97.0018" filterUnits="userSpaceOnUse" color-interpolation-filters="sRGB">
<feFlood flood-opacity="0" result="BackgroundImageFix"/>
<feColorMatrix in="SourceAlpha" type="matrix" values="0 0 0 0 0 0 0 0 0 0 0 0 0 0 0 0 0 0 127 0" result="hardAlpha"/>
<feOffset/>
<feGaussianBlur stdDeviation="5"/>
<feComposite in2="hardAlpha" operator="out"/>
<feColorMatrix type="matrix" values="0 0 0 0 0 0 0 0 0 1 0 0 0 0 0.941176 0 0 0 0.3 0"/>
<feBlend mode="normal" in2="BackgroundImageFix" result="effect1_dropShadow_1_1051"/>
<feBlend mode="normal" in="SourceGraphic" in2="effect1_dropShadow_1_1051" result="shape"/>
</filter>
</defs>
</svg>
