<svg width="112" height="112" viewBox="0 0 112 112" fill="none" xmlns="http://www.w3.org/2000/svg">
<path d="M111.021 55.5107L55.5107 0L3.42338e-06 55.5107L55.5107 111.021L111.021 55.5107Z" fill="#0F0F0F"/>
<path d="M55.5107 1.41421L109.607 55.5107L55.5107 109.607L1.41422 55.5107L55.5107 1.41421Z" stroke="#00FEEF" stroke-width="2"/>
<g filter="url(#filter0_d_2_1103)">
<path d="M31.3444 71.7081C31.5824 70.1652 32.0222 68.6604 32.6524 67.2322C32.7943 66.9095 32.8681 66.5611 32.8692 66.2087C32.8703 65.8563 32.7987 65.5074 32.6588 65.1839C32.4742 64.7022 32.3219 64.2089 32.2029 63.707L34.7967 62.2661C34.7657 61.9938 34.7015 61.7262 34.6056 61.4695C33.8671 60.0341 34.5862 58.9071 35.3505 57.7837C37.1689 58.0606 37.2086 58.0606 38.1548 57.2492C37.9129 57.1819 37.7265 57.1357 37.5455 57.0739C37.3646 57.012 37.1837 56.9372 36.9695 56.8551C37.1791 55.9874 37.4015 55.2194 38.4566 54.9804C39.1959 54.7623 39.9184 54.4909 40.6184 54.1681L40.9553 54.876C41.8904 54.5151 42.8015 54.1837 43.6931 53.797C43.7818 53.734 43.8544 53.6511 43.905 53.5549C43.9557 53.4587 43.983 53.3519 43.9848 53.2431C43.9607 53.0846 43.9692 52.9228 44.0096 52.7676C44.05 52.6124 44.1215 52.4671 44.2199 52.3404C44.3182 52.2138 44.4413 52.1084 44.5816 52.0308C44.722 51.9532 44.8766 51.905 45.0362 51.889C45.6252 51.7056 46.2029 51.4874 46.766 51.2355L47.1749 52.2869L69.6737 43.587L69.2195 42.411L70.4352 41.9439L70.8478 43.011L71.9296 42.6538L74.1108 48.2937L73.4481 48.6445L74.9785 52.6044L69.7816 54.6139L70.0927 55.5942C69.8832 55.6865 69.694 55.7788 69.4964 55.8545C67.8977 56.4757 66.3146 57.1468 64.6965 57.7006C62.614 58.5081 60.6045 59.4926 58.6901 60.6433C58.3885 60.8133 58.0762 60.9634 57.7551 61.0929C54.9628 62.1793 52.1724 63.2722 49.3681 64.3236C49.0782 64.4056 48.8078 64.5452 48.5729 64.7339C48.3381 64.9226 48.1436 65.1566 48.0011 65.422C47.8381 65.7635 47.6003 66.0639 47.3053 66.3009C47.0103 66.5379 46.6657 66.7054 46.2971 66.7909C45.8618 66.9272 45.4352 67.0896 45.0196 67.2774C43.9571 67.7094 42.9113 68.2217 41.6966 67.8617L41.3596 68.6795C40.8427 68.6491 40.3027 68.6564 39.7766 68.5734C39.6954 68.5454 39.6088 68.5363 39.5236 68.5468C39.4383 68.5574 39.3566 68.5873 39.2847 68.6342C39.2127 68.6811 39.1525 68.7438 39.1085 68.8176C39.0644 68.8914 39.0379 68.9742 39.0307 69.0598C39.024 69.0797 39.016 69.0991 39.0067 69.118C38.1206 71.2567 38.1474 71.241 39.1914 73.2958C40.0627 75.0173 40.8639 76.7739 41.7372 78.6015L32.1189 82.3224L30.6623 78.5554C30.8958 76.2717 31.1746 73.9936 31.3444 71.7081ZM43.4365 63.9765C43.338 64.0341 43.2533 64.1127 43.1885 64.2067C43.1238 64.3007 43.0805 64.4078 43.0618 64.5204C43.0431 64.633 43.0495 64.7484 43.0804 64.8583C43.1114 64.9682 43.1661 65.0699 43.2408 65.1562C43.3784 65.2937 43.539 65.4073 43.6848 65.5365C43.8021 65.6426 43.9137 65.7553 44.0642 65.9002C43.6441 65.8911 43.237 65.7523 42.8989 65.5028C42.5607 65.2532 42.3081 64.9052 42.1756 64.5064L40.8012 65.0371C41.031 65.6316 41.2581 66.2371 41.5027 66.8297C41.5387 66.9174 41.6366 67.0392 41.7104 67.042C42.3675 67.137 43.0344 67.1432 43.6931 67.0605C44.5912 66.8025 45.4662 66.4703 46.3091 66.0673C46.5602 65.9561 46.7737 65.7747 46.9239 65.5448C47.6752 64.3448 47.6623 64.259 46.8131 62.6648C45.6639 63.1107 44.547 63.5325 43.4402 63.9765H43.4365Z" fill="#00FFEB"/>
<g opacity="0.5">
<path d="M40.0092 52.5933L41.4667 52.0302L41.8073 52.7409C41.9882 52.6708 42.167 52.6003 42.3436 52.5296C42.4457 51.9623 42.7187 51.4398 43.126 51.032C43.5333 50.6242 44.0555 50.3506 44.6226 50.2478C44.9421 50.1543 45.2546 50.0383 45.5577 49.9007C45.7525 49.8185 45.95 49.7355 46.154 49.657L47.7315 49.0478L48.1404 50.0991L67.4897 42.6223L67.0355 41.4464L71.4016 39.7581L71.8447 40.9027L72.9265 40.5454L75.4649 47.1112L80.3341 45.2291L78.8036 41.2691L79.4664 40.9184L77.2852 35.2775L76.2034 35.6348L75.7908 34.5668L74.5751 35.0338C74.7274 35.4298 74.8806 35.8258 75.0292 36.2098L52.5287 44.9088C52.3902 44.5497 52.2674 44.2331 52.1198 43.8574C51.5566 44.1093 50.979 44.3275 50.3899 44.5109C50.2308 44.527 50.0765 44.5753 49.9366 44.6527C49.7966 44.7301 49.6737 44.8351 49.5755 44.9613C49.4772 45.0875 49.4055 45.2324 49.3648 45.3871C49.3241 45.5418 49.3152 45.7031 49.3386 45.8614C49.3366 45.9701 49.3093 46.0768 49.2586 46.173C49.2079 46.2692 49.1354 46.3521 49.0469 46.4152C48.1561 46.801 47.2423 47.1333 46.3091 47.4943L45.9712 46.7872C45.2712 47.1097 44.5487 47.3812 43.8094 47.5995C42.7581 47.833 42.5319 48.6056 42.3224 49.4733C42.5365 49.5555 42.7147 49.6312 42.8984 49.6921C43.0821 49.753 43.2676 49.7982 43.5076 49.8675C42.5614 50.6751 42.5217 50.6816 40.7033 50.4019C40.1569 51.072 39.7968 51.8743 39.6593 52.728C39.7756 52.6856 39.8901 52.6413 40.0092 52.5933Z" fill="#00FFEB"/>
<path d="M45.6509 68.84L45.3906 68.9471C44.5683 69.3373 43.6838 69.58 42.7774 69.6643L42.459 70.4397L41.2544 70.3686C41.1122 70.3603 40.9682 70.3548 40.8224 70.3501C40.6765 70.3455 40.503 70.3381 40.3332 70.3289C40.2104 70.5947 40.1175 70.8734 40.0562 71.1597C40.2115 71.6014 40.4062 72.0284 40.6378 72.4353L40.6885 72.536C40.8541 72.8621 41.0162 73.1879 41.175 73.5135L47.0826 71.2298C46.6783 70.3834 46.2897 69.5545 45.902 68.7375C45.8143 68.7708 45.7349 68.8068 45.6509 68.84Z" fill="#00FFEB"/>
</g>
<path d="M36.7065 42.7977L55.4991 23.9368L68.2586 36.6972L72.4613 35.0726L72.0071 33.8985L72.2841 33.7896L55.4991 17L33.2385 39.3298L28.5844 34.6757V46.9995H40.9073L36.7065 42.7977Z" fill="#00FFEB"/>
<path d="M81.6689 43.1707L82.9021 46.3598L79.3095 47.7444L87.0632 55.4935L82.7027 59.6612L86.1706 63.1291L94 55.4935L81.6689 43.1707Z" fill="#00FFEB"/>
<path d="M30.4075 67.5903C30.533 67.257 30.6595 66.9238 30.7767 66.5869C30.9244 66.1567 30.8902 66.0829 30.857 66.0118C30.6736 65.5911 30.5278 65.1549 30.4213 64.7085C30.3835 64.5682 30.3466 64.4242 30.3041 64.2774L29.8426 62.747L30.7066 62.2679L23.9368 55.4981L28.8447 50.4675L25.3768 46.9995L17 55.4981L30.0539 68.553C30.1712 68.2207 30.2921 67.9004 30.4075 67.5903Z" fill="#00FFEB"/>
<path d="M74.8031 67.8331L55.4982 87.0604L43.2713 74.8336L42.3132 75.2028C42.4507 75.4945 42.5901 75.7788 42.7276 76.0788C42.9879 76.6326 43.2501 77.1865 43.5196 77.7514L44.4427 79.6898L42.0926 80.5962L55.4963 94L78.272 71.301L82.4258 75.4548V63.1347H70.1094L74.8031 67.8331Z" fill="#00FFEB"/>
</g>
<defs>
<filter id="filter0_d_2_1103" x="7" y="7" width="97.0001" height="97.0001" filterUnits="userSpaceOnUse" color-interpolation-filters="sRGB">
<feFlood flood-opacity="0" result="BackgroundImageFix"/>
<feColorMatrix in="SourceAlpha" type="matrix" values="0 0 0 0 0 0 0 0 0 0 0 0 0 0 0 0 0 0 127 0" result="hardAlpha"/>
<feOffset/>
<feGaussianBlur stdDeviation="5"/>
<feComposite in2="hardAlpha" operator="out"/>
<feColorMatrix type="matrix" values="0 0 0 0 0 0 0 0 0 1 0 0 0 0 0.921569 0 0 0 0.3 0"/>
<feBlend mode="normal" in2="BackgroundImageFix" result="effect1_dropShadow_2_1103"/>
<feBlend mode="normal" in="SourceGraphic" in2="effect1_dropShadow_2_1103" result="shape"/>
</filter>
</defs>
</svg>
