<svg width="112" height="112" viewBox="0 0 112 112" fill="none" xmlns="http://www.w3.org/2000/svg">
<path d="M111.022 55.5107L55.511 0L0.000308599 55.5107L55.511 111.021L111.022 55.5107Z" fill="#0F0F0F"/>
<path d="M55.511 1.41421L109.608 55.5107L55.511 109.607L1.41452 55.5107L55.511 1.41421Z" stroke="#50D91D" stroke-width="2"/>
<g filter="url(#filter0_d_1_678)">
<path d="M86 55.465L84.8776 42.6315L84.8848 42.6234L73.1203 32.7487L71.3909 34.8097L82.2929 43.9596L83.2224 54.5881L77.8574 60.9813L77.7089 65.3443L86 55.4641V55.465Z" fill="#50D91D"/>
<path d="M79.2109 45.1799L80.2147 46.0224L81.647 44.3156L72.0151 36.2365L70.5837 37.9405L71.5875 38.783L68.5797 42.3669L64.5864 39.0177L59.3836 47.0171L61.4863 48.7819L71.1173 56.8637L73.2209 58.6285L80.1966 52.113L76.205 48.761L79.2109 45.1799Z" fill="#50D91D"/>
<path d="M60.4335 50.0434L44.8116 68.6537L54.4422 76.7379L70.0641 58.1276L60.4335 50.0434Z" fill="#50D91D"/>
<path d="M41.6508 68.149L34.675 74.6645L50.2862 87.7599L55.4908 79.7604L41.6508 68.149Z" fill="#50D91D"/>
<path d="M43.5315 67.9317L43.5849 67.9761L43.6484 67.9009L43.5315 67.9317Z" fill="#50D91D"/>
<path d="M33.2672 64.9693C32.7564 61.9337 33.211 58.8143 34.567 56.0509C35.9231 53.2874 38.1121 51.0191 40.8257 49.5658C43.5393 48.1125 46.6405 47.5473 49.6923 47.9501C52.7441 48.3528 55.5926 49.703 57.8362 51.8105C56.6714 50.1037 55.1598 48.6615 53.4002 47.578C51.6406 46.4945 49.6724 45.794 47.624 45.5222C45.5755 45.2504 43.4927 45.4133 41.5114 46.0004C39.5301 46.5875 37.6948 47.5855 36.1251 48.9294C34.5554 50.2734 33.2865 51.933 32.4012 53.8002C31.516 55.6674 31.0341 57.7003 30.9871 59.7662C30.9402 61.8321 31.3291 63.8847 32.1286 65.7902C32.9281 67.6957 34.1202 69.4113 35.6272 70.8252C34.4241 69.068 33.6188 67.0696 33.2672 64.9693V64.9693Z" fill="#50D91D"/>
<path d="M59.3501 39.9001L59.3691 39.9236L59.3528 39.8947L59.3501 39.9001Z" fill="#50D91D"/>
<path d="M52.946 33.4254C49.7988 31.7322 46.1649 31.1732 42.6543 31.8424C39.1437 32.5115 35.9702 34.368 33.6665 37.1002C31.3628 39.8324 30.0691 43.2739 30.0027 46.8471C29.9363 50.4202 31.1011 53.9075 33.3016 56.7234C31.8908 54.0235 31.3031 50.9689 31.6113 47.9383C31.9195 44.9076 33.1102 42.0339 35.0357 39.6734C36.9613 37.3128 39.5371 35.569 42.444 34.6581C45.3509 33.7472 48.4613 33.7092 51.3896 34.5488C51.8303 34.0766 52.359 33.695 52.946 33.4254V33.4254Z" fill="#50D91D"/>
<path d="M68.0108 37.388C66.5616 34.71 64.1626 32.6714 61.2859 31.6734C58.4092 30.6753 55.2631 30.7901 52.4667 31.9951C49.6704 33.2001 47.4263 35.4081 46.176 38.1845C44.9258 40.9609 44.76 44.1047 45.7112 46.9973L45.7483 46.9855C45.9105 46.9439 46.076 46.9166 46.243 46.9039C45.8149 44.1538 46.341 41.34 47.7339 38.9304C49.1268 36.5208 51.3025 34.6606 53.8993 33.6591C56.4961 32.6576 59.3575 32.5751 62.0077 33.4254C64.6579 34.2757 66.9371 36.0075 68.4665 38.3329C68.3279 38.0131 68.1784 37.6987 68.0108 37.388Z" fill="#50D91D"/>
</g>
<defs>
<filter id="filter0_d_1_678" x="20" y="21" width="76" height="76.7599" filterUnits="userSpaceOnUse" color-interpolation-filters="sRGB">
<feFlood flood-opacity="0" result="BackgroundImageFix"/>
<feColorMatrix in="SourceAlpha" type="matrix" values="0 0 0 0 0 0 0 0 0 0 0 0 0 0 0 0 0 0 127 0" result="hardAlpha"/>
<feOffset/>
<feGaussianBlur stdDeviation="5"/>
<feComposite in2="hardAlpha" operator="out"/>
<feColorMatrix type="matrix" values="0 0 0 0 0.313726 0 0 0 0 0.85098 0 0 0 0 0.113725 0 0 0 0.4 0"/>
<feBlend mode="normal" in2="BackgroundImageFix" result="effect1_dropShadow_1_678"/>
<feBlend mode="normal" in="SourceGraphic" in2="effect1_dropShadow_1_678" result="shape"/>
</filter>
</defs>
</svg>
