<svg width="112" height="112" viewBox="0 0 112 112" fill="none" xmlns="http://www.w3.org/2000/svg">
<path d="M111.021 55.5107L55.5107 0L3.42338e-06 55.5107L55.5107 111.021L111.021 55.5107Z" fill="#0F0F0F"/>
<path d="M55.5107 1.41421L109.607 55.5107L55.5107 109.607L1.41422 55.5107L55.5107 1.41421Z" stroke="#FF8900" stroke-width="2"/>
<g filter="url(#filter0_d_1_1000)">
<g opacity="0.5">
<path d="M64.9784 63.689L51.9229 50.6336L64.9784 37.5772H58.4683L45.4128 50.6336L58.4693 63.689H64.9784Z" fill="#FF9B26"/>
<path d="M67.3651 62.292L55.7086 50.6336L67.3651 38.9771H75.6589L64.0033 50.6336L75.6589 62.292H67.3651Z" fill="#FF9B26" stroke="#FFCD4B" stroke-miterlimit="10"/>
<path d="M73.0862 61.224L62.4957 50.6326L73.0862 40.0422H67.8056L57.2152 50.6326L67.8056 61.224H73.0862Z" fill="#FF9B26"/>
<path d="M80.6868 59.3326L71.9839 50.6297L80.6868 41.9267H76.3471L67.6441 50.6297L76.3471 59.3326H80.6868Z" fill="#FF9B26"/>
</g>
<path d="M59.0185 32C59.4805 32.1243 59.9407 32.2584 60.4066 32.3671C60.4808 32.3776 60.5496 32.4119 60.6025 32.4649C60.6555 32.5179 60.6898 32.5866 60.7003 32.6608C60.8393 33.1953 60.994 33.724 61.1556 34.2526C61.173 34.2944 61.1768 34.3407 61.1664 34.3848C61.1561 34.4289 61.1321 34.4686 61.0978 34.4983C60.9196 34.6784 60.7463 34.8654 60.5829 35.0583C60.5188 35.1367 60.472 35.2277 60.4458 35.3255C60.392 35.5213 60.3646 35.7308 60.3097 35.9286C60.2987 35.9595 60.281 35.9875 60.2578 36.0107C60.2346 36.0339 60.2065 36.0517 60.1756 36.0627C59.5882 36.2076 58.992 36.3456 58.3978 36.4797C58.3694 36.4868 58.3398 36.4878 58.311 36.4828C58.2822 36.4777 58.2547 36.4667 58.2304 36.4504C57.8989 36.1677 57.4786 36.0104 57.0429 36.0059C56.4311 35.9442 55.8222 35.8591 55.2142 35.7749C55.1806 35.765 55.1444 35.7681 55.113 35.7837C55.0816 35.7993 55.0573 35.8263 55.0449 35.8591C54.9205 36.0852 54.7943 36.3114 54.6601 36.5316C54.623 36.591 54.5687 36.6378 54.5045 36.6657C52.6562 37.3987 50.8056 38.1277 48.9528 38.8527C48.8899 38.8746 48.8235 38.8848 48.757 38.8831C48.3586 38.8831 47.9601 38.8831 47.5617 38.8831C47.4902 38.8833 47.4211 38.9082 47.3659 38.9536C45.9164 40.2967 44.4688 41.6425 43.0232 42.9908C43.0085 43.0045 42.9958 43.0212 42.9762 43.0437C42.9968 43.0887 43.0164 43.1347 43.0398 43.1798C44.6976 46.3451 46.3569 49.5104 48.0179 52.6757C48.0695 52.7672 48.1477 52.8409 48.2421 52.8872C49.9964 53.7173 51.7523 54.5442 53.5099 55.3678C53.6024 55.4122 53.6873 55.4711 53.7614 55.5421C54.5387 56.2868 55.3147 57.0327 56.0894 57.78C56.1559 57.8439 56.2331 57.8956 56.3175 57.9327C59.2544 59.1799 62.1968 60.4232 65.1448 61.6626C65.361 61.7307 65.5868 61.7638 65.8135 61.7605C66.7924 61.827 67.7645 61.8828 68.7396 61.9416C69.4934 61.9866 70.2462 62.0336 71.001 62.0757C71.2429 62.0836 71.4814 62.1354 71.7049 62.2284C74.4427 63.4123 77.1838 64.5926 79.9281 65.7693C79.9739 65.7905 80.0235 65.8023 80.074 65.804C80.1244 65.8057 80.1747 65.7972 80.2218 65.7791C80.6134 65.6479 81.005 65.5295 81.3966 65.3983C81.4352 65.3806 81.4789 65.3775 81.5197 65.3893C81.5605 65.4012 81.5957 65.4273 81.6188 65.4629C83.4312 67.5344 85.2455 69.6036 87.0618 71.6705L87.9517 72.6857C87.9184 72.7229 87.8852 72.7601 87.8489 72.7944C87.5817 73.0538 87.3115 73.3103 87.0472 73.5775C87.0157 73.6165 86.973 73.645 86.9249 73.6592C86.8768 73.6734 86.8256 73.6725 86.7779 73.6568C85.3956 73.3191 84.0104 72.9882 82.6262 72.6544C82.6013 72.6456 82.5771 72.6351 82.5537 72.623L83.3144 71.6441C83.283 71.6079 83.2547 71.5726 83.2224 71.5462C82.8455 71.1771 82.4656 70.811 82.0917 70.438C82.0182 70.3656 81.9644 70.3401 81.8684 70.4028C81.7217 70.5242 81.5493 70.6109 81.3643 70.6563C81.1767 70.6273 80.9969 70.5607 80.8356 70.4605C79.9879 70.1071 79.1391 69.7557 78.2903 69.3974C78.2124 69.3619 78.145 69.3069 78.0945 69.2378C77.8292 68.8687 77.5698 68.4948 77.3114 68.1188C77.2917 68.0843 77.2632 68.0556 77.2288 68.0357C77.1944 68.0157 77.1553 68.0052 77.1156 68.0053C75.8341 67.9495 74.5527 67.8878 73.2712 67.8291C72.2531 67.783 71.235 67.7419 70.2168 67.6949C69.1837 67.648 68.1506 67.5993 67.1174 67.5491C67.0822 67.5491 67.047 67.5432 66.9804 67.5363V66.2813C66.5066 66.2568 66.0641 66.2333 65.6206 66.2118C64.7787 66.1707 63.9368 66.1325 63.0949 66.0894C63.0271 66.0841 62.9609 66.0669 62.8991 66.0385C62.4096 65.8271 61.9201 65.6137 61.3797 65.3817L61.9319 66.5848C61.7028 66.5476 61.4923 66.5153 61.2828 66.48L57.1046 65.7742C56.4839 65.6695 55.8623 65.5667 55.2446 65.458C55.1587 65.4384 55.0764 65.4053 55.0008 65.3601C53.4058 64.4993 51.8114 63.6375 50.2176 62.7747C50.1831 62.7457 50.1386 62.7313 50.0936 62.7346C50.0486 62.7379 50.0067 62.7586 49.9768 62.7923C47.9431 64.6432 45.9085 66.4905 43.8729 68.3342C43.8426 68.3616 43.8103 68.3861 43.7467 68.438C43.9943 68.4634 44.2009 68.4879 44.4075 68.5045L48.5308 68.8756C49.6224 68.9735 50.7139 69.0714 51.8045 69.1644C52.3038 69.2084 52.803 69.2623 53.3023 69.2995C53.3334 69.2984 53.3639 69.2913 53.3921 69.2783C53.4204 69.2654 53.4457 69.2469 53.4668 69.2241C53.6459 69.0283 53.8133 68.8119 53.9915 68.6112C54.0118 68.5933 54.036 68.5805 54.0622 68.5737C54.0884 68.5669 54.1158 68.5663 54.1423 68.5721C54.9812 68.8756 55.8182 69.1879 56.6572 69.4904C56.7551 69.5236 56.7551 69.5785 56.7551 69.6548C56.7199 70.5594 56.6846 71.4639 56.6494 72.3685C56.6128 73.2887 56.5756 74.2086 56.5378 75.1282L56.387 78.8962C56.3849 78.931 56.381 78.9656 56.3753 79C56.0082 78.9422 55.6489 78.8698 55.2857 78.8326C55.1952 78.8267 55.1084 78.7944 55.0362 78.7395C54.9639 78.6847 54.9094 78.6098 54.8794 78.5242C54.292 77.3495 53.6949 76.1855 53.0909 75L53.8016 74.7454L52.6268 72.6407L50.0659 73.0538L46.8862 73.5668L43.5372 74.1062C42.4055 74.2883 41.2718 74.4557 40.1451 74.6642C40.0178 74.7047 39.8804 74.6993 39.7566 74.6491C39.6329 74.5988 39.5306 74.5068 39.4676 74.3891C39.1935 73.9975 38.8802 73.6255 38.5797 73.2535C38.5227 73.1841 38.4447 73.1349 38.3575 73.1135C37.6849 72.9794 37.0094 72.8541 36.3349 72.7307C36.2923 72.728 36.2517 72.7114 36.2193 72.6835C36.187 72.6556 36.1647 72.6179 36.1558 72.5761C35.9463 71.8741 35.728 71.1752 35.5165 70.4732C35.4976 70.4054 35.4976 70.3336 35.5165 70.2657C35.7939 69.2933 36.0745 68.3221 36.3584 67.3523C36.3809 67.2824 36.4139 67.2164 36.4563 67.1565C37.1037 66.1775 37.7525 65.1986 38.4025 64.2196C38.4549 64.1429 38.5142 64.0712 38.5797 64.0052C39.8582 62.6862 41.1374 61.3682 42.4172 60.0512L42.5572 59.9053C42.5239 59.8632 42.4965 59.8221 42.4652 59.7839L40.5073 57.4344C40.4344 57.3414 40.3299 57.2783 40.2136 57.2572C39.6536 57.1398 39.0936 57.0164 38.5376 56.8823C38.4525 56.852 38.3789 56.7958 38.3271 56.7217C37.6255 55.8198 36.9269 54.9152 36.2312 54.0081C36.2096 53.9797 36.1871 53.9523 36.1421 53.8965C36.1068 54.1657 36.0735 54.4055 36.0442 54.6473L35.7133 57.3551C35.616 58.1501 35.5181 58.945 35.4196 59.7399C35.3648 60.1912 35.3129 60.6415 35.2522 61.0928C35.2413 61.1618 35.2066 61.2248 35.1543 61.271C34.5787 61.7272 33.9981 62.1775 33.4069 62.6415L32.5013 61.8691L27.0348 57.1897C26.9672 57.1336 26.8952 57.0832 26.8194 57.0389C25.879 56.4737 24.9392 55.9092 24 55.3453V55.314C24.0225 55.2739 24.046 55.2347 24.0666 55.1926L25.4841 52.0785C25.5066 52.0296 25.5311 51.9806 25.5575 51.9297C25.9031 52.1441 26.2301 52.3526 26.5629 52.5504C26.6595 52.6077 26.7651 52.6481 26.8752 52.6698C27.1993 52.7325 27.5262 52.7824 27.8542 52.8333C27.8925 52.8341 27.9291 52.8488 27.9573 52.8748C27.9854 52.9008 28.0031 52.9362 28.0069 52.9743C28.1185 53.5421 28.2321 54.1079 28.3554 54.6718C28.3757 54.7606 28.4208 54.8418 28.4856 54.9058C29.1513 55.5343 29.8248 56.1549 30.4925 56.7815C30.5265 56.8223 30.5715 56.8525 30.6221 56.8687C30.6728 56.8848 30.727 56.8861 30.7783 56.8725C30.9302 56.8425 31.0834 56.8203 31.2375 56.8059L32.3212 56.6473C32.3447 56.2558 32.3672 55.8887 32.3878 55.5176C32.4367 54.6708 32.4856 53.824 32.5356 52.9782C32.5418 52.9358 32.5373 52.8925 32.5224 52.8523C32.5075 52.8121 32.4828 52.7763 32.4504 52.7481C32.0941 52.4172 31.742 52.0818 31.3941 51.7418C31.342 51.6882 31.3078 51.6198 31.2962 51.546C31.2659 51.3316 31.2541 51.1142 31.2345 50.8979C31.1562 50.0589 31.075 49.2209 31.0035 48.382C31.0048 48.3463 31.0134 48.3112 31.0289 48.279C31.0444 48.2469 31.0664 48.2182 31.0936 48.195C31.3226 48.01 31.5615 47.8367 31.7955 47.6585L32.3829 47.2111L31.9815 46.7823L30.2096 48.0246C30.1019 47.9473 30.004 47.8709 29.8992 47.8054C29.8624 47.7875 29.8336 47.7564 29.8186 47.7184C29.8035 47.6803 29.8033 47.638 29.818 47.5998C29.8845 47.3188 29.9433 47.0359 29.9971 46.753C30.0068 46.6899 29.995 46.6255 29.9638 46.5699C29.7866 46.2762 29.6006 45.9825 29.4176 45.6888L28.5365 44.2654L30.2125 42.3702L29.2453 40.9722L26.7 43.4343C26.6853 43.3902 26.6765 43.3677 26.6706 43.3442C26.4934 42.6178 26.3143 41.8914 26.1439 41.1631C26.1264 41.0811 26.1357 40.9957 26.1704 40.9193C26.6233 40.0056 27.0801 39.0975 27.5409 38.1949C27.5793 38.1238 27.6361 38.0642 27.7054 38.0226C28.467 37.5752 29.2326 37.1347 29.9942 36.6863C30.0289 36.6619 30.0702 36.6487 30.1126 36.6487C30.1551 36.6487 30.1964 36.6619 30.2311 36.6863C31.071 37.1542 31.9139 37.6134 32.7529 38.0813C32.8294 38.1273 32.8899 38.1956 32.9262 38.2771C33.1445 38.8067 33.3511 39.3412 33.5606 39.8728C33.6075 39.9913 33.6584 40.1097 33.7142 40.2468L36.4416 37.9237C36.7353 38.1469 37.029 38.3584 37.3168 38.5816C37.348 38.6142 37.3902 38.6341 37.4352 38.6375C37.4801 38.641 37.5248 38.6277 37.5606 38.6002C37.916 38.3887 38.2782 38.191 38.6375 37.9805C38.6675 37.9581 38.7041 37.9464 38.7416 37.9473C38.779 37.9481 38.8151 37.9616 38.844 37.9854C39.0672 38.1352 39.2924 38.2791 39.5234 38.42C39.5503 38.4342 39.58 38.4425 39.6104 38.4444C39.6407 38.4463 39.6712 38.4416 39.6996 38.4308C41.2438 37.6392 42.7863 36.8455 44.3272 36.05C44.3587 36.0354 44.385 36.0116 44.4025 35.9817C44.42 35.9517 44.4279 35.9171 44.4251 35.8826C44.4339 35.6966 44.4584 35.5125 44.4701 35.3265C44.475 35.2433 44.5122 35.2139 44.5895 35.1973C46.0156 34.8984 47.4403 34.5985 48.8637 34.2976C51.78 33.6799 54.7101 33.1229 57.5892 32.3397C58.0278 32.2252 58.4595 32.1145 58.8942 32H59.0185Z" fill="#FF9B26"/>
</g>
<defs>
<filter id="filter0_d_1_1000" x="14" y="22" width="83.9517" height="67" filterUnits="userSpaceOnUse" color-interpolation-filters="sRGB">
<feFlood flood-opacity="0" result="BackgroundImageFix"/>
<feColorMatrix in="SourceAlpha" type="matrix" values="0 0 0 0 0 0 0 0 0 0 0 0 0 0 0 0 0 0 127 0" result="hardAlpha"/>
<feOffset/>
<feGaussianBlur stdDeviation="5"/>
<feComposite in2="hardAlpha" operator="out"/>
<feColorMatrix type="matrix" values="0 0 0 0 1 0 0 0 0 0.537255 0 0 0 0 0 0 0 0 0.4 0"/>
<feBlend mode="normal" in2="BackgroundImageFix" result="effect1_dropShadow_1_1000"/>
<feBlend mode="normal" in="SourceGraphic" in2="effect1_dropShadow_1_1000" result="shape"/>
</filter>
</defs>
</svg>
