<svg width="112" height="112" viewBox="0 0 112 112" fill="none" xmlns="http://www.w3.org/2000/svg">
<path d="M111.022 55.5107L55.511 0L0.000278082 55.5107L55.511 111.021L111.022 55.5107Z" fill="#0F0F0F"/>
<path d="M55.511 1.41421L109.607 55.5107L55.511 109.607L1.41449 55.5107L55.511 1.41421Z" stroke="#00D1FF" stroke-width="2"/>
<path d="M61.5818 35.8965C61.6907 35.9338 61.8012 35.9673 61.9078 36.0101C62.0952 36.0847 62.2804 36.168 62.4679 36.2434C62.7868 36.3726 63.1073 36.497 63.4255 36.6277C63.8215 36.7903 64.2237 36.9405 64.608 37.1272C65.0545 37.3442 65.4987 37.5721 65.9195 37.8351C66.5193 38.2093 67.0989 38.6161 67.6823 39.016C67.9881 39.226 68.2992 39.4322 68.5816 39.671C68.9255 39.9619 69.2452 40.2817 69.568 40.596C69.9765 40.9935 70.3911 41.3871 70.7793 41.8041C71.1177 42.1674 71.4374 42.5509 71.7385 42.9453C72.1259 43.4525 72.5016 43.9706 72.854 44.5019C73.1341 44.9244 73.4118 45.3507 73.5868 45.8361C73.6895 46.1216 73.8645 46.3806 73.9906 46.6591C74.1633 47.0427 74.3204 47.4332 74.4838 47.8206C74.5888 48.0711 74.7094 48.3161 74.7949 48.5729C75.0073 49.2076 75.2166 49.844 75.4002 50.4873C75.4881 50.7946 75.4982 51.1237 75.5752 51.4341C75.7137 51.9903 75.7082 52.5636 75.8039 53.1253C75.8459 53.3735 75.8669 53.6232 75.9393 53.8674C75.9751 53.9888 75.9618 54.1257 75.9657 54.2549C75.9782 54.6446 76.0163 55.0367 75.9922 55.4249C75.958 55.9733 76.0179 56.5272 75.8755 57.0702C75.8242 57.2639 75.8304 57.4724 75.7985 57.6723C75.7681 57.8683 75.7261 58.0628 75.6833 58.2565C75.6631 58.3499 75.5939 58.3429 75.5511 58.2845C75.4655 58.1686 75.3737 58.0504 75.3232 57.9181C75.1839 57.5525 74.9925 57.2227 74.7343 56.9278C74.2099 56.3288 73.6903 55.7251 73.1706 55.1222C72.749 54.6321 72.3281 54.1413 71.9088 53.6496C71.614 53.3042 71.2927 52.9962 70.8851 52.7776C70.4984 52.5699 70.1305 52.3264 69.7524 52.1023C69.3938 51.8899 69.0313 51.6846 68.6726 51.473C68.5015 51.3718 68.3381 51.2583 68.1662 51.1595C68.1296 51.1385 68.0526 51.1361 68.0246 51.1602C67.9297 51.2419 67.8457 51.3368 67.7617 51.431C67.7033 51.4963 67.7088 51.5655 67.7562 51.641C67.8854 51.8448 68.0939 51.9483 68.2883 52.0673C68.8391 52.4042 69.3938 52.7348 69.9469 53.0685C70.3195 53.2933 70.6921 53.5189 71.064 53.7469C71.1185 53.7803 71.1729 53.82 71.2157 53.8667C71.7081 54.4011 72.2107 54.9278 72.6868 55.4762C73.1053 55.9585 73.4943 56.4665 73.8957 56.9636C74.0326 57.1332 74.1687 57.3036 74.3033 57.4747C74.4908 57.7128 74.5974 57.9897 74.7 58.2713C74.8323 58.6338 74.9474 59.0057 75.117 59.3511C75.2866 59.6972 75.271 60.0263 75.1505 60.3694C74.9793 60.8595 74.8198 61.3542 74.63 61.8373C74.4962 62.1781 74.3251 62.5048 74.1633 62.8339C73.9392 63.289 73.7331 63.7557 73.4756 64.1913C73.0905 64.8425 72.6681 65.4718 72.2612 66.1097C72.0559 66.4318 71.8699 66.7686 71.6389 67.0712C71.3285 67.4781 70.9885 67.8632 70.6501 68.2475C70.2456 68.7065 69.8426 69.1693 69.4125 69.6042C69.1231 69.8967 68.7886 70.1448 68.4719 70.4093C68.1312 70.6933 67.792 70.9803 67.4435 71.2542C66.9332 71.6556 66.4563 72.1037 65.8814 72.4172C65.2809 72.7455 64.6741 73.0613 64.0696 73.3818C63.6682 73.595 63.2684 73.8128 62.8638 74.0189C62.3193 74.2967 61.7716 74.565 61.1788 74.7346C60.8194 74.8373 60.4733 74.9843 60.1193 75.1057C59.4332 75.3406 58.7501 75.5841 58.0212 75.6697C57.6043 75.7187 57.1951 75.8315 56.7789 75.8875C56.3129 75.9505 55.8438 76.0027 55.3747 76.019C54.9764 76.033 54.5937 75.914 54.2475 75.7148C53.7908 75.4527 53.3552 75.1516 52.8884 74.9112C52.41 74.6638 52.0833 74.2648 51.7239 73.8906C51.4034 73.5576 51.1334 73.1897 50.8736 72.81C50.5733 72.3713 50.2567 71.9442 49.9549 71.507C49.6702 71.0947 49.394 70.677 49.1155 70.2608C48.8245 69.8251 48.6441 69.3342 48.4332 68.8589C48.3422 68.6528 48.2325 68.4536 48.1524 68.2428C48.098 68.0981 48.0661 67.9418 48.0497 67.7877C48.0287 67.594 48.0326 67.398 48.0295 67.2027C48.0272 67.0705 48.077 67.0137 48.21 67.0028C48.5476 66.9748 48.8868 66.9584 49.2236 66.9227C49.492 66.8947 49.7581 66.8425 50.0257 66.8075C50.2264 66.7811 50.4294 66.7694 50.6293 66.7398C50.7896 66.7157 50.9491 66.6815 51.1054 66.6379C51.4718 66.536 51.8375 66.4295 52.2008 66.3174C52.4178 66.2505 52.6364 66.1813 52.8449 66.0911C53.2471 65.9176 53.643 65.7285 54.0413 65.5457C54.4365 65.3645 54.8309 65.1817 55.2269 65.0027C55.4556 64.8993 55.6937 64.8153 55.9154 64.6986C56.1106 64.5959 56.2896 64.4628 56.4739 64.3399C56.719 64.1773 56.9617 64.0116 57.2052 63.8475C57.5187 63.6367 57.8306 63.4228 58.1465 63.215C58.5168 62.9716 58.8987 62.746 59.2589 62.4892C59.6658 62.1998 60.089 61.9354 60.4375 61.5643C61.0404 60.9233 61.6721 60.3087 62.2897 59.6809C62.4935 59.4732 62.702 59.2694 62.888 59.0461C63.1711 58.7054 63.4418 58.3545 63.7079 57.9998C64.0222 57.5813 64.3256 57.1542 64.6352 56.7318C64.9471 56.3055 65.2334 55.8652 65.4349 55.372C65.5485 55.0935 65.6916 54.8266 65.8184 54.5536C65.9538 54.2626 66.0852 53.9701 66.2183 53.6792C66.3653 53.3571 66.51 53.0335 66.6594 52.7122C66.8219 52.3629 66.9923 52.0175 67.1502 51.6667C67.1884 51.5819 67.1946 51.4815 67.2101 51.3874C67.2459 51.1696 67.277 50.9502 67.3136 50.7324C67.3533 50.4951 67.3945 50.2586 67.4412 50.0221C67.4964 49.7421 67.5602 49.4636 67.6139 49.1827C67.6341 49.0785 67.6481 48.9696 67.6427 48.8638C67.6123 48.2601 67.7142 47.6658 67.7586 47.0676C67.799 46.5191 67.813 45.9691 67.7018 45.4207C67.617 45.0053 67.5781 44.5813 67.5034 44.1635C67.4233 43.7162 67.3463 43.2666 67.2272 42.8286C67.151 42.5478 67.0024 42.2856 66.8857 42.0157C66.7138 41.6197 66.5419 41.223 66.3669 40.8278C66.2307 40.5205 66.1133 40.2008 65.9444 39.9129C65.8044 39.6749 65.6099 39.4664 65.4232 39.2595C64.8553 38.6278 64.2898 37.9938 63.7017 37.3808C63.4387 37.1062 63.1322 36.8705 62.8304 36.6371C62.6849 36.5251 62.5037 36.4597 62.3403 36.3695C62.082 36.2263 61.8261 36.0809 61.5686 35.9362C61.5733 35.9229 61.5779 35.9097 61.5818 35.8965Z" fill="#00D1FF"/>
<path d="M38.1078 49.5593C38.0961 49.4029 38.0844 49.2465 38.0712 49.091C38.0689 49.0606 38.0689 49.0194 38.0502 49.003C37.939 48.9042 38.0059 48.8062 38.0541 48.7175C38.198 48.4499 38.2221 48.159 38.2564 47.8649C38.2758 47.6977 38.3279 47.5234 38.4104 47.378C38.5963 47.0528 38.7496 46.7175 38.8165 46.3495C38.8997 45.8905 39.1564 45.521 39.4092 45.1476C39.6364 44.8131 39.8643 44.4794 40.0977 44.1495C40.4066 43.7131 40.7216 43.2814 41.032 42.8465C41.1876 42.6287 41.3494 42.4155 41.4902 42.1884C41.7625 41.7489 42.1553 41.44 42.5715 41.1522C42.8166 40.9834 43.0562 40.8076 43.2997 40.6364C43.4467 40.5337 43.5961 40.4349 43.7439 40.3338C43.9578 40.1875 44.171 40.0397 44.3857 39.8943C44.7956 39.615 45.2048 39.3357 45.6156 39.058C45.789 38.9405 45.9563 38.8059 46.1446 38.7188C46.3507 38.6239 46.5779 38.5726 46.7965 38.5064C47.1504 38.3999 47.5044 38.2941 47.8607 38.1945C48.0699 38.1361 48.2823 38.091 48.4931 38.0373C48.7001 37.9844 48.9054 37.9261 49.1124 37.8732C49.408 37.7985 49.7044 37.727 50.0015 37.6562C50.0381 37.6476 50.0778 37.6484 50.1159 37.6523C50.6713 37.7052 51.2276 37.7596 51.783 37.8133C51.8476 37.8195 51.9129 37.8234 51.9775 37.8296C52.2809 37.8569 52.5882 37.8654 52.8877 37.9183C53.1148 37.958 53.3334 38.0498 53.5536 38.1245C54.1323 38.3205 54.7119 38.5142 55.2883 38.7188C55.6532 38.8487 56.0492 38.9102 56.3526 39.1832C56.449 39.2704 56.5502 39.352 56.6466 39.4392C56.8543 39.6259 57.0543 39.8227 57.2682 40.0016C57.6369 40.3089 57.9092 40.6815 58.1052 41.1211C58.3052 41.5715 58.5417 42.0056 58.7462 42.4537C58.8217 42.6186 58.8723 42.7998 58.9018 42.9788C58.9641 43.3561 58.9664 43.7466 59.0621 44.1138C59.2068 44.6731 59.1578 45.2386 59.199 45.8011C59.2037 45.8657 59.2146 45.9318 59.2107 45.9956C59.2006 46.1473 59.2278 46.2717 59.3803 46.3511C59.4129 46.3682 59.4409 46.4787 59.4192 46.5051C59.206 46.7719 59.2122 47.1088 59.1251 47.413C59.0084 47.8198 58.9423 48.2399 58.8396 48.6514C58.754 48.9929 58.5673 49.2893 58.3861 49.5865C58.05 50.138 57.7163 50.6912 57.3732 51.2388C56.9967 51.8417 56.6248 52.4485 56.2234 53.0343C56.0437 53.2964 55.808 53.5236 55.5801 53.7484C55.0277 54.2945 54.4645 54.8297 53.9052 55.3688C53.678 55.5874 53.4166 55.7586 53.1444 55.9165C52.5531 56.2596 51.972 56.6213 51.3769 56.9566C51.1529 57.0826 50.9032 57.1651 50.6612 57.2561C50.4403 57.3393 50.2139 57.4109 49.9891 57.4833C49.3714 57.6824 48.7522 57.8777 48.1353 58.0807C47.9828 58.1305 47.8366 58.1997 47.6903 58.2659C47.5697 58.3203 47.4507 58.3507 47.3138 58.339C47.1442 58.325 46.9723 58.3405 46.8011 58.3405C46.6518 58.3413 46.5024 58.3343 46.3538 58.3374C45.7097 58.3514 45.0702 58.2853 44.43 58.2231C44.3693 58.2168 44.3079 58.2238 44.2472 58.2223C44.006 58.2168 43.7975 58.1204 43.5906 58.0052C43.204 57.7882 42.8096 57.5875 42.4222 57.372C41.9647 57.1169 41.5034 56.8671 41.0616 56.5863C40.8928 56.479 40.7644 56.3016 40.6337 56.1429C40.3793 55.8317 40.1444 55.505 39.8877 55.1969C39.4964 54.7263 39.2677 54.1716 39.0374 53.6162C38.8678 53.2062 38.6982 52.7962 38.5224 52.3894C38.3427 51.974 38.2447 51.5414 38.2159 51.0902C38.1933 50.7394 38.1576 50.3893 38.128 50.0392C38.1148 49.879 38.1023 49.7187 38.0899 49.5585C38.0969 49.56 38.1023 49.5593 38.1078 49.5593Z" fill="#00D1FF"/>
<path d="M38.846 43.3491C38.7885 43.5638 38.6881 43.7411 38.538 43.8967C38.4516 43.9862 38.4042 44.1153 38.3435 44.2289C38.2478 44.4063 38.1552 44.586 38.0626 44.7649C37.9304 45.0193 37.8044 45.276 37.6659 45.5265C37.5889 45.6665 37.5002 45.8019 37.4053 45.931C37.2435 46.1512 37.1968 46.4009 37.1968 46.6654C37.1968 46.719 37.2061 46.7735 37.2007 46.8256C37.1867 46.9524 37.1812 47.0831 37.147 47.2045C37.0249 47.6386 36.8755 48.0649 36.7713 48.5028C36.7199 48.7191 36.6313 48.9004 36.5083 49.0785C36.359 49.2948 36.2687 49.5258 36.2913 49.8074C36.3286 50.2757 36.3193 50.7479 36.345 51.2178C36.373 51.718 36.4267 52.2167 36.4554 52.7169C36.4741 53.0335 36.6087 53.3136 36.6966 53.6092C36.8071 53.9826 36.909 54.3583 37.021 54.7317C37.154 55.1728 37.3361 55.5921 37.5842 55.9826C37.8526 56.4051 38.0984 56.843 38.3832 57.2538C38.5403 57.4809 38.748 57.6754 38.9479 57.8683C39.3299 58.2379 39.7235 58.5957 40.1109 58.9606C40.3085 59.1457 40.5295 59.2912 40.7784 59.3993C40.9394 59.4693 41.0888 59.5666 41.2498 59.6358C41.5338 59.7579 41.8247 59.8637 42.111 59.9835C42.5902 60.1835 43.0663 60.3927 43.547 60.5911C43.9275 60.7482 44.3312 60.7848 44.7373 60.8112C44.8898 60.8214 45.0415 60.8431 45.1931 60.8579C45.5479 60.8929 45.9026 60.9178 46.2558 60.8408C46.304 60.8299 46.3546 60.8214 46.4036 60.8221C46.7646 60.8307 47.1154 60.7513 47.4701 60.7039C47.5798 60.6891 47.6919 60.693 47.8023 60.6821C48.0373 60.6588 48.2761 60.6525 48.5048 60.6004C48.7856 60.5366 49.0602 60.4425 49.3325 60.346C49.6235 60.2434 49.909 60.1251 50.196 60.01C50.7305 59.7953 51.2641 59.5775 51.7978 59.3604C52.0522 59.2569 52.3143 59.1675 52.5578 59.0415C52.8246 58.9038 53.079 58.7381 53.3303 58.5724C53.9301 58.1772 54.519 57.7649 55.1242 57.3775C55.6166 57.0624 56.0157 56.6462 56.4288 56.2425C56.9951 55.6886 57.5731 55.1456 58.1239 54.5761C58.3308 54.3622 58.4872 54.0962 58.6474 53.8418C58.9119 53.4217 59.1655 52.9938 59.416 52.5652C59.7054 52.0704 59.9878 51.5718 60.2702 51.0723C60.3885 50.8631 60.5184 50.6569 60.6078 50.4352C60.7751 50.0221 60.9206 49.5997 61.0691 49.1789C61.1913 48.8335 61.3072 48.4849 61.4239 48.1372C61.5227 47.8455 61.6059 47.5584 61.609 47.2379C61.6152 46.6117 61.6775 45.9862 61.7125 45.3608C61.7234 45.1663 61.7234 44.971 61.7257 44.7758C61.7273 44.6498 61.7102 44.5214 61.7249 44.3969C61.7693 44.0251 61.6619 43.6766 61.5771 43.3242C61.5203 43.0861 61.4597 42.8488 61.4044 42.6108C61.2916 42.1262 61.1563 41.6547 60.8793 41.2269C60.6141 40.8169 60.3861 40.3828 60.152 39.9526C59.945 39.5722 59.6393 39.2781 59.332 38.9841C58.9174 38.5866 58.5012 38.1914 58.0827 37.7977C57.8205 37.5511 57.5653 37.2937 57.2332 37.1404C57.0402 37.0509 56.8364 36.9848 56.6381 36.9055C56.1464 36.7094 55.6563 36.5087 55.1639 36.3166C54.9157 36.2193 54.6637 36.1322 54.4116 36.0482C54.3478 36.0272 54.2755 36.0272 54.207 36.0264C53.962 36.0233 53.7169 36.0287 53.4719 36.0217C53.335 36.0178 53.1988 35.9898 53.0619 35.9836C52.9406 35.9782 52.8184 35.9836 52.6971 35.9914C52.5259 36.0023 52.3563 36.0311 52.1852 36.0326C51.6873 36.0365 51.1887 36.0085 50.6931 36.0357C50.3368 36.0552 49.9836 36.1439 49.6297 36.2014C49.5993 36.2061 49.5698 36.2178 49.5394 36.2178C49.0968 36.2248 48.6643 36.2847 48.2489 36.448C48.0077 36.5429 47.7619 36.6262 47.5176 36.7149C47.5036 36.7203 47.4896 36.7312 47.4756 36.7328C47.1738 36.7647 46.91 36.9109 46.6331 37.0167C46.6074 37.0268 46.5771 37.0237 46.5491 37.0268C46.5421 37.0136 46.5343 37.0004 46.5273 36.9864C46.6059 36.9342 46.6782 36.8689 46.763 36.8331C47.1076 36.6892 47.4561 36.5554 47.8023 36.4161C47.9789 36.3454 48.1516 36.2644 48.329 36.1975C48.4348 36.1579 48.5476 36.1345 48.658 36.1065C49.131 35.986 49.6056 35.8693 50.0778 35.7463C50.2287 35.7075 50.3734 35.6437 50.5251 35.6087C50.8222 35.5402 51.1233 35.4865 51.4213 35.4204C51.608 35.3792 51.7892 35.313 51.9767 35.2788C52.5858 35.1683 53.1934 35.0649 53.8204 35.0913C54.137 35.1046 54.4567 35.0151 54.7765 35.0026C55.0495 34.9918 55.3257 35.0167 55.5987 35.0377C55.85 35.0563 56.0997 35.0906 56.3502 35.1186C56.547 35.1411 56.7446 35.1637 56.9414 35.1878C57.0216 35.1971 57.1009 35.2072 57.1803 35.2197C57.3615 35.2477 57.542 35.2765 57.7225 35.3076C58.1177 35.3753 58.5136 35.4406 58.908 35.5153C59.038 35.5402 59.171 35.5729 59.2885 35.6312C59.7085 35.8397 60.1271 36.0529 60.5378 36.2785C61.1703 36.6262 61.7965 36.9848 62.4243 37.3411C62.604 37.443 62.7783 37.5527 62.9572 37.6546C63.2396 37.8149 63.4434 38.0568 63.655 38.2948C63.9451 38.6208 64.2485 38.9343 64.5403 39.2595C64.7293 39.4703 64.9292 39.6764 65.0833 39.9114C65.2388 40.1487 65.3532 40.4155 65.4699 40.6761C65.6511 41.0798 65.8246 41.4882 65.9934 41.8974C66.1778 42.3455 66.3738 42.7913 66.524 43.251C66.6166 43.5342 66.6376 43.8423 66.6842 44.1394C66.7231 44.3845 66.7558 44.6311 66.7869 44.8769C66.8064 45.0286 66.8149 45.1819 66.8328 45.3336C66.8554 45.5265 66.8997 45.7179 66.9044 45.9108C66.9122 46.2243 66.8989 46.5378 66.8888 46.8513C66.8764 47.2605 66.8632 47.6697 66.8429 48.0781C66.8258 48.4134 66.825 48.7533 66.7667 49.0824C66.685 49.5437 66.5551 49.9965 66.4485 50.4531C66.3762 50.7651 66.2976 51.0762 66.24 51.3905C66.1529 51.8697 66.0121 52.3256 65.792 52.7636C65.5399 53.2646 65.3244 53.7834 65.0887 54.293C64.9495 54.594 64.7853 54.8842 64.6624 55.1923C64.4002 55.8488 64.0035 56.4214 63.5912 56.9869C63.2761 57.4187 62.9805 57.8652 62.6592 58.2923C62.4344 58.591 62.1956 58.8828 61.9358 59.1504C61.4184 59.6825 60.8925 60.2068 60.3503 60.7132C60.0244 61.0174 59.6681 61.2905 59.3149 61.5627C58.9423 61.849 58.5611 62.1252 58.1745 62.392C57.917 62.5694 57.6439 62.7242 57.3771 62.8883C57.062 63.0828 56.747 63.2773 56.4319 63.471C56.2304 63.5947 56.0266 63.7145 55.8259 63.839C55.6898 63.9237 55.5637 64.0264 55.4221 64.0996C55.23 64.1991 55.027 64.2777 54.8286 64.3648C54.6022 64.4644 54.3774 64.5663 54.1502 64.6636C53.8982 64.7709 53.6469 64.8798 53.3918 64.9786C53.0471 65.1116 52.7025 65.2439 52.3517 65.3598C52.1463 65.4283 51.93 65.4648 51.7184 65.5146C51.4633 65.5737 51.2073 65.6321 50.9514 65.6896C50.9032 65.7005 50.8549 65.7099 50.8059 65.7184C50.5928 65.7565 50.3796 65.7986 50.1649 65.8297C49.9269 65.8647 49.688 65.8927 49.4492 65.9184C49.0882 65.9573 48.7281 65.9969 48.3663 66.0249C48.0769 66.0475 47.7852 66.0459 47.495 66.0693C47.1753 66.0949 46.8571 66.151 46.5374 66.1673C46.2916 66.1797 46.0434 66.1595 45.7976 66.1385C45.6078 66.1222 45.4203 66.0841 45.2328 66.0491C44.9784 66.0016 44.7248 65.9479 44.4712 65.8989C44.3888 65.8834 44.3048 65.8748 44.2231 65.8592C44.0247 65.8219 43.8271 65.7822 43.6295 65.7425C43.4879 65.7138 43.3378 65.7044 43.2063 65.6508C42.7504 65.4648 42.3016 65.2633 41.8496 65.0696C41.6007 64.9631 41.3416 64.8759 41.102 64.7515C40.8111 64.6005 40.531 64.4271 40.2541 64.252C39.8278 63.9829 39.4139 63.6943 38.9845 63.4313C38.545 63.1622 38.1638 62.837 37.8627 62.4153C37.6566 62.126 37.4146 61.8607 37.2163 61.5666C37.0054 61.2539 36.8203 60.9225 36.6344 60.5927C36.3621 60.1096 36.0836 59.6288 35.8409 59.1309C35.7086 58.8594 35.6347 58.5568 35.5515 58.2628C35.448 57.8995 35.3757 57.5268 35.2621 57.1674C35.1641 56.8578 35.1633 56.542 35.1322 56.2269C35.119 56.09 35.0894 55.9554 35.0723 55.8193C35.0474 55.6186 35.0124 55.4179 35.0077 55.2164C34.9976 54.7224 34.9984 54.2284 35.0046 53.7344C35.0062 53.6107 35.0489 53.4878 35.0661 53.3641C35.0956 53.1455 35.1213 52.9262 35.1462 52.7068C35.1617 52.5706 35.1719 52.4329 35.1866 52.2968C35.2069 52.1187 35.2263 51.9405 35.2528 51.7631C35.2699 51.6503 35.2963 51.5391 35.3243 51.4286C35.392 51.1579 35.4651 50.8895 35.5313 50.618C35.6129 50.2804 35.6697 49.935 35.774 49.6052C35.9358 49.0925 36.1217 48.5869 36.3123 48.0843C36.4321 47.7669 36.5822 47.4604 36.7129 47.1469C36.8226 46.8832 36.9136 46.6109 37.0334 46.3519C37.1579 46.0827 37.3073 45.8252 37.4442 45.5615C37.5904 45.2807 37.7305 44.9959 37.8829 44.7182C37.9654 44.5681 38.0642 44.4273 38.1607 44.2849C38.3124 44.0616 38.4648 43.8392 38.622 43.6198C38.6935 43.5264 38.7721 43.4393 38.846 43.3491Z" fill="#00D1FF"/>
<path d="M35.3298 59.8878C35.3819 59.9788 35.4356 60.0683 35.4846 60.1601C35.6915 60.5475 35.8712 60.9528 36.1108 61.3192C36.3924 61.7494 36.7238 62.1477 37.0373 62.5569C37.1533 62.7086 37.2777 62.8541 37.3975 63.0034C37.76 63.4562 38.1988 63.8195 38.692 64.1236C38.9682 64.294 39.2218 64.5002 39.4933 64.6775C39.9437 64.9724 40.3941 65.2672 40.8562 65.5418C41.0709 65.6694 41.3136 65.7495 41.5439 65.8507C41.8302 65.9759 42.1149 66.1035 42.4027 66.2225C42.7046 66.3477 43.0041 66.4839 43.316 66.578C43.642 66.6768 43.9811 66.7352 44.3157 66.8044C44.5545 66.8534 44.7956 66.8892 45.0345 66.9359C45.1123 66.9506 45.1885 66.9779 45.2639 67.0051C45.7603 67.184 46.2721 67.142 46.7832 67.1093C46.8214 67.107 46.8603 67.1039 46.8976 67.107C47.0882 67.1241 47.1248 67.1584 47.0796 67.3451C47.0228 67.5808 47.0851 67.7893 47.1753 68.0001C47.285 68.256 47.383 68.5166 47.4943 68.771C47.555 68.911 47.6312 69.0441 47.7028 69.1794C47.9953 69.7341 48.2854 70.2895 48.5818 70.8411C48.7514 71.1569 48.9109 71.4813 49.1131 71.7761C49.3979 72.1908 49.7176 72.5821 50.0241 72.9819C50.2287 73.2488 50.4356 73.514 50.6426 73.7793C50.7297 73.8913 50.8168 74.0026 50.9055 74.113C51.1303 74.3923 51.3536 74.6732 51.5823 74.9501C51.8818 75.3134 52.27 75.5639 52.673 75.7957C52.7399 75.8338 52.7904 75.9015 52.8488 75.9552C52.841 75.97 52.8332 75.984 52.8246 75.9987C52.7126 75.97 52.6014 75.9396 52.4894 75.9132C52.3377 75.8782 52.1852 75.8432 52.0319 75.8159C51.818 75.7778 51.601 75.7529 51.3878 75.7101C51.058 75.644 50.7273 75.5779 50.403 75.4908C50.0233 75.3888 49.6491 75.2644 49.2734 75.15C49.1233 75.1041 48.9731 75.0582 48.8238 75.0123C48.4885 74.9089 48.1493 74.814 47.8187 74.6973C47.5347 74.5969 47.257 74.4787 46.9824 74.355C46.6619 74.2111 46.346 74.0555 46.0318 73.8983C45.8777 73.8213 45.7284 73.7357 45.5829 73.6447C45.3168 73.479 45.0555 73.3063 44.7917 73.1367C44.5669 72.992 44.3413 72.8481 44.1149 72.705C43.8178 72.5167 43.5222 72.3269 43.2211 72.1441C42.8057 71.8921 42.4642 71.549 42.0931 71.2417C41.8457 71.0371 41.5711 70.8605 41.3447 70.6357C40.9293 70.2242 40.5357 69.7909 40.1421 69.3583C39.7865 68.9678 39.4279 68.5789 39.1012 68.165C38.811 67.7978 38.5504 67.405 38.2991 67.009C37.9639 66.48 37.6332 65.9479 37.3337 65.3979C37.1081 64.9833 36.9284 64.543 36.7409 64.1089C36.5939 63.7689 36.4578 63.4227 36.3286 63.075C36.2353 62.8245 36.1645 62.5655 36.0797 62.3118C35.9241 61.8482 35.7623 61.3861 35.6098 60.9217C35.5033 60.5957 35.4084 60.2659 35.3088 59.9376C35.3049 59.9252 35.308 59.9112 35.308 59.8972C35.3142 59.8933 35.322 59.8909 35.3298 59.8878Z" fill="#00D1FF"/>
<path d="M47.5176 59.5658C47.4841 59.4016 47.446 59.2391 47.418 59.0741C47.3947 58.9341 47.4242 58.9084 47.565 58.9294C47.6327 58.9396 47.7004 58.973 47.7665 58.9691C47.9128 58.9606 48.0629 58.952 48.2037 58.9131C48.4534 58.8439 48.6969 58.7529 48.9428 58.6688C49.2563 58.5623 49.5682 58.4495 49.8833 58.3468C50.2022 58.2433 50.5258 58.1554 50.844 58.0496C51.0019 57.9967 51.1567 57.9282 51.3046 57.8505C51.5644 57.7143 51.8188 57.5673 52.0747 57.4234C52.6838 57.0803 53.2968 56.7473 53.8243 56.2759C54.0911 56.0371 54.3914 55.8356 54.6722 55.6116C55.0472 55.3128 55.3825 54.9729 55.6999 54.6127C56.0538 54.2105 56.4218 53.8208 56.7882 53.4303C57.1266 53.0709 57.3779 52.6523 57.6299 52.2315C57.8205 51.9133 58.029 51.6068 58.2188 51.2878C58.4732 50.8615 58.7159 50.4282 58.9648 49.998C59.0605 49.8331 59.1578 49.6682 59.2597 49.5064C59.3017 49.4403 59.3569 49.4286 59.4363 49.4706C59.6074 49.5608 59.7817 49.6487 59.9629 49.7149C60.1411 49.7794 60.1628 49.8448 60.0609 50.0058C59.8657 50.3154 59.6867 50.6352 59.4993 50.9502C59.248 51.3742 58.9967 51.7982 58.7439 52.2206C58.4436 52.7216 58.1402 53.221 57.8392 53.7212C57.5194 54.2533 57.1211 54.717 56.6559 55.1285C56.232 55.5034 55.8399 55.915 55.4081 56.2798C55.1032 56.5373 54.757 56.7466 54.4248 56.9698C53.997 57.2577 53.5637 57.5377 53.1342 57.824C52.7811 58.0597 52.4162 58.2682 52.0109 58.4059C51.7596 58.4907 51.52 58.6089 51.2727 58.707C51.0751 58.7855 50.8751 58.8571 50.676 58.9318C50.42 59.0282 50.1649 59.1255 49.9089 59.2227C49.6966 59.3036 49.4858 59.3915 49.271 59.4662C49.0346 59.5495 48.7965 59.6319 48.5538 59.6949C48.3515 59.747 48.1415 59.7719 47.9346 59.8069C47.8482 59.8217 47.7603 59.8287 47.6732 59.8443C47.5518 59.8661 47.4989 59.8241 47.5028 59.7043C47.5044 59.6584 47.5028 59.6125 47.5028 59.5666C47.5067 59.5681 47.5121 59.5673 47.5176 59.5658Z" fill="#00D1FF"/>
<path d="M37.3135 50.0618C37.3571 50.4718 37.4006 50.8817 37.4426 51.2925C37.4535 51.403 37.4644 51.5134 37.4644 51.6247C37.466 51.9242 37.5718 52.1887 37.704 52.4516C37.8464 52.734 37.9615 53.0304 38.0945 53.3182C38.2353 53.6239 38.3824 53.9266 38.5263 54.2307C38.6282 54.4447 38.7169 54.6664 38.8351 54.871C38.951 55.0717 39.0802 55.2693 39.2319 55.4435C39.6232 55.8939 40.037 56.3257 40.4276 56.7761C40.7045 57.0951 41.0172 57.3619 41.3805 57.5766C41.785 57.8162 42.1833 58.0659 42.5824 58.3141C42.7738 58.4331 42.9605 58.5599 43.1511 58.6805C43.3751 58.8228 43.621 58.9038 43.8862 58.9076C44.1499 58.9115 44.3903 58.9917 44.6237 59.1013C44.7303 59.1511 44.7521 59.2468 44.7287 59.3752C44.7023 59.516 44.6891 59.6599 44.6883 59.803C44.6883 59.8956 44.6642 59.9462 44.5708 59.9415C44.1476 59.9197 43.7229 59.9143 43.3261 59.7237C42.9854 59.5596 42.6345 59.4187 42.2899 59.2624C42.0402 59.1488 41.7952 59.0259 41.547 58.9084C41.3362 58.8088 41.1285 58.7015 40.9114 58.6167C40.6563 58.5171 40.4408 58.3584 40.2432 58.1787C39.869 57.8388 39.4995 57.4941 39.144 57.1355C38.9954 56.9854 38.8787 56.8002 38.7651 56.6198C38.5527 56.2837 38.3404 55.9461 38.1521 55.596C38.0393 55.3867 37.9615 55.1557 37.8892 54.9278C37.7351 54.4478 37.5897 53.9647 37.4504 53.4808C37.3477 53.1253 37.2458 52.7674 37.1719 52.4057C37.1299 52.198 37.1385 51.9794 37.1338 51.7647C37.1268 51.3975 37.1252 51.0303 37.1252 50.6631C37.1252 50.3154 37.1291 49.9677 37.1354 49.6199C37.1361 49.5569 37.1159 49.4527 37.2093 49.4597C37.2552 49.4628 37.3228 49.5624 37.3306 49.6246C37.3485 49.7677 37.3361 49.9148 37.3361 50.0602C37.3283 50.0602 37.3213 50.061 37.3135 50.0618Z" fill="#00D1FF"/>
<path d="M60.8606 44.1659C60.8272 44.7719 60.7906 45.4137 60.7572 46.0547C60.7541 46.1192 60.7657 46.1838 60.7696 46.2484C60.7751 46.341 60.7416 46.4156 60.6436 46.4211C60.4336 46.432 60.2235 46.4327 60.0135 46.4327C59.973 46.4327 59.9318 46.4156 59.8929 46.4001C59.8128 46.369 59.7879 46.3254 59.8244 46.232C59.9715 45.8555 60.0765 45.4673 60.05 45.0589C60.0337 44.8038 59.9894 44.5509 59.9575 44.2973C59.9225 44.0173 59.8921 43.7357 59.8493 43.4564C59.8229 43.2837 59.7801 43.1125 59.7389 42.9422C59.7007 42.7827 59.6727 42.6178 59.6074 42.4692C59.5047 42.2358 59.3763 42.0133 59.255 41.7885C59.0605 41.4291 58.8621 41.0713 58.6653 40.7126C58.502 40.4155 58.2942 40.1517 58.0523 39.9145C57.5692 39.4399 57.0846 38.967 56.6007 38.4924C56.3588 38.2544 56.0608 38.1291 55.7403 38.0373C55.5209 37.9743 55.3101 37.8817 55.0938 37.8094C54.7796 37.7036 54.4637 37.6017 54.1479 37.5006C53.839 37.4025 53.5286 37.31 53.2198 37.2112C53.1311 37.1832 53.0658 37.0206 53.0915 36.9194C53.1218 36.8012 53.177 36.7701 53.3171 36.7872C53.6096 36.823 53.9021 36.8564 54.1938 36.8907C54.5228 36.9288 54.834 37.0268 55.1359 37.1629C55.3972 37.2804 55.6664 37.3792 55.9262 37.4998C56.2973 37.6709 56.6614 37.8576 57.0317 38.0311C57.1803 38.1003 57.3498 38.1315 57.486 38.217C57.6789 38.3376 57.8594 38.4831 58.029 38.6356C58.3394 38.9141 58.6326 39.2112 58.9423 39.4905C59.1904 39.7138 59.3445 39.9954 59.4946 40.2855C59.7754 40.8317 60.0726 41.3692 60.3495 41.9176C60.4312 42.0787 60.4701 42.2623 60.5215 42.4373C60.6016 42.7111 60.677 42.9857 60.7509 43.2603C60.8272 43.5466 60.912 43.8298 60.8606 44.1659Z" fill="#00D1FF"/>
<path d="M60.1792 47.1586C60.3675 47.185 60.5402 47.2496 60.6903 47.3671C60.7572 47.4192 60.7705 47.4814 60.744 47.5693C60.6172 47.9964 60.4966 48.425 60.3784 48.8545C60.3333 49.0178 60.2096 49.0637 60.0618 48.9844C59.9249 48.9112 59.7755 48.8615 59.63 48.8047C59.5133 48.7588 59.4814 48.702 59.5227 48.5876C59.6168 48.3262 59.714 48.0664 59.809 47.805C59.8712 47.6339 59.935 47.4627 59.9887 47.2893C60.0213 47.1881 60.0882 47.1609 60.1792 47.1586Z" fill="#00D1FF"/>
<path d="M46.6207 59.3371C46.6292 59.4709 46.6323 59.6047 46.6463 59.7377C46.6635 59.9026 46.63 59.9765 46.4666 59.996C46.2053 60.0271 45.9408 60.0465 45.6778 60.0473C45.4958 60.0481 45.446 59.9859 45.4227 59.8038C45.3954 59.5876 45.3729 59.3705 45.3527 59.1535C45.3394 59.0135 45.4133 58.9403 45.5518 58.9621C45.8272 59.0057 46.1002 59.0088 46.3741 58.9528C46.4075 58.9458 46.4425 58.9512 46.4768 58.9481C46.5857 58.938 46.6316 58.9854 46.6238 59.0951C46.6183 59.1753 46.623 59.2562 46.623 59.3363C46.623 59.3371 46.6215 59.3371 46.6207 59.3371Z" fill="#00D1FF"/>
<path d="M50.1112 36.8674C50.1688 36.8557 50.2256 36.837 50.2839 36.8331C50.7335 36.8075 51.184 36.7872 51.6336 36.76C51.7433 36.753 51.853 36.7343 51.9596 36.7102C52.1136 36.6744 52.2536 36.7491 52.263 36.8829C52.2723 37.0121 52.1976 37.0696 52.035 37.0611C51.8063 37.0486 51.5776 37.0424 51.3489 37.0261C50.9724 37.0004 50.5959 36.9693 50.2193 36.9389C50.1836 36.9358 50.1485 36.9187 50.1135 36.9086C50.1128 36.8946 50.112 36.8814 50.1112 36.8674Z" fill="#00D1FF"/>
<path d="M68.738 71.2736C69.6015 70.4863 70.339 69.5684 71.2569 68.8387C70.4992 69.7356 69.7361 70.6271 68.738 71.2736Z" fill="#00D1FF"/>
<path d="M41.2055 41.1646C41.1308 41.1312 41.0553 41.0993 40.9807 41.065C40.8881 41.0223 40.9029 40.9631 40.962 40.9048C41.0935 40.7772 41.2242 40.6473 41.3626 40.5275C41.4529 40.4497 41.7407 40.5283 41.7819 40.6372C41.7944 40.6691 41.7959 40.722 41.7773 40.7461C41.6442 40.9219 41.4855 41.0682 41.27 41.1389C41.2522 41.1444 41.2319 41.1436 41.2133 41.1452C41.2109 41.1522 41.2078 41.1584 41.2055 41.1646Z" fill="#00D1FF"/>
<path d="M68.5552 71.3965C67.9912 72.0126 67.277 72.4413 66.6228 72.9446C66.615 72.9384 66.608 72.9314 66.6002 72.9251C66.6103 72.9049 66.615 72.8792 66.6306 72.8645C66.8352 72.6645 67.0327 72.4646 67.2895 72.3191C67.512 72.1931 67.6971 72.001 67.8963 71.8353C68.0581 71.7007 68.2144 71.5599 68.377 71.4276C68.4198 71.3926 68.4797 71.3786 68.531 71.3545C68.5396 71.3685 68.5474 71.3825 68.5552 71.3965Z" fill="#00D1FF"/>
<path d="M39.6489 43.314C39.645 43.0884 40.1079 42.4746 40.3397 42.4023C40.1654 42.7594 39.89 43.0137 39.6489 43.314Z" fill="#00D1FF"/>
<path d="M40.0239 41.801C40.1779 41.5972 40.3241 41.3864 40.5552 41.258C40.4276 41.4867 40.2152 41.6337 40.0239 41.801Z" fill="#00D1FF"/>
<path d="M39.4038 42.6855C39.2809 42.8247 39.1588 42.9647 39.0358 43.104C39.0226 43.0931 39.0102 43.0822 38.9969 43.0705C39.1152 42.9282 39.2327 42.7866 39.3509 42.6442C39.3688 42.6582 39.3867 42.6715 39.4038 42.6855Z" fill="#00D1FF"/>
<path d="M37.4839 48.6481C37.5304 48.6186 37.5762 48.5883 37.6251 48.5627C37.6274 48.5612 37.6515 48.6 37.6655 48.6194C37.6189 48.6496 37.5724 48.6807 37.5258 48.7109C37.5118 48.6908 37.4979 48.669 37.4839 48.6481Z" fill="#00D1FF"/>
<path d="M39.3486 43.6737C39.4154 43.5945 39.4813 43.5154 39.5481 43.4362C39.5605 43.4463 39.5729 43.4564 39.5845 43.4665C39.5194 43.5472 39.4542 43.6287 39.3898 43.7094C39.3766 43.6977 39.3626 43.6861 39.3486 43.6737Z" fill="#00D1FF"/>
<path d="M38.9608 44.3463C38.9228 44.406 38.8848 44.4658 38.8467 44.5263C38.8366 44.5209 38.8266 44.5147 38.8165 44.5092C38.8506 44.4464 38.8848 44.3835 38.9189 44.3207C38.9329 44.3292 38.9468 44.3378 38.9608 44.3463Z" fill="#00D1FF"/>
</svg>
