<svg width="112" height="112" viewBox="0 0 112 112" fill="none" xmlns="http://www.w3.org/2000/svg">
<path d="M111.021 55.5107L55.5107 0L3.42338e-06 55.5107L55.5107 111.021L111.021 55.5107Z" fill="#0F0F0F"/>
<path d="M55.5107 1.41421L109.607 55.5107L55.5107 109.607L1.41422 55.5107L55.5107 1.41421Z" stroke="#FF8900" stroke-width="2"/>
<g filter="url(#filter0_d_1_736)">
<g opacity="0.5">
<path d="M33.012 61.3537C33.0035 61.5251 33.0145 61.6969 33.045 61.8657H39.902C40.06 61.3844 40.2173 60.9031 40.374 60.4217H33.095C33.066 60.7327 33.034 61.0437 33.012 61.3537Z" fill="#FF9B26"/>
<path d="M26.716 55.2427C26.7348 55.314 26.7754 55.3776 26.832 55.4247C27.075 55.6167 27.323 55.8047 27.569 55.9937H29.341C29.513 55.6827 29.681 55.3697 29.851 55.0577H26.671C26.686 55.1187 26.7 55.1807 26.716 55.2427Z" fill="#FF9B26"/>
<path d="M32.391 76.5527C32.3789 76.7858 32.4069 77.0192 32.474 77.2427H36.804C36.904 76.9487 37.011 76.6567 37.119 76.3657C37.25 76.0127 37.383 75.6597 37.519 75.3067H32.419C32.413 75.7227 32.413 76.1377 32.391 76.5527Z" fill="#FF9B26"/>
<path d="M44.994 55.0567H34.402C34.278 55.3687 34.15 55.6807 34.023 55.9927H45.244C45.2104 55.9088 45.1817 55.823 45.158 55.7357C45.102 55.5097 45.048 55.2827 44.994 55.0567Z" fill="#FF9B26"/>
<path d="M33.107 43.7977C33.1217 43.7306 33.1481 43.6667 33.185 43.6087L33.524 43.1657H27.39L26.944 44.2167H32.981L33.107 43.7977Z" fill="#FF9B26"/>
<path d="M50.779 76.3917C50.794 76.0797 50.795 75.7657 50.797 75.4527V75.3067H48.511C48.7517 75.9514 48.99 76.5967 49.226 77.2427H50.439V76.3617L50.779 76.3917Z" fill="#FF9B26"/>
<path d="M51.402 61.2057C51.421 60.9447 51.443 60.6837 51.467 60.4237H45.651L46.123 61.8677H51.412C51.3899 61.6478 51.3865 61.4263 51.402 61.2057Z" fill="#FF9B26"/>
<path d="M30.361 50.5837H26.397C26.27 50.9307 26.128 51.2717 26.015 51.6237C26.015 51.6357 26.005 51.6457 26 51.6577H30.797C30.8187 51.5486 30.8179 51.4362 30.7947 51.3273C30.7715 51.2185 30.7263 51.1155 30.662 51.0247C30.5712 50.8717 30.471 50.7244 30.362 50.5837H30.361Z" fill="#FF9B26"/>
<path d="M46.775 67.4627C46.744 67.6407 46.712 67.8197 46.681 67.9977C46.6282 68.2409 46.6531 68.4944 46.752 68.7227C46.778 68.7827 46.802 68.8467 46.827 68.9057H50.882L50.901 67.4617L46.775 67.4627Z" fill="#FF9B26"/>
<path d="M46.857 40.1907C46.89 40.1137 46.924 40.0407 46.967 39.9557L47.982 37.8557C48.0487 37.2277 48.1247 36.6004 48.21 35.9737C48.2898 35.3495 48.6076 34.7803 49.097 34.3847C49.542 34.0327 49.99 33.6847 50.436 33.3337C50.297 33.1957 50.17 33.0717 50.057 32.9427C50.033 32.9157 50.057 32.8277 50.084 32.7747C50.382 32.0987 50.682 31.4237 50.984 30.7497C51.011 30.6877 51.037 30.6257 51.072 30.5427L47.608 28.9227L46.553 31.4427L45.929 31.3347C45.955 31.2617 45.975 31.1997 45.999 31.1397C46.4383 30.0891 46.8773 29.0394 47.316 27.9907C47.3542 27.8987 47.3746 27.8003 47.376 27.7007C47.382 27.1421 47.382 26.5834 47.376 26.0247C47.3725 25.9266 47.3487 25.8302 47.306 25.7417C47.216 25.5487 47.099 25.3697 47.014 25.1737C46.7867 24.6787 46.4437 24.2455 46.014 23.9107C45.3621 23.34 44.5274 23.0218 43.661 23.0137C43.4229 23.0297 43.1841 23.0297 42.946 23.0137C42.1944 22.9643 41.4413 23.0825 40.741 23.3597C40.6711 23.3856 40.6059 23.4228 40.548 23.4697C40.32 23.6567 40.106 23.8617 39.869 24.0357C39.5415 24.3053 39.2732 24.6396 39.081 25.0177C38.7619 25.5625 38.6041 26.1867 38.626 26.8177C38.6125 27.5044 38.754 28.1853 39.04 28.8097C39.405 29.5777 39.707 30.3757 40.04 31.1607C40.062 31.2127 40.079 31.2657 40.105 31.3347L39.481 31.4497C39.128 30.6087 38.781 29.7747 38.424 28.9257L34.958 30.5457C35.066 30.7917 35.169 31.0307 35.274 31.2677C35.495 31.7677 35.713 32.2677 35.942 32.7577C35.9727 32.8037 35.9841 32.8599 35.9736 32.9142C35.9631 32.9685 35.9316 33.0165 35.886 33.0477C35.766 33.1557 35.663 33.2827 35.563 33.3907C35.517 33.3717 35.5 33.3697 35.496 33.3617C35.248 32.8437 34.716 32.8347 34.269 32.6767C34.2426 32.674 34.2159 32.6768 34.1906 32.6849C34.1653 32.693 34.1419 32.7062 34.122 32.7237C32.722 33.8171 31.3253 34.9134 29.932 36.0127C29.8662 36.0756 29.8245 36.1594 29.814 36.2497C29.7313 36.8771 29.6557 37.5054 29.587 38.1347C29.5863 38.2182 29.6158 38.2992 29.67 38.3627C29.8 38.5217 30.028 38.6497 30.063 38.8217C30.098 38.9937 29.936 39.1887 29.863 39.3727C29.6103 39.9814 29.357 40.5897 29.103 41.1977H35.045L35.145 41.0697C35.155 41.1147 35.163 41.1527 35.172 41.1977H46.429L46.495 41.0417L46.857 40.1907ZM45.608 28.9747C45.6023 29.0048 45.5895 29.0331 45.5708 29.0573C45.552 29.0814 45.5277 29.1008 45.5 29.1137C45 29.2917 44.5 29.4677 43.992 29.6277C43.692 29.7217 43.692 29.7107 43.692 30.0277V33.6567H42.264V29.6697C41.6303 29.5379 41.0093 29.3512 40.408 29.1117C40.3831 29.1007 40.361 29.0841 40.3437 29.0631C40.3263 29.0421 40.3141 29.0173 40.308 28.9907C40.301 28.5397 40.308 28.0907 40.308 27.6157C40.778 27.7867 41.244 27.9157 41.673 28.1247C42.2627 28.3568 42.9014 28.4362 43.53 28.3557C43.7387 28.3187 43.9408 28.2513 44.13 28.1557C44.608 27.9807 45.094 27.8017 45.608 27.6117C45.608 28.0847 45.608 28.5297 45.608 28.9747Z" fill="#FF9B26"/>
<path d="M35.552 43.1657C35.6187 43.5177 35.692 43.8681 35.772 44.2167H45.147C45.295 43.8667 45.4437 43.5164 45.593 43.1657H35.552Z" fill="#FF9B26"/>
<path d="M44.539 50.8527C44.57 50.7617 44.605 50.6727 44.639 50.5837H36.739C36.725 50.6417 36.71 50.6997 36.692 50.7577C36.598 51.0577 36.509 51.3577 36.418 51.6577H44.299V51.3407C44.299 51.3407 44.531 50.8717 44.539 50.8527Z" fill="#FF9B26"/>
<path d="M39.257 67.4627H32.52C32.5133 67.9441 32.507 68.4254 32.501 68.9067H39.215C39.3751 68.4725 39.3958 67.9992 39.274 67.5527C39.267 67.5227 39.263 67.4967 39.257 67.4627Z" fill="#FF9B26"/>
<path d="M44.67 46.6107H36.603C36.7122 46.9595 36.7793 47.3201 36.803 47.6847H44.589C44.607 47.4367 44.6243 47.1884 44.641 46.9397C44.653 46.8307 44.661 46.7207 44.67 46.6107Z" fill="#FF9B26"/>
<path d="M26.217 47.6847H31.175L31.764 46.6107H26.292C26.268 46.9687 26.242 47.3267 26.217 47.6847Z" fill="#FF9B26"/>
</g>
<path d="M75.512 85.2547H72.801C72.509 85.0987 72.222 84.9357 71.924 84.7917C71.7544 84.7127 71.6143 84.5817 71.524 84.4177C71.048 83.5927 70.56 82.7747 70.078 81.9537C69.9122 81.7507 69.786 81.5184 69.706 81.2687C69.7235 81.0017 69.7885 80.7399 69.898 80.4957C69.92 80.4177 69.936 80.3377 69.965 80.2617C70.1478 79.8475 70.1803 79.3824 70.057 78.9467C70.0391 78.8736 70.0254 78.7995 70.016 78.7247C69.9662 78.309 69.8839 77.8977 69.77 77.4947C69.095 75.6297 68.389 73.7767 67.694 71.9197C67.513 71.4347 67.333 70.9497 67.15 70.4587L67.75 70.0797C67.565 69.6177 67.397 69.1657 67.203 68.7257C67.1043 68.4966 67.0802 68.2423 67.134 67.9987C67.3765 66.9222 67.4846 65.8198 67.456 64.7167C67.4531 64.6173 67.4383 64.5186 67.412 64.4227C66.5727 61.8481 65.7313 59.2741 64.888 56.7007C64.868 56.6407 64.84 56.5827 64.809 56.5057C64.661 56.6437 64.527 56.7577 64.409 56.8847C64.3678 56.9308 64.3164 56.9667 64.259 56.9896C64.2016 57.0125 64.1396 57.0218 64.078 57.0167C63.6713 57.0061 63.2643 57.0061 62.857 57.0167C62.7954 57.0218 62.7334 57.0125 62.676 56.9896C62.6186 56.9667 62.5672 56.9308 62.526 56.8847C62.402 56.7547 62.266 56.6387 62.126 56.5057C62.102 56.5637 62.085 56.5957 62.073 56.6297C61.2177 59.2391 60.3643 61.8487 59.513 64.4587C59.4933 64.5237 59.4819 64.5909 59.479 64.6587C59.4311 65.63 59.5159 66.6033 59.731 67.5517C59.8796 68.0711 59.8245 68.6276 59.577 69.1077C59.4467 69.3784 59.3335 69.6569 59.238 69.9417C59.221 69.9867 59.208 70.0327 59.192 70.0817L59.779 70.4577C59.759 70.5167 59.747 70.5577 59.732 70.5997L57.577 76.3657C57.399 76.8457 57.214 77.3257 57.077 77.8187C56.964 78.2327 56.931 78.6687 56.846 79.0927C56.7739 79.3965 56.7895 79.7145 56.891 80.0097C57.018 80.3617 57.101 80.7297 57.212 81.0877C57.2312 81.1423 57.2374 81.2006 57.2303 81.258C57.2232 81.3155 57.2029 81.3705 57.171 81.4187C56.559 82.4467 55.955 83.4797 55.342 84.5077C55.282 84.6004 55.1999 84.6767 55.103 84.7297C54.783 84.9117 54.455 85.0797 54.13 85.2527H51.414C51.23 84.7407 51.05 84.2267 50.859 83.7177C50.8385 83.6665 50.8305 83.6112 50.8355 83.5563C50.8405 83.5013 50.8585 83.4484 50.888 83.4017C51.388 82.4687 51.878 81.5307 52.378 80.6017C52.469 80.4384 52.5146 80.2537 52.51 80.0667C52.501 79.5917 52.51 79.1147 52.51 78.6257L52.915 78.6617C52.978 78.4197 53.052 78.1807 53.097 77.9367C53.1214 77.8245 53.1102 77.7074 53.065 77.6017C52.8958 77.2799 52.819 76.9175 52.843 76.5547C52.869 76.0477 52.863 75.5387 52.87 75.0307C52.9113 71.9314 52.9527 68.8314 52.994 65.7307C52.994 65.6657 53 65.6007 53.004 65.5237L53.782 65.7397C53.858 65.5027 53.929 65.2847 53.996 65.0627C54.004 65.0265 54.004 64.989 53.996 64.9527C53.856 64.0747 53.711 63.1977 53.575 62.3187C53.5024 62.0015 53.4651 61.6772 53.464 61.3517C53.54 60.3017 53.664 59.2517 53.754 58.2067C53.7909 57.7961 53.8921 57.3939 54.054 57.0147C54.438 56.0907 54.807 55.1597 55.182 54.2307C55.275 54.0017 55.369 53.7727 55.482 53.5097L56.042 54.3967C56.068 54.3247 56.083 54.2857 56.095 54.2447C56.445 53.0827 56.787 51.9187 57.148 50.7597C57.2549 50.4259 57.3023 50.0759 57.288 49.7257C57.268 49.2437 57.238 48.7587 57.266 48.2777C57.3098 47.5267 57.1709 46.7763 56.861 46.0907C56.6269 45.5849 56.4375 45.0596 56.295 44.5207C56.076 43.6207 55.926 42.7057 55.745 41.7977C55.699 41.5647 55.645 41.3337 55.59 41.0657C54.921 41.9377 54.278 42.7717 53.64 43.6087C53.6034 43.6668 53.577 43.7307 53.562 43.7977C53.3173 44.5937 53.0747 45.3897 52.834 46.1857C52.813 46.2537 52.786 46.3197 52.759 46.3927L52.428 46.2167L50.288 50.1217C50.381 50.1977 50.454 50.2687 50.536 50.3217C50.7763 50.5096 50.9717 50.7488 51.108 51.0217C51.2169 51.1638 51.2741 51.3387 51.2701 51.5176C51.2661 51.6965 51.2011 51.8687 51.086 52.0057C50.9548 52.2122 50.8379 52.4273 50.736 52.6497L49.988 51.9407C49.947 52.5167 49.935 53.0517 49.86 53.5767C49.8265 53.747 49.8399 53.9232 49.8987 54.0865C49.9575 54.2497 50.0596 54.394 50.194 54.5037C50.254 54.5577 50.294 54.6347 50.354 54.6887C50.437 54.7627 50.424 54.8267 50.374 54.9167C50.149 55.3217 49.937 55.7347 49.709 56.1377C49.6864 56.1725 49.6571 56.2024 49.6227 56.2256C49.5884 56.2488 49.5497 56.2648 49.509 56.2727C49.209 56.3137 48.909 56.3437 48.609 56.3667C48.5422 56.3683 48.4767 56.3476 48.423 56.3077C48.037 56.0171 47.6547 55.7221 47.276 55.4227C47.2195 55.3754 47.179 55.3119 47.16 55.2407C46.991 54.5547 46.832 53.8657 46.66 53.1787C46.56 52.7867 46.46 52.3967 46.36 52.0057V51.8177C46.3961 51.7534 46.4275 51.6866 46.454 51.6177C46.7203 50.9702 46.9388 50.3041 47.108 49.6247C47.1667 49.4586 47.1754 49.2789 47.1329 49.1079C47.0904 48.9369 46.9986 48.7821 46.869 48.6627C46.828 48.6277 46.802 48.5707 46.761 48.5327C46.7067 48.4774 46.6663 48.4098 46.6434 48.3357C46.6204 48.2616 46.6155 48.1831 46.629 48.1067C46.685 47.3687 46.729 46.6297 46.785 45.8927C46.7941 45.7123 46.8316 45.5345 46.896 45.3657C47.508 43.9057 48.131 42.4497 48.752 40.9927C48.778 40.9327 48.809 40.8747 48.852 40.7927L49.335 41.6687C49.374 41.5807 49.397 41.5307 49.418 41.4797L50.298 39.3647C50.375 39.1797 50.535 38.9767 50.498 38.8137C50.461 38.6507 50.234 38.5137 50.105 38.3547C50.052 38.2907 50.0237 38.2098 50.025 38.1267C50.0917 37.4981 50.1673 36.8697 50.252 36.2417C50.2625 36.1514 50.3042 36.0676 50.37 36.0047C51.7627 34.9041 53.159 33.8077 54.559 32.7157C54.5789 32.6982 54.6023 32.685 54.6276 32.6769C54.6529 32.6688 54.6796 32.666 54.706 32.6687C55.154 32.8267 55.686 32.8347 55.933 33.3537C55.933 33.3617 55.954 33.3637 56 33.3827C56.1 33.2747 56.2 33.1477 56.323 33.0397C56.3686 33.0085 56.4001 32.9605 56.4106 32.9062C56.4211 32.8519 56.4097 32.7957 56.379 32.7497C56.15 32.2557 55.932 31.7567 55.711 31.2597C55.605 31.0227 55.504 30.7837 55.395 30.5377L58.861 28.9177L59.917 31.4417L60.541 31.3267C60.515 31.2577 60.498 31.2027 60.476 31.1527C60.147 30.3667 59.845 29.5697 59.476 28.8017C59.1908 28.1771 59.0503 27.4962 59.065 26.8097C59.0425 26.1789 59.1996 25.5547 59.518 25.0097C59.7103 24.6317 59.9786 24.2974 60.306 24.0277C60.543 23.8527 60.757 23.6477 60.985 23.4617C61.0429 23.4148 61.1081 23.3776 61.178 23.3517C61.8829 23.075 62.6406 22.9592 63.396 23.0127C63.6341 23.0287 63.8729 23.0287 64.111 23.0127C64.9781 23.0194 65.8141 23.337 66.467 23.9077C66.8968 24.2428 67.2398 24.6763 67.467 25.1717C67.55 25.3717 67.667 25.5467 67.759 25.7397C67.8015 25.8283 67.8253 25.9246 67.829 26.0227C67.8357 26.5814 67.8357 27.1401 67.829 27.6987C67.8272 27.7983 67.8069 27.8966 67.769 27.9887C67.3317 29.0414 66.892 30.0921 66.45 31.1407C66.425 31.2007 66.406 31.2627 66.38 31.3357L67.004 31.4437L68.059 28.9237L71.526 30.5447C71.492 30.6277 71.466 30.6887 71.438 30.7517C71.138 31.4264 70.838 32.1021 70.538 32.7787C70.515 32.8307 70.486 32.9187 70.51 32.9447C70.648 33.1027 70.8 33.2447 70.98 33.4257C71.148 32.9617 71.524 32.8587 71.907 32.7667C71.9802 32.7497 72.0518 32.7263 72.121 32.6967C72.1684 32.6749 72.2215 32.6684 72.2728 32.6783C72.3241 32.6882 72.3711 32.7138 72.407 32.7517C73.772 33.8277 75.141 34.8967 76.507 35.9747C76.5934 36.0495 76.651 36.1521 76.67 36.2647C76.746 36.7857 76.784 37.3117 76.87 37.8297C76.912 37.9658 76.9089 38.1118 76.8614 38.246C76.8138 38.3802 76.7243 38.4955 76.606 38.5747C76.565 38.6027 76.537 38.6487 76.498 38.6747C76.4774 38.6879 76.4597 38.7051 76.4458 38.7251C76.4318 38.7452 76.422 38.7679 76.4169 38.7918C76.4118 38.8157 76.4115 38.8403 76.416 38.8644C76.4204 38.8884 76.4296 38.9113 76.443 38.9317C76.807 39.7907 77.16 40.6527 77.519 41.5137C77.537 41.5547 77.564 41.5967 77.597 41.6567L78.074 40.7877C78.106 40.8507 78.121 40.8777 78.133 40.9057C78.7797 42.4264 79.4257 43.9474 80.071 45.4687C80.0943 45.5261 80.1081 45.5869 80.112 45.6487C80.162 46.3487 80.174 47.0557 80.27 47.7487C80.309 47.9527 80.2944 48.1634 80.2276 48.36C80.1609 48.5567 80.0442 48.7327 79.889 48.8707C79.8297 48.9211 79.7864 48.9877 79.7644 49.0623C79.7424 49.1369 79.7426 49.2163 79.765 49.2907C79.81 49.4847 79.806 49.6907 79.865 49.8827C80.002 50.3307 80.165 50.7717 80.316 51.2137C80.388 51.4137 80.477 51.6137 80.559 51.8137V52.0017C80.5423 52.0337 80.5286 52.0672 80.518 52.1017C80.27 53.1364 80.0197 54.1697 79.767 55.2017C79.746 55.2906 79.6982 55.3709 79.63 55.4317C79.258 55.7317 78.879 56.0187 78.498 56.3057C78.4443 56.3456 78.3788 56.3663 78.312 56.3647C78.006 56.3407 77.7 56.3097 77.396 56.2647C77.3614 56.2581 77.3284 56.2444 77.2992 56.2246C77.27 56.2049 77.2451 56.1794 77.226 56.1497C76.993 55.7357 76.774 55.3117 76.544 54.8947C76.5212 54.8624 76.5115 54.8227 76.5169 54.7835C76.5223 54.7443 76.5423 54.7087 76.573 54.6837C76.724 54.5157 76.873 54.3427 77.009 54.1657C77.0554 54.1092 77.0818 54.0389 77.084 53.9657C77.068 53.6157 77.04 53.2657 77.014 52.9147C76.991 52.6007 76.964 52.2867 76.936 51.9377L76.191 52.6437C75.991 52.2717 75.803 51.9187 75.619 51.5647C75.6109 51.5458 75.6067 51.5254 75.6067 51.5047C75.6067 51.4841 75.6109 51.4637 75.619 51.4447C75.7748 50.9595 76.0795 50.5358 76.49 50.2337C76.5414 50.1969 76.5893 50.1554 76.633 50.1097L74.495 46.2097L74.159 46.3827C74.142 46.3357 74.127 46.2997 74.118 46.2677C73.87 45.4397 73.618 44.6127 73.367 43.7897C73.3376 43.6948 73.2923 43.6055 73.233 43.5257C72.878 43.0557 72.517 42.5887 72.157 42.1257L71.346 41.0727C71.3287 41.1156 71.3137 41.1593 71.301 41.2037C71.171 41.8547 71.05 42.5037 70.912 43.1557C70.788 43.7417 70.682 44.3357 70.502 44.9067C70.277 45.6217 69.986 46.3167 69.726 47.0207C69.6966 47.0958 69.6797 47.1752 69.676 47.2557C69.6607 48.2157 69.6487 49.1757 69.64 50.1357C69.6395 50.2228 69.652 50.3094 69.677 50.3927C70.0537 51.6594 70.4323 52.9237 70.813 54.1857C70.831 54.2467 70.859 54.3037 70.89 54.3857L71.439 53.5167C71.476 53.5997 71.502 53.6537 71.525 53.7097C72.025 54.9397 72.525 56.1677 73.015 57.4007C73.079 57.5766 73.1191 57.7602 73.134 57.9467C73.223 58.7877 73.303 59.6307 73.382 60.4707C73.4463 60.8411 73.4711 61.2172 73.456 61.5927C73.332 62.5737 73.171 63.5507 72.986 64.5217C72.914 64.934 72.9727 65.3585 73.154 65.7357L73.921 65.5227C73.921 65.5777 73.929 65.6147 73.93 65.6527C73.9793 69.2914 74.0303 72.9297 74.083 76.5677C74.1025 76.9177 74.0269 77.2664 73.864 77.5767C73.8201 77.637 73.7957 77.7092 73.794 77.7837C73.856 78.0757 73.936 78.3627 74.01 78.6527L74.382 78.6197C74.394 79.1327 74.4 79.6337 74.423 80.1337C74.4283 80.2694 74.4624 80.4023 74.523 80.5237C75.023 81.4907 75.539 82.4517 76.044 83.4177C76.0843 83.4905 76.0964 83.5756 76.078 83.6567C75.893 84.1917 75.701 84.7247 75.512 85.2547ZM66.061 27.6107C65.547 27.7997 65.061 27.9797 64.575 28.1557C64.386 28.2516 64.1838 28.319 63.975 28.3557C63.3471 28.436 62.709 28.3566 62.12 28.1247C61.69 27.9177 61.22 27.7877 60.755 27.6157C60.755 28.0887 60.755 28.5397 60.755 28.9907C60.7606 29.0179 60.7726 29.0433 60.79 29.0649C60.8074 29.0864 60.8297 29.1035 60.855 29.1147C61.457 29.3543 62.0787 29.541 62.713 29.6727V33.6597H64.14V30.0267C64.14 29.7077 64.14 29.7197 64.44 29.6267C64.946 29.4657 65.448 29.2897 65.948 29.1127C65.9754 29.0993 65.9994 29.0798 66.0181 29.0558C66.0368 29.0317 66.0498 29.0036 66.056 28.9737C66.065 28.5297 66.061 28.0847 66.061 27.6107Z" fill="#FF9B26"/>
</g>
<defs>
<filter id="filter0_d_1_736" x="16" y="13" width="74.559" height="82.2547" filterUnits="userSpaceOnUse" color-interpolation-filters="sRGB">
<feFlood flood-opacity="0" result="BackgroundImageFix"/>
<feColorMatrix in="SourceAlpha" type="matrix" values="0 0 0 0 0 0 0 0 0 0 0 0 0 0 0 0 0 0 127 0" result="hardAlpha"/>
<feOffset/>
<feGaussianBlur stdDeviation="5"/>
<feComposite in2="hardAlpha" operator="out"/>
<feColorMatrix type="matrix" values="0 0 0 0 1 0 0 0 0 0.537255 0 0 0 0 0 0 0 0 0.4 0"/>
<feBlend mode="normal" in2="BackgroundImageFix" result="effect1_dropShadow_1_736"/>
<feBlend mode="normal" in="SourceGraphic" in2="effect1_dropShadow_1_736" result="shape"/>
</filter>
</defs>
</svg>
