<svg width="112" height="112" viewBox="0 0 112 112" fill="none" xmlns="http://www.w3.org/2000/svg">
<path d="M111.022 55.5107L55.511 0L0.000278082 55.5107L55.511 111.021L111.022 55.5107Z" fill="#0F0F0F"/>
<path d="M55.511 1.41421L109.607 55.5107L55.511 109.607L1.41449 55.5107L55.511 1.41421Z" stroke="#00D1FF" stroke-width="2"/>
<g filter="url(#filter0_d_1_891)">
<path d="M67.902 24.9989C67.7735 24.8859 67.641 24.7755 67.5163 24.6586C67.2708 24.43 66.8708 24.4028 66.6163 24.621C66.0695 25.0911 65.5292 25.5691 64.9876 26.0457C64.9279 26.099 64.872 26.1574 64.8227 26.2197C64.4512 26.686 64.4447 26.8535 64.8058 27.3185C65.2279 27.8614 65.6227 28.4315 66.0955 28.9276C66.4682 29.3199 66.9397 29.6186 67.3682 29.9576C67.4358 30.0108 67.5215 30.0472 67.5786 30.1095C67.728 30.2732 67.8566 30.3082 68.0189 30.116C68.1306 29.9835 68.2397 30.0965 68.3228 30.1797C68.6631 30.5199 68.9969 30.8667 69.3385 31.2057C70.5463 32.407 71.7606 33.6045 72.9659 34.8097C73.9205 35.7643 74.8634 36.7306 75.8167 37.6865C77.4258 39.2995 79.0389 40.91 80.6507 42.5205C81.0052 42.875 81.3637 43.2244 81.7195 43.5764C81.8364 43.6919 81.8767 43.801 81.8014 43.9829C81.7001 44.227 81.752 44.4946 81.9325 44.6959C82.1183 44.905 82.3326 45.0881 82.5378 45.279C82.9586 45.67 83.3781 46.0635 83.8053 46.4466C84.1326 46.7401 84.4664 47.0285 84.8093 47.3051C85.0496 47.4986 85.169 47.4921 85.3794 47.2739C86.0535 46.5687 86.7237 45.8622 87.3821 45.144C87.5886 44.9193 87.5549 44.679 87.3263 44.4569C86.6756 43.8244 86.0197 43.1958 85.3691 42.562C85.1249 42.3244 84.8859 42.0815 84.6456 41.8399C84.521 41.7152 84.3885 41.6373 84.1989 41.6906C84.0209 41.7412 83.8677 41.6971 83.7274 41.5568C82.7936 40.6204 81.8559 39.6866 80.913 38.7593C80.2364 38.0943 79.548 37.4423 78.8688 36.78C78.3038 36.2293 77.744 35.6734 77.1869 35.1175C76.1232 34.0552 75.0647 32.9876 73.9984 31.9278C72.9659 30.9005 71.9269 29.8809 70.8944 28.8549C70.7139 28.6757 70.5424 28.4887 70.3788 28.2939C70.332 28.238 70.2969 28.138 70.3099 28.0692C70.3632 27.7925 70.3034 27.5523 70.119 27.3419C69.8891 27.0808 69.658 26.8224 69.4294 26.5613C69.4021 26.5301 69.3826 26.4912 69.3605 26.4548C69.3748 26.4405 69.3878 26.4275 69.4021 26.4133C69.6904 26.673 69.9852 26.925 70.2658 27.1925C70.6035 27.5146 70.91 27.8692 71.2632 28.1731C71.897 28.7198 72.4529 29.3368 73.0062 29.9615C73.4309 30.4394 73.8997 30.8784 74.3543 31.3304C74.5764 31.5511 74.8153 31.755 75.0387 31.9745C75.5569 32.4837 76.0673 32.9993 76.5855 33.5071C76.7375 33.6564 76.9232 33.772 77.07 33.9253C77.5986 34.4824 78.109 35.0552 78.6402 35.6098C79.0233 36.0098 79.4246 36.3916 79.8208 36.7787C80.0597 37.0124 80.3013 37.241 80.5455 37.4696C80.9481 37.8488 81.3689 38.2099 81.7533 38.6073C82.3287 39.2008 82.8715 39.8242 83.4417 40.423C83.8222 40.8217 84.2261 41.1996 84.6171 41.588C84.9145 41.8828 85.2067 42.1841 85.5067 42.475C85.7899 42.749 86.0847 43.0101 86.3704 43.2815C86.4821 43.3867 86.5769 43.5088 86.6886 43.614C87.0523 43.9556 87.4107 44.305 87.7886 44.6284C88.0276 44.8323 88.0822 45.2596 87.8575 45.4842C87.1523 46.1869 86.4392 46.8817 85.7418 47.5921C85.5301 47.8077 85.3158 47.8882 85.0249 47.7843C84.9457 47.7558 84.8249 47.7804 84.7483 47.8246C84.5534 47.9376 84.356 47.9779 84.1339 47.9506C83.5846 47.883 83.0339 47.8233 82.4832 47.761C82.1118 47.7194 81.7403 47.6791 81.3689 47.6363C81.3156 47.6298 81.2611 47.6259 81.2117 47.6064C80.5662 47.3441 79.8766 47.3778 79.2025 47.2947C78.7662 47.2415 78.3298 47.1843 77.8973 47.109C77.6544 47.0661 77.4882 47.1285 77.3141 47.3116C76.7063 47.9506 76.079 48.5701 75.4582 49.1961C75.4128 49.2415 75.3556 49.2753 75.2686 49.3416C75.2582 49.2454 75.2439 49.1831 75.2452 49.1221C75.2621 48.2467 75.2842 47.3726 75.2972 46.4973C75.3011 46.2232 75.3089 45.9453 75.2595 45.6791C75.2309 45.5232 75.1153 45.3673 75.0037 45.244C74.5257 44.7128 74.0361 44.1907 73.5464 43.6712C73.3867 43.5023 73.3205 43.3153 73.3646 43.0867C73.414 42.8257 73.2763 42.6477 73.1036 42.4737C72.062 41.4178 71.0307 40.3515 69.9878 39.2969C69.1943 38.4943 68.3891 37.7021 67.5877 36.9072C67.3747 36.6955 67.1488 36.4968 66.9371 36.2838C66.8189 36.1643 66.7228 36.176 66.615 36.2864C66.4318 36.4721 66.2448 36.6527 66.063 36.8397C64.0538 38.8956 62.0472 40.9516 60.038 43.0075C59.4679 43.5906 58.8951 44.1712 58.3276 44.7556C58.0951 44.9946 58.0873 45.3751 58.3172 45.6232C58.5575 45.8843 58.8107 46.1323 59.0627 46.3804C59.8186 47.1259 60.5796 47.8675 61.3355 48.6142C62.02 49.2909 62.6992 49.9702 63.3798 50.6507C63.5824 50.8533 63.7746 51.0676 63.9772 51.2702C64.1733 51.465 64.4084 51.578 64.6902 51.5949C64.9435 51.6105 65.1591 51.704 65.3487 51.8897C65.8721 52.4053 66.4111 52.9053 66.9435 53.4119C67.0916 53.5521 67.2643 53.6054 67.4708 53.6132C68.5241 53.6534 69.5774 53.7054 70.632 53.7573C70.7022 53.7612 70.771 53.7885 70.8165 53.8002C70.6749 53.9664 70.545 54.1418 70.3931 54.2937C70.045 54.6444 69.6839 54.9821 69.3307 55.3288C69.2021 55.4548 69.0787 55.5288 68.8748 55.5133C68.7047 55.5016 68.528 55.6068 68.3527 55.6574C68.228 55.6938 68.1046 55.7457 67.9787 55.7574C67.7137 55.7795 67.4462 55.7782 67.1786 55.7873C67.1124 55.7899 67.0423 55.8055 66.9799 55.7912C66.3916 55.6639 65.798 55.725 65.2058 55.7444C64.9915 55.7509 64.8006 55.6977 64.6383 55.5405C63.5603 54.5028 62.4719 53.4742 61.3991 52.4313C60.6563 51.7092 59.9393 50.9624 59.2003 50.2364C58.3094 49.361 57.4107 48.4922 56.508 47.6285C56.2262 47.3583 56.2132 47.0427 56.2366 46.6817C56.2664 46.2271 56.2275 45.7687 56.221 45.3115C56.2184 45.1492 56.221 44.9855 56.221 44.8232C56.2223 44.5673 56.2054 44.3102 56.2301 44.0569C56.2457 43.8972 56.3015 43.7335 56.3742 43.588C56.4535 43.427 56.495 43.2893 56.3989 43.1179C56.3677 43.0621 56.3872 42.9361 56.4327 42.8854C56.7418 42.5374 57.0587 42.1958 57.3821 41.8607C57.5808 41.6542 57.7951 41.4633 57.999 41.2633C58.4743 40.797 58.9497 40.3308 59.4211 39.8606C59.5627 39.719 59.6861 39.5593 59.8276 39.419C60.2887 38.9658 60.7576 38.5203 61.216 38.0657C61.4095 37.8735 61.5771 37.654 61.7719 37.4618C62.1797 37.0579 62.6018 36.6683 63.0109 36.2656C63.2577 36.0215 63.4979 35.7695 63.7291 35.5111C64.0174 35.189 64.3278 34.9019 64.7396 34.7435C64.8136 34.7149 64.8798 34.6656 64.9487 34.6266C65.0565 34.5656 65.0694 34.485 64.9824 34.4006C64.8564 34.2785 64.8577 34.1591 64.9006 33.9876C64.9422 33.8214 64.9162 33.611 64.8486 33.4499C64.6785 33.0382 64.6512 32.6083 64.611 32.1771C64.5733 31.7654 64.5305 31.3537 64.4759 30.9446C64.4564 30.8005 64.3785 30.6654 64.359 30.5212C64.2629 29.8017 64.1811 29.0809 64.085 28.3614C64.0499 28.0977 63.9915 27.8367 63.9486 27.573C63.9382 27.5107 63.9239 27.412 63.9577 27.3847C64.198 27.1834 64.0486 26.925 64.0798 26.6938C64.0941 26.5951 64.1136 26.4769 64.1772 26.4107C64.4408 26.1379 64.7253 25.8847 64.9954 25.6171C65.2227 25.3924 65.4422 25.1574 65.6643 24.9262C65.9227 24.656 66.1799 24.3846 66.437 24.1131C66.5396 24.0054 67.1695 23.9521 67.2514 24.056C67.4851 24.3534 67.7098 24.6599 67.9384 24.9625C67.9254 24.9716 67.9137 24.9859 67.902 24.9989Z" fill="#00D1FF"/>
<path d="M36.6149 62.6266C36.6149 63.5734 36.6149 64.5124 36.6149 65.4527C36.6149 65.6929 36.6188 65.9332 36.6149 66.1735C36.6123 66.3865 36.689 66.5605 36.8409 66.7099C37.3202 67.1839 37.7981 67.6606 38.2747 68.1372C38.3683 68.232 38.4722 68.3229 38.541 68.4333C38.5877 68.5099 38.6189 68.6333 38.5916 68.7113C38.4566 69.0827 38.5683 69.3632 38.8449 69.6217C39.3034 70.0503 39.7475 70.4945 40.1956 70.9347C40.9723 71.6984 41.7489 72.4608 42.5204 73.2309C43.2996 74.0089 44.0763 74.792 44.8452 75.5804C44.9919 75.7311 45.1309 75.7388 45.2868 75.6349C45.4088 75.5544 45.5257 75.4635 45.6283 75.3596C46.5998 74.3842 47.5635 73.4011 48.5388 72.4296C50.2052 70.7698 51.8832 69.1204 53.543 67.4541C53.7144 67.2826 53.8079 67.0307 53.917 66.806C53.9417 66.7553 53.9014 66.6436 53.8547 66.593C53.465 66.1722 53.0767 65.7488 52.6689 65.3449C51.9481 64.6306 51.213 63.9292 50.487 63.2201C49.9857 62.7305 49.4545 62.2668 49.0012 61.7356C48.5765 61.2382 48.083 60.8252 47.6063 60.3888C47.4258 60.2239 47.2583 60.194 47.0725 60.3278C46.8388 60.4953 46.7141 60.4213 46.5362 60.2304C46.1686 59.8342 45.8089 59.429 45.4452 59.0277C45.3101 58.8796 45.1647 58.7407 45.0348 58.59C44.8348 58.3575 44.5776 58.2835 44.2828 58.2848C43.2672 58.29 42.2516 58.29 41.2359 58.2913C41.1658 58.2913 41.0957 58.2835 40.9853 58.277C41.045 58.203 41.0736 58.1614 41.1086 58.1251C41.3749 57.8549 41.6424 57.5874 41.9074 57.3159C42.1399 57.077 42.3671 56.8328 42.6022 56.5964C42.6516 56.5458 42.7204 56.5003 42.7866 56.4834C43.1906 56.3782 43.5945 56.2756 44.001 56.186C44.101 56.1639 44.2127 56.1977 44.3192 56.1977C44.4555 56.1977 44.5932 56.1769 44.7296 56.1847C44.9218 56.1951 45.1114 56.2211 45.3023 56.2406C45.3751 56.2484 45.453 56.2756 45.5205 56.2587C46.0387 56.1263 46.5517 56.3094 47.0686 56.286C47.1881 56.2808 47.3349 56.4042 47.4336 56.5029C48.4285 57.5017 49.4142 58.5108 50.4065 59.5121C51.5974 60.7122 52.7949 61.9071 53.9858 63.1071C54.4326 63.5578 54.8742 64.0149 55.3106 64.476C55.5625 64.7409 55.7807 65.0397 55.7859 65.4215C55.7898 65.6955 55.6755 65.9813 55.7249 66.241C55.7794 66.5306 55.6093 66.7865 55.7236 67.093C55.8275 67.3735 55.7431 67.7203 55.7612 68.0372C55.7755 68.2736 55.647 68.4294 55.5275 68.6087C55.456 68.7152 55.4405 68.8736 55.4379 69.0087C55.4353 69.1775 55.3755 69.297 55.2586 69.4126C54.469 70.1996 53.6845 70.9932 52.8949 71.7815C52.2091 72.4647 51.5156 73.14 50.8312 73.8232C49.9155 74.7388 49.0051 75.6609 48.0908 76.5778C47.9063 76.7623 47.718 76.9428 47.518 77.109C47.4414 77.1727 47.3284 77.1999 47.2271 77.2259C46.9401 77.2974 46.8479 77.5052 46.9621 77.774C47.0388 77.9532 47.1063 78.1493 47.1154 78.3403C47.1401 78.8572 47.2349 79.352 47.3791 79.852C47.5024 80.2793 47.4959 80.7456 47.5271 81.1962C47.5622 81.6963 47.6427 82.1846 47.7713 82.6716C47.8765 83.0664 47.8934 83.4846 47.9362 83.8951C47.9609 84.1288 48.0038 84.373 47.9648 84.599C47.8947 84.9951 47.9687 85.4172 47.5959 85.7562C46.905 86.3848 46.2699 87.0744 45.6114 87.7394C45.366 87.9874 44.9634 87.9836 44.7036 87.7381C44.2348 87.2939 43.749 86.8666 43.2893 86.412C42.8957 86.0237 42.5295 85.6094 42.1515 85.2055C42.1619 85.1925 42.1723 85.1795 42.1814 85.1665C42.2152 85.1847 42.2541 85.1964 42.2801 85.2211C42.9529 85.8614 43.623 86.503 44.2945 87.1446C44.4296 87.2731 44.562 87.4056 44.7075 87.5225C44.7543 87.5602 44.8504 87.5783 44.9023 87.5563C45.0166 87.5069 45.1309 87.4394 45.2218 87.355C45.8257 86.7874 46.4232 86.2146 47.0219 85.6419C47.1128 85.5536 47.1959 85.4575 47.2816 85.3639C47.3868 85.2497 47.3778 85.1328 47.3518 84.9795C47.2596 84.4392 46.8167 84.1847 46.4725 83.8574C45.7569 83.1768 45.0179 82.5197 44.2828 81.8599C44.2244 81.8066 44.1127 81.7729 44.036 81.7859C43.7334 81.8365 43.5126 81.7274 43.3035 81.5144C42.736 80.9391 42.1528 80.3806 41.5788 79.8118C41.4372 79.6715 41.3125 79.5117 41.1723 79.3702C40.2541 78.4468 39.3371 77.522 38.415 76.6038C37.6384 75.8311 36.8513 75.07 36.0746 74.2972C35.346 73.5712 34.6278 72.8361 33.9018 72.1075C33.294 71.4971 32.6797 70.8919 32.0745 70.2789C31.5628 69.7607 31.0588 69.2347 30.5523 68.7126C30.4874 68.645 30.4315 68.5645 30.3575 68.5112C30.1861 68.3892 30.0861 68.2658 30.2263 68.0502C30.2588 68.0008 30.2289 67.893 30.1991 67.8255C30.1614 67.7424 30.0991 67.6671 30.0367 67.5982C29.6185 67.1398 29.199 66.6826 28.7756 66.2293C28.3704 65.7968 27.9717 65.3553 27.5431 64.9474C27.382 64.7929 27.1509 64.702 26.9379 64.6176C26.8483 64.5825 26.7197 64.6332 26.6132 64.6643C26.5521 64.6812 26.495 64.728 26.4469 64.7734C25.8599 65.3293 25.2638 65.8761 24.6988 66.454C24.5391 66.6164 24.4715 66.8709 24.3702 67.0878C24.3507 67.1294 24.352 67.206 24.378 67.2398C24.5196 67.4229 24.665 67.606 24.8248 67.7748C24.9806 67.9398 25.1547 68.0879 25.3209 68.2437C25.3066 68.2593 25.2923 68.2762 25.2781 68.2918C25.2144 68.2476 25.1443 68.2112 25.0884 68.158C24.7806 67.8632 24.4702 67.5709 24.1715 67.2657C23.9235 67.0112 23.9533 66.6177 24.204 66.3683C24.7339 65.841 25.2547 65.3046 25.7794 64.7734C25.9859 64.5643 26.1924 64.3565 26.4041 64.1526C26.443 64.1149 26.508 64.0851 26.5612 64.0851C26.7859 64.0838 27.0132 64.1123 27.2366 64.0955C27.5262 64.0734 27.8132 64.0123 28.1016 63.9773C28.199 63.9656 28.3016 63.9721 28.3977 63.9903C29.0523 64.111 29.7055 64.2344 30.3588 64.363C30.503 64.3916 30.6432 64.437 30.7835 64.4773C30.964 64.5292 31.1368 64.5163 31.3277 64.4942C31.59 64.463 31.8719 64.5202 32.1329 64.5903C32.542 64.6994 32.9485 64.7968 33.3758 64.7604C33.6992 64.7332 33.9551 64.8877 34.1979 65.0747C34.3902 65.2228 34.4265 65.2202 34.5928 65.0397C34.7122 64.9098 34.8434 64.7877 34.7019 64.589C34.685 64.5643 34.7239 64.4773 34.759 64.4422C35.3499 63.8526 35.9435 63.2656 36.5383 62.6785C36.5695 62.6577 36.5968 62.6409 36.6149 62.6266Z" fill="#00D1FF"/>
<path d="M39.1891 69.0399C39.2164 68.7243 39.3787 68.51 39.5774 68.3112C40.6593 67.2307 41.7399 66.1462 42.8204 65.0643C44.0659 63.8162 45.3114 62.5668 46.5608 61.3226C46.6907 61.1927 46.8466 61.0824 47.005 60.9875C47.3141 60.8031 47.3726 60.7966 47.6362 61.0538C48.4168 61.8123 49.183 62.5863 49.9558 63.3526C50.9273 64.3176 51.8988 65.2825 52.8702 66.2488C52.9975 66.3761 53.1144 66.5151 53.2417 66.6423C53.3599 66.7605 53.3521 66.8735 53.2469 66.9917C53.1495 67.1008 53.0572 67.2164 52.9533 67.3203C50.5987 69.662 48.244 72.0036 45.8881 74.3427C45.6894 74.5401 45.4764 74.7232 45.2738 74.9167C45.1374 75.0466 45.0348 75.018 44.9075 74.8895C44.1283 74.1011 43.3451 73.3154 42.5568 72.5361C41.597 71.5867 40.6307 70.6451 39.6683 69.6996C39.554 69.5879 39.4346 69.4775 39.3384 69.3516C39.2709 69.2606 39.2384 69.1438 39.1891 69.0399Z" fill="#00D1FF"/>
<path d="M72.6867 43.0101C72.5945 43.1634 72.5399 43.3101 72.4399 43.4114C71.5503 44.3167 70.6528 45.2154 69.7554 46.1129C68.2566 47.6103 66.7565 49.1052 65.2578 50.6014C65.2006 50.6585 65.1448 50.7144 65.0876 50.7715C64.8019 51.0495 64.637 51.0637 64.3318 50.7975C64.1058 50.6001 63.8993 50.3806 63.6876 50.1663C62.1719 48.639 60.6563 47.1116 59.1406 45.5843C59.0939 45.5362 59.0471 45.4882 59.0029 45.4388C58.7614 45.1687 58.7627 45.0726 59.012 44.8206C61.5005 42.3101 63.9876 39.797 66.4825 37.2943C66.9799 36.7943 66.8202 36.8021 67.3215 37.3138C68.6774 38.6982 70.0359 40.0788 71.3905 41.4633C71.7412 41.8218 72.0918 42.1802 72.4256 42.553C72.5334 42.6725 72.5919 42.84 72.6867 43.0101Z" fill="#00D1FF"/>
<path d="M74.5127 50.9092C74.7465 51.2443 74.9504 51.5573 75.1777 51.8534C75.3764 52.1118 75.6089 52.343 75.8128 52.5989C75.9089 52.7197 75.9712 52.8677 76.0453 53.0041C76.0673 53.0443 76.0725 53.0937 76.0933 53.1353C76.3258 53.5924 76.5804 54.0392 76.7869 54.508C77.0102 55.0133 77.2142 55.5302 77.3765 56.0575C77.5038 56.4718 77.544 56.912 77.6388 57.3367C77.8038 58.0757 77.6843 58.8225 77.7064 59.5654C77.7129 59.7823 77.6233 60.0083 77.5557 60.2226C77.3401 60.8953 77.118 61.5655 76.8882 62.2331C76.8128 62.4526 76.731 62.6772 76.6076 62.8708C76.3635 63.2526 76.1206 63.6461 75.8141 63.976C75.5102 64.3059 75.1361 64.5721 74.7803 64.8514C74.5179 65.0566 74.227 65.2267 73.9634 65.4306C73.3763 65.8878 72.6828 66.0969 71.997 66.3449C71.3879 66.5644 70.7697 66.4813 70.1554 66.5294C69.6437 66.5709 69.1307 66.6047 68.6177 66.5969C68.3449 66.593 68.0579 66.5333 67.8033 66.4333C67.4735 66.3034 67.1449 66.2203 66.7942 66.2125C66.3734 66.2034 65.9929 66.0865 65.6175 65.8735C65.1902 65.6319 64.7214 65.4618 64.2629 65.28C63.9473 65.154 63.6863 64.9592 63.42 64.754C62.859 64.3228 62.2615 63.9409 61.6966 63.5149C61.3784 63.2747 61.0965 62.9876 60.8017 62.7188C60.6004 62.5344 60.3952 62.3513 60.2082 62.1538C59.6939 61.6123 59.19 61.059 58.6744 60.5187C58.5899 60.4304 58.586 60.3654 58.6549 60.2797C58.6718 60.259 58.6847 60.2356 58.7029 60.2161C59.203 59.6966 59.6978 59.1732 60.2056 58.6602C60.3562 58.5082 60.4705 58.5394 60.6134 58.69C60.929 59.0212 61.2485 59.3511 61.5771 59.6706C62.1368 60.2148 62.6953 60.759 63.2733 61.2837C63.5382 61.5239 63.8486 61.7149 64.1343 61.9343C64.346 62.0967 64.5668 62.2512 64.7551 62.4383C65.2032 62.8798 65.7617 63.098 66.3409 63.2916C66.5708 63.3695 66.7812 63.5046 67.0072 63.5968C67.1825 63.6682 67.3631 63.7331 67.5475 63.7695C67.88 63.8344 68.2202 63.8669 68.5527 63.9318C68.9995 64.0189 69.4424 63.9877 69.8865 63.9305C69.9788 63.9189 70.0814 63.8734 70.1619 63.8994C70.6645 64.0578 71.1191 63.8578 71.5879 63.7357C72.1516 63.589 72.5997 63.2682 72.9919 62.8513C73.0763 62.7617 73.1776 62.6604 73.2893 62.6253C73.6854 62.5045 73.8711 62.1824 74.0867 61.8746C74.3868 61.4447 74.5361 60.9577 74.6712 60.4603C74.7179 60.2888 74.8011 60.1187 74.905 59.9758C75.0764 59.742 75.0985 59.4862 75.0894 59.216C75.0816 58.9966 75.0673 58.7745 75.0803 58.5563C75.1257 57.8134 74.9959 57.0926 74.7673 56.3951C74.6595 56.064 74.4478 55.7678 74.2854 55.4535C74.1673 55.2237 74.0491 54.9925 73.9387 54.7574C73.6984 54.2509 73.3867 53.795 72.9659 53.4249C72.5048 53.0197 72.4945 52.9729 72.9088 52.5404C73.3425 52.0872 73.7776 51.6339 74.2153 51.1832C74.2997 51.0923 74.3984 51.0131 74.5127 50.9092Z" fill="#00D1FF"/>
<path d="M37.5696 60.9018C36.8254 60.2888 36.3163 59.5563 35.8371 58.8017C35.7786 58.7095 35.7566 58.5939 35.7202 58.49C35.6981 58.4277 35.6916 58.3576 35.6591 58.3017C35.4345 57.9147 35.2163 57.5238 34.9734 57.1484C34.6955 56.7224 34.6539 56.2354 34.5604 55.7587C34.4786 55.3418 34.3617 54.9301 34.2916 54.5106C34.2318 54.1509 34.1786 53.782 34.1915 53.4197C34.2058 53.0106 34.3513 52.6028 34.3435 52.1962C34.3292 51.5547 34.6851 51.0403 34.8344 50.4572C34.9591 49.9728 35.0643 49.4805 35.3552 49.0571C35.5786 48.7337 35.8176 48.4194 36.028 48.0883C36.2501 47.7376 36.5657 47.5064 36.9034 47.283C37.4592 46.9129 37.9956 46.5129 38.5515 46.1414C38.7138 46.0336 38.9073 45.9687 39.0931 45.9012C39.4372 45.7752 39.784 45.6492 40.136 45.5466C40.3568 45.483 40.5892 45.4492 40.8178 45.4297C41.0841 45.4076 41.3516 45.4206 41.6192 45.4076C42.1724 45.3817 42.7244 45.3388 43.2777 45.3232C43.4101 45.3193 43.5452 45.3946 43.6803 45.4232C43.8673 45.4635 44.0543 45.518 44.2439 45.5232C44.6998 45.5362 45.131 45.6154 45.5297 45.8505C45.6375 45.9141 45.7622 45.9635 45.8843 45.9817C46.3882 46.0531 46.8545 46.2245 47.2934 46.4739C47.9311 46.8363 48.5662 47.2025 49.1922 47.5843C49.7273 47.9103 50.1533 48.3662 50.5858 48.813C50.8923 49.1286 51.2118 49.4312 51.5287 49.7377C51.8638 50.0611 52.2001 50.3832 52.5417 50.7014C52.8287 50.9702 53.1223 51.2313 53.421 51.5027C53.3872 51.5573 53.369 51.6001 53.3392 51.6313C52.808 52.1781 52.2781 52.7261 51.743 53.2677C51.5209 53.4924 51.5209 53.4794 51.3027 53.2664C51.1261 53.095 50.9157 52.9573 50.7455 52.7807C50.2014 52.2105 49.6676 51.6326 49.1351 51.052C48.6195 50.491 48.0168 50.039 47.3869 49.6208C46.9428 49.326 46.5025 49.0182 46.0349 48.7649C45.7154 48.5922 45.357 48.4818 45.0063 48.3831C44.5063 48.2415 43.9998 48.1129 43.4881 48.0246C43.1361 47.9649 42.7686 47.9493 42.4127 47.9753C41.7854 48.0207 41.1399 47.9142 40.5308 48.1376C40.1321 48.2831 39.7243 48.4117 39.4022 48.7208C39.2307 48.8857 39.0242 49.0195 38.819 49.1403C38.1385 49.5442 37.7099 50.1429 37.441 50.8728C37.293 51.2741 37.128 51.6676 36.9917 52.0729C36.9267 52.2664 36.8839 52.4755 36.88 52.6781C36.8722 53.0495 36.9073 53.421 36.9137 53.7937C36.9254 54.4769 37.1358 55.1249 37.2566 55.7886C37.2644 55.8341 37.2696 55.8834 37.2917 55.9237C37.5644 56.4497 37.8073 56.9939 38.1203 57.4952C38.4632 58.0433 38.8749 58.5472 39.2489 59.0758C39.284 59.1251 39.2944 59.2498 39.2606 59.2823C38.693 59.8317 38.1229 60.3732 37.5696 60.9018Z" fill="#00D1FF"/>
<path d="M55.6171 64.0266C53.0117 61.3784 50.4584 58.7822 47.9011 56.1808C48.1778 56.2042 48.4414 56.2808 48.6843 56.2366C49.17 56.1496 49.6817 56.0964 50.0584 55.7042C50.3727 55.3769 50.6935 55.0561 51.0181 54.7379C51.3363 54.4236 51.6688 54.1236 51.9831 53.8067C52.7455 53.0378 53.5027 52.265 54.2586 51.4897C54.7936 50.9403 55.3404 50.4026 55.8443 49.826C56.0392 49.6039 56.1327 49.2909 56.2625 49.0155C56.2846 48.9688 56.2586 48.9 56.2534 48.8415C56.2483 48.7831 56.234 48.7233 56.2366 48.6649C56.247 48.4831 56.2638 48.3012 56.2794 48.0947C58.851 50.5948 61.3939 53.1625 63.9707 55.6977C63.959 55.7236 63.9486 55.7509 63.9369 55.7769C63.7291 55.7613 63.5187 55.7652 63.3161 55.7262C62.8018 55.6275 62.3862 55.821 62.0212 56.1496C61.7485 56.3951 61.49 56.6549 61.2303 56.9146C59.9069 58.2445 58.5834 59.5745 57.2626 60.9083C56.8262 61.3499 56.4028 61.8031 55.9664 62.2447C55.8054 62.4071 55.8145 62.6084 55.8041 62.8058C55.7924 63.0253 55.8158 63.2487 55.7872 63.4655C55.7638 63.6409 55.6872 63.8071 55.6171 64.0266ZM59.6835 56.1094C59.7965 55.4873 59.6055 54.9249 59.3627 54.3638C59.2562 54.1171 59.1185 53.9093 58.925 53.7287C58.5977 53.4235 58.2795 53.1079 57.9457 52.8118C57.8405 52.7183 57.7029 52.6482 57.5678 52.604C57.1756 52.4754 56.7833 52.3222 56.3781 52.2598C55.995 52.2014 55.5807 52.178 55.2105 52.265C54.8443 52.3508 54.491 52.5586 54.1741 52.7742C53.8118 53.0196 53.4897 53.3261 53.1585 53.6171C53.0351 53.7261 52.913 53.8508 52.8351 53.9937C52.6494 54.3327 52.4818 54.6833 52.3247 55.0366C52.2637 55.173 52.2221 55.3288 52.2221 55.4769C52.2208 55.9314 52.2364 56.386 52.2611 56.8393C52.2689 56.9743 52.3039 57.1211 52.3702 57.2367C52.7741 57.9471 53.1962 58.6458 53.9533 59.0498C54.0404 59.0965 54.117 59.1654 54.1988 59.2238C54.5547 59.4771 54.9547 59.6368 55.382 59.6732C55.7989 59.7095 56.2223 59.6926 56.6405 59.6706C57.147 59.6446 57.6094 59.4563 57.9847 59.1238C58.338 58.8095 58.6587 58.4549 58.9679 58.0965C59.438 57.5523 59.7757 56.9497 59.6848 56.1899C59.6809 56.1626 59.6835 56.1353 59.6835 56.1094Z" fill="#00D1FF"/>
<path d="M45.4789 83.5431C45.6932 83.7509 45.9075 83.9587 46.1231 84.1665C46.2621 84.3016 46.4075 84.4289 46.54 84.5704C46.605 84.6406 46.6582 84.7289 46.6959 84.8185C46.7985 85.0653 46.7231 85.2614 46.5283 85.4419C46.0647 85.8744 45.6179 86.3263 45.1555 86.7614C44.9348 86.9692 44.9257 86.9601 44.7114 86.751C44.6062 86.6484 44.5023 86.5445 44.3997 86.4393C44.3815 86.4212 44.3711 86.3952 44.3594 86.377C44.3659 86.3575 44.3659 86.3393 44.3737 86.3341C44.7036 86.1367 44.6971 86.1173 44.4217 85.8393C43.7204 85.1328 43.0386 84.4068 42.3294 83.7067C41.293 82.6833 40.2345 81.6833 39.1981 80.6612C38.5942 80.065 38.0189 79.4403 37.4188 78.8403C36.7759 78.1987 36.1162 77.574 35.4707 76.935C34.5927 76.0648 33.7252 75.1856 32.8485 74.3141C32.0342 73.5037 31.2082 72.7037 30.3964 71.8906C29.5146 71.0062 28.6483 70.1061 27.7651 69.223C27.1417 68.5996 26.5028 67.9944 25.878 67.3891C25.8443 67.3969 25.8274 67.3943 25.8209 67.4021C25.5806 67.645 25.565 67.6606 25.8001 67.9112C26.2209 68.3593 26.6625 68.7866 27.095 69.2243C27.2249 69.3555 27.3508 69.4905 27.4781 69.623C27.4677 69.636 27.4573 69.6503 27.447 69.6633C27.4132 69.6464 27.3703 69.636 27.3443 69.61C26.6105 68.871 25.878 68.1281 25.1442 67.3891C25.03 67.2748 25.0326 67.1735 25.0858 67.0164C25.2404 66.5618 25.5573 66.2501 25.9066 65.9527C26.1352 65.7579 26.3586 65.5553 26.5703 65.3423C26.7054 65.2072 26.8612 65.1722 27.0041 65.267C27.2171 65.4085 27.4093 65.5826 27.6002 65.7527C27.6651 65.8098 27.6599 65.8787 27.5547 65.9163C27.3015 66.0073 27.2755 66.1319 27.4703 66.3306C27.6625 66.5255 27.8613 66.7138 28.0574 66.9047C28.5535 67.3904 29.0496 67.8762 29.5457 68.3619C30.2523 69.0528 30.9952 69.7113 31.6549 70.4438C32.3004 71.162 33.0134 71.8049 33.7044 72.4725C34.0109 72.7686 34.2927 73.0907 34.5979 73.3894C35.1746 73.9557 35.7681 74.5037 36.337 75.0765C36.7461 75.4882 37.1149 75.9402 37.5214 76.3545C38.0137 76.8532 38.528 77.3298 39.0319 77.8169C39.6644 78.4299 40.3047 79.0364 40.9268 79.6611C41.4489 80.1858 41.9411 80.7404 42.4606 81.2664C43.0412 81.8547 43.6386 82.4262 44.2295 83.0067C44.749 83.5171 45.2672 84.0288 45.7867 84.5393C45.9413 84.6912 46.0166 84.6834 46.1439 84.5237C46.2335 84.412 46.1881 84.3302 46.1062 84.2444C45.8906 84.0172 45.6789 83.7873 45.4646 83.5574C45.4711 83.5535 45.475 83.5483 45.4789 83.5431Z" fill="#00D1FF"/>
<path d="M86.3691 44.2984C86.5003 44.4192 86.6211 44.514 86.7211 44.627C86.9133 44.8439 86.9276 44.9283 86.725 45.1426C86.2249 45.6712 85.7054 46.1829 85.195 46.7024C85.1132 46.7856 85.0548 46.7635 84.956 46.7063C84.2339 46.2933 83.7248 45.6453 83.1378 45.0842C82.9027 44.8595 82.6767 44.6257 82.4468 44.3972C82.4611 44.379 82.4754 44.3608 82.4884 44.3439C82.5404 44.3803 82.5988 44.4101 82.6417 44.4543C83.2157 45.0322 83.7885 45.6128 84.3612 46.192C84.3703 46.2011 84.3794 46.2141 84.3911 46.2193C84.5067 46.2687 84.5794 46.4908 84.7521 46.3024C84.9405 46.0959 84.9444 46.0349 84.7456 45.8375C83.417 44.5192 82.0845 43.2062 80.7598 41.884C79.8467 40.9736 78.9506 40.045 78.035 39.1359C76.8401 37.9488 75.631 36.7773 74.4348 35.5929C73.3438 34.511 72.262 33.4187 71.1762 32.3317C70.006 31.1589 68.8371 29.9835 67.6631 28.8159C67.128 28.2834 66.5799 27.7639 66.037 27.2405C66.0045 27.2094 65.9669 27.1821 65.937 27.1561C65.9136 27.1652 65.8981 27.1678 65.8903 27.1756C65.6305 27.4821 65.6227 27.5016 65.9084 27.7938C66.3942 28.2899 66.8916 28.7757 67.3864 29.2627C67.4527 29.3276 67.5345 29.3757 67.6085 29.4328C67.5916 29.451 67.576 29.4679 67.5592 29.4861C67.3553 29.3289 67.1319 29.1913 66.95 29.0107C66.5383 28.6016 66.1448 28.1743 65.7487 27.7509C65.6162 27.6094 65.4954 27.4574 65.3733 27.3081C65.124 27.0055 65.1305 26.6743 65.4032 26.3859C65.5773 26.2015 65.7669 26.0314 65.9487 25.8548C66.1071 25.7015 66.2695 25.5508 66.4227 25.3924C66.6228 25.1859 66.8799 25.1158 67.1475 25.0976C67.2371 25.0911 67.3514 25.1625 67.4215 25.2314C67.7449 25.5508 68.0501 25.8859 68.3722 26.2067C68.7177 26.5509 69.0735 26.8847 69.4216 27.2262C69.519 27.3211 69.6034 27.4289 69.6943 27.5302C69.6761 27.5483 69.658 27.5652 69.6398 27.5834C68.9423 26.9184 68.2436 26.2535 67.5462 25.5885C67.5345 25.6002 67.5228 25.6132 67.5111 25.6249C67.5176 25.6872 67.5514 25.7807 67.5241 25.8041C67.4799 25.8418 67.3968 25.8327 67.2773 25.8509C67.3656 25.9755 67.428 26.0976 67.5202 26.1885C68.6358 27.2834 69.7593 28.3705 70.8749 29.4666C71.2892 29.8744 71.6827 30.303 72.0957 30.7121C73.0828 31.6914 74.0802 32.659 75.0634 33.6408C75.7621 34.3396 76.4414 35.0591 77.1362 35.7617C77.6064 36.2357 78.0882 36.6981 78.5662 37.1644C79.3402 37.9215 80.1208 38.6709 80.8857 39.4359C81.5182 40.0684 82.1222 40.7295 82.7546 41.3619C83.2638 41.8711 83.8014 42.3529 84.3197 42.8529C84.8379 43.3542 85.3483 43.8647 85.8626 44.3712C85.8821 44.3894 85.8977 44.4114 85.9158 44.4309C86.1639 44.6842 86.2418 44.6686 86.3691 44.2984Z" fill="#00D1FF"/>
<path d="M40.6736 58.8706C41.6282 58.8706 42.5828 58.8693 43.5374 58.8706C43.8244 58.8706 44.1166 58.8485 44.3972 58.8927C44.5816 58.9212 44.7933 59.0095 44.9193 59.142C45.3725 59.6135 45.7894 60.12 46.2336 60.6005C46.3765 60.7551 46.3427 60.8499 46.2115 60.9785C45.5154 61.6629 44.8284 62.3551 44.1322 63.0383C42.488 64.6552 40.8386 66.267 39.1969 67.8866C39.0528 68.0281 38.9619 68.0268 38.8216 67.8905C38.3865 67.4658 37.9449 67.0476 37.4982 66.6346C37.3332 66.4826 37.2696 66.3073 37.2644 66.0852C37.2397 64.9033 37.2033 63.7214 37.1722 62.5383C37.1644 62.2162 37.2644 61.9603 37.5163 61.7252C38.0086 61.2655 38.454 60.7564 38.9281 60.2771C39.219 59.9836 39.5307 59.7096 39.8307 59.4238C39.9178 59.3407 40.0191 59.2641 40.0788 59.1641C40.2191 58.9342 40.4191 58.8576 40.6736 58.8706Z" fill="#00D1FF"/>
<path d="M70.8996 53.1066C69.7801 53.0573 68.7268 53.0105 67.6722 52.9677C67.4761 52.9599 67.3137 52.8962 67.1708 52.7573C66.676 52.278 66.1786 51.8027 65.6747 51.3351C65.5526 51.2208 65.5513 51.1468 65.6682 51.0286C66.4942 50.1909 67.3098 49.3441 68.1358 48.5077C69.6489 46.9778 71.1684 45.4556 72.6802 43.9244C72.8192 43.7841 72.914 43.7673 73.0516 43.9179C73.5101 44.4218 73.9789 44.9154 74.44 45.418C74.5946 45.5868 74.6504 45.7803 74.6374 46.0232C74.5829 47.0103 74.5556 47.9986 74.5153 48.987C74.5023 49.3078 74.4959 49.6286 74.4582 49.9455C74.4439 50.0584 74.3634 50.1805 74.2803 50.265C73.6932 50.8598 73.0984 51.4455 72.5049 52.0326C72.262 52.2715 72.0022 52.4949 71.7749 52.7482C71.5152 53.0339 71.2243 53.1885 70.8996 53.1066Z" fill="#00D1FF"/>
<path d="M41.6243 84.5548C41.5671 84.5263 41.5347 84.5172 41.5126 84.4964C41.2126 84.212 40.9165 83.9249 40.6151 83.6431C40.3437 83.3886 40.0645 83.1431 39.7917 82.8885C39.5086 82.6249 39.2294 82.356 38.9488 82.0898C38.5332 81.695 38.1033 81.3144 37.7085 80.9014C37.3124 80.4871 36.9526 80.0365 36.5721 79.6066C36.4617 79.4819 36.337 79.3715 36.2188 79.2546C36.1097 79.1468 36.0032 79.0377 35.8916 78.9325C35.5967 78.6546 35.2967 78.3805 35.0045 78.0987C34.846 77.9468 34.7058 77.7766 34.5447 77.626C34.2304 77.3311 33.898 77.0545 33.5914 76.7519C33.1784 76.3467 32.7771 75.9272 32.3784 75.5077C31.9758 75.083 31.5849 74.6453 31.181 74.2219C30.9017 73.9284 30.6147 73.6414 30.3199 73.3634C30.0484 73.1076 29.7562 72.8751 29.4835 72.6205C29.1913 72.3478 28.9133 72.0608 28.6289 71.7789C28.3029 71.4569 27.9717 71.14 27.6548 70.8088C27.1769 70.3075 26.7093 69.7957 26.2366 69.2892C26.2483 69.2762 26.2612 69.2619 26.2729 69.249C26.3651 69.3334 26.46 69.4178 26.5509 69.5035C26.8457 69.7841 27.134 70.0711 27.4366 70.3438C27.6301 70.5178 27.686 70.514 27.8366 70.3036C27.9509 70.1451 28.038 70.1737 28.1522 70.2919C28.5276 70.6815 28.9003 71.075 29.2848 71.4556C30.5056 72.6634 31.7316 73.8648 32.9538 75.07C33.272 75.3843 33.5824 75.7077 33.8993 76.0233C34.9357 77.0558 35.9773 78.0831 37.0111 79.1195C37.9929 80.104 38.9618 81.1001 39.9437 82.0846C40.4346 82.5768 40.9398 83.0535 41.4412 83.5353C41.5931 83.6808 41.697 83.8262 41.6321 84.0626C41.5918 84.2081 41.6243 84.373 41.6243 84.5548Z" fill="#00D1FF"/>
<path d="M43.2919 85.4744C42.9958 85.2146 42.6971 84.9548 42.4049 84.6912C42.3828 84.6717 42.3984 84.612 42.3958 84.5717C42.4308 84.5782 42.4763 84.5743 42.501 84.5938C42.5607 84.6457 42.6114 84.7081 42.6659 84.7665C42.8828 84.9938 43.0984 85.2211 43.3153 85.4497C43.3075 85.4575 43.2997 85.4653 43.2919 85.4744Z" fill="#00D1FF"/>
<path d="M25.4338 68.4125C25.6299 68.6125 25.8247 68.8113 26.0209 69.0113C26.0144 69.0178 26.0066 69.0256 26.0001 69.032C25.8027 68.8372 25.6052 68.6411 25.4078 68.4463C25.4156 68.4359 25.4247 68.4242 25.4338 68.4125Z" fill="#00D1FF"/>
<path d="M56.0547 59.0888C55.4481 59.194 54.939 58.9732 54.4611 58.6316C54.3312 58.5381 54.1935 58.4537 54.0546 58.3758C53.5442 58.0913 53.2597 57.6199 53.0117 57.1186C52.9909 57.077 52.9675 57.0328 52.9623 56.9874C52.8766 56.2588 52.7415 55.5276 53.0935 54.8262C53.1052 54.8029 53.1182 54.7782 53.126 54.7535C53.4 53.8756 54.0286 53.3859 54.8832 53.1392C55.0689 53.0859 55.2481 53.0132 55.4313 52.9495C55.4689 52.9366 55.5079 52.9158 55.5456 52.9158C56.3092 52.9327 57.0755 52.9755 57.7379 53.4093C58.3314 53.7976 58.747 54.3379 58.9353 55.0315C58.973 55.1704 58.9665 55.3224 58.9743 55.4691C58.9912 55.8029 58.9847 56.138 59.021 56.4692C59.0548 56.7783 58.9613 57.0354 58.786 57.2718C58.5509 57.5874 58.3444 57.9394 58.0561 58.1965C57.6911 58.5199 57.2755 58.8031 56.843 59.0251C56.6261 59.1342 56.3209 59.0719 56.0547 59.0888Z" fill="#00D1FF"/>
</g>
<defs>
<filter id="filter0_d_1_891" x="14" y="14" width="84" height="83.9238" filterUnits="userSpaceOnUse" color-interpolation-filters="sRGB">
<feFlood flood-opacity="0" result="BackgroundImageFix"/>
<feColorMatrix in="SourceAlpha" type="matrix" values="0 0 0 0 0 0 0 0 0 0 0 0 0 0 0 0 0 0 127 0" result="hardAlpha"/>
<feOffset/>
<feGaussianBlur stdDeviation="5"/>
<feComposite in2="hardAlpha" operator="out"/>
<feColorMatrix type="matrix" values="0 0 0 0 0 0 0 0 0 0.819608 0 0 0 0 1 0 0 0 0.4 0"/>
<feBlend mode="normal" in2="BackgroundImageFix" result="effect1_dropShadow_1_891"/>
<feBlend mode="normal" in="SourceGraphic" in2="effect1_dropShadow_1_891" result="shape"/>
</filter>
</defs>
</svg>
