<svg width="625" height="751" viewBox="0 0 625 751" fill="none" xmlns="http://www.w3.org/2000/svg">
<path d="M442.02 100.22C438.814 101.543 438.266 102.71 435.92 111.659C428.725 138.974 424.268 166.444 421.452 199.751C420.827 207.455 419.888 216.715 419.341 220.373C418.793 224.808 418.637 235.859 418.95 254.068C419.497 284.107 419.341 285.352 414.101 298.425C412.771 301.772 411.286 307.063 410.894 310.098C409.956 317.569 409.409 359.903 408.939 464.725C408.705 512.428 408.314 567.213 408.079 586.512L407.688 621.531L409.565 624.566L411.52 627.679L409.252 629.78C406.359 632.426 406.28 635.772 408.861 640.208C412.85 646.9 420.827 650.168 436.468 651.647C447.182 652.581 465.794 651.569 473.068 649.702C481.67 647.367 486.832 643.243 487.848 637.951C488.552 634.371 486.753 630.48 483.547 628.612C481.357 627.29 481.201 627.056 482.452 626.434C486.05 624.41 485.971 628.535 485.111 496.475C484.72 428.306 484.016 358.346 483.625 340.992C482.843 307.53 482.452 303.484 478.542 294.379C475.257 286.519 474.788 280.683 475.257 252.668C475.492 238.505 475.336 225.042 474.944 222.707C474.553 220.373 473.38 208.778 472.364 197.027C471.269 185.276 470.018 172.981 469.548 169.79C468.532 162.242 457.974 108.702 456.957 105.434C456.488 104.033 455.08 102.01 453.829 100.92C451.014 98.6633 446.556 98.352 442.02 100.22Z" fill="white"/>
<path d="M310.765 128.162C309.443 128.318 307.966 128.942 307.578 129.41C306.412 130.813 300.892 148.435 297.783 160.442C292.575 180.715 290.243 197.401 288.766 224.613C288.144 236.621 287.755 239.584 286.589 241.065C285.345 242.625 285.19 245.588 284.957 275.061C284.724 312.175 284.646 312.331 277.572 327.848C275.24 332.994 272.986 338.608 272.519 340.245C272.053 341.96 271.742 359.114 271.664 381.804C271.586 425.234 270.498 508.118 269.332 553.342C268.943 569.872 268.555 589.91 268.555 597.863C268.555 611.508 268.632 612.6 270.498 617.122C271.586 619.773 272.441 623.282 272.441 624.997C272.441 627.649 272.131 628.272 269.721 629.676C267.389 631.001 267 631.703 267 634.042C267 638.253 268.943 641.372 272.752 643.087C284.724 648.389 330.587 649.792 347.067 645.348C351.342 644.178 354.84 640.124 354.996 636.225C355.074 632.717 354.063 630.923 351.653 630.144C349.321 629.364 349.71 624.374 352.508 618.838L354.84 614.159V477.553V341.025L352.197 334.709C341.548 309.29 342.014 312.331 342.714 272.878C343.258 242.625 343.258 242.313 341.625 241.455C340.226 240.675 340.071 239.896 340.071 231.085C340.071 215.023 337.972 191.553 335.329 178.688C330.898 156.7 324.135 130.891 322.347 129.02C321.648 128.318 313.796 127.694 310.765 128.162Z" fill="white"/>
<path d="M180.283 163.902C178.952 165.458 175.352 175.343 175.508 176.822C175.587 177.522 175.039 179.39 174.334 181.025C172.534 184.994 168.855 200.016 166.507 212.702C164.159 225.389 163.142 235.663 162.046 258.234C161.576 268.43 160.872 275.513 160.402 275.824C159.933 276.135 159.385 284.308 158.994 297.617L158.367 318.943L151.871 335.677C148.349 344.861 144.827 354.201 144.044 356.302C142.792 359.805 142.557 365.331 141.774 400.277C141.305 422.304 140.444 463.632 139.818 492.119C139.192 520.605 138.487 553.528 138.252 565.281C138.017 577.033 137.626 591.744 137.391 597.97L137 609.334L139.739 613.381C143.027 618.129 143.34 620.619 140.679 622.02C138.252 623.343 137.078 625.99 137.078 630.27C137.078 633.306 137.47 634.162 140.131 636.808C143.496 640.155 147.097 641.556 157.82 643.657C167.134 645.448 192.414 645.448 201.807 643.657C209.634 642.179 216.286 639.299 218.087 636.575C221.061 632.06 220.043 624.978 216.13 622.876C213.938 621.709 214.173 619.919 217.226 615.482L219.887 611.591L220.748 535.705C221.217 493.987 221.687 437.014 221.843 409.228L222 358.637L215.895 341.903C207.442 318.787 207.52 319.254 207.52 296.605C207.52 281.194 207.285 277.225 206.424 276.758C205.642 276.291 205.329 271.932 204.937 256.677C204.311 231.382 202.041 212.702 196.954 190.909C195.467 184.683 193.901 176.822 193.432 173.397C192.258 164.991 191.006 163.357 185.448 163.046C182.552 162.89 180.909 163.123 180.283 163.902Z" fill="white"/>
</svg>
