<svg width="50" height="55" viewBox="0 0 50 55" fill="none" xmlns="http://www.w3.org/2000/svg">
<g clip-path="url(#clip0_478_596)">
<rect width="50" height="55" fill="white"/>
<path d="M50 0L0 0L0 50L50 50L50 0Z" fill="#161215"/>
<rect y="50" width="50" height="5" fill="#161215"/>
<path d="M31.9564 10.1465L32.7409 9.21134L39.221 14.649L39.8452 21.7855L35.4802 26.9876L35.5474 25.0088L38.5454 21.4359L38.5854 21.3883L38.58 21.3264L38.0544 15.3209L38.049 15.259L38.0014 15.2191L31.9564 10.1465Z" stroke="white" stroke-width="0.3"/>
<path d="M36.2594 15.9084L36.1445 15.8119L36.048 15.9269L34.347 17.9538L34.2506 18.0687L34.3655 18.1651L36.4909 19.9486L32.7712 23.4239L31.6845 22.5122L31.6845 22.5122L26.2426 17.9457L26.2426 17.9457L25.156 17.034L27.9325 12.7676L30.0579 14.551L30.1729 14.6475L30.2693 14.5325L31.9687 12.505L32.065 12.3902L31.9502 12.2938L31.4979 11.914L32.1145 11.1794L37.3282 15.5531L36.7116 16.2881L36.2594 15.9084Z" stroke="white" stroke-width="0.3"/>
<path d="M16.9376 29.2682L25.5718 18.9823L30.7837 23.3572L22.1494 33.6431L16.9376 29.2682Z" stroke="white" stroke-width="0.3"/>
<path d="M19.7846 39.8588L11.2262 32.6773L14.9459 29.202L22.5611 35.5924L19.7846 39.8588Z" stroke="white" stroke-width="0.3"/>
</g>
<defs>
<clipPath id="clip0_478_596">
<rect width="50" height="55" fill="white"/>
</clipPath>
</defs>
</svg>
