<svg width="50" height="55" viewBox="0 0 50 55" fill="none" xmlns="http://www.w3.org/2000/svg">
<g clip-path="url(#clip0_477_2)">
<rect width="50" height="55" fill="white"/>
<path d="M50 0L0 0L0 50L50 50L50 0Z" fill="#161215"/>
<rect y="50" width="50" height="5" fill="#161417"/>
<path d="M20.2687 40.9422C20.1923 40.8985 20.1185 40.8203 20.0395 40.8157C18.6388 40.7258 17.366 40.2272 16.1834 39.5247C14.6246 38.5986 13.3878 37.3453 12.6002 35.6873C12.2613 34.9736 11.9694 34.245 11.8218 33.4668C11.8493 33.4506 11.8767 33.4343 11.9041 33.418C11.959 33.506 12.0341 33.5881 12.0661 33.6839C12.6068 35.3028 13.3963 36.7789 14.6325 37.9768C15.6518 38.9648 16.8514 39.6628 18.2019 40.1288C19.7143 40.6509 21.2548 40.5955 22.8051 40.4671C23.1466 40.439 23.4822 40.3315 23.8199 40.2605C23.8342 40.2885 23.8486 40.3172 23.863 40.3452C23.7957 40.3999 23.7356 40.4899 23.6605 40.5036C23.0735 40.6131 22.4825 40.705 21.8947 40.8105C21.7243 40.8412 21.5584 40.8979 21.3906 40.9428C21.0164 40.9422 20.6429 40.9422 20.2687 40.9422Z" stroke="white" stroke-width="0.3"/>
<path d="M34.3538 33.055C33.7334 32.8732 33.2162 32.7103 32.6918 32.5734C32.3548 32.4854 32.0087 32.4294 31.6646 32.374C31.4445 32.3381 31.2878 32.4496 31.263 32.6659C31.2238 33.0022 31.1951 33.3431 31.2036 33.6813C31.2147 34.1141 31.2604 34.5468 31.3035 34.9783C31.3276 35.2188 31.376 35.4573 31.4295 35.8008C31.1121 35.6378 30.8764 35.5114 30.6354 35.3947C30.034 35.1034 29.4313 34.814 28.8259 34.5305C28.7266 34.4843 28.6098 34.4445 28.5033 34.4484C28.2519 34.4582 28.1455 34.3402 28.1167 34.0307C28.3538 34.045 28.581 34.0202 28.7841 34.0782C29.2589 34.2144 29.7212 34.3924 30.1894 34.5514C30.5603 34.6772 30.6955 34.5762 30.7256 34.1734C30.7641 33.6592 30.8085 33.1456 30.8601 32.6327C30.9038 32.1973 31.0619 32.0312 31.502 32.0481C31.9552 32.0657 32.4058 32.1472 32.8583 32.1928C32.9667 32.2039 33.0784 32.185 33.1888 32.1797C33.1718 32.0748 33.1705 31.9647 33.1359 31.8663C32.9804 31.4211 32.7924 30.9858 32.6611 30.5335C32.5442 30.132 32.6872 29.9554 33.1235 29.8922C33.5336 29.8329 33.9463 29.7957 34.3564 29.7364C34.4595 29.7214 34.5562 29.6589 34.6561 29.6178C34.6124 29.5174 34.5856 29.4053 34.5229 29.3187C34.2747 28.9752 34.0037 28.6474 33.7634 28.298C33.514 27.9357 33.5466 27.6457 33.8921 27.3778C34.3498 27.0233 34.8298 26.6961 35.3098 26.3709C35.5292 26.2216 35.5527 26.1056 35.3431 25.9212C34.9539 25.579 34.5764 25.2238 34.2062 24.8615C33.7073 24.372 33.6681 24.1074 33.9966 23.4857C34.2578 22.993 34.5288 22.5048 34.8063 22.0212C34.9323 21.8016 34.9212 21.6784 34.6541 21.5807C34.1056 21.3786 33.5597 21.1636 33.0288 20.9192C32.317 20.5907 32.3261 20.2903 32.4561 19.5812C32.5024 19.3283 32.5899 19.0826 32.6415 18.8304C32.6912 18.5892 32.7192 18.3442 32.7636 18.0535C32.6389 18.0613 32.5338 18.0679 32.428 18.0737C31.8207 18.1083 31.214 18.1617 30.6067 18.1689C30.2946 18.1728 30.1522 17.9518 30.1718 17.6449C30.2097 17.0583 30.2541 16.4724 30.2919 15.8859C30.3004 15.7536 30.2932 15.6206 30.2932 15.4225C30.1809 15.4935 30.1013 15.5418 30.0235 15.5932C29.4907 15.9478 28.9702 16.3232 28.421 16.651C28.0952 16.8452 27.8744 16.7807 27.6916 16.4509C27.433 15.9836 27.2208 15.4896 26.9922 15.0054C26.7956 14.5876 26.7806 14.5831 26.4463 14.8848C26.0643 15.2296 25.6809 15.5724 25.2983 15.9165C25.2578 15.8969 25.2166 15.878 25.1761 15.8585C25.2134 15.7073 25.2068 15.5215 25.295 15.4108C25.7965 14.7792 26.3196 14.1659 26.8368 13.5468C26.8995 13.4719 26.968 13.4015 27.068 13.29C27.1907 13.7495 27.2919 14.1529 27.4069 14.5524C27.5401 15.0158 27.6642 15.4837 27.8313 15.9354C28.0077 16.4118 28.261 16.4822 28.6509 16.1224C29.266 15.5541 29.8707 14.9682 30.4219 14.3387C30.973 13.7091 31.453 13.017 31.965 12.3528C32.0264 12.2733 32.0936 12.1984 32.2144 12.1462C32.2033 12.2055 32.2027 12.2681 32.1805 12.3229C31.8141 13.2203 31.4112 14.1047 31.088 15.0171C30.8346 15.7334 30.6589 16.4796 30.4879 17.2219C30.3762 17.7068 30.7118 17.9473 31.2408 17.8052C32.0172 17.5967 32.7943 17.3894 33.5721 17.1841C33.6171 17.1724 33.6694 17.1874 33.766 17.1926C33.6054 17.6006 33.4519 17.9773 33.3089 18.3572C33.1463 18.7906 32.9778 19.2227 32.8407 19.6646C32.684 20.1677 32.8146 20.4473 33.3128 20.6011C33.8744 20.7745 34.4504 20.9035 35.0244 21.0332C35.3359 21.1036 35.6565 21.1342 35.9726 21.1851C36.2305 21.2268 36.1874 21.3493 36.0601 21.5031C35.6833 21.9574 35.2987 22.4064 34.9395 22.8744C34.7077 23.1761 34.5144 23.5072 34.3048 23.8259C34.1278 24.0937 34.2049 24.3342 34.4302 24.5122C34.8501 24.8439 35.2824 25.1619 35.7218 25.4676C36.1006 25.7309 36.4963 25.9681 36.9293 26.2458C36.4833 26.4543 36.0712 26.6381 35.6676 26.8388C35.2144 27.0643 34.7619 27.2937 34.3218 27.544C33.9796 27.7382 33.9156 27.9852 34.1735 28.2837C34.5986 28.7764 35.0669 29.2326 35.5201 29.7019C35.6467 29.8329 35.7845 29.9528 35.985 30.1418C35.7976 30.1529 35.7009 30.1633 35.605 30.1633C34.9506 30.1646 34.2969 30.162 33.6426 30.1646C33.5296 30.1653 33.4108 30.1659 33.3043 30.1991C32.9648 30.3041 32.8982 30.4214 33.064 30.742C33.4003 31.3912 33.766 32.0253 34.1213 32.6653C34.1781 32.7702 34.2434 32.8719 34.3538 33.055Z" stroke="white" stroke-width="0.3"/>
<path d="M22.2584 36.2596C22.5203 36.0269 22.7612 35.8059 23.01 35.5941C23.2778 35.366 23.5416 35.1308 23.8296 34.9313C23.9171 34.8707 24.079 34.9176 24.207 34.9157C24.1496 35.0297 24.115 35.1653 24.0314 35.2552C23.6036 35.7154 23.1544 36.1553 22.7312 36.6193C22.5222 36.8474 22.3551 37.1133 22.1637 37.3577C22.1121 37.4242 22.0403 37.4744 21.9437 37.5637C21.8196 37.082 21.7203 36.6545 21.5982 36.2341C21.4637 35.7708 21.3246 35.3074 21.1561 34.8557C21.0288 34.5142 20.7636 34.451 20.4632 34.6745C19.6071 35.3106 18.9188 36.1116 18.2632 36.9419C17.7839 37.5493 17.3183 38.1678 16.8468 38.7811C16.82 38.7694 16.7926 38.757 16.7658 38.7452C16.8814 38.465 16.9931 38.1835 17.1132 37.9058C17.6533 36.6558 18.179 35.4012 18.4369 34.0548C18.4676 33.8938 18.5309 33.7354 18.5394 33.5738C18.5623 33.143 18.4389 33.0113 18.0177 33.0563C17.6709 33.0935 17.3281 33.1769 16.9865 33.2531C16.7051 33.3157 16.4276 33.3959 16.1494 33.4715C15.8757 33.5458 15.6034 33.624 15.2404 33.7256C15.3572 33.4226 15.4441 33.201 15.529 32.9781C15.7406 32.4189 15.958 31.8623 16.1605 31.2999C16.3747 30.7042 16.1023 30.304 15.4141 30.1665C14.6657 30.0166 13.9173 29.8635 13.1703 29.7058C13.0632 29.683 12.9633 29.6256 12.8118 29.565C12.9084 29.4405 12.9802 29.3486 13.0508 29.2554C13.6052 28.5229 14.1622 27.791 14.7127 27.0558C14.8845 26.8258 14.8387 26.5885 14.6376 26.4152C14.2706 26.0991 13.8919 25.7934 13.4968 25.5138C13.1272 25.2525 12.7275 25.0335 12.3442 24.7898C12.2822 24.75 12.2384 24.6809 12.1862 24.6255C12.2469 24.5793 12.3024 24.5219 12.3697 24.488C13.1193 24.1172 13.8834 23.7737 14.6167 23.3736C15.0967 23.1116 15.1143 22.8124 14.7258 22.4077C14.2739 21.9371 13.8024 21.4848 13.3414 21.0228C13.2493 20.9302 13.1637 20.8312 13.0684 20.7282C13.5569 20.7282 14.0153 20.7406 14.4724 20.7249C14.906 20.7099 15.3403 20.6793 15.7713 20.6285C16.0449 20.5965 16.1291 20.431 15.9979 20.1879C15.6354 19.5166 15.256 18.8545 14.8838 18.1884C14.8348 18.1011 14.7885 18.0124 14.6964 17.8417C14.8956 17.8867 15.0183 17.9108 15.1385 17.942C15.8555 18.1291 16.5699 18.3259 17.2895 18.5019C17.5175 18.5579 17.7192 18.468 17.7558 18.2145C17.8009 17.9003 17.8296 17.5803 17.8211 17.2643C17.8094 16.8413 17.7604 16.4196 17.7179 15.9979C17.6964 15.7835 17.6481 15.5717 17.6252 15.3573C17.618 15.2849 17.6539 15.2087 17.6703 15.1344C17.7362 15.1507 17.8074 15.1559 17.8662 15.1859C18.5923 15.5509 19.3152 15.921 20.042 16.284C20.1792 16.3525 20.3457 16.3707 20.4691 16.4555C20.5632 16.52 20.6095 16.6523 20.6774 16.7546C20.6507 16.7865 20.6232 16.8185 20.5965 16.8504C20.253 16.7611 19.9069 16.6823 19.5673 16.5799C19.2427 16.4822 18.9293 16.3466 18.6021 16.2593C18.5375 16.2417 18.371 16.3577 18.3605 16.4274C18.3096 16.7742 18.3043 17.1274 18.2665 17.4767C18.2306 17.8045 18.1966 18.1363 18.1189 18.4556C18.0621 18.6909 17.891 18.8558 17.6174 18.8323C17.1028 18.788 16.5902 18.73 16.0756 18.6883C15.77 18.6635 15.7523 18.7085 15.8653 18.992C16.0481 19.4502 16.2225 19.9122 16.3858 20.3782C16.4824 20.6539 16.3858 20.8435 16.0912 20.9035C15.5871 21.0065 15.0751 21.0736 14.5664 21.157C14.4874 21.1701 14.4091 21.1877 14.2615 21.217C14.5704 21.6302 14.8512 22.0049 15.1313 22.3803C15.5603 22.9538 15.4957 23.2778 14.8969 23.6805C14.4247 23.9979 13.9656 24.3329 13.4648 24.6848C13.5431 24.7819 13.596 24.866 13.6659 24.9312C14.0068 25.2486 14.3496 25.5653 14.6977 25.8749C15.3096 26.4184 15.3723 26.7169 14.9902 27.4456C14.7454 27.9122 14.4959 28.3775 14.2216 28.8272C14.0695 29.0762 14.1374 29.1929 14.3803 29.2874C14.8884 29.4842 15.3945 29.6849 15.8979 29.8928C16.5647 30.1685 16.7639 30.6071 16.5777 31.3097C16.4543 31.7757 16.357 32.2482 16.2258 32.8113C16.6973 32.7767 17.1126 32.7474 17.5272 32.7154C17.5677 32.7122 17.6063 32.6855 17.6467 32.6816C18.4552 32.6053 18.9482 32.5656 18.8483 33.6389C18.8046 34.1101 18.7582 34.5813 18.7177 35.0525C18.7073 35.1718 18.7164 35.2924 18.7164 35.486C18.8562 35.3869 18.9424 35.3243 19.0299 35.2631C19.4961 34.9372 19.9513 34.5931 20.4332 34.292C20.9001 34.0007 21.1933 34.0906 21.4415 34.582C21.6962 35.0877 21.9195 35.6091 22.1578 36.1227C22.1683 36.1481 22.1911 36.1703 22.2584 36.2596Z" stroke="white" stroke-width="0.3"/>
<path d="M15.0085 15.2362C17.1074 10.7008 23.6187 9.04018 27.6544 11.8661C27.3716 12.0394 27.1228 12.1359 26.81 11.913C26.0042 11.3408 25.0828 11.0521 24.1124 10.9302C23.5801 10.8637 23.0381 10.8077 22.5046 10.8331C20.9054 10.91 19.4315 11.3845 18.1 12.2943C17.206 12.9056 16.4524 13.6401 15.8986 14.5734C15.8516 14.6529 15.8013 14.733 15.7687 14.8191C15.6374 15.1599 15.3919 15.2903 15.0085 15.2362Z" stroke="white" stroke-width="0.3"/>
<path d="M38.1726 28.5758C37.9062 28.3268 37.8565 28.0603 38.0106 27.8269C38.6258 26.8969 38.9791 25.8789 39.0653 24.7677C39.0947 24.3878 39.173 24.0065 39.1593 23.6285C39.1097 22.2964 38.8341 21.0059 38.1556 19.8491C37.7514 19.1596 37.2832 18.4896 36.7438 17.9018C36.3265 17.4468 35.7747 17.1014 35.2438 16.7697C34.9238 16.5696 34.6632 16.3963 34.7227 15.9133C36.527 16.8029 37.8017 18.1827 38.6095 19.9554C39.941 22.8797 39.8169 25.7603 38.1726 28.5758Z" stroke="white" stroke-width="0.3"/>
<path d="M34.0377 35.5771C34.0161 35.6638 34.0129 35.7238 33.9874 35.7727C33.4395 36.8285 32.6676 37.6985 31.7456 38.4415C30.7987 39.2047 29.7238 39.7378 28.5627 40.061C27.2848 40.4162 25.9794 40.4944 24.6537 40.2807C23.6004 40.1112 22.6215 39.7645 21.6962 39.2516C21.5976 39.1969 21.5303 39.0854 21.4487 39C21.561 38.9472 21.6714 38.8593 21.7869 38.8514C21.9097 38.843 22.054 38.8834 22.1605 38.9485C22.8703 39.3852 23.6174 39.7313 24.4506 39.8382C25.1454 39.9274 25.8487 40.0689 26.541 40.035C28.7227 39.9274 30.623 39.1043 32.1615 37.5467C32.5912 37.112 32.9301 36.5736 33.2423 36.0431C33.4349 35.7186 33.6857 35.6332 34.0377 35.5771Z" stroke="white" stroke-width="0.3"/>
<path d="M10.8423 22.3113C11.1126 22.5544 11.1583 22.8281 10.9996 23.0666C10.3878 23.9875 10.0358 24.9964 9.95546 26.0991C9.92216 26.5619 9.8242 27.0291 9.86143 27.4854C9.99334 29.101 10.4478 30.6137 11.4163 31.9464C12.0373 32.8015 12.7589 33.5425 13.6836 34.0717C13.728 34.0972 13.7678 34.1376 13.8155 34.1512C14.1792 34.2536 14.3196 34.5045 14.3053 34.8642C13.4021 34.7411 11.3418 32.9755 10.4446 31.0164C9.09673 28.07 9.17902 25.1743 10.8423 22.3113Z" stroke="white" stroke-width="0.3"/>
<path d="M16.5131 12.8624C16.4276 12.9178 16.3492 12.9953 16.2558 13.0253C13.3695 13.9456 11.2027 15.6857 10.0142 18.5175C9.6544 19.3751 9.38536 20.27 9.39385 21.2176C9.40103 22.0524 9.40887 22.8879 9.44544 23.7222C9.45784 24.0063 9.56167 24.2866 9.61326 24.5701C9.62371 24.6274 9.58453 24.6932 9.56755 24.7558C9.51727 24.7069 9.43368 24.6646 9.42258 24.6085C9.31548 24.0532 9.21818 23.496 9.1235 22.9388C9.07582 22.6566 9.00987 22.3731 9.00269 22.0896C8.96873 20.8233 9.25932 19.6143 9.7295 18.4503C10.2317 17.2081 10.9755 16.1178 11.9276 15.1721C12.8529 14.2519 13.9493 13.5988 15.1712 13.1537C15.5924 13.0006 16.024 12.8761 16.4504 12.7379C16.4713 12.7796 16.4922 12.8213 16.5131 12.8624Z" stroke="white" stroke-width="0.3"/>
<path d="M32.5337 38.001C32.6127 37.9521 32.6858 37.885 32.7714 37.8563C34.1826 37.3896 35.4841 36.7229 36.6053 35.7382C37.7063 34.7716 38.5063 33.5946 39.0541 32.2351C39.5374 31.0353 39.7176 29.7859 39.6817 28.5105C39.6621 27.8125 39.5191 27.1184 39.4362 26.4223C39.4238 26.3161 39.4342 26.2066 39.4812 26.0997C40.4301 28.8168 40.0454 31.3944 38.5866 33.8162C37.2126 36.0973 35.1778 37.4939 32.6003 38.0987C32.5781 38.0661 32.5559 38.0335 32.5337 38.001Z" stroke="white" stroke-width="0.3"/>
<path d="M37.1408 17.4579C37.0814 17.3907 36.9919 17.3327 36.9678 17.2552C36.5335 15.8585 35.8681 14.5857 34.9231 13.466C34.0422 12.4219 32.9686 11.6216 31.7076 11.0989C31.0644 10.8324 30.3983 10.5645 29.7172 10.4576C28.865 10.3247 27.9867 10.3214 27.1201 10.3312C26.5873 10.3371 26.0564 10.4739 25.5235 10.545C25.4027 10.5613 25.2773 10.5476 25.1565 10.515C29.3163 8.85698 35.8308 11.1928 37.1408 17.4579Z" stroke="white" stroke-width="0.3"/>
<path d="M32.5475 25.5296C32.6272 29.7684 28.997 33.77 23.987 33.4722C19.9318 33.231 16.6784 29.9985 16.4609 25.905C16.1997 20.9837 20.1459 17.0949 25.0933 17.3979C28.9716 17.6352 32.6435 20.8788 32.5475 25.5296ZM28.3512 20.2655C27.516 19.6633 26.6122 19.2664 25.6033 19.1133C25.359 19.0761 25.1115 18.9829 24.8719 19.0012C24.2234 19.0507 23.575 19.1224 22.9344 19.2299C22.1357 19.3642 21.4304 19.737 20.7774 20.2036C20.7173 20.2466 20.6775 20.4031 20.7082 20.4721C20.927 20.9675 20.9335 20.9648 20.5574 21.3415C20.477 21.4224 20.3817 21.4927 20.3177 21.5853C20.1231 21.8649 19.9096 21.8747 19.6549 21.6668C19.5001 21.5403 19.3401 21.5403 19.2395 21.7326C18.9581 22.2709 18.6427 22.7969 18.4207 23.3593C18.0524 24.2926 18.0693 25.2832 18.1425 26.266C18.1692 26.6232 18.2143 26.9953 18.3443 27.3238C18.5669 27.8862 18.853 28.4245 19.1318 28.9629C19.2983 29.2848 19.378 29.2985 19.6895 29.1062C19.903 28.9746 20.0754 28.9531 20.253 29.1701C20.3967 29.3454 20.5639 29.5051 20.7376 29.6517C20.9622 29.8407 20.9968 30.0473 20.8192 30.2715C20.6174 30.5277 20.7278 30.6854 20.9642 30.8112C21.3083 30.9943 21.6473 31.1918 22.0038 31.3482C22.73 31.6669 23.4947 31.8481 24.29 31.8227C24.8556 31.8044 25.4263 31.7653 25.9827 31.6682C26.7963 31.5261 27.5317 31.1709 28.2128 30.7043C28.3551 30.6065 28.3982 30.5238 28.2944 30.3504C28.0482 29.9405 28.0606 29.9326 28.41 29.5833C28.4759 29.5175 28.5419 29.451 28.6078 29.3852C28.9931 29.0007 28.999 28.9902 29.4568 29.2496C29.607 29.335 29.686 29.3142 29.7552 29.1799C30.0386 28.6311 30.3514 28.0948 30.593 27.5284C30.9195 26.7626 30.9313 25.9336 30.9091 25.1196C30.8947 24.5976 30.8477 24.0527 30.6786 23.5652C30.4683 22.9585 30.115 22.4019 29.8296 21.8199C29.7304 21.6179 29.6128 21.556 29.4222 21.7098C29.1355 21.9411 28.8978 21.8753 28.698 21.5853C28.6692 21.5436 28.6261 21.5103 28.5896 21.4738C28.0697 20.9577 28.0697 20.9577 28.3512 20.2655Z" stroke="white" stroke-width="0.3"/>
<path d="M24.4918 20.2186C27.5023 20.2708 29.5945 22.4508 29.7278 25.1574C29.874 28.1287 27.7053 30.7219 24.3083 30.6313C21.529 30.5577 19.4296 28.4969 19.2944 25.7088C19.1429 22.6111 21.4768 20.2812 24.4918 20.2186Z" stroke="white" stroke-width="0.3"/>
</g>
<defs>
<clipPath id="clip0_477_2">
<rect width="50" height="55" fill="white"/>
</clipPath>
</defs>
</svg>
