<svg width="50" height="55" viewBox="0 0 50 55" fill="none" xmlns="http://www.w3.org/2000/svg">
<g clip-path="url(#clip0_478_451)">
<rect width="50" height="55" fill="white"/>
<path d="M50 0L0 0L0 50L50 50L50 0Z" fill="#161215"/>
<rect y="50" width="50" height="5" fill="#161215"/>
<path d="M40.1798 22.64L35.8601 27.7876L35.9267 25.8327L38.8954 22.295L38.9353 22.2474L38.9299 22.1855L38.4098 16.2384L38.4044 16.1765L38.3568 16.1366L32.3715 11.1132L33.1463 10.1897L39.5619 15.5747L40.1798 22.64Z" stroke="white" stroke-width="0.3"/>
<path d="M36.6323 16.8194L36.5174 16.723L36.421 16.8379L34.739 18.8417L34.6426 18.9566L34.7575 19.053L36.8613 20.8197L33.1788 24.2592L32.1035 23.3571L32.1035 23.3571L26.7145 18.8349L26.7145 18.8349L25.6397 17.9328L28.3861 13.7101L30.4908 15.4753L30.6057 15.5716L30.7021 15.4568L32.3851 13.4514L32.4815 13.3365L32.3666 13.2401L31.9199 12.8651L32.5279 12.1413L37.6876 16.4692L37.0791 17.1944L36.6323 16.8194Z" stroke="white" stroke-width="0.3"/>
<path d="M17.4991 30.0505L26.0475 19.8669L31.2065 24.1976L22.6581 34.3811L17.4991 30.0505Z" stroke="white" stroke-width="0.3"/>
<path d="M20.3177 40.536L11.8421 33.4263L15.5245 29.9869L23.0651 36.3133L20.3177 40.536Z" stroke="white" stroke-width="0.3"/>
<mask id="path-7-inside-1_478_451" fill="white">
<path d="M16.5715 29.6651L16.6014 29.6899L16.6369 29.6478L16.5715 29.6651Z"/>
</mask>
<path d="M16.5715 29.6651L16.4951 29.375L15.9315 29.5235L16.3798 29.8958L16.5715 29.6651ZM16.6014 29.6899L16.4097 29.9207L16.6388 30.1109L16.8308 29.8833L16.6014 29.6899ZM16.6369 29.6478L16.8662 29.8412L17.4779 29.1159L16.5605 29.3577L16.6369 29.6478ZM16.3798 29.8958L16.4097 29.9207L16.7931 29.4591L16.7632 29.4343L16.3798 29.8958ZM16.8308 29.8833L16.8662 29.8412L16.4076 29.4544L16.3721 29.4965L16.8308 29.8833ZM16.5605 29.3577L16.4951 29.375L16.648 29.9552L16.7134 29.9379L16.5605 29.3577Z" fill="white" mask="url(#path-7-inside-1_478_451)"/>
<path d="M11.3367 30.1578C10.9302 29.6206 10.5914 29.0332 10.3294 28.4087C9.89017 27.3619 9.67651 26.2343 9.70232 25.0994C9.72813 23.9645 9.99282 22.8478 10.4792 21.822C10.9655 20.7963 11.6625 19.8846 12.5248 19.1463C13.3872 18.408 14.3954 17.8597 15.4838 17.5372C16.5722 17.2147 17.7164 17.1252 18.8417 17.2745C19.9671 17.4239 21.0483 17.8087 22.0149 18.4039C22.5926 18.7596 23.1217 19.1857 23.5904 19.6712C22.5292 18.9636 21.3151 18.5041 20.0384 18.3356C18.2997 18.1062 16.5327 18.4282 14.9867 19.2562C13.4406 20.0842 12.1934 21.3766 11.4208 22.951C10.6482 24.5255 10.3892 26.3027 10.6802 28.0321C10.8035 28.7689 11.0248 29.4836 11.3367 30.1578Z" stroke="white" stroke-width="0.3"/>
<mask id="path-10-inside-2_478_451" fill="white">
<path d="M25.4228 13.98L25.4334 13.9932L25.4243 13.9769L25.4228 13.98Z"/>
</mask>
<path d="M25.4228 13.98L25.1544 13.8459L25.0682 14.0184L25.1894 14.1685L25.4228 13.98ZM25.4334 13.9932L25.2 14.1817L25.6949 13.846L25.4334 13.9932ZM25.4243 13.9769L25.6857 13.8298L25.4086 13.3372L25.1559 13.8428L25.4243 13.9769ZM25.1894 14.1685L25.2 14.1817L25.6668 13.8046L25.6561 13.7915L25.1894 14.1685ZM25.6949 13.846L25.6857 13.8298L25.1628 14.124L25.172 14.1403L25.6949 13.846ZM25.1559 13.8428L25.1544 13.8459L25.6911 14.1141L25.6926 14.111L25.1559 13.8428Z" fill="white" mask="url(#path-10-inside-2_478_451)"/>
<path d="M10.0848 21.9193C9.44966 20.674 9.12519 19.2842 9.15148 17.87C9.18801 15.905 9.89941 14.0125 11.1663 12.51C12.4331 11.0076 14.1783 9.98666 16.1088 9.61869C17.9455 9.2686 19.8436 9.52982 21.5142 10.3579C21.2984 10.4848 21.0996 10.6391 20.9227 10.817C19.2815 10.3645 17.544 10.3943 15.9182 10.9037C14.2636 11.4222 12.7975 12.4147 11.7015 13.7583C10.6055 15.1019 9.92782 16.7376 9.75237 18.4626C9.63355 19.6309 9.74865 20.8055 10.0848 21.9193Z" stroke="white" stroke-width="0.3"/>
<path d="M17.8921 17.7735C17.4186 16.227 17.5227 14.5593 18.188 13.0816C18.8722 11.5623 20.1003 10.354 21.6306 9.69456C23.1609 9.03514 24.8825 8.97233 26.4568 9.51851C27.6647 9.93757 28.7187 10.6919 29.502 11.6822C28.7722 11.0219 27.9056 10.5191 26.9557 10.2143C25.4401 9.72804 23.8039 9.7752 22.3189 10.3479C20.8339 10.9207 19.5897 11.9844 18.7931 13.3624C18.0224 14.6956 17.7157 16.2452 17.9184 17.7689C17.9096 17.7703 17.9009 17.7719 17.8921 17.7735Z" stroke="white" stroke-width="0.3"/>
</g>
<defs>
<clipPath id="clip0_478_451">
<rect width="50" height="55" fill="white"/>
</clipPath>
</defs>
</svg>
