<svg width="50" height="55" viewBox="0 0 50 55" fill="none" xmlns="http://www.w3.org/2000/svg">
<g clip-path="url(#clip0_478_381)">
<rect width="50" height="55" fill="white"/>
<path d="M50 0L0 0L0 50L50 50L50 0Z" fill="#161215"/>
<rect y="50" width="50" height="5" fill="#50D91D"/>
<g filter="url(#filter0_d_478_381)">
<path d="M40.3347 22.6893L39.7066 15.5083L39.7107 15.5038L33.1279 9.97839L32.1602 11.1316L38.2604 16.2515L38.7805 22.1986L35.7785 25.7759L35.6954 28.2172L40.3347 22.6888V22.6893Z" fill="#50D91D"/>
<path d="M36.5359 16.9343L37.0975 17.4058L37.899 16.4507L32.5094 11.9301L31.7085 12.8836L32.2702 13.355L30.5872 15.3603L28.3527 13.4863L25.4415 17.9623L26.6181 18.9498L32.0071 23.472L33.1842 24.4595L37.0874 20.8137L34.8539 18.9382L36.5359 16.9343Z" fill="#50D91D"/>
<path d="M26.029 19.6556L17.2878 30.069L22.6766 34.5925L31.4178 24.1791L26.029 19.6556Z" fill="#50D91D"/>
<path d="M15.5192 29.7866L11.6159 33.4324L20.3511 40.7598L23.2633 36.2838L15.5192 29.7866Z" fill="#50D91D"/>
<path d="M16.5715 29.6651L16.6014 29.6899L16.6369 29.6478L16.5715 29.6651Z" fill="#50D91D"/>
<path d="M10.8282 28.0074C10.5423 26.3088 10.7967 24.5634 11.5555 23.0171C12.3142 21.4708 13.5391 20.2016 15.0575 19.3884C16.5759 18.5752 18.3112 18.259 20.0188 18.4843C21.7264 18.7097 23.3203 19.4652 24.5757 20.6444C23.9239 19.6894 23.0782 18.8824 22.0936 18.2762C21.109 17.6699 20.0077 17.2779 18.8615 17.1258C17.7152 16.9737 16.5498 17.0649 15.4412 17.3934C14.3326 17.7219 13.3056 18.2803 12.4273 19.0323C11.549 19.7843 10.839 20.713 10.3436 21.7578C9.84826 22.8026 9.57865 23.94 9.55236 25.096C9.52607 26.252 9.7437 27.4005 10.1911 28.4667C10.6384 29.533 11.3054 30.4929 12.1487 31.2841C11.4755 30.3009 11.0249 29.1826 10.8282 28.0074V28.0074Z" fill="#50D91D"/>
<path d="M25.4228 13.98L25.4334 13.9932L25.4243 13.9769L25.4228 13.98Z" fill="#50D91D"/>
<path d="M21.8394 10.3571C20.0784 9.40969 18.045 9.09693 16.0807 9.47134C14.1163 9.84576 12.3406 10.8845 11.0516 12.4133C9.76254 13.9421 9.03868 15.8678 9.00151 17.8672C8.96433 19.8665 9.61611 21.8178 10.8474 23.3935C10.058 21.8827 9.72913 20.1736 9.9016 18.4778C10.0741 16.7819 10.7403 15.174 11.8177 13.8531C12.8952 12.5323 14.3364 11.5566 15.963 11.0469C17.5896 10.5372 19.33 10.5159 20.9685 10.9857C21.2151 10.7215 21.5109 10.508 21.8394 10.3571V10.3571Z" fill="#50D91D"/>
<path d="M30.2689 12.5744C29.458 11.0759 28.1156 9.93525 26.506 9.3768C24.8963 8.81834 23.1359 8.88255 21.5712 9.55681C20.0065 10.2311 18.7508 11.4665 18.0513 13.0201C17.3517 14.5736 17.2589 16.3327 17.7912 17.9512L17.8119 17.9446C17.9027 17.9214 17.9953 17.9061 18.0887 17.899C17.8492 16.3602 18.1436 14.7857 18.923 13.4375C19.7024 12.0892 20.9198 11.0483 22.3728 10.4879C23.8259 9.92748 25.4269 9.88134 26.9098 10.3571C28.3927 10.8329 29.6681 11.8019 30.5239 13.1031C30.4463 12.9242 30.3627 12.7483 30.2689 12.5744Z" fill="#50D91D"/>
</g>
</g>
<defs>
<filter id="filter0_d_478_381" x="-1" y="-1" width="51.3347" height="51.7598" filterUnits="userSpaceOnUse" color-interpolation-filters="sRGB">
<feFlood flood-opacity="0" result="BackgroundImageFix"/>
<feColorMatrix in="SourceAlpha" type="matrix" values="0 0 0 0 0 0 0 0 0 0 0 0 0 0 0 0 0 0 127 0" result="hardAlpha"/>
<feOffset/>
<feGaussianBlur stdDeviation="5"/>
<feComposite in2="hardAlpha" operator="out"/>
<feColorMatrix type="matrix" values="0 0 0 0 0.313726 0 0 0 0 0.85098 0 0 0 0 0.113725 0 0 0 0.4 0"/>
<feBlend mode="normal" in2="BackgroundImageFix" result="effect1_dropShadow_478_381"/>
<feBlend mode="normal" in="SourceGraphic" in2="effect1_dropShadow_478_381" result="shape"/>
</filter>
<clipPath id="clip0_478_381">
<rect width="50" height="55" fill="white"/>
</clipPath>
</defs>
</svg>
