<svg width="50" height="55" viewBox="0 0 50 55" fill="none" xmlns="http://www.w3.org/2000/svg">
<g clip-path="url(#clip0_476_132)">
<rect width="50" height="55" fill="white"/>
<path d="M50 0L0 0L0 50L50 50L50 0Z" fill="#161215"/>
<rect y="50" width="50" height="5" fill="#00D1FF"/>
<g filter="url(#filter0_d_476_132)">
<path d="M28.5655 13.525C28.6293 13.5469 28.694 13.5665 28.7564 13.5915C28.8662 13.6353 28.9746 13.684 29.0844 13.7282C29.2711 13.8038 29.4588 13.8767 29.6451 13.9532C29.877 14.0484 30.1125 14.1363 30.3375 14.2457C30.599 14.3728 30.8591 14.5062 31.1055 14.6602C31.4568 14.8793 31.7961 15.1176 32.1378 15.3517C32.3168 15.4747 32.499 15.5954 32.6644 15.7353C32.8657 15.9056 33.0529 16.0929 33.242 16.2769C33.4811 16.5097 33.7239 16.7402 33.9513 16.9843C34.1494 17.1971 34.3366 17.4216 34.5129 17.6526C34.7398 17.9496 34.9598 18.253 35.1662 18.5641C35.3301 18.8115 35.4928 19.0611 35.5953 19.3454C35.6554 19.5125 35.7579 19.6642 35.8317 19.8273C35.9328 20.0519 36.0248 20.2806 36.1205 20.5074C36.182 20.6541 36.2526 20.7976 36.3027 20.9479C36.4271 21.3196 36.5496 21.6923 36.6571 22.069C36.7086 22.2489 36.7145 22.4416 36.7596 22.6234C36.8407 22.9491 36.8375 23.2848 36.8935 23.6137C36.9181 23.759 36.9304 23.9052 36.9728 24.0483C36.9938 24.1193 36.986 24.1995 36.9883 24.2751C36.9956 24.5033 37.0179 24.7329 37.0038 24.9602C36.9837 25.2814 37.0188 25.6057 36.9354 25.9237C36.9054 26.0371 36.909 26.1592 36.8903 26.2763C36.8726 26.3911 36.848 26.5049 36.8229 26.6184C36.8111 26.673 36.7705 26.6689 36.7455 26.6348C36.6954 26.5669 36.6416 26.4977 36.612 26.4202C36.5305 26.2061 36.4184 26.013 36.2672 25.8403C35.9601 25.4896 35.6559 25.1361 35.3516 24.783C35.1047 24.4961 34.8582 24.2086 34.6127 23.9207C34.44 23.7185 34.2519 23.5381 34.0132 23.4101C33.7868 23.2884 33.5713 23.1459 33.35 23.0147C33.14 22.8903 32.9277 22.77 32.7177 22.6461C32.6175 22.5869 32.5218 22.5204 32.4211 22.4626C32.3997 22.4503 32.3546 22.4489 32.3382 22.463C32.2826 22.5108 32.2334 22.5664 32.1842 22.6215C32.1501 22.6598 32.1533 22.7003 32.1811 22.7445C32.2567 22.8639 32.3788 22.9245 32.4926 22.9942C32.8152 23.1914 33.14 23.385 33.4638 23.5804C33.682 23.7121 33.9002 23.8442 34.118 23.9777C34.1499 23.9972 34.1818 24.0205 34.2068 24.0478C34.4952 24.3608 34.7894 24.6692 35.0682 24.9903C35.3133 25.2727 35.5411 25.5702 35.7761 25.8613C35.8563 25.9606 35.936 26.0603 36.0148 26.1606C36.1246 26.3 36.187 26.4621 36.2471 26.627C36.3246 26.8393 36.392 27.0571 36.4913 27.2593C36.5906 27.462 36.5815 27.6547 36.5109 27.8556C36.4107 28.1426 36.3173 28.4323 36.2061 28.7152C36.1278 28.9147 36.0276 29.106 35.9328 29.2987C35.8016 29.5652 35.6809 29.8385 35.5301 30.0936C35.3046 30.4749 35.0573 30.8434 34.819 31.217C34.6988 31.4056 34.5899 31.6028 34.4546 31.78C34.2729 32.0182 34.0738 32.2437 33.8756 32.4688C33.6388 32.7375 33.4028 33.0086 33.1509 33.2632C32.9814 33.4345 32.7855 33.5798 32.6001 33.7347C32.4006 33.901 32.202 34.069 31.9979 34.2294C31.6991 34.4645 31.4199 34.7268 31.0832 34.9104C30.7316 35.1027 30.3762 35.2876 30.0223 35.4753C29.7872 35.6001 29.5531 35.7276 29.3162 35.8484C28.9973 36.011 28.6767 36.1681 28.3295 36.2674C28.1191 36.3276 27.9164 36.4137 27.7091 36.4847C27.3073 36.6223 26.9074 36.7649 26.4805 36.815C26.2364 36.8437 25.9968 36.9097 25.753 36.9425C25.4802 36.9794 25.2055 37.01 24.9308 37.0195C24.6976 37.0277 24.4735 36.958 24.2707 36.8414C24.0034 36.6879 23.7483 36.5116 23.4749 36.3709C23.1948 36.226 23.0035 35.9923 22.793 35.7732C22.6053 35.5782 22.4473 35.3628 22.2951 35.1405C22.1193 34.8835 21.9339 34.6335 21.7571 34.3774C21.5904 34.136 21.4287 33.8914 21.2656 33.6477C21.0952 33.3926 20.9896 33.1051 20.8661 32.8268C20.8128 32.7061 20.7486 32.5895 20.7017 32.466C20.6698 32.3813 20.6511 32.2897 20.6415 32.1995C20.6292 32.0861 20.6315 31.9713 20.6297 31.857C20.6283 31.7795 20.6575 31.7463 20.7354 31.7399C20.9331 31.7235 21.1317 31.714 21.3289 31.693C21.4861 31.6766 21.6419 31.6461 21.7986 31.6256C21.9161 31.6101 22.035 31.6033 22.1521 31.5859C22.2459 31.5718 22.3393 31.5518 22.4309 31.5263C22.6454 31.4666 22.8595 31.4042 23.0722 31.3386C23.1993 31.2994 23.3273 31.2589 23.4494 31.206C23.6849 31.1045 23.9168 30.9938 24.15 30.8867C24.3814 30.7806 24.6124 30.6735 24.8443 30.5687C24.9782 30.5082 25.1176 30.459 25.2474 30.3906C25.3617 30.3305 25.4665 30.2526 25.5745 30.1806C25.718 30.0854 25.8601 29.9884 26.0027 29.8923C26.1863 29.7688 26.3689 29.6436 26.5539 29.5219C26.7707 29.3794 26.9944 29.2472 27.2053 29.0969C27.4435 28.9275 27.6913 28.7726 27.8954 28.5553C28.2485 28.1799 28.6183 27.8201 28.98 27.4525C29.0994 27.3308 29.2215 27.2115 29.3303 27.0807C29.4962 26.8812 29.6547 26.6758 29.8105 26.468C29.9945 26.223 30.1722 25.9729 30.3535 25.7255C30.5361 25.4759 30.7038 25.2181 30.8218 24.9293C30.8883 24.7662 30.9721 24.6099 31.0463 24.45C31.1256 24.2797 31.2026 24.1084 31.2805 23.938C31.3666 23.7494 31.4513 23.5599 31.5388 23.3718C31.634 23.1673 31.7337 22.965 31.8262 22.7596C31.8485 22.7099 31.8522 22.6511 31.8613 22.596C31.8822 22.4685 31.9005 22.34 31.9219 22.2125C31.9451 22.0735 31.9692 21.9351 31.9966 21.7966C32.0289 21.6326 32.0663 21.4695 32.0977 21.3051C32.1095 21.244 32.1177 21.1802 32.1145 21.1183C32.0968 20.7648 32.1565 20.4168 32.1824 20.0665C32.2061 19.7453 32.2143 19.4232 32.1492 19.1021C32.0995 18.8588 32.0767 18.6106 32.033 18.366C31.9861 18.104 31.941 17.8407 31.8713 17.5843C31.8267 17.4198 31.7396 17.2663 31.6713 17.1082C31.5706 16.8764 31.47 16.6441 31.3675 16.4126C31.2878 16.2327 31.219 16.0455 31.1201 15.8769C31.0381 15.7375 30.9242 15.6155 30.8149 15.4943C30.4824 15.1244 30.1512 14.7531 29.8068 14.3942C29.6529 14.2334 29.4734 14.0954 29.2966 13.9587C29.2114 13.8931 29.1053 13.8548 29.0096 13.802C28.8584 13.7182 28.7085 13.633 28.5578 13.5483C28.5605 13.5405 28.5632 13.5328 28.5655 13.525Z" fill="#00D1FF"/>
<path d="M14.8199 21.5255C14.813 21.434 14.8062 21.3424 14.7984 21.2513C14.7971 21.2335 14.7971 21.2094 14.7861 21.1998C14.721 21.142 14.7602 21.0846 14.7884 21.0326C14.8727 20.8759 14.8868 20.7056 14.9069 20.5334C14.9182 20.4354 14.9488 20.3334 14.9971 20.2482C15.1059 20.0578 15.1957 19.8615 15.2348 19.646C15.2836 19.3772 15.4339 19.1609 15.582 18.9422C15.715 18.7463 15.8484 18.5509 15.9851 18.3578C16.166 18.1022 16.3504 17.8494 16.5322 17.5947C16.6233 17.4672 16.7181 17.3424 16.8005 17.2094C16.9599 16.952 17.19 16.7711 17.4337 16.6026C17.5772 16.5037 17.7175 16.4008 17.8601 16.3006C17.9462 16.2404 18.0336 16.1826 18.1202 16.1234C18.2455 16.0377 18.3703 15.9512 18.496 15.866C18.7361 15.7025 18.9757 15.5389 19.2162 15.3763C19.3178 15.3075 19.4157 15.2287 19.526 15.1777C19.6467 15.1221 19.7797 15.092 19.9077 15.0533C20.115 14.9909 20.3222 14.929 20.5309 14.8707C20.6534 14.8365 20.7778 14.8101 20.9012 14.7786C21.0224 14.7477 21.1426 14.7135 21.2638 14.6825C21.4369 14.6388 21.6105 14.5969 21.7845 14.5554C21.8059 14.5504 21.8291 14.5509 21.8514 14.5532C22.1767 14.5841 22.5024 14.616 22.8276 14.6474C22.8655 14.6511 22.9037 14.6534 22.9415 14.657C23.1192 14.673 23.2991 14.678 23.4745 14.7089C23.6075 14.7322 23.7355 14.7859 23.8644 14.8297C24.2034 14.9445 24.5427 15.0579 24.8803 15.1777C25.0939 15.2538 25.3258 15.2897 25.5034 15.4496C25.5599 15.5007 25.6191 15.5485 25.6756 15.5995C25.7973 15.7088 25.9143 15.8241 26.0396 15.9289C26.2555 16.1088 26.415 16.327 26.5298 16.5844C26.6468 16.8481 26.7853 17.1023 26.9051 17.3647C26.9493 17.4613 26.9789 17.5674 26.9962 17.6722C27.0327 17.8931 27.034 18.1218 27.0901 18.3368C27.1748 18.6643 27.1461 18.9955 27.1702 19.3248C27.173 19.3627 27.1793 19.4014 27.1771 19.4387C27.1711 19.5276 27.1871 19.6004 27.2764 19.6469C27.2955 19.6569 27.3119 19.7216 27.2991 19.7371C27.1743 19.8934 27.178 20.0906 27.127 20.2687C27.0586 20.507 27.0199 20.7529 26.9598 20.9939C26.9097 21.1939 26.8003 21.3675 26.6942 21.5415C26.4974 21.8644 26.302 22.1883 26.1011 22.509C25.8806 22.862 25.6629 23.2174 25.4278 23.5604C25.3226 23.7139 25.1846 23.8469 25.0511 23.9786C24.7277 24.2983 24.3979 24.6117 24.0703 24.9274C23.9373 25.0554 23.7843 25.1557 23.6248 25.2481C23.2786 25.449 22.9383 25.6608 22.5899 25.8572C22.4587 25.931 22.3124 25.9793 22.1708 26.0325C22.0414 26.0813 21.9088 26.1232 21.7772 26.1656C21.4155 26.2822 21.0529 26.3965 20.6917 26.5154C20.6024 26.5446 20.5167 26.5851 20.4311 26.6238C20.3605 26.6557 20.2908 26.6735 20.2106 26.6667C20.1113 26.6585 20.0106 26.6676 19.9104 26.6676C19.823 26.668 19.7355 26.6639 19.6485 26.6657C19.2713 26.6739 18.8969 26.6352 18.522 26.5988C18.4864 26.5951 18.4504 26.5992 18.4149 26.5983C18.2737 26.5951 18.1516 26.5386 18.0304 26.4712C17.804 26.3441 17.5731 26.2266 17.3462 26.1004C17.0784 25.951 16.8082 25.8048 16.5495 25.6403C16.4507 25.5775 16.3755 25.4736 16.299 25.3807C16.15 25.1985 16.0124 25.0071 15.8621 24.8268C15.633 24.5512 15.4991 24.2264 15.3642 23.9011C15.2649 23.6611 15.1656 23.421 15.0627 23.1827C14.9574 22.9395 14.9 22.6862 14.8832 22.422C14.87 22.2166 14.849 22.0116 14.8317 21.8066C14.824 21.7127 14.8167 21.6189 14.8094 21.5251C14.8135 21.526 14.8167 21.5255 14.8199 21.5255Z" fill="#00D1FF"/>
<path d="M15.2521 17.8889C15.2184 18.0147 15.1596 18.1185 15.0717 18.2096C15.0212 18.262 14.9934 18.3376 14.9578 18.4042C14.9018 18.508 14.8476 18.6132 14.7934 18.718C14.7159 18.867 14.6422 19.0173 14.5611 19.164C14.516 19.246 14.464 19.3252 14.4085 19.4009C14.3137 19.5298 14.2864 19.676 14.2864 19.8309C14.2864 19.8623 14.2918 19.8942 14.2887 19.9247C14.2805 19.999 14.2773 20.0755 14.2572 20.1466C14.1857 20.4008 14.0982 20.6504 14.0372 20.9068C14.0071 21.0335 13.9552 21.1396 13.8832 21.2439C13.7958 21.3706 13.7429 21.5059 13.7561 21.6708C13.778 21.945 13.7725 22.2215 13.7876 22.4967C13.804 22.7896 13.8354 23.0816 13.8523 23.3745C13.8632 23.5599 13.942 23.7239 13.9935 23.897C14.0582 24.1156 14.1178 24.3356 14.1834 24.5543C14.2613 24.8126 14.3679 25.0581 14.5132 25.2868C14.6704 25.5341 14.8143 25.7906 14.9811 26.0311C15.0731 26.1641 15.1947 26.278 15.3118 26.391C15.5355 26.6074 15.7659 26.8169 15.9928 27.0306C16.1085 27.139 16.2379 27.2242 16.3837 27.2875C16.4779 27.3285 16.5654 27.3854 16.6597 27.426C16.826 27.4975 16.9963 27.5594 17.164 27.6296C17.4446 27.7467 17.7234 27.8692 18.0049 27.9854C18.2276 28.0774 18.4641 28.0988 18.7019 28.1143C18.7911 28.1202 18.88 28.1329 18.9688 28.1416C19.1765 28.1621 19.3842 28.1767 19.591 28.1316C19.6193 28.1252 19.6489 28.1202 19.6776 28.1206C19.889 28.1257 20.0944 28.0792 20.3021 28.0514C20.3664 28.0428 20.432 28.045 20.4966 28.0387C20.6342 28.025 20.7741 28.0213 20.908 27.9908C21.0724 27.9535 21.2332 27.8983 21.3927 27.8419C21.563 27.7817 21.7302 27.7125 21.8983 27.6451C22.2113 27.5193 22.5238 27.3918 22.8363 27.2647C22.9852 27.2041 23.1387 27.1517 23.2813 27.0779C23.4376 26.9973 23.5865 26.9003 23.7337 26.8033C24.0849 26.5718 24.4297 26.3304 24.7841 26.1036C25.0725 25.9191 25.3061 25.6754 25.548 25.4389C25.8797 25.1146 26.2181 24.7966 26.5406 24.4632C26.6618 24.3379 26.7534 24.1821 26.8472 24.0332C27.0021 23.7872 27.1506 23.5366 27.2973 23.2856C27.4667 22.9959 27.6321 22.7039 27.7975 22.4115C27.8667 22.2889 27.9428 22.1682 27.9952 22.0384C28.0931 21.7965 28.1783 21.5491 28.2653 21.3027C28.3368 21.1004 28.4047 20.8964 28.473 20.6927C28.5309 20.5219 28.5796 20.3538 28.5814 20.1662C28.5851 19.7994 28.6215 19.4332 28.642 19.067C28.6484 18.9531 28.6484 18.8387 28.6498 18.7244C28.6507 18.6506 28.6406 18.5754 28.6493 18.5026C28.6753 18.2848 28.6124 18.0807 28.5627 17.8744C28.5295 17.735 28.494 17.596 28.4616 17.4567C28.3956 17.1729 28.3163 16.8968 28.1541 16.6463C27.9988 16.4062 27.8653 16.152 27.7282 15.9001C27.607 15.6773 27.428 15.5052 27.2481 15.333C27.0053 15.1002 26.7616 14.8688 26.5165 14.6383C26.363 14.4939 26.2136 14.3431 26.0191 14.2534C25.9061 14.201 25.7867 14.1622 25.6706 14.1158C25.3827 14.001 25.0957 13.8835 24.8073 13.7709C24.662 13.714 24.5144 13.663 24.3668 13.6138C24.3295 13.6015 24.2871 13.6015 24.247 13.601C24.1035 13.5992 23.9601 13.6024 23.8166 13.5983C23.7364 13.596 23.6567 13.5796 23.5765 13.576C23.5054 13.5728 23.4339 13.576 23.3629 13.5805C23.2626 13.5869 23.1633 13.6038 23.0631 13.6047C22.7716 13.607 22.4796 13.5906 22.1894 13.6065C21.9808 13.6179 21.774 13.6698 21.5667 13.7035C21.5489 13.7063 21.5316 13.7131 21.5138 13.7131C21.2547 13.7172 21.0014 13.7523 20.7581 13.8479C20.6169 13.9035 20.473 13.9522 20.3299 14.0042C20.3217 14.0074 20.3135 14.0137 20.3053 14.0147C20.1286 14.0333 19.9742 14.119 19.812 14.1809C19.7969 14.1868 19.7792 14.185 19.7628 14.1868C19.7587 14.1791 19.7541 14.1714 19.75 14.1632C19.796 14.1326 19.8384 14.0944 19.8881 14.0734C20.0899 13.9891 20.2939 13.9108 20.4966 13.8293C20.6001 13.7878 20.7012 13.7404 20.805 13.7012C20.867 13.678 20.933 13.6643 20.9977 13.6479C21.2747 13.5773 21.5526 13.509 21.8291 13.437C21.9174 13.4143 22.0022 13.3769 22.091 13.3564C22.265 13.3163 22.4413 13.2849 22.6158 13.2462C22.7251 13.222 22.8312 13.1833 22.941 13.1633C23.2977 13.0986 23.6535 13.038 24.0206 13.0535C24.206 13.0612 24.3933 13.0088 24.5805 13.0016C24.7404 12.9952 24.9021 13.0097 25.062 13.022C25.2091 13.033 25.3553 13.053 25.502 13.0694C25.6173 13.0826 25.733 13.0958 25.8482 13.11C25.8952 13.1154 25.9416 13.1214 25.9881 13.1286C26.0942 13.145 26.1999 13.1619 26.3056 13.1801C26.537 13.2197 26.7689 13.258 26.9998 13.3017C27.0759 13.3163 27.1538 13.3355 27.2226 13.3696C27.4686 13.4917 27.7136 13.6165 27.9542 13.7486C28.3245 13.9522 28.6912 14.1622 29.0588 14.3709C29.164 14.4306 29.2661 14.4948 29.3709 14.5545C29.5362 14.6483 29.6556 14.79 29.7795 14.9294C29.9494 15.1202 30.127 15.3038 30.2979 15.4942C30.4086 15.6177 30.5256 15.7384 30.6158 15.876C30.7069 16.0149 30.7739 16.1711 30.8422 16.3237C30.9484 16.5602 31.0499 16.7993 31.1488 17.0389C31.2568 17.3013 31.3716 17.5623 31.4595 17.8316C31.5137 17.9974 31.526 18.1778 31.5533 18.3518C31.5761 18.4953 31.5952 18.6397 31.6134 18.7836C31.6248 18.8724 31.6298 18.9622 31.6403 19.051C31.6535 19.164 31.6795 19.276 31.6822 19.389C31.6868 19.5726 31.679 19.7562 31.6731 19.9398C31.6658 20.1794 31.6581 20.419 31.6462 20.6581C31.6362 20.8545 31.6358 21.0535 31.6016 21.2462C31.5538 21.5163 31.4777 21.7815 31.4153 22.0489C31.3729 22.2315 31.3269 22.4137 31.2932 22.5978C31.2422 22.8784 31.1597 23.1453 31.0308 23.4018C30.8832 23.6952 30.757 23.999 30.619 24.2974C30.5375 24.4737 30.4414 24.6436 30.3694 24.824C30.2159 25.2084 29.9835 25.5437 29.7421 25.8749C29.5576 26.1277 29.3845 26.3892 29.1964 26.6393C29.0647 26.8142 28.9249 26.985 28.7727 27.1417C28.4698 27.4533 28.1619 27.7603 27.8444 28.0569C27.6535 28.235 27.4449 28.3949 27.2381 28.5543C27.0199 28.7219 26.7966 28.8837 26.5702 29.0399C26.4195 29.1438 26.2596 29.2344 26.1033 29.3305C25.9188 29.4444 25.7343 29.5583 25.5499 29.6717C25.4319 29.7442 25.3125 29.8143 25.195 29.8872C25.1153 29.9369 25.0415 29.997 24.9586 30.0398C24.8461 30.0981 24.7272 30.1441 24.611 30.1951C24.4784 30.2534 24.3468 30.3131 24.2138 30.3701C24.0662 30.4329 23.9191 30.4967 23.7696 30.5546C23.5678 30.6324 23.366 30.7099 23.1606 30.7778C23.0403 30.8179 22.9137 30.8393 22.7898 30.8684C22.6404 30.903 22.4905 30.9372 22.3406 30.9709C22.3124 30.9773 22.2842 30.9828 22.2555 30.9878C22.1306 31.0101 22.0058 31.0347 21.8801 31.0529C21.7407 31.0734 21.6009 31.0898 21.461 31.1048C21.2496 31.1276 21.0387 31.1508 20.8269 31.1672C20.6574 31.1805 20.4866 31.1795 20.3167 31.1932C20.1295 31.2082 19.9432 31.241 19.756 31.2506C19.612 31.2579 19.4667 31.246 19.3227 31.2338C19.2116 31.2242 19.1018 31.2019 18.992 31.1814C18.8431 31.1536 18.6946 31.1221 18.5461 31.0934C18.4978 31.0843 18.4486 31.0793 18.4007 31.0702C18.2846 31.0483 18.1689 31.0251 18.0532 31.0019C17.9703 30.985 17.8823 30.9796 17.8054 30.9481C17.5384 30.8393 17.2756 30.7213 17.0109 30.6079C16.8651 30.5454 16.7135 30.4944 16.5732 30.4215C16.4028 30.3332 16.2388 30.2316 16.0766 30.1291C15.827 29.9715 15.5846 29.8025 15.3332 29.6485C15.0758 29.4909 14.8526 29.3005 14.6763 29.0536C14.5556 28.8841 14.4139 28.7288 14.2978 28.5566C14.1743 28.3735 14.0659 28.1794 13.957 27.9863C13.7976 27.7034 13.6345 27.4219 13.4924 27.1303C13.415 26.9713 13.3717 26.7941 13.3229 26.6219C13.2623 26.4092 13.22 26.191 13.1535 25.9806C13.0961 25.7993 13.0956 25.6143 13.0774 25.4298C13.0697 25.3496 13.0523 25.2708 13.0423 25.1911C13.0277 25.0736 13.0072 24.9561 13.0045 24.8381C12.9986 24.5488 12.9991 24.2596 13.0027 23.9703C13.0036 23.8979 13.0287 23.8259 13.0387 23.7535C13.056 23.6255 13.071 23.497 13.0856 23.3685C13.0947 23.2888 13.1006 23.2082 13.1093 23.1285C13.1211 23.0242 13.1325 22.9198 13.148 22.816C13.158 22.7499 13.1735 22.6848 13.1899 22.6201C13.2295 22.4616 13.2724 22.3044 13.3111 22.1454C13.3589 21.9477 13.3922 21.7455 13.4532 21.5523C13.548 21.2521 13.6568 20.956 13.7684 20.6618C13.8386 20.4759 13.9265 20.2964 14.003 20.1129C14.0673 19.9584 14.1206 19.799 14.1907 19.6473C14.2636 19.4897 14.3511 19.3389 14.4312 19.1845C14.5169 19.02 14.5989 18.8533 14.6882 18.6907C14.7364 18.6028 14.7943 18.5203 14.8508 18.437C14.9396 18.3062 15.0289 18.1759 15.1209 18.0475C15.1628 17.9928 15.2088 17.9418 15.2521 17.8889Z" fill="#00D1FF"/>
<path d="M13.1931 27.5735C13.2236 27.6268 13.255 27.6792 13.2837 27.7329C13.4049 27.9598 13.5101 28.1971 13.6504 28.4117C13.8153 28.6636 14.0094 28.8968 14.193 29.1364C14.2608 29.2252 14.3337 29.3104 14.4039 29.3979C14.6162 29.663 14.8731 29.8757 15.1619 30.0539C15.3236 30.1536 15.4721 30.2743 15.6311 30.3782C15.8948 30.5508 16.1586 30.7235 16.4292 30.8843C16.5549 30.959 16.697 31.0059 16.8319 31.0651C16.9995 31.1385 17.1662 31.2132 17.3348 31.2829C17.5115 31.3562 17.6869 31.4359 17.8696 31.4911C18.0604 31.5489 18.259 31.5831 18.4549 31.6236C18.5948 31.6523 18.736 31.6733 18.8758 31.7006C18.9214 31.7093 18.966 31.7252 19.0102 31.7411C19.3008 31.8459 19.6006 31.8213 19.8999 31.8022C19.9222 31.8008 19.945 31.799 19.9668 31.8008C20.0784 31.8108 20.0998 31.8309 20.0734 31.9402C20.0402 32.0782 20.0766 32.2003 20.1295 32.3238C20.1937 32.4736 20.2511 32.6262 20.3162 32.7752C20.3518 32.8572 20.3964 32.9351 20.4383 33.0144C20.6096 33.3392 20.7795 33.6644 20.9531 33.9874C21.0524 34.1723 21.1457 34.3623 21.2642 34.5349C21.4309 34.7777 21.6181 35.0069 21.7976 35.241C21.9174 35.3972 22.0386 35.5526 22.1598 35.7079C22.2108 35.7735 22.2618 35.8387 22.3137 35.9033C22.4454 36.0669 22.5761 36.2313 22.71 36.3935C22.8854 36.6062 23.1127 36.7529 23.3487 36.8887C23.3879 36.911 23.4175 36.9506 23.4516 36.982C23.4471 36.9907 23.4425 36.9989 23.4375 37.0075C23.3719 36.9907 23.3068 36.9729 23.2412 36.9574C23.1524 36.9369 23.0631 36.9164 22.9733 36.9005C22.8481 36.8782 22.721 36.8636 22.5962 36.8385C22.403 36.7998 22.2094 36.7611 22.0195 36.7101C21.7972 36.6504 21.578 36.5775 21.358 36.5106C21.2701 36.4837 21.1822 36.4568 21.0947 36.4299C20.8984 36.3693 20.6998 36.3138 20.5062 36.2454C20.3399 36.1867 20.1773 36.1174 20.0165 36.045C19.8288 35.9607 19.6439 35.8696 19.4598 35.7776C19.3696 35.7325 19.2822 35.6824 19.197 35.6291C19.0412 35.5321 18.8881 35.431 18.7337 35.3316C18.6021 35.2469 18.47 35.1626 18.3374 35.0788C18.1634 34.9686 17.9903 34.8574 17.814 34.7504C17.5707 34.6028 17.3708 34.4019 17.1535 34.222C17.0086 34.1022 16.8478 33.9988 16.7152 33.8671C16.472 33.6261 16.2415 33.3724 16.011 33.1191C15.8028 32.8905 15.5928 32.6627 15.4015 32.4203C15.2316 32.2053 15.079 31.9753 14.9318 31.7434C14.7355 31.4337 14.5419 31.1221 14.3665 30.8C14.2344 30.5572 14.1292 30.2994 14.0194 30.0452C13.9333 29.8461 13.8536 29.6434 13.778 29.4398C13.7233 29.2931 13.6819 29.1414 13.6322 28.9929C13.5411 28.7214 13.4463 28.4508 13.3571 28.1789C13.2947 27.988 13.2391 27.7949 13.1808 27.6026C13.1785 27.5954 13.1803 27.5872 13.1803 27.579C13.184 27.5767 13.1885 27.5753 13.1931 27.5735Z" fill="#00D1FF"/>
<path d="M20.3299 27.385C20.3103 27.2888 20.288 27.1936 20.2716 27.0971C20.2579 27.0151 20.2752 27 20.3577 27.0123C20.3973 27.0182 20.437 27.0378 20.4757 27.0356C20.5613 27.0305 20.6492 27.0255 20.7317 27.0028C20.8779 26.9622 21.0205 26.9089 21.1644 26.8597C21.348 26.7973 21.5307 26.7313 21.7152 26.6711C21.902 26.6105 22.0915 26.5591 22.2778 26.4971C22.3702 26.4661 22.4609 26.4261 22.5474 26.3805C22.6996 26.3008 22.8485 26.2147 22.9984 26.1304C23.3551 25.9295 23.7141 25.7346 24.0229 25.4585C24.1792 25.3187 24.355 25.2007 24.5194 25.0695C24.739 24.8946 24.9353 24.6955 25.1212 24.4846C25.3285 24.2491 25.5439 24.0209 25.7585 23.7922C25.9566 23.5817 26.1038 23.3366 26.2514 23.0902C26.363 22.9039 26.4851 22.7244 26.5962 22.5376C26.7452 22.288 26.8873 22.0343 27.0331 21.7824C27.0891 21.6858 27.146 21.5892 27.2057 21.4945C27.2303 21.4558 27.2626 21.4489 27.3091 21.4735C27.4093 21.5264 27.5114 21.5778 27.6175 21.6166C27.7218 21.6544 27.7346 21.6926 27.6749 21.7869C27.5606 21.9682 27.4558 22.1554 27.346 22.3399C27.1989 22.5882 27.0517 22.8365 26.9037 23.0838C26.7279 23.3772 26.5502 23.6696 26.3739 23.9625C26.1867 24.2741 25.9535 24.5456 25.681 24.7866C25.4328 25.0062 25.2032 25.2471 24.9504 25.4608C24.7718 25.6116 24.5691 25.7341 24.3746 25.8648C24.124 26.0334 23.8703 26.1974 23.6189 26.365C23.412 26.503 23.1984 26.6251 22.9611 26.7058C22.8139 26.7554 22.6736 26.8246 22.5288 26.882C22.4131 26.9281 22.296 26.97 22.1794 27.0137C22.0295 27.0702 21.8801 27.1271 21.7302 27.1841C21.6059 27.2314 21.4824 27.2829 21.3567 27.3266C21.2182 27.3754 21.0788 27.4237 20.9367 27.4606C20.8182 27.4911 20.6952 27.5057 20.5741 27.5262C20.5235 27.5348 20.472 27.5389 20.421 27.548C20.35 27.5608 20.319 27.5362 20.3213 27.466C20.3222 27.4392 20.3213 27.4123 20.3213 27.3854C20.3235 27.3863 20.3267 27.3859 20.3299 27.385Z" fill="#00D1FF"/>
<path d="M14.3547 21.8197C14.3802 22.0598 14.4057 22.2998 14.4303 22.5403C14.4367 22.605 14.4431 22.6697 14.4431 22.7349C14.444 22.9102 14.5059 23.0651 14.5834 23.2191C14.6667 23.3844 14.7341 23.558 14.812 23.7266C14.8945 23.9056 14.9806 24.0828 15.0649 24.2609C15.1245 24.3862 15.1765 24.516 15.2457 24.6358C15.3136 24.7533 15.3892 24.869 15.478 24.9711C15.7072 25.2348 15.9495 25.4876 16.1782 25.7514C16.3403 25.9382 16.5235 26.0944 16.7362 26.2201C16.9731 26.3604 17.2063 26.5067 17.44 26.652C17.5521 26.7217 17.6614 26.7959 17.773 26.8665C17.9042 26.9499 18.0481 26.9973 18.2035 26.9995C18.3579 27.0018 18.4987 27.0487 18.6353 27.113C18.6977 27.1421 18.7105 27.1982 18.6968 27.2733C18.6813 27.3558 18.6736 27.44 18.6731 27.5239C18.6731 27.5781 18.659 27.6077 18.6043 27.6049C18.3565 27.5922 18.1078 27.589 17.8755 27.4774C17.676 27.3813 17.4705 27.2988 17.2687 27.2073C17.1225 27.1408 16.979 27.0688 16.8337 27C16.7102 26.9417 16.5886 26.8788 16.4615 26.8292C16.3121 26.7709 16.1859 26.6779 16.0702 26.5727C15.8511 26.3736 15.6347 26.1718 15.4266 25.9618C15.3395 25.8739 15.2712 25.7655 15.2047 25.6598C15.0803 25.463 14.956 25.2653 14.8457 25.0603C14.7797 24.9378 14.7341 24.8025 14.6918 24.669C14.6016 24.388 14.5164 24.1051 14.4349 23.8218C14.3747 23.6136 14.3151 23.404 14.2718 23.1922C14.2472 23.0706 14.2522 22.9426 14.2495 22.8169C14.2454 22.6018 14.2444 22.3868 14.2444 22.1718C14.2444 21.9682 14.2467 21.7646 14.2504 21.561C14.2508 21.5241 14.239 21.463 14.2936 21.4671C14.3205 21.4689 14.3602 21.5272 14.3647 21.5637C14.3752 21.6475 14.3679 21.7336 14.3679 21.8188C14.3633 21.8188 14.3592 21.8192 14.3547 21.8197Z" fill="#00D1FF"/>
<path d="M28.1432 18.3672C28.1236 18.7221 28.1022 19.0979 28.0826 19.4732C28.0808 19.5111 28.0876 19.5489 28.0899 19.5867C28.0931 19.6409 28.0735 19.6846 28.0161 19.6878C27.8931 19.6942 27.7701 19.6946 27.6471 19.6946C27.6234 19.6946 27.5993 19.6846 27.5765 19.6755C27.5296 19.6573 27.515 19.6318 27.5364 19.5771C27.6225 19.3566 27.684 19.1293 27.6685 18.8902C27.659 18.7408 27.633 18.5927 27.6143 18.4442C27.5938 18.2802 27.5761 18.1153 27.551 17.9518C27.5355 17.8506 27.5105 17.7504 27.4863 17.6507C27.464 17.5573 27.4476 17.4607 27.4094 17.3737C27.3492 17.237 27.2741 17.1068 27.203 16.9751C27.0891 16.7647 26.9729 16.5551 26.8577 16.3451C26.762 16.1711 26.6404 16.0167 26.4987 15.8777C26.2159 15.5999 25.9321 15.3229 25.6487 15.045C25.507 14.9056 25.3326 14.8323 25.1449 14.7785C25.0164 14.7416 24.893 14.6874 24.7664 14.6451C24.5823 14.5831 24.3974 14.5234 24.2124 14.4642C24.0316 14.4068 23.8498 14.3526 23.669 14.2948C23.617 14.2784 23.5788 14.1832 23.5938 14.1239C23.6116 14.0547 23.6439 14.0365 23.7259 14.0465C23.8972 14.0675 24.0685 14.087 24.2393 14.1071C24.432 14.1294 24.6142 14.1868 24.791 14.2665C24.944 14.3353 25.1016 14.3932 25.2538 14.4638C25.4711 14.564 25.6843 14.6733 25.9011 14.7749C25.9881 14.8154 26.0874 14.8337 26.1671 14.8838C26.2801 14.9544 26.3858 15.0396 26.4851 15.1288C26.6668 15.2919 26.8386 15.4659 27.0199 15.6295C27.1652 15.7602 27.2554 15.9251 27.3433 16.095C27.5077 16.4148 27.6818 16.7296 27.8439 17.0507C27.8918 17.145 27.9145 17.2525 27.9446 17.355C27.9915 17.5154 28.0357 17.6762 28.079 17.837C28.1236 18.0046 28.1733 18.1704 28.1432 18.3672Z" fill="#00D1FF"/>
<path d="M27.7441 20.1198C27.8544 20.1352 27.9555 20.173 28.0434 20.2418C28.0826 20.2724 28.0903 20.3088 28.0749 20.3603C28.0006 20.6104 27.93 20.8614 27.8608 21.1128C27.8343 21.2085 27.7619 21.2353 27.6754 21.1889C27.5952 21.1461 27.5077 21.1169 27.4225 21.0837C27.3542 21.0568 27.3355 21.0235 27.3597 20.9566C27.4148 20.8035 27.4717 20.6514 27.5273 20.4983C27.5637 20.3981 27.6011 20.2979 27.6325 20.1963C27.6517 20.1371 27.6908 20.1211 27.7441 20.1198Z" fill="#00D1FF"/>
<path d="M19.8047 27.251C19.8098 27.3294 19.8116 27.4077 19.8198 27.4856C19.8298 27.5822 19.8102 27.6255 19.7145 27.6368C19.5615 27.6551 19.4066 27.6665 19.2526 27.6669C19.146 27.6674 19.1169 27.6309 19.1032 27.5243C19.0873 27.3977 19.0741 27.2706 19.0622 27.1435C19.0545 27.0615 19.0978 27.0187 19.1788 27.0314C19.3401 27.0569 19.5 27.0588 19.6603 27.026C19.6799 27.0219 19.7004 27.0251 19.7205 27.0232C19.7842 27.0173 19.8111 27.0451 19.8066 27.1093C19.8034 27.1563 19.8061 27.2036 19.8061 27.2505C19.8061 27.251 19.8052 27.251 19.8047 27.251Z" fill="#00D1FF"/>
<path d="M21.8486 14.0935C21.8823 14.0866 21.9156 14.0757 21.9498 14.0734C22.2131 14.0584 22.4768 14.0465 22.7401 14.0306C22.8043 14.0265 22.8686 14.0156 22.931 14.0014C23.0212 13.9805 23.1032 14.0242 23.1086 14.1026C23.1141 14.1782 23.0704 14.2119 22.9752 14.2069C22.8412 14.1996 22.7073 14.196 22.5734 14.1864C22.3529 14.1714 22.1324 14.1531 21.912 14.1354C21.891 14.1335 21.8705 14.1235 21.85 14.1176C21.8495 14.1094 21.8491 14.1017 21.8486 14.0935Z" fill="#00D1FF"/>
<path d="M32.7559 34.2407C33.2616 33.7797 33.6934 33.2422 34.2309 32.8149C33.7872 33.3401 33.3404 33.8621 32.7559 34.2407Z" fill="#00D1FF"/>
<path d="M16.6337 16.6098C16.59 16.5902 16.5458 16.5715 16.5021 16.5515C16.4479 16.5265 16.4565 16.4918 16.4912 16.4577C16.5682 16.383 16.6447 16.3069 16.7258 16.2367C16.7786 16.1912 16.9472 16.2372 16.9713 16.301C16.9786 16.3196 16.9795 16.3506 16.9686 16.3647C16.8907 16.4677 16.7977 16.5533 16.6716 16.5948C16.6611 16.598 16.6492 16.5975 16.6383 16.5984C16.6369 16.6025 16.6351 16.6062 16.6337 16.6098Z" fill="#00D1FF"/>
<path d="M32.6488 34.3127C32.3186 34.6735 31.9004 34.9245 31.5173 35.2192C31.5127 35.2155 31.5086 35.2114 31.5041 35.2078C31.51 35.196 31.5127 35.1809 31.5219 35.1723C31.6417 35.0552 31.7574 34.9381 31.9077 34.8529C32.038 34.7791 32.1464 34.6666 32.263 34.5696C32.3578 34.4908 32.4493 34.4083 32.5445 34.3309C32.5696 34.3104 32.6047 34.3022 32.6347 34.2881C32.6397 34.2963 32.6443 34.3045 32.6488 34.3127Z" fill="#00D1FF"/>
<path d="M15.7222 17.8685C15.72 17.7364 15.991 17.377 16.1268 17.3346C16.0247 17.5437 15.8635 17.6926 15.7222 17.8685Z" fill="#00D1FF"/>
<path d="M15.9418 16.9824C16.032 16.863 16.1177 16.7396 16.253 16.6644C16.1783 16.7984 16.0539 16.8845 15.9418 16.9824Z" fill="#00D1FF"/>
<path d="M15.5788 17.5003C15.5068 17.5819 15.4353 17.6639 15.3633 17.7454C15.3555 17.739 15.3483 17.7327 15.3405 17.7258C15.4098 17.6425 15.4785 17.5596 15.5478 17.4762C15.5583 17.4844 15.5687 17.4921 15.5788 17.5003Z" fill="#00D1FF"/>
<path d="M14.4545 20.9919C14.4818 20.9746 14.5086 20.9569 14.5372 20.9419C14.5386 20.941 14.5527 20.9637 14.5609 20.9751C14.5336 20.9928 14.5063 21.011 14.4791 21.0287C14.4709 21.0169 14.4627 21.0042 14.4545 20.9919Z" fill="#00D1FF"/>
<path d="M15.5464 18.079C15.5855 18.0326 15.6241 17.9863 15.6632 17.9399C15.6704 17.9458 15.6777 17.9518 15.6845 17.9577C15.6464 18.0049 15.6082 18.0526 15.5705 18.0999C15.5627 18.0931 15.5546 18.0863 15.5464 18.079Z" fill="#00D1FF"/>
<path d="M15.3193 18.4729C15.2971 18.5079 15.2748 18.5429 15.2525 18.5783C15.2466 18.5751 15.2407 18.5715 15.2348 18.5683C15.2548 18.5315 15.2748 18.4947 15.2948 18.4579C15.303 18.4629 15.3111 18.4679 15.3193 18.4729Z" fill="#00D1FF"/>
</g>
</g>
<defs>
<filter id="filter0_d_476_132" x="3" y="3" width="44.0084" height="44.0202" filterUnits="userSpaceOnUse" color-interpolation-filters="sRGB">
<feFlood flood-opacity="0" result="BackgroundImageFix"/>
<feColorMatrix in="SourceAlpha" type="matrix" values="0 0 0 0 0 0 0 0 0 0 0 0 0 0 0 0 0 0 127 0" result="hardAlpha"/>
<feOffset/>
<feGaussianBlur stdDeviation="5"/>
<feComposite in2="hardAlpha" operator="out"/>
<feColorMatrix type="matrix" values="0 0 0 0 0 0 0 0 0 0.819608 0 0 0 0 1 0 0 0 0.4 0"/>
<feBlend mode="normal" in2="BackgroundImageFix" result="effect1_dropShadow_476_132"/>
<feBlend mode="normal" in="SourceGraphic" in2="effect1_dropShadow_476_132" result="shape"/>
</filter>
<clipPath id="clip0_476_132">
<rect width="50" height="55" fill="white"/>
</clipPath>
</defs>
</svg>
