<svg width="50" height="55" viewBox="0 0 50 55" fill="none" xmlns="http://www.w3.org/2000/svg">
<g clip-path="url(#clip0_477_48)">
<rect width="50" height="55" fill="white"/>
<path d="M50 0L0 0L0 50L50 50L50 0Z" fill="#161215"/>
<rect y="50" width="50" height="5" fill="#161215"/>
<mask id="path-3-inside-1_477_48" fill="white">
<path d="M28.5655 13.525C28.6293 13.5469 28.694 13.5665 28.7564 13.5915C28.8662 13.6353 28.9746 13.684 29.0844 13.7282C29.2711 13.8038 29.4588 13.8767 29.6451 13.9532C29.877 14.0484 30.1125 14.1363 30.3375 14.2457C30.599 14.3728 30.8591 14.5062 31.1055 14.6602C31.4568 14.8793 31.7961 15.1176 32.1378 15.3517C32.3168 15.4747 32.499 15.5954 32.6644 15.7353C32.8657 15.9056 33.0529 16.0929 33.242 16.2769C33.4811 16.5097 33.7239 16.7402 33.9513 16.9843C34.1494 17.1971 34.3366 17.4216 34.5129 17.6526C34.7398 17.9496 34.9598 18.253 35.1662 18.5641C35.3301 18.8115 35.4928 19.0611 35.5953 19.3454C35.6554 19.5125 35.7579 19.6642 35.8317 19.8273C35.9328 20.0519 36.0248 20.2806 36.1205 20.5074C36.182 20.6541 36.2526 20.7976 36.3027 20.9479C36.4271 21.3196 36.5496 21.6923 36.6571 22.069C36.7086 22.2489 36.7145 22.4416 36.7596 22.6234C36.8407 22.9491 36.8375 23.2848 36.8935 23.6137C36.9181 23.759 36.9304 23.9052 36.9728 24.0483C36.9938 24.1193 36.986 24.1995 36.9883 24.2751C36.9956 24.5033 37.0179 24.7329 37.0038 24.9602C36.9837 25.2814 37.0188 25.6057 36.9354 25.9237C36.9054 26.0371 36.909 26.1592 36.8903 26.2763C36.8726 26.3911 36.848 26.5049 36.8229 26.6184C36.8111 26.673 36.7705 26.6689 36.7455 26.6348C36.6954 26.5669 36.6416 26.4977 36.612 26.4202C36.5305 26.2061 36.4184 26.013 36.2672 25.8403C35.9601 25.4896 35.6559 25.1361 35.3516 24.783C35.1047 24.4961 34.8582 24.2086 34.6127 23.9207C34.44 23.7185 34.2519 23.5381 34.0132 23.4101C33.7868 23.2884 33.5713 23.1459 33.35 23.0147C33.14 22.8903 32.9277 22.77 32.7177 22.6461C32.6175 22.5869 32.5218 22.5204 32.4211 22.4626C32.3997 22.4503 32.3546 22.4489 32.3382 22.463C32.2826 22.5108 32.2334 22.5664 32.1842 22.6215C32.1501 22.6598 32.1533 22.7003 32.1811 22.7445C32.2567 22.8639 32.3788 22.9245 32.4926 22.9942C32.8152 23.1914 33.14 23.385 33.4638 23.5804C33.682 23.7121 33.9002 23.8442 34.118 23.9777C34.1499 23.9972 34.1818 24.0205 34.2068 24.0478C34.4952 24.3608 34.7894 24.6692 35.0682 24.9903C35.3133 25.2727 35.5411 25.5702 35.7761 25.8613C35.8563 25.9606 35.936 26.0603 36.0148 26.1606C36.1246 26.3 36.187 26.4621 36.2471 26.627C36.3246 26.8393 36.392 27.0571 36.4913 27.2593C36.5906 27.462 36.5815 27.6547 36.5109 27.8556C36.4107 28.1426 36.3173 28.4323 36.2061 28.7152C36.1278 28.9147 36.0276 29.106 35.9328 29.2987C35.8016 29.5652 35.6809 29.8385 35.5301 30.0936C35.3046 30.4749 35.0573 30.8434 34.819 31.217C34.6988 31.4056 34.5899 31.6028 34.4546 31.78C34.2729 32.0182 34.0738 32.2437 33.8756 32.4688C33.6388 32.7375 33.4028 33.0086 33.1509 33.2632C32.9814 33.4345 32.7855 33.5798 32.6001 33.7347C32.4006 33.901 32.202 34.0691 31.9979 34.2294C31.6991 34.4645 31.4199 34.7268 31.0832 34.9104C30.7316 35.1027 30.3762 35.2876 30.0223 35.4753C29.7872 35.6001 29.5531 35.7276 29.3162 35.8484C28.9973 36.011 28.6767 36.1681 28.3295 36.2674C28.1191 36.3276 27.9164 36.4137 27.7091 36.4847C27.3073 36.6223 26.9074 36.7649 26.4805 36.815C26.2364 36.8437 25.9968 36.9097 25.753 36.9425C25.4802 36.9794 25.2055 37.01 24.9308 37.0195C24.6976 37.0277 24.4735 36.958 24.2707 36.8414C24.0034 36.6879 23.7483 36.5116 23.4749 36.3709C23.1948 36.226 23.0035 35.9923 22.793 35.7732C22.6053 35.5782 22.4473 35.3628 22.2951 35.1405C22.1193 34.8835 21.9339 34.6335 21.7571 34.3774C21.5904 34.136 21.4287 33.8914 21.2656 33.6477C21.0952 33.3926 20.9896 33.1051 20.8661 32.8268C20.8128 32.7061 20.7486 32.5895 20.7017 32.466C20.6698 32.3813 20.6511 32.2897 20.6415 32.1995C20.6292 32.0861 20.6315 31.9713 20.6297 31.857C20.6283 31.7795 20.6575 31.7463 20.7354 31.7399C20.9331 31.7235 21.1317 31.714 21.3289 31.693C21.4861 31.6766 21.6419 31.6461 21.7986 31.6256C21.9161 31.6101 22.035 31.6033 22.1521 31.5859C22.2459 31.5718 22.3393 31.5518 22.4309 31.5263C22.6454 31.4666 22.8595 31.4042 23.0722 31.3386C23.1993 31.2994 23.3273 31.2589 23.4494 31.206C23.6849 31.1045 23.9168 30.9938 24.15 30.8867C24.3814 30.7806 24.6124 30.6735 24.8443 30.5687C24.9782 30.5082 25.1176 30.459 25.2474 30.3906C25.3617 30.3305 25.4665 30.2526 25.5745 30.1806C25.718 30.0854 25.8601 29.9884 26.0027 29.8923C26.1863 29.7688 26.3689 29.6436 26.5539 29.5219C26.7707 29.3794 26.9944 29.2472 27.2053 29.0969C27.4435 28.9275 27.6913 28.7726 27.8954 28.5553C28.2485 28.1799 28.6183 27.8201 28.98 27.4525C29.0994 27.3308 29.2215 27.2115 29.3303 27.0807C29.4962 26.8812 29.6547 26.6758 29.8105 26.468C29.9945 26.223 30.1722 25.9729 30.3535 25.7255C30.5361 25.4759 30.7038 25.2181 30.8218 24.9293C30.8883 24.7662 30.9721 24.6099 31.0463 24.45C31.1256 24.2797 31.2026 24.1084 31.2805 23.938C31.3666 23.7494 31.4513 23.5599 31.5388 23.3718C31.634 23.1673 31.7337 22.965 31.8262 22.7596C31.8485 22.7099 31.8522 22.6511 31.8613 22.596C31.8822 22.4685 31.9005 22.34 31.9219 22.2125C31.9451 22.0735 31.9692 21.9351 31.9966 21.7966C32.0289 21.6326 32.0663 21.4695 32.0977 21.3051C32.1095 21.244 32.1177 21.1802 32.1145 21.1183C32.0968 20.7648 32.1565 20.4168 32.1824 20.0665C32.2061 19.7453 32.2143 19.4232 32.1492 19.1021C32.0995 18.8588 32.0767 18.6106 32.033 18.366C31.9861 18.104 31.941 17.8407 31.8713 17.5843C31.8267 17.4198 31.7396 17.2663 31.6713 17.1082C31.5706 16.8764 31.47 16.6441 31.3675 16.4126C31.2878 16.2327 31.219 16.0455 31.1201 15.8769C31.0381 15.7375 30.9242 15.6155 30.8149 15.4943C30.4824 15.1244 30.1512 14.7531 29.8068 14.3942C29.6529 14.2334 29.4734 14.0954 29.2966 13.9587C29.2114 13.8931 29.1053 13.8548 29.0096 13.802C28.8584 13.7182 28.7085 13.633 28.5578 13.5483C28.5605 13.5405 28.5632 13.5328 28.5655 13.525Z"/>
</mask>
<path d="M28.5655 13.525C28.6293 13.5469 28.694 13.5665 28.7564 13.5915C28.8662 13.6353 28.9746 13.684 29.0844 13.7282C29.2711 13.8038 29.4588 13.8767 29.6451 13.9532C29.877 14.0484 30.1125 14.1363 30.3375 14.2457C30.599 14.3728 30.8591 14.5062 31.1055 14.6602C31.4568 14.8793 31.7961 15.1176 32.1378 15.3517C32.3168 15.4747 32.499 15.5954 32.6644 15.7353C32.8657 15.9056 33.0529 16.0929 33.242 16.2769C33.4811 16.5097 33.7239 16.7402 33.9513 16.9843C34.1494 17.1971 34.3366 17.4216 34.5129 17.6526C34.7398 17.9496 34.9598 18.253 35.1662 18.5641C35.3301 18.8115 35.4928 19.0611 35.5953 19.3454C35.6554 19.5125 35.7579 19.6642 35.8317 19.8273C35.9328 20.0519 36.0248 20.2806 36.1205 20.5074C36.182 20.6541 36.2526 20.7976 36.3027 20.9479C36.4271 21.3196 36.5496 21.6923 36.6571 22.069C36.7086 22.2489 36.7145 22.4416 36.7596 22.6234C36.8407 22.9491 36.8375 23.2848 36.8935 23.6137C36.9181 23.759 36.9304 23.9052 36.9728 24.0483C36.9938 24.1193 36.986 24.1995 36.9883 24.2751C36.9956 24.5033 37.0179 24.7329 37.0038 24.9602C36.9837 25.2814 37.0188 25.6057 36.9354 25.9237C36.9054 26.0371 36.909 26.1592 36.8903 26.2763C36.8726 26.3911 36.848 26.5049 36.8229 26.6184C36.8111 26.673 36.7705 26.6689 36.7455 26.6348C36.6954 26.5669 36.6416 26.4977 36.612 26.4202C36.5305 26.2061 36.4184 26.013 36.2672 25.8403C35.9601 25.4896 35.6559 25.1361 35.3516 24.783C35.1047 24.4961 34.8582 24.2086 34.6127 23.9207C34.44 23.7185 34.2519 23.5381 34.0132 23.4101C33.7868 23.2884 33.5713 23.1459 33.35 23.0147C33.14 22.8903 32.9277 22.77 32.7177 22.6461C32.6175 22.5869 32.5218 22.5204 32.4211 22.4626C32.3997 22.4503 32.3546 22.4489 32.3382 22.463C32.2826 22.5108 32.2334 22.5664 32.1842 22.6215C32.1501 22.6598 32.1533 22.7003 32.1811 22.7445C32.2567 22.8639 32.3788 22.9245 32.4926 22.9942C32.8152 23.1914 33.14 23.385 33.4638 23.5804C33.682 23.7121 33.9002 23.8442 34.118 23.9777C34.1499 23.9972 34.1818 24.0205 34.2068 24.0478C34.4952 24.3608 34.7894 24.6692 35.0682 24.9903C35.3133 25.2727 35.5411 25.5702 35.7761 25.8613C35.8563 25.9606 35.936 26.0603 36.0148 26.1606C36.1246 26.3 36.187 26.4621 36.2471 26.627C36.3246 26.8393 36.392 27.0571 36.4913 27.2593C36.5906 27.462 36.5815 27.6547 36.5109 27.8556C36.4107 28.1426 36.3173 28.4323 36.2061 28.7152C36.1278 28.9147 36.0276 29.106 35.9328 29.2987C35.8016 29.5652 35.6809 29.8385 35.5301 30.0936C35.3046 30.4749 35.0573 30.8434 34.819 31.217C34.6988 31.4056 34.5899 31.6028 34.4546 31.78C34.2729 32.0182 34.0738 32.2437 33.8756 32.4688C33.6388 32.7375 33.4028 33.0086 33.1509 33.2632C32.9814 33.4345 32.7855 33.5798 32.6001 33.7347C32.4006 33.901 32.202 34.0691 31.9979 34.2294C31.6991 34.4645 31.4199 34.7268 31.0832 34.9104C30.7316 35.1027 30.3762 35.2876 30.0223 35.4753C29.7872 35.6001 29.5531 35.7276 29.3162 35.8484C28.9973 36.011 28.6767 36.1681 28.3295 36.2674C28.1191 36.3276 27.9164 36.4137 27.7091 36.4847C27.3073 36.6223 26.9074 36.7649 26.4805 36.815C26.2364 36.8437 25.9968 36.9097 25.753 36.9425C25.4802 36.9794 25.2055 37.01 24.9308 37.0195C24.6976 37.0277 24.4735 36.958 24.2707 36.8414C24.0034 36.6879 23.7483 36.5116 23.4749 36.3709C23.1948 36.226 23.0035 35.9923 22.793 35.7732C22.6053 35.5782 22.4473 35.3628 22.2951 35.1405C22.1193 34.8835 21.9339 34.6335 21.7571 34.3774C21.5904 34.136 21.4287 33.8914 21.2656 33.6477C21.0952 33.3926 20.9896 33.1051 20.8661 32.8268C20.8128 32.7061 20.7486 32.5895 20.7017 32.466C20.6698 32.3813 20.6511 32.2897 20.6415 32.1995C20.6292 32.0861 20.6315 31.9713 20.6297 31.857C20.6283 31.7795 20.6575 31.7463 20.7354 31.7399C20.9331 31.7235 21.1317 31.714 21.3289 31.693C21.4861 31.6766 21.6419 31.6461 21.7986 31.6256C21.9161 31.6101 22.035 31.6033 22.1521 31.5859C22.2459 31.5718 22.3393 31.5518 22.4309 31.5263C22.6454 31.4666 22.8595 31.4042 23.0722 31.3386C23.1993 31.2994 23.3273 31.2589 23.4494 31.206C23.6849 31.1045 23.9168 30.9938 24.15 30.8867C24.3814 30.7806 24.6124 30.6735 24.8443 30.5687C24.9782 30.5082 25.1176 30.459 25.2474 30.3906C25.3617 30.3305 25.4665 30.2526 25.5745 30.1806C25.718 30.0854 25.8601 29.9884 26.0027 29.8923C26.1863 29.7688 26.3689 29.6436 26.5539 29.5219C26.7707 29.3794 26.9944 29.2472 27.2053 29.0969C27.4435 28.9275 27.6913 28.7726 27.8954 28.5553C28.2485 28.1799 28.6183 27.8201 28.98 27.4525C29.0994 27.3308 29.2215 27.2115 29.3303 27.0807C29.4962 26.8812 29.6547 26.6758 29.8105 26.468C29.9945 26.223 30.1722 25.9729 30.3535 25.7255C30.5361 25.4759 30.7038 25.2181 30.8218 24.9293C30.8883 24.7662 30.9721 24.6099 31.0463 24.45C31.1256 24.2797 31.2026 24.1084 31.2805 23.938C31.3666 23.7494 31.4513 23.5599 31.5388 23.3718C31.634 23.1673 31.7337 22.965 31.8262 22.7596C31.8485 22.7099 31.8522 22.6511 31.8613 22.596C31.8822 22.4685 31.9005 22.34 31.9219 22.2125C31.9451 22.0735 31.9692 21.9351 31.9966 21.7966C32.0289 21.6326 32.0663 21.4695 32.0977 21.3051C32.1095 21.244 32.1177 21.1802 32.1145 21.1183C32.0968 20.7648 32.1565 20.4168 32.1824 20.0665C32.2061 19.7453 32.2143 19.4232 32.1492 19.1021C32.0995 18.8588 32.0767 18.6106 32.033 18.366C31.9861 18.104 31.941 17.8407 31.8713 17.5843C31.8267 17.4198 31.7396 17.2663 31.6713 17.1082C31.5706 16.8764 31.47 16.6441 31.3675 16.4126C31.2878 16.2327 31.219 16.0455 31.1201 15.8769C31.0381 15.7375 30.9242 15.6155 30.8149 15.4943C30.4824 15.1244 30.1512 14.7531 29.8068 14.3942C29.6529 14.2334 29.4734 14.0954 29.2966 13.9587C29.2114 13.8931 29.1053 13.8548 29.0096 13.802C28.8584 13.7182 28.7085 13.633 28.5578 13.5483C28.5605 13.5405 28.5632 13.5328 28.5655 13.525Z" stroke="white" stroke-width="0.6" mask="url(#path-3-inside-1_477_48)"/>
<path d="M14.9815 21.6755H14.9716C14.9747 21.7151 14.9779 21.7547 14.9812 21.7942L14.8317 21.8066L14.9812 21.794C14.9865 21.8575 14.9923 21.9219 14.9982 21.9868C15.0109 22.1275 15.0237 22.2705 15.0329 22.4124L15.0329 22.4125C15.0487 22.6608 15.1025 22.897 15.2003 23.1232L15.2003 23.1232C15.3038 23.3626 15.4035 23.6036 15.5026 23.8433L15.5028 23.8437C15.6391 24.1725 15.7652 24.4755 15.9773 24.7307C15.9774 24.7308 15.9774 24.7308 15.9775 24.7309L15.8621 24.8268C15.9425 24.9233 16.0193 25.0229 16.0961 25.1226C16.1629 25.2093 16.2297 25.296 16.299 25.3807L14.9815 21.6755ZM14.9815 21.6755L14.9694 21.5144L14.9694 21.5139C14.9626 21.4226 14.9557 21.3304 14.9479 21.2386M18.0304 26.4712L18.1039 26.3404C17.9891 26.276 17.8734 26.2141 17.7591 26.1531L17.742 26.144C17.6332 26.0859 17.5256 26.0286 17.4191 25.9693C17.3775 25.9461 17.336 25.9231 17.2947 25.9001C17.0676 25.774 16.8449 25.6503 16.63 25.5138C16.5687 25.4748 16.5197 25.4144 16.4541 25.3336C16.4417 25.3183 16.4287 25.3022 16.4149 25.2854L17.3462 26.1004C17.4539 26.1603 17.5626 26.2183 17.6712 26.2762C17.7913 26.3404 17.9115 26.4045 18.0304 26.4712ZM18.0304 26.4712L18.1034 26.3401C18.2206 26.4054 18.3156 26.446 18.4183 26.4484L18.4188 26.4484C18.4282 26.4486 18.437 26.4484 18.4499 26.448C18.4542 26.4479 18.4591 26.4477 18.4646 26.4476C18.4836 26.4471 18.5095 26.4467 18.5373 26.4496L18.522 26.5988L18.5365 26.4495C18.5532 26.4511 18.5698 26.4527 18.5864 26.4543C18.9461 26.4894 19.2949 26.5234 19.6452 26.5158L19.6453 26.5158C19.6937 26.5148 19.7521 26.5157 19.8064 26.5165C19.8444 26.5171 19.8805 26.5177 19.9096 26.5176L19.9104 26.5176C19.9354 26.5176 19.9647 26.5167 19.9965 26.5157C20.0672 26.5136 20.1498 26.5111 20.223 26.5172L20.2234 26.5172C20.2711 26.5213 20.3148 26.5118 20.3694 26.4871C20.3794 26.4826 20.3896 26.4779 20.4 26.4732C20.4744 26.4393 20.5581 26.4012 20.645 26.3729M18.0304 26.4712C18.1516 26.5386 18.2737 26.5951 18.4149 26.5983C18.4289 26.5987 18.4429 26.5983 18.4569 26.5978C18.4786 26.5972 18.5004 26.5966 18.522 26.5988C18.5395 26.6005 18.5571 26.6022 18.5747 26.6039C18.932 26.6387 19.289 26.6736 19.6485 26.6657C19.6976 26.6647 19.7469 26.6656 19.7963 26.6664C19.8343 26.6671 19.8724 26.6678 19.9104 26.6676C19.945 26.6676 19.9796 26.6665 20.0142 26.6654C20.0799 26.6633 20.1456 26.6613 20.2106 26.6667C20.2908 26.6735 20.3605 26.6557 20.4311 26.6238C20.4416 26.6191 20.4521 26.6143 20.4626 26.6095C20.5378 26.5753 20.6133 26.541 20.6917 26.5154C20.9302 26.4369 21.1693 26.3604 21.4084 26.2839C21.5314 26.2445 21.6543 26.2052 21.7772 26.1656C21.7886 26.1619 21.8001 26.1582 21.8116 26.1545C21.9319 26.1159 22.0527 26.0771 22.1708 26.0325C22.1959 26.0231 22.2211 26.0138 22.2464 26.0045C22.3638 25.9613 22.4819 25.9179 22.5899 25.8572L22.5162 25.7265C22.5163 25.7265 22.5163 25.7265 22.5163 25.7264C22.4198 25.7807 22.3153 25.8192 22.1986 25.8622C22.1724 25.8719 22.1455 25.8818 22.118 25.8922L22.1179 25.8922C22.0034 25.9353 21.8862 25.973 21.7652 26.0119C21.7539 26.0155 21.7426 26.0191 21.7312 26.0228L21.7312 26.0228C21.6089 26.0622 21.4863 26.1015 21.3634 26.1408C21.124 26.2174 20.8839 26.2942 20.645 26.3729M20.645 26.3729C20.645 26.3729 20.6451 26.3728 20.6451 26.3728L20.6916 26.5153L20.6448 26.3729C20.6448 26.3729 20.6449 26.3729 20.645 26.3729Z" stroke="white" stroke-width="0.3"/>
<mask id="path-5-inside-2_477_48" fill="white">
<path d="M15.2521 17.8889C15.2184 18.0147 15.1596 18.1185 15.0717 18.2096C15.0212 18.262 14.9934 18.3376 14.9578 18.4042C14.9018 18.508 14.8476 18.6132 14.7934 18.718C14.7159 18.867 14.6422 19.0173 14.5611 19.164C14.516 19.246 14.464 19.3252 14.4085 19.4009C14.3137 19.5298 14.2864 19.676 14.2864 19.8309C14.2864 19.8623 14.2918 19.8942 14.2887 19.9247C14.2805 19.999 14.2773 20.0755 14.2572 20.1466C14.1857 20.4008 14.0982 20.6504 14.0372 20.9068C14.0071 21.0335 13.9552 21.1396 13.8832 21.2439C13.7958 21.3706 13.7429 21.5059 13.7561 21.6708C13.778 21.945 13.7725 22.2215 13.7876 22.4967C13.804 22.7896 13.8354 23.0816 13.8523 23.3745C13.8632 23.5599 13.942 23.7239 13.9935 23.897C14.0582 24.1156 14.1178 24.3356 14.1834 24.5543C14.2613 24.8126 14.3679 25.0581 14.5132 25.2868C14.6704 25.5341 14.8143 25.7906 14.9811 26.0311C15.0731 26.1641 15.1947 26.278 15.3118 26.391C15.5355 26.6074 15.7659 26.8169 15.9928 27.0306C16.1085 27.139 16.2379 27.2242 16.3837 27.2875C16.4779 27.3285 16.5654 27.3854 16.6597 27.426C16.826 27.4975 16.9963 27.5594 17.164 27.6296C17.4446 27.7467 17.7234 27.8692 18.0049 27.9854C18.2276 28.0774 18.4641 28.0988 18.7019 28.1143C18.7911 28.1202 18.88 28.1329 18.9688 28.1416C19.1765 28.1621 19.3842 28.1767 19.591 28.1316C19.6193 28.1252 19.6489 28.1202 19.6776 28.1206C19.889 28.1257 20.0944 28.0792 20.3021 28.0514C20.3664 28.0428 20.432 28.045 20.4966 28.0387C20.6342 28.025 20.7741 28.0213 20.908 27.9908C21.0724 27.9535 21.2332 27.8983 21.3927 27.8419C21.563 27.7817 21.7302 27.7125 21.8983 27.6451C22.2113 27.5193 22.5238 27.3918 22.8363 27.2647C22.9852 27.2041 23.1387 27.1517 23.2813 27.0779C23.4376 26.9973 23.5865 26.9003 23.7337 26.8033C24.0849 26.5718 24.4297 26.3304 24.7841 26.1036C25.0725 25.9191 25.3061 25.6754 25.548 25.4389C25.8797 25.1146 26.2181 24.7966 26.5406 24.4632C26.6618 24.3379 26.7534 24.1821 26.8472 24.0332C27.0021 23.7872 27.1506 23.5366 27.2973 23.2856C27.4667 22.9959 27.6321 22.7039 27.7975 22.4115C27.8667 22.2889 27.9428 22.1682 27.9952 22.0384C28.0931 21.7965 28.1783 21.5491 28.2653 21.3027C28.3368 21.1004 28.4047 20.8964 28.473 20.6927C28.5309 20.5219 28.5796 20.3538 28.5814 20.1662C28.5851 19.7994 28.6215 19.4332 28.642 19.067C28.6484 18.9531 28.6484 18.8387 28.6498 18.7244C28.6507 18.6506 28.6406 18.5754 28.6493 18.5026C28.6753 18.2848 28.6124 18.0807 28.5627 17.8744C28.5295 17.735 28.494 17.596 28.4616 17.4567C28.3956 17.1729 28.3163 16.8968 28.1541 16.6463C27.9988 16.4062 27.8653 16.152 27.7282 15.9001C27.607 15.6773 27.428 15.5052 27.2481 15.333C27.0053 15.1002 26.7616 14.8688 26.5165 14.6383C26.363 14.4939 26.2136 14.3431 26.0191 14.2534C25.9061 14.201 25.7867 14.1622 25.6706 14.1158C25.3827 14.001 25.0957 13.8835 24.8073 13.7709C24.662 13.714 24.5144 13.663 24.3668 13.6138C24.3295 13.6015 24.2871 13.6015 24.247 13.601C24.1035 13.5992 23.9601 13.6024 23.8166 13.5983C23.7364 13.596 23.6567 13.5796 23.5765 13.576C23.5054 13.5728 23.4339 13.576 23.3629 13.5805C23.2626 13.5869 23.1633 13.6038 23.0631 13.6047C22.7716 13.607 22.4796 13.5906 22.1894 13.6065C21.9808 13.6179 21.774 13.6698 21.5667 13.7035C21.5489 13.7063 21.5316 13.7131 21.5138 13.7131C21.2547 13.7172 21.0014 13.7523 20.7581 13.8479C20.6169 13.9035 20.473 13.9522 20.3299 14.0042C20.3217 14.0074 20.3135 14.0137 20.3053 14.0147C20.1286 14.0333 19.9742 14.119 19.812 14.1809C19.7969 14.1868 19.7792 14.185 19.7628 14.1868C19.7587 14.1791 19.7541 14.1714 19.75 14.1632C19.796 14.1326 19.8384 14.0944 19.8881 14.0734C20.0899 13.9891 20.2939 13.9108 20.4966 13.8293C20.6001 13.7878 20.7012 13.7404 20.805 13.7012C20.867 13.678 20.933 13.6643 20.9977 13.6479C21.2747 13.5773 21.5526 13.509 21.8291 13.437C21.9174 13.4143 22.0022 13.3769 22.091 13.3564C22.265 13.3163 22.4413 13.2849 22.6158 13.2462C22.7251 13.222 22.8312 13.1833 22.941 13.1633C23.2977 13.0986 23.6535 13.038 24.0206 13.0535C24.206 13.0612 24.3933 13.0088 24.5805 13.0016C24.7404 12.9952 24.9021 13.0097 25.062 13.022C25.2091 13.033 25.3553 13.053 25.502 13.0694C25.6173 13.0826 25.733 13.0958 25.8482 13.11C25.8952 13.1154 25.9416 13.1214 25.9881 13.1286C26.0942 13.145 26.1999 13.1619 26.3056 13.1801C26.537 13.2197 26.7689 13.258 26.9998 13.3017C27.0759 13.3163 27.1538 13.3355 27.2226 13.3696C27.4686 13.4917 27.7136 13.6165 27.9542 13.7486C28.3245 13.9522 28.6912 14.1622 29.0588 14.3709C29.164 14.4306 29.2661 14.4948 29.3709 14.5545C29.5362 14.6483 29.6556 14.79 29.7795 14.9294C29.9494 15.1202 30.127 15.3038 30.2979 15.4942C30.4086 15.6177 30.5256 15.7384 30.6158 15.876C30.7069 16.0149 30.7739 16.1711 30.8422 16.3237C30.9484 16.5602 31.0499 16.7993 31.1488 17.0389C31.2568 17.3013 31.3716 17.5623 31.4595 17.8316C31.5137 17.9974 31.526 18.1778 31.5533 18.3518C31.5761 18.4953 31.5952 18.6397 31.6134 18.7836C31.6248 18.8724 31.6298 18.9622 31.6403 19.051C31.6535 19.164 31.6795 19.276 31.6822 19.389C31.6868 19.5726 31.679 19.7562 31.6731 19.9398C31.6658 20.1794 31.6581 20.419 31.6462 20.6581C31.6362 20.8545 31.6358 21.0535 31.6016 21.2462C31.5538 21.5163 31.4777 21.7815 31.4153 22.0489C31.3729 22.2315 31.3269 22.4137 31.2932 22.5978C31.2422 22.8784 31.1597 23.1453 31.0308 23.4018C30.8832 23.6952 30.757 23.999 30.619 24.2974C30.5375 24.4737 30.4414 24.6436 30.3694 24.824C30.2159 25.2084 29.9835 25.5437 29.7421 25.8749C29.5576 26.1277 29.3845 26.3892 29.1964 26.6393C29.0647 26.8142 28.9249 26.985 28.7727 27.1417C28.4698 27.4533 28.1619 27.7603 27.8444 28.0569C27.6535 28.235 27.4449 28.3949 27.2381 28.5543C27.0199 28.7219 26.7966 28.8837 26.5702 29.0399C26.4195 29.1438 26.2596 29.2344 26.1033 29.3305C25.9188 29.4444 25.7343 29.5583 25.5499 29.6717C25.4319 29.7442 25.3125 29.8143 25.195 29.8872C25.1153 29.9369 25.0415 29.997 24.9586 30.0398C24.8461 30.0981 24.7272 30.1441 24.611 30.1951C24.4784 30.2534 24.3468 30.3131 24.2138 30.3701C24.0662 30.4329 23.9191 30.4967 23.7696 30.5546C23.5678 30.6324 23.366 30.7099 23.1606 30.7778C23.0403 30.8179 22.9137 30.8393 22.7898 30.8684C22.6404 30.903 22.4905 30.9372 22.3406 30.9709C22.3124 30.9773 22.2842 30.9828 22.2555 30.9878C22.1306 31.0101 22.0058 31.0347 21.8801 31.0529C21.7407 31.0734 21.6009 31.0898 21.461 31.1048C21.2496 31.1276 21.0387 31.1508 20.8269 31.1672C20.6574 31.1805 20.4866 31.1795 20.3167 31.1932C20.1295 31.2082 19.9432 31.241 19.756 31.2506C19.612 31.2579 19.4667 31.246 19.3227 31.2338C19.2116 31.2242 19.1018 31.2019 18.992 31.1814C18.8431 31.1536 18.6946 31.1221 18.5461 31.0934C18.4978 31.0843 18.4486 31.0793 18.4007 31.0702C18.2846 31.0483 18.1689 31.0251 18.0532 31.0019C17.9703 30.985 17.8824 30.9796 17.8054 30.9481C17.5384 30.8393 17.2756 30.7213 17.0109 30.6079C16.8651 30.5454 16.7135 30.4944 16.5732 30.4215C16.4028 30.3332 16.2388 30.2316 16.0766 30.1291C15.827 29.9715 15.5846 29.8025 15.3332 29.6485C15.0758 29.4909 14.8526 29.3005 14.6763 29.0536C14.5556 28.8841 14.4139 28.7288 14.2978 28.5566C14.1743 28.3735 14.0659 28.1794 13.957 27.9863C13.7976 27.7034 13.6345 27.4219 13.4924 27.1303C13.415 26.9713 13.3717 26.7941 13.3229 26.6219C13.2623 26.4092 13.22 26.191 13.1535 25.9806C13.0961 25.7993 13.0956 25.6143 13.0774 25.4298C13.0697 25.3496 13.0523 25.2708 13.0423 25.1911C13.0277 25.0736 13.0072 24.9561 13.0045 24.8381C12.9986 24.5488 12.9991 24.2596 13.0027 23.9703C13.0036 23.8979 13.0287 23.8259 13.0387 23.7535C13.056 23.6255 13.071 23.497 13.0856 23.3685C13.0947 23.2888 13.1006 23.2082 13.1093 23.1285C13.1211 23.0242 13.1325 22.9198 13.148 22.816C13.158 22.7499 13.1735 22.6848 13.1899 22.6201C13.2295 22.4616 13.2724 22.3044 13.3111 22.1454C13.3589 21.9477 13.3922 21.7455 13.4532 21.5523C13.548 21.2521 13.6568 20.956 13.7684 20.6618C13.8386 20.4759 13.9265 20.2964 14.003 20.1129C14.0673 19.9584 14.1206 19.799 14.1907 19.6473C14.2636 19.4897 14.3511 19.3389 14.4312 19.1845C14.5169 19.02 14.5989 18.8533 14.6882 18.6907C14.7364 18.6028 14.7943 18.5203 14.8508 18.437C14.9396 18.3062 15.0289 18.1759 15.1209 18.0475C15.1628 17.9928 15.2088 17.9418 15.2521 17.8889Z"/>
</mask>
<path d="M15.2521 17.8889C15.2184 18.0147 15.1596 18.1185 15.0717 18.2096C15.0212 18.262 14.9934 18.3376 14.9578 18.4042C14.9018 18.508 14.8476 18.6132 14.7934 18.718C14.7159 18.867 14.6422 19.0173 14.5611 19.164C14.516 19.246 14.464 19.3252 14.4085 19.4009C14.3137 19.5298 14.2864 19.676 14.2864 19.8309C14.2864 19.8623 14.2918 19.8942 14.2887 19.9247C14.2805 19.999 14.2773 20.0755 14.2572 20.1466C14.1857 20.4008 14.0982 20.6504 14.0372 20.9068C14.0071 21.0335 13.9552 21.1396 13.8832 21.2439C13.7958 21.3706 13.7429 21.5059 13.7561 21.6708C13.778 21.945 13.7725 22.2215 13.7876 22.4967C13.804 22.7896 13.8354 23.0816 13.8523 23.3745C13.8632 23.5599 13.942 23.7239 13.9935 23.897C14.0582 24.1156 14.1178 24.3356 14.1834 24.5543C14.2613 24.8126 14.3679 25.0581 14.5132 25.2868C14.6704 25.5341 14.8143 25.7906 14.9811 26.0311C15.0731 26.1641 15.1947 26.278 15.3118 26.391C15.5355 26.6074 15.7659 26.8169 15.9928 27.0306C16.1085 27.139 16.2379 27.2242 16.3837 27.2875C16.4779 27.3285 16.5654 27.3854 16.6597 27.426C16.826 27.4975 16.9963 27.5594 17.164 27.6296C17.4446 27.7467 17.7234 27.8692 18.0049 27.9854C18.2276 28.0774 18.4641 28.0988 18.7019 28.1143C18.7911 28.1202 18.88 28.1329 18.9688 28.1416C19.1765 28.1621 19.3842 28.1767 19.591 28.1316C19.6193 28.1252 19.6489 28.1202 19.6776 28.1206C19.889 28.1257 20.0944 28.0792 20.3021 28.0514C20.3664 28.0428 20.432 28.045 20.4966 28.0387C20.6342 28.025 20.7741 28.0213 20.908 27.9908C21.0724 27.9535 21.2332 27.8983 21.3927 27.8419C21.563 27.7817 21.7302 27.7125 21.8983 27.6451C22.2113 27.5193 22.5238 27.3918 22.8363 27.2647C22.9852 27.2041 23.1387 27.1517 23.2813 27.0779C23.4376 26.9973 23.5865 26.9003 23.7337 26.8033C24.0849 26.5718 24.4297 26.3304 24.7841 26.1036C25.0725 25.9191 25.3061 25.6754 25.548 25.4389C25.8797 25.1146 26.2181 24.7966 26.5406 24.4632C26.6618 24.3379 26.7534 24.1821 26.8472 24.0332C27.0021 23.7872 27.1506 23.5366 27.2973 23.2856C27.4667 22.9959 27.6321 22.7039 27.7975 22.4115C27.8667 22.2889 27.9428 22.1682 27.9952 22.0384C28.0931 21.7965 28.1783 21.5491 28.2653 21.3027C28.3368 21.1004 28.4047 20.8964 28.473 20.6927C28.5309 20.5219 28.5796 20.3538 28.5814 20.1662C28.5851 19.7994 28.6215 19.4332 28.642 19.067C28.6484 18.9531 28.6484 18.8387 28.6498 18.7244C28.6507 18.6506 28.6406 18.5754 28.6493 18.5026C28.6753 18.2848 28.6124 18.0807 28.5627 17.8744C28.5295 17.735 28.494 17.596 28.4616 17.4567C28.3956 17.1729 28.3163 16.8968 28.1541 16.6463C27.9988 16.4062 27.8653 16.152 27.7282 15.9001C27.607 15.6773 27.428 15.5052 27.2481 15.333C27.0053 15.1002 26.7616 14.8688 26.5165 14.6383C26.363 14.4939 26.2136 14.3431 26.0191 14.2534C25.9061 14.201 25.7867 14.1622 25.6706 14.1158C25.3827 14.001 25.0957 13.8835 24.8073 13.7709C24.662 13.714 24.5144 13.663 24.3668 13.6138C24.3295 13.6015 24.2871 13.6015 24.247 13.601C24.1035 13.5992 23.9601 13.6024 23.8166 13.5983C23.7364 13.596 23.6567 13.5796 23.5765 13.576C23.5054 13.5728 23.4339 13.576 23.3629 13.5805C23.2626 13.5869 23.1633 13.6038 23.0631 13.6047C22.7716 13.607 22.4796 13.5906 22.1894 13.6065C21.9808 13.6179 21.774 13.6698 21.5667 13.7035C21.5489 13.7063 21.5316 13.7131 21.5138 13.7131C21.2547 13.7172 21.0014 13.7523 20.7581 13.8479C20.6169 13.9035 20.473 13.9522 20.3299 14.0042C20.3217 14.0074 20.3135 14.0137 20.3053 14.0147C20.1286 14.0333 19.9742 14.119 19.812 14.1809C19.7969 14.1868 19.7792 14.185 19.7628 14.1868C19.7587 14.1791 19.7541 14.1714 19.75 14.1632C19.796 14.1326 19.8384 14.0944 19.8881 14.0734C20.0899 13.9891 20.2939 13.9108 20.4966 13.8293C20.6001 13.7878 20.7012 13.7404 20.805 13.7012C20.867 13.678 20.933 13.6643 20.9977 13.6479C21.2747 13.5773 21.5526 13.509 21.8291 13.437C21.9174 13.4143 22.0022 13.3769 22.091 13.3564C22.265 13.3163 22.4413 13.2849 22.6158 13.2462C22.7251 13.222 22.8312 13.1833 22.941 13.1633C23.2977 13.0986 23.6535 13.038 24.0206 13.0535C24.206 13.0612 24.3933 13.0088 24.5805 13.0016C24.7404 12.9952 24.9021 13.0097 25.062 13.022C25.2091 13.033 25.3553 13.053 25.502 13.0694C25.6173 13.0826 25.733 13.0958 25.8482 13.11C25.8952 13.1154 25.9416 13.1214 25.9881 13.1286C26.0942 13.145 26.1999 13.1619 26.3056 13.1801C26.537 13.2197 26.7689 13.258 26.9998 13.3017C27.0759 13.3163 27.1538 13.3355 27.2226 13.3696C27.4686 13.4917 27.7136 13.6165 27.9542 13.7486C28.3245 13.9522 28.6912 14.1622 29.0588 14.3709C29.164 14.4306 29.2661 14.4948 29.3709 14.5545C29.5362 14.6483 29.6556 14.79 29.7795 14.9294C29.9494 15.1202 30.127 15.3038 30.2979 15.4942C30.4086 15.6177 30.5256 15.7384 30.6158 15.876C30.7069 16.0149 30.7739 16.1711 30.8422 16.3237C30.9484 16.5602 31.0499 16.7993 31.1488 17.0389C31.2568 17.3013 31.3716 17.5623 31.4595 17.8316C31.5137 17.9974 31.526 18.1778 31.5533 18.3518C31.5761 18.4953 31.5952 18.6397 31.6134 18.7836C31.6248 18.8724 31.6298 18.9622 31.6403 19.051C31.6535 19.164 31.6795 19.276 31.6822 19.389C31.6868 19.5726 31.679 19.7562 31.6731 19.9398C31.6658 20.1794 31.6581 20.419 31.6462 20.6581C31.6362 20.8545 31.6358 21.0535 31.6016 21.2462C31.5538 21.5163 31.4777 21.7815 31.4153 22.0489C31.3729 22.2315 31.3269 22.4137 31.2932 22.5978C31.2422 22.8784 31.1597 23.1453 31.0308 23.4018C30.8832 23.6952 30.757 23.999 30.619 24.2974C30.5375 24.4737 30.4414 24.6436 30.3694 24.824C30.2159 25.2084 29.9835 25.5437 29.7421 25.8749C29.5576 26.1277 29.3845 26.3892 29.1964 26.6393C29.0647 26.8142 28.9249 26.985 28.7727 27.1417C28.4698 27.4533 28.1619 27.7603 27.8444 28.0569C27.6535 28.235 27.4449 28.3949 27.2381 28.5543C27.0199 28.7219 26.7966 28.8837 26.5702 29.0399C26.4195 29.1438 26.2596 29.2344 26.1033 29.3305C25.9188 29.4444 25.7343 29.5583 25.5499 29.6717C25.4319 29.7442 25.3125 29.8143 25.195 29.8872C25.1153 29.9369 25.0415 29.997 24.9586 30.0398C24.8461 30.0981 24.7272 30.1441 24.611 30.1951C24.4784 30.2534 24.3468 30.3131 24.2138 30.3701C24.0662 30.4329 23.9191 30.4967 23.7696 30.5546C23.5678 30.6324 23.366 30.7099 23.1606 30.7778C23.0403 30.8179 22.9137 30.8393 22.7898 30.8684C22.6404 30.903 22.4905 30.9372 22.3406 30.9709C22.3124 30.9773 22.2842 30.9828 22.2555 30.9878C22.1306 31.0101 22.0058 31.0347 21.8801 31.0529C21.7407 31.0734 21.6009 31.0898 21.461 31.1048C21.2496 31.1276 21.0387 31.1508 20.8269 31.1672C20.6574 31.1805 20.4866 31.1795 20.3167 31.1932C20.1295 31.2082 19.9432 31.241 19.756 31.2506C19.612 31.2579 19.4667 31.246 19.3227 31.2338C19.2116 31.2242 19.1018 31.2019 18.992 31.1814C18.8431 31.1536 18.6946 31.1221 18.5461 31.0934C18.4978 31.0843 18.4486 31.0793 18.4007 31.0702C18.2846 31.0483 18.1689 31.0251 18.0532 31.0019C17.9703 30.985 17.8824 30.9796 17.8054 30.9481C17.5384 30.8393 17.2756 30.7213 17.0109 30.6079C16.8651 30.5454 16.7135 30.4944 16.5732 30.4215C16.4028 30.3332 16.2388 30.2316 16.0766 30.1291C15.827 29.9715 15.5846 29.8025 15.3332 29.6485C15.0758 29.4909 14.8526 29.3005 14.6763 29.0536C14.5556 28.8841 14.4139 28.7288 14.2978 28.5566C14.1743 28.3735 14.0659 28.1794 13.957 27.9863C13.7976 27.7034 13.6345 27.4219 13.4924 27.1303C13.415 26.9713 13.3717 26.7941 13.3229 26.6219C13.2623 26.4092 13.22 26.191 13.1535 25.9806C13.0961 25.7993 13.0956 25.6143 13.0774 25.4298C13.0697 25.3496 13.0523 25.2708 13.0423 25.1911C13.0277 25.0736 13.0072 24.9561 13.0045 24.8381C12.9986 24.5488 12.9991 24.2596 13.0027 23.9703C13.0036 23.8979 13.0287 23.8259 13.0387 23.7535C13.056 23.6255 13.071 23.497 13.0856 23.3685C13.0947 23.2888 13.1006 23.2082 13.1093 23.1285C13.1211 23.0242 13.1325 22.9198 13.148 22.816C13.158 22.7499 13.1735 22.6848 13.1899 22.6201C13.2295 22.4616 13.2724 22.3044 13.3111 22.1454C13.3589 21.9477 13.3922 21.7455 13.4532 21.5523C13.548 21.2521 13.6568 20.956 13.7684 20.6618C13.8386 20.4759 13.9265 20.2964 14.003 20.1129C14.0673 19.9584 14.1206 19.799 14.1907 19.6473C14.2636 19.4897 14.3511 19.3389 14.4312 19.1845C14.5169 19.02 14.5989 18.8533 14.6882 18.6907C14.7364 18.6028 14.7943 18.5203 14.8508 18.437C14.9396 18.3062 15.0289 18.1759 15.1209 18.0475C15.1628 17.9928 15.2088 17.9418 15.2521 17.8889Z" stroke="white" stroke-width="0.6" mask="url(#path-5-inside-2_477_48)"/>
<path d="M13.6322 28.9929C13.6513 29.0499 13.6691 29.1073 13.6869 29.1648C13.7156 29.2571 13.7443 29.3494 13.778 29.4398C13.8536 29.6434 13.9333 29.8461 14.0194 30.0452C14.0364 30.0846 14.0534 30.1241 14.0703 30.1637C14.1625 30.379 14.2549 30.5949 14.3665 30.8C14.5419 31.1221 14.7355 31.4337 14.9318 31.7434C15.079 31.9753 15.2316 32.2053 15.4015 32.4203C15.5782 32.6441 15.7707 32.8555 15.9631 33.0666C15.9791 33.0841 15.995 33.1016 16.011 33.1191L16.0225 33.1318C16.2492 33.3809 16.476 33.6302 16.7152 33.8671C16.7995 33.9508 16.8951 34.023 16.9908 34.0953C17.0457 34.1368 17.1007 34.1783 17.1535 34.222C17.2151 34.273 17.2753 34.3257 17.3356 34.3785C17.4877 34.5116 17.6397 34.6447 17.814 34.7504C17.9558 34.8365 18.0955 34.9253 18.2353 35.0141C18.2693 35.0357 18.3034 35.0573 18.3374 35.0788M13.6322 28.9929L22.9997 36.7528C22.9996 36.7528 22.9996 36.7528 22.9996 36.7528C22.9443 36.743 22.8886 36.7345 22.8351 36.7265M13.6322 28.9929C13.5958 28.8843 13.5587 28.7759 13.5217 28.6674C13.4737 28.5268 13.4257 28.3861 13.3789 28.2452L13.6322 28.9929ZM18.3374 35.0788C18.47 35.1626 18.6021 35.2469 18.7337 35.3316M18.3374 35.0788L18.4177 34.9521C18.4176 34.9521 18.4176 34.9521 18.4176 34.952M18.3374 35.0788L18.4176 34.952M18.7337 35.3316C18.7825 35.363 18.8311 35.3945 18.8797 35.4261C18.985 35.4944 19.0904 35.5627 19.197 35.6291C19.2822 35.6824 19.3696 35.7325 19.4598 35.7776C19.6439 35.8696 19.8288 35.9607 20.0165 36.045C20.1773 36.1174 20.3399 36.1867 20.5062 36.2454C20.6445 36.2943 20.7854 36.3366 20.9263 36.3789C20.9825 36.3958 21.0387 36.4126 21.0947 36.4299M18.7337 35.3316L18.8148 35.2055C18.8647 35.2375 18.9139 35.2694 18.9627 35.3011C19.0675 35.3691 19.1709 35.4361 19.2763 35.5018L19.2765 35.5019C19.3585 35.5532 19.4417 35.6009 19.5269 35.6434C19.7106 35.7353 19.8933 35.8253 20.0779 35.9082L20.0781 35.9082C20.2372 35.9799 20.3955 36.0472 20.5561 36.104M18.7337 35.3316L20.5561 36.104M21.0947 36.4299L21.358 36.5106M21.0947 36.4299L21.139 36.2866M21.0947 36.4299L21.1388 36.2866M21.358 36.5106C21.4249 36.5309 21.4917 36.5518 21.5586 36.5727C21.7116 36.6206 21.8647 36.6686 22.0195 36.7101C22.2081 36.7607 22.4003 36.7993 22.5921 36.8377L22.5962 36.8385C22.6678 36.8529 22.7403 36.8639 22.8127 36.8748C22.8664 36.8829 22.92 36.891 22.9733 36.9005M21.358 36.5106L21.4017 36.3671M21.358 36.5106L21.4019 36.3671L21.4017 36.3671M22.9733 36.9005C23.0248 36.9096 23.076 36.9203 23.1271 36.9315C23.0792 36.9019 23.0315 36.8711 22.9844 36.8385L22.9733 36.9005ZM22.9733 36.9005L22.9844 36.8385C22.9336 36.8033 22.8837 36.7662 22.8351 36.7265M22.8351 36.7265C22.835 36.7265 22.8348 36.7264 22.8347 36.7264C22.8254 36.725 22.8162 36.7236 22.8071 36.7222C22.7442 36.7127 22.6843 36.7032 22.6257 36.6915L22.6256 36.6915L22.624 36.6911C22.4305 36.6524 22.2423 36.6146 22.0584 36.5652L22.0583 36.5652C21.9067 36.5245 21.7583 36.4781 21.6067 36.4306C21.5392 36.4095 21.4711 36.3882 21.4017 36.3671M22.8351 36.7265C22.7494 36.6564 22.668 36.5782 22.5943 36.489C22.5943 36.4889 22.5943 36.4889 22.5943 36.4889L22.71 36.3935L21.139 36.2866M21.4017 36.3671L21.139 36.2866M21.139 36.2866L21.1388 36.2866M20.1787 32.8351C20.2087 32.9043 20.2454 32.9724 20.2785 33.0336C20.2879 33.0512 20.2971 33.0682 20.3057 33.0845C20.3482 33.165 20.3906 33.2457 20.4331 33.3265C20.5615 33.5705 20.6902 33.8152 20.8209 34.0583L15.3098 30.3362C15.3183 30.3423 15.3268 30.3484 15.3354 30.3546C15.4037 30.4039 15.4752 30.4556 15.549 30.5038L15.5503 30.5046C15.8131 30.6767 16.0792 30.8508 16.3525 31.0132L16.3525 31.0132C16.45 31.0711 16.5632 31.117 16.6625 31.1572C16.7016 31.173 16.7386 31.188 16.7715 31.2025L16.7717 31.2026C16.8102 31.2194 16.8488 31.2364 16.8876 31.2534C17.0162 31.31 17.1465 31.3673 17.2774 31.4215L17.3348 31.2829L17.2773 31.4214C17.3107 31.4353 17.3447 31.4497 17.3792 31.4643C17.521 31.5243 17.6717 31.588 17.8262 31.6347L17.8696 31.4911L17.826 31.6346C17.9836 31.6824 18.1476 31.715 18.3028 31.7459C18.3441 31.7542 18.3848 31.7623 18.4245 31.7705L18.4248 31.7706C18.4971 31.7854 18.5694 31.7982 18.6396 31.8104C18.6462 31.8115 18.6527 31.8127 18.6592 31.8138C18.7232 31.8249 18.7853 31.8357 18.8471 31.8478L18.8478 31.848C18.8798 31.854 18.9135 31.8657 18.9593 31.8822L18.9593 31.8823C19.2685 31.9937 19.5845 31.9731 19.8651 31.9548C19.88 31.9538 19.8948 31.9528 19.9094 31.9519L19.9115 31.9518C19.9139 31.9516 19.9162 31.9515 19.9183 31.9513C19.8915 32.118 19.9399 32.2621 19.9916 32.3828L19.9916 32.3829C20.0207 32.4507 20.0483 32.5192 20.0767 32.5894L20.0834 32.606C20.1139 32.6814 20.1452 32.7585 20.1787 32.8351ZM20.1787 32.8351C20.1787 32.835 20.1786 32.8349 20.1786 32.8348L20.3162 32.7752L20.1788 32.8353C20.1788 32.8352 20.1787 32.8352 20.1787 32.8351ZM21.1388 36.2866C21.0804 36.2685 21.0228 36.2513 20.9659 36.2342C20.8265 36.1923 20.6909 36.1516 20.5561 36.104M21.1388 36.2866L20.5561 36.104M20.5561 36.104C20.5561 36.104 20.5561 36.104 20.5562 36.104L20.5062 36.2453L20.5561 36.104ZM18.4176 34.952C18.3839 34.9307 18.3502 34.9093 18.3163 34.8878C18.1764 34.7989 18.0351 34.7092 17.8918 34.6222L17.8918 34.6221C17.7293 34.5236 17.5923 34.4036 17.4444 34.2741C17.3821 34.2196 17.3179 34.1634 17.2491 34.1064L17.2491 34.1064C17.1935 34.0604 17.1346 34.0159 17.0788 33.9738C17.059 33.9588 17.0396 33.9442 17.0209 33.9298C16.9472 33.8735 16.8801 33.8195 16.8209 33.7607L16.8208 33.7605C16.5844 33.5264 16.3598 33.2796 16.1324 33.0296L16.1219 33.0182L16.1219 33.0182C16.1061 33.0008 16.0904 32.9835 16.0746 32.9662C15.8815 32.7543 15.6924 32.5468 15.5192 32.3274L15.5192 32.3273C15.3541 32.1185 15.2048 31.8936 15.0585 31.6631L18.4176 34.952ZM23.445 36.9785L23.3315 36.9188L23.3314 36.9187L23.3189 36.9122C23.3154 36.9188 23.3118 36.9252 23.3077 36.9324L23.3196 36.9393L23.3198 36.9394L23.4314 37.004L23.4411 36.9935L23.445 36.9785ZM22.0414 35.8001L22.0415 35.8002L22.1598 35.7079L22.0414 35.8001ZM14.2868 29.4916C14.5118 29.7726 14.7826 29.9962 15.0831 30.1815L14.2088 30.106C14.1917 30.0662 14.1745 30.0261 14.1571 29.9857L14.1571 29.9857C14.0723 29.7896 13.9936 29.5895 13.9186 29.3876L13.9185 29.3874C13.8858 29.2996 13.8597 29.2155 13.8324 29.1272C13.8144 29.0692 13.7958 29.0093 13.7745 28.9454L13.7744 28.9452C13.7534 28.8826 13.7324 28.8205 13.7113 28.7586C13.7842 28.8565 13.8592 28.9522 13.9329 29.0463C13.9808 29.1074 14.0281 29.1679 14.0739 29.2276L14.193 29.1364L14.0738 29.2275C14.1182 29.2856 14.1667 29.3447 14.2132 29.4013C14.2387 29.4324 14.2636 29.4627 14.2869 29.4917L14.4039 29.3979L14.2868 29.4916Z" stroke="white" stroke-width="0.3"/>
<path d="M20.4409 27.1842C20.4459 27.2084 20.4511 27.2327 20.4564 27.2576C20.4631 27.2889 20.47 27.3212 20.4769 27.355L20.4835 27.3875C20.5079 27.3844 20.5286 27.3818 20.5488 27.3783L20.5491 27.3783C20.5866 27.3719 20.6224 27.3664 20.6569 27.361C20.7427 27.3477 20.8206 27.3356 20.8992 27.3153L20.9367 27.4606M20.4409 27.1842L22.9611 26.7058M20.4409 27.1842C20.4545 27.1856 20.4691 27.1862 20.4844 27.1853C20.4845 27.1853 20.4845 27.1853 20.4845 27.1853L20.4921 27.1849C20.5733 27.1801 20.6742 27.1742 20.7716 27.1473L20.7718 27.1473C20.8873 27.1153 21.0021 27.0751 21.1114 27.0369C21.1458 27.0249 21.1797 27.013 21.213 27.0017L21.1644 26.8597M20.4409 27.1842L24.613 25.1867C24.613 25.1868 24.6129 25.1868 24.6129 25.1868C24.5434 25.2423 24.4773 25.2916 24.4135 25.3393C24.3126 25.4147 24.2173 25.4859 24.1229 25.5703L24.1229 25.5703C23.8204 25.8407 23.473 26.0358 23.1411 26.2223C23.118 26.2352 23.095 26.2482 23.072 26.2611L23.0719 26.2612C23.0394 26.2795 23.0067 26.298 22.9737 26.3166C22.857 26.3827 22.7378 26.4501 22.6171 26.5134C22.5246 26.562 22.4266 26.6055 22.3254 26.6394L22.3251 26.6395C22.2296 26.6712 22.1336 26.7002 22.0397 26.7283L22.0202 26.7342C21.9324 26.7605 21.8466 26.7862 21.7615 26.8138L21.7152 26.6711M20.9367 27.4606L20.899 27.3154C21.0342 27.2803 21.1681 27.234 21.3069 27.1852L21.3074 27.185C21.3877 27.157 21.4646 27.1268 21.5446 27.0953C21.5875 27.0785 21.6312 27.0613 21.6768 27.0439L21.6769 27.0438C21.7093 27.0316 21.7416 27.0193 21.7739 27.007C21.8913 26.9624 22.0088 26.9177 22.1265 26.8733L22.1267 26.8732C22.1633 26.8595 22.1993 26.8462 22.2349 26.833C22.3156 26.8032 22.3943 26.7741 22.4733 26.7427L22.4735 26.7426C22.5192 26.7245 22.5696 26.7027 22.6224 26.68C22.7163 26.6395 22.8176 26.5959 22.9131 26.5636M20.9367 27.4606C21.0788 27.4237 21.2182 27.3754 21.3567 27.3266L20.3403 27.5351C20.3564 27.551 20.383 27.5549 20.421 27.548C20.4476 27.5433 20.4742 27.5399 20.5008 27.5365C20.5254 27.5334 20.5498 27.5303 20.5741 27.5262C20.607 27.5206 20.64 27.5155 20.673 27.5103C20.7617 27.4966 20.8504 27.4828 20.9367 27.4606ZM22.9131 26.5636C22.9131 26.5636 22.9131 26.5636 22.9131 26.5636L22.9611 26.7058M22.9131 26.5636C22.913 26.5637 22.9129 26.5637 22.9128 26.5637L22.9611 26.7058M22.9131 26.5636C23.1328 26.4889 23.3341 26.3747 23.5356 26.2403L23.5356 26.2402C23.6474 26.1657 23.7577 26.0931 23.8676 26.0209C24.0089 25.928 24.1493 25.8356 24.2909 25.7404L24.2909 25.7404C24.34 25.7073 24.3884 25.6756 24.436 25.6444C24.5845 25.547 24.7246 25.4551 24.8536 25.3462M22.9611 26.7058C23.1984 26.6251 23.412 26.503 23.6189 26.365C23.7285 26.2919 23.8385 26.2195 23.9486 26.1472C24.0909 26.0535 24.2333 25.9599 24.3746 25.8648C24.4204 25.8341 24.4666 25.8037 24.5129 25.7734C24.6632 25.6748 24.8139 25.5761 24.9504 25.4608M24.8536 25.3462L24.9504 25.4608M24.8536 25.3462C24.8536 25.3462 24.8536 25.3462 24.8536 25.3462L24.9504 25.4608M24.8536 25.3462C24.9762 25.2426 25.0939 25.1317 25.2139 25.0173C25.2277 25.0042 25.2416 24.991 25.2555 24.9777C25.3613 24.8767 25.4696 24.7733 25.5817 24.6742L25.681 24.7866C25.5713 24.8837 25.4652 24.9849 25.3591 25.0862C25.2252 25.2139 25.0914 25.3416 24.9504 25.4608M21.1644 26.8597C21.2336 26.8362 21.3026 26.8122 21.3716 26.7882C21.4859 26.7484 21.6002 26.7086 21.7152 26.6711M21.1644 26.8597L21.2127 27.0017C21.2842 26.9775 21.3541 26.9531 21.4234 26.929C21.5363 26.8897 21.6477 26.8509 21.7617 26.8137L21.7152 26.6711M21.1644 26.8597C21.129 26.8718 21.0937 26.8842 21.0584 26.8965C20.9501 26.9344 20.8419 26.9722 20.7317 27.0028L22.2778 26.4971C22.1781 26.5303 22.0774 26.5604 21.9768 26.5906C21.8894 26.6168 21.802 26.643 21.7152 26.6711M26.775 23.0067C26.775 23.0067 26.775 23.0068 26.775 23.0068L26.9037 23.0838L26.775 23.0067Z" stroke="white" stroke-width="0.3"/>
<path d="M14.4431 23.274C14.426 23.2396 14.4091 23.2041 14.3933 23.1676L14.2718 23.1922C14.3151 23.404 14.3747 23.6136 14.4349 23.8218C14.5164 24.1051 14.6016 24.388 14.6918 24.669C14.7341 24.8025 14.7797 24.9378 14.8457 25.0603C14.956 25.2653 15.0803 25.463 15.2047 25.6598C15.2712 25.7655 15.3395 25.8739 15.4266 25.9618M14.4431 23.274C14.4818 23.4417 14.5297 23.6094 14.579 23.7801L14.579 23.7803C14.6602 24.0624 14.745 24.3439 14.8346 24.6232L14.8347 24.6237C14.8771 24.7572 14.9191 24.8803 14.9778 24.9892L14.9779 24.9893C15.0852 25.189 15.2068 25.3824 15.3315 25.5797L15.3317 25.5799C15.3998 25.6882 15.4597 25.782 15.5331 25.8562M14.4431 23.274C14.4452 23.2782 14.4473 23.2823 14.4494 23.2865L14.4494 23.2866C14.4989 23.3847 14.5397 23.4793 14.5825 23.5783C14.6116 23.6458 14.6416 23.7153 14.6758 23.7894M14.4431 23.274C14.4345 23.2368 14.4264 23.1995 14.4187 23.1622L14.6758 23.7894M15.5331 25.8562L15.4266 25.9618M15.5331 25.8562C15.5331 25.8563 15.5331 25.8563 15.5332 25.8563L15.4266 25.9618M15.5331 25.8562C15.7386 26.0636 15.9528 26.2634 16.1711 26.4617L16.1711 26.4617C16.2797 26.5605 16.3903 26.6404 16.516 26.6894L16.5161 26.6895C16.6167 26.7288 16.716 26.7768 16.8089 26.8217C16.8393 26.8364 16.8689 26.8508 16.8978 26.8644L16.8979 26.8644C16.9549 26.8914 17.0101 26.9182 17.0647 26.9445C17.1536 26.9876 17.2406 27.0297 17.3308 27.0707L17.2687 27.2073L17.3307 27.0707C17.4054 27.1046 17.4842 27.1387 17.5643 27.1734C17.6899 27.2278 17.8188 27.2836 17.9406 27.3423L17.8755 27.4774L17.9404 27.3422C18.1169 27.427 18.3048 27.4397 18.5252 27.4508M15.4266 25.9618C15.6347 26.1718 15.8511 26.3736 16.0702 26.5727C16.1859 26.6779 16.3121 26.7709 16.4615 26.8292L18.2013 27.1495C18.2013 27.1495 18.2013 27.1495 18.2013 27.1495C18.3191 27.1513 18.4315 27.1851 18.5505 27.239C18.5501 27.2412 18.5498 27.2435 18.5493 27.2461C18.5366 27.3138 18.5286 27.3824 18.5252 27.4508M18.5252 27.4508C18.5239 27.4749 18.5233 27.499 18.5231 27.523V27.5239C18.5231 27.5289 18.5229 27.531 18.5229 27.531C18.5229 27.531 18.523 27.5303 18.5233 27.5289C18.5235 27.5279 18.5239 27.5262 18.5246 27.5239C18.5247 27.5236 18.5248 27.5233 18.5248 27.5231C18.5268 27.5168 18.531 27.5068 18.5392 27.4958C18.5523 27.4783 18.5699 27.4662 18.5874 27.4599C18.5952 27.4571 18.6016 27.456 18.6056 27.4555L18.6103 27.4551L18.6118 27.4551M18.5252 27.4508C18.5357 27.4513 18.5464 27.4519 18.5571 27.4524C18.5751 27.4533 18.5934 27.4542 18.6118 27.4551M18.6118 27.4551L18.6084 27.5235L18.6084 27.5239L18.6043 27.6049L18.6085 27.5239L18.6085 27.5235L18.6121 27.4551C18.612 27.4551 18.6119 27.4551 18.6118 27.4551ZM14.6758 23.7894C14.6758 23.7894 14.6759 23.7895 14.6759 23.7895L14.812 23.7266L14.6758 23.7893C14.6758 23.7893 14.6758 23.7894 14.6758 23.7894ZM14.6758 23.7894C14.7312 23.9096 14.7886 24.0298 14.8454 24.1489C14.8736 24.2079 14.9017 24.2667 14.9293 24.325L14.9294 24.3254C14.9452 24.3585 14.9615 24.3945 14.9784 24.4319C15.0193 24.5223 15.0642 24.6214 15.1158 24.7108L14.6758 23.7894ZM16.0649 25.8497L16.0648 25.8497C15.9519 25.7194 15.8355 25.5917 15.7175 25.4623L15.7135 25.458C15.5972 25.3305 15.4794 25.2014 15.3648 25.0694C15.2672 24.9574 15.1862 24.8326 15.1158 24.7109L16.0649 25.8497ZM16.0649 25.8497C16.2368 26.0477 16.4322 26.2147 16.6598 26.3492L16.0649 25.8497ZM17.5389 26.8939C17.4807 26.8558 17.4239 26.8186 17.3608 26.7794L17.5389 26.8939ZM17.5389 26.8939C17.5876 26.9257 17.6373 26.9582 17.6927 26.9932L17.5389 26.8939ZM14.2504 21.561C14.2504 21.5554 14.2502 21.5492 14.25 21.5428C14.2488 21.5071 14.2473 21.4636 14.2936 21.4671C14.3202 21.4689 14.3592 21.5259 14.3645 21.5624C14.3646 21.5626 14.3646 21.5628 14.3646 21.563C14.3646 21.5632 14.3647 21.5635 14.3647 21.5637C14.3655 21.5704 14.3663 21.5771 14.3669 21.5839L14.2504 21.561ZM16.6599 26.3493C16.865 26.4708 17.0674 26.5968 17.2714 26.7237L16.6599 26.3493Z" stroke="white" stroke-width="0.3"/>
<path d="M27.9938 18.3517L27.9949 18.3446C28.0183 18.1913 27.9837 18.0617 27.94 17.8981C27.938 17.8906 27.936 17.8831 27.934 17.8756L28.079 17.837M27.9938 18.3517L26.6038 15.7706C26.4424 15.6121 26.2804 15.4536 26.1185 15.2952C25.9968 15.1761 25.8752 15.057 25.7539 14.938C25.5862 14.7731 25.3838 14.6909 25.1863 14.6344C25.1281 14.6176 25.0697 14.5966 25.0075 14.5733C24.9961 14.5691 24.9846 14.5648 24.9729 14.5604C24.9221 14.5413 24.8683 14.521 24.8142 14.5029C24.6291 14.4406 24.4432 14.3806 24.2582 14.3214L24.2578 14.3212C24.1682 14.2928 24.0837 14.2668 23.9997 14.2409C23.981 14.2351 23.9623 14.2293 23.9435 14.2236C23.9901 14.229 24.0367 14.2345 24.0832 14.2399C24.1295 14.2453 24.1758 14.2507 24.2218 14.2561L24.222 14.2561C24.396 14.2762 24.5632 14.3283 24.7293 14.4033L24.7295 14.4033C24.8023 14.4361 24.876 14.4663 24.947 14.4955C24.9532 14.4981 24.9595 14.5006 24.9657 14.5032C25.0433 14.5351 25.1179 14.5661 25.1906 14.5998L25.191 14.6C25.2979 14.6493 25.4041 14.701 25.5117 14.7536C25.5201 14.7577 25.5284 14.7617 25.5368 14.7658C25.6358 14.8142 25.7362 14.8633 25.8374 14.9107L25.8377 14.9109C25.8812 14.9311 25.9282 14.9471 25.9657 14.9599C25.9734 14.9625 25.9807 14.965 25.9875 14.9674C26.0321 14.9829 26.0629 14.9954 26.0873 15.0108L26.0876 15.011C26.1906 15.0754 26.2892 15.1545 26.3848 15.2404L26.3849 15.2405C26.4738 15.3202 26.5605 15.4029 26.6491 15.4875L26.6556 15.4937C26.7415 15.5757 26.8292 15.6595 26.9194 15.7409L26.9195 15.741C27.0422 15.8513 27.1217 15.9931 27.21 16.1638C27.2858 16.3113 27.3612 16.4531 27.436 16.5938C27.5282 16.7673 27.6195 16.9392 27.71 17.1183L27.7102 17.1186C27.7394 17.1763 27.756 17.2367 27.7767 17.3121C27.784 17.3385 27.7917 17.3666 27.8006 17.3971C27.8471 17.556 27.891 17.7156 27.9341 17.876L28.079 17.837M27.9938 18.3517L27.9934 18.3589C27.9882 18.4536 27.9829 18.5497 27.9774 18.647C27.9626 18.9143 27.9472 19.19 27.9328 19.4654L27.9328 19.466C27.9314 19.4944 27.9333 19.5206 27.9351 19.5411M27.9938 18.3517L27.8439 17.0507C27.8807 17.1231 27.9026 17.2034 27.9244 17.2831C27.931 17.3072 27.9376 17.3312 27.9446 17.355C27.9915 17.5154 28.0357 17.6762 28.079 17.837M28.079 17.837C28.0816 17.8468 28.0842 17.8567 28.0869 17.8665C28.1292 18.0242 28.1715 18.182 28.1432 18.3672C28.138 18.462 28.1326 18.5582 28.1272 18.6555C28.1123 18.9227 28.097 19.1981 28.0826 19.4732C28.0814 19.498 28.084 19.5228 28.0865 19.5476C28.0878 19.5606 28.0891 19.5736 28.0899 19.5867M28.0899 19.5867L28.0111 19.5913L28.0084 19.538C27.984 19.5393 27.9596 19.5403 27.9351 19.5411M28.0899 19.5867L28.0111 19.5914L28.0161 19.6878L28.0108 19.5914M28.0899 19.5867C28.0931 19.6409 28.0735 19.6846 28.0161 19.6878C27.8931 19.6942 27.7701 19.6946 27.6471 19.6946C27.6243 19.6946 27.601 19.6853 27.579 19.6765L27.5765 19.6755C27.5296 19.6573 27.515 19.6318 27.5364 19.5771M27.9351 19.5411C27.8604 19.5437 27.7852 19.5444 27.7087 19.5446C27.7818 19.3393 27.8336 19.1175 27.8182 18.8806C27.8182 18.8805 27.8182 18.8805 27.8182 18.8805L27.6685 18.8902M27.9351 19.5411L27.4918 17.6733C27.5142 17.7656 27.5367 17.8583 27.551 17.9518C27.5692 18.0702 27.5835 18.1893 27.5978 18.3082C27.6032 18.3536 27.6087 18.3989 27.6143 18.4442M27.6685 18.8902C27.6619 18.7866 27.6474 18.6838 27.6329 18.5809C27.6265 18.5354 27.6201 18.4898 27.6143 18.4442M27.6685 18.8902C27.684 19.1293 27.6225 19.3566 27.5364 19.5771M27.6685 18.8902L27.5364 19.5771M27.6143 18.4442L27.7632 18.4256M27.6143 18.4442L27.7632 18.4255C27.7632 18.4255 27.7632 18.4256 27.7632 18.4256M27.7632 18.4256C27.7577 18.3819 27.7524 18.3374 27.747 18.2926C27.7326 18.1728 27.7178 18.05 27.6993 17.9291L27.7632 18.4256ZM27.5364 19.5771L28.0108 19.5914M27.9403 19.5982C27.9403 19.5976 27.9405 19.5967 27.9407 19.5957M27.9403 19.5982C27.9403 19.5976 27.9402 19.5967 27.9402 19.5955L27.9407 19.5954M27.9403 19.5982C27.9402 19.5989 27.9402 19.5993 27.9402 19.5994L27.9403 19.5982ZM27.9407 19.5957L27.9407 19.5954M27.9407 19.5957L28.0108 19.5914M27.9407 19.5957L28.0108 19.5914M27.9407 19.5954L28.0108 19.5913L28.0078 19.538C28.0035 19.5383 27.9931 19.5397 27.9803 19.5467C27.9671 19.5539 27.9566 19.5643 27.9497 19.5751C27.9439 19.584 27.9416 19.5912 27.9407 19.5954ZM27.6298 19.5353C27.6286 19.5348 27.6281 19.5345 27.6282 19.5345L27.6298 19.5353ZM27.6752 19.6343C27.6749 19.6353 27.6747 19.6359 27.6747 19.6359L27.6752 19.6343Z" stroke="white" stroke-width="0.3"/>
<path d="M27.9242 20.3407C27.8771 20.3095 27.8242 20.2882 27.7648 20.2756C27.7387 20.3564 27.7097 20.4361 27.6818 20.5126C27.6772 20.525 27.6727 20.5373 27.6683 20.5495L27.9242 20.3407ZM27.9242 20.3407C27.8548 20.5751 27.7886 20.8102 27.7238 21.0451C27.6588 21.0125 27.5893 20.9864 27.5291 20.9637C27.5254 20.9623 27.5217 20.961 27.5181 20.9596C27.5432 20.8903 27.5683 20.822 27.5936 20.7533C27.6183 20.6862 27.6432 20.6187 27.6683 20.5496L27.9242 20.3407Z" stroke="white" stroke-width="0.3"/>
<path d="M19.6499 27.1806C19.5038 27.2058 19.3596 27.2058 19.2172 27.1883C19.2274 27.2945 19.2388 27.4003 19.252 27.5054C19.252 27.5055 19.252 27.5055 19.2521 27.5056L19.6499 27.1806ZM19.6499 27.1806L19.6551 27.2606C19.6564 27.2824 19.6577 27.3062 19.6589 27.331C19.6615 27.3823 19.6643 27.4381 19.6696 27.4911C19.5304 27.5068 19.3912 27.5164 19.2536 27.5169L19.6499 27.1806ZM19.8047 27.101H19.8021C19.8048 27.1009 19.8059 27.101 19.8047 27.101ZM19.657 27.0943C19.6571 27.0943 19.6571 27.0948 19.6571 27.0959C19.657 27.0949 19.657 27.0943 19.657 27.0943ZM19.1555 27.1788C19.153 27.1792 19.1516 27.1791 19.1516 27.1791C19.1516 27.1791 19.1528 27.1792 19.1555 27.1796L19.1557 27.1788L19.1555 27.1788ZM19.7205 27.0232L19.7205 27.0233L19.7205 27.0232Z" stroke="white" stroke-width="0.3"/>
<path d="M22.9823 14.071L22.983 14.0571C22.9981 14.0579 23.0051 14.0568 23.0063 14.0565C23.0063 14.0565 23.0063 14.0565 23.0063 14.0565C23.0063 14.0565 22.9981 14.0583 22.9875 14.0666C22.9858 14.068 22.9841 14.0693 22.9826 14.0708L22.9823 14.071ZM22.9823 14.071C22.9726 14.0801 22.9657 14.0912 22.962 14.1018C22.9601 14.1069 22.9595 14.1108 22.9592 14.113C22.9592 14.1131 22.9592 14.1133 22.9592 14.1134C22.9591 14.1137 22.9591 14.114 22.9591 14.1143C22.9597 14.1202 22.962 14.1274 22.9665 14.134C22.9709 14.1407 22.9757 14.1442 22.9784 14.1457L22.9802 14.1119L22.9802 14.1115L22.9823 14.071ZM22.959 14.113L22.959 14.1132L22.959 14.113Z" stroke="white" stroke-width="0.3"/>
<mask id="path-13-inside-3_477_48" fill="white">
<path d="M32.7559 34.2406C33.2616 33.7796 33.6934 33.2421 34.2309 32.8148C33.7872 33.34 33.3404 33.8621 32.7559 34.2406Z"/>
</mask>
<path d="M32.7559 34.2406L32.5538 34.0189L32.919 34.4924L32.7559 34.2406ZM34.2309 32.8148L34.4601 33.0084L34.0443 32.58L34.2309 32.8148ZM32.958 34.4623C33.2196 34.2238 33.4633 33.9644 33.6967 33.7241C33.9339 33.4799 34.1649 33.2505 34.4176 33.0497L34.0443 32.58C33.7594 32.8064 33.5058 33.0595 33.2663 33.3061C33.023 33.5566 32.7979 33.7964 32.5538 34.0189L32.958 34.4623ZM34.0018 32.6212C33.5545 33.1506 33.1344 33.6381 32.5928 33.9888L32.919 34.4924C33.5464 34.0861 34.02 33.5295 34.4601 33.0084L34.0018 32.6212Z" fill="white" mask="url(#path-13-inside-3_477_48)"/>
<path d="M16.9713 16.301C16.9786 16.3196 16.9795 16.3506 16.9686 16.3647L16.9713 16.301Z" stroke="white" stroke-width="0.3"/>
<mask id="path-16-inside-4_477_48" fill="white">
<path d="M32.6488 34.3127C32.3186 34.6735 31.9004 34.9245 31.5173 35.2192C31.5127 35.2155 31.5086 35.2114 31.5041 35.2078C31.51 35.196 31.5127 35.1809 31.5219 35.1723C31.6417 35.0552 31.7574 34.9381 31.9077 34.8529C32.038 34.7791 32.1464 34.6666 32.263 34.5696C32.3578 34.4908 32.4493 34.4083 32.5445 34.3309C32.5696 34.3104 32.6047 34.3022 32.6347 34.2881C32.6397 34.2963 32.6443 34.3045 32.6488 34.3127Z"/>
</mask>
<path d="M32.6488 34.3127L32.8701 34.5152L33.016 34.3559L32.9111 34.167L32.6488 34.3127ZM31.5173 35.2192L31.3299 35.4535L31.5137 35.6005L31.7002 35.457L31.5173 35.2192ZM31.5041 35.2078L31.2358 35.0736L31.1273 35.2906L31.3167 35.4421L31.5041 35.2078ZM31.5219 35.1723L31.7285 35.3898L31.7315 35.3868L31.5219 35.1723ZM31.9077 34.8529L31.7598 34.5919L31.7598 34.5919L31.9077 34.8529ZM32.263 34.5696L32.0712 34.339L32.0711 34.339L32.263 34.5696ZM32.5445 34.3309L32.7338 34.5636L32.7345 34.5631L32.5445 34.3309ZM32.6347 34.2881L32.8907 34.1317L32.7505 33.9023L32.5072 34.0165L32.6347 34.2881ZM32.4276 34.1101C32.1205 34.4455 31.7545 34.6582 31.3344 34.9814L31.7002 35.457C32.0463 35.1907 32.5167 34.9014 32.8701 34.5152L32.4276 34.1101ZM31.7047 34.9849C31.7078 34.9874 31.71 34.9893 31.7109 34.9901C31.7116 34.9907 31.7121 34.9911 31.7107 34.9899C31.7099 34.9892 31.7073 34.9868 31.7044 34.9843C31.7013 34.9816 31.6968 34.9778 31.6915 34.9735L31.3167 35.4421C31.3136 35.4396 31.3114 35.4377 31.3105 35.4369C31.3098 35.4363 31.3093 35.4359 31.3107 35.4371C31.3115 35.4378 31.3141 35.4402 31.317 35.4427C31.3201 35.4454 31.3246 35.4492 31.3299 35.4535L31.7047 34.9849ZM31.7724 35.342C31.7806 35.3256 31.786 35.3115 31.7882 35.3059C31.7888 35.3043 31.7894 35.3028 31.7897 35.3019C31.7902 35.3006 31.7903 35.3004 31.7905 35.2998C31.7909 35.2988 31.7905 35.2998 31.7898 35.3016C31.7886 35.3045 31.784 35.3159 31.7756 35.3303C31.767 35.3451 31.7521 35.3673 31.7285 35.3898L31.3152 34.9548C31.287 34.9816 31.2684 35.0089 31.2565 35.0293C31.2449 35.0494 31.2375 35.0669 31.2338 35.0761C31.2312 35.0824 31.2264 35.0953 31.228 35.091C31.228 35.091 31.2282 35.0905 31.2285 35.0898C31.2288 35.0891 31.2292 35.088 31.2298 35.0865C31.231 35.0838 31.233 35.0793 31.2358 35.0736L31.7724 35.342ZM31.7315 35.3868C31.859 35.2622 31.9459 35.1761 32.0556 35.114L31.7598 34.5919C31.5688 34.7002 31.4243 34.8482 31.3122 34.9577L31.7315 35.3868ZM32.0555 35.114C32.1453 35.0631 32.2219 35.0022 32.2852 34.9482C32.3647 34.8803 32.3901 34.8541 32.4549 34.8002L32.0711 34.339C32.0193 34.3821 31.9321 34.4607 31.8957 34.4918C31.8431 34.5367 31.8004 34.569 31.7598 34.5919L32.0555 35.114ZM32.4548 34.8003C32.5698 34.7047 32.6322 34.6463 32.7338 34.5636L32.3552 34.0982C32.2665 34.1704 32.1457 34.2769 32.0712 34.339L32.4548 34.8003ZM32.7345 34.5631C32.7219 34.5734 32.7113 34.5795 32.7058 34.5824C32.7005 34.5852 32.6979 34.5862 32.7009 34.5849C32.7023 34.5844 32.7043 34.5836 32.7076 34.5823C32.7094 34.5816 32.711 34.581 32.7132 34.5802C32.7152 34.5794 32.7177 34.5784 32.7202 34.5775C32.7297 34.5737 32.7452 34.5676 32.7623 34.5596L32.5072 34.0165C32.5092 34.0156 32.509 34.0158 32.5027 34.0182C32.4997 34.0194 32.4852 34.0249 32.4746 34.0293C32.4518 34.0386 32.4028 34.0593 32.3546 34.0987L32.7345 34.5631ZM32.3787 34.4445C32.38 34.4466 32.3816 34.4494 32.3866 34.4584L32.9111 34.167C32.907 34.1596 32.8995 34.146 32.8907 34.1317L32.3787 34.4445Z" fill="white" mask="url(#path-16-inside-4_477_48)"/>
<mask id="path-18-inside-5_477_48" fill="white">
<path d="M15.7222 17.8685C15.72 17.7364 15.991 17.377 16.1268 17.3346C16.0247 17.5437 15.8635 17.6926 15.7222 17.8685Z"/>
</mask>
<path d="M15.7222 17.8685L15.4223 17.8736L15.4366 18.7033L15.9561 18.0563L15.7222 17.8685ZM16.1268 17.3346L16.3964 17.4662L16.7015 16.841L16.0374 17.0482L16.1268 17.3346ZM16.0222 17.8633C16.0227 17.8942 16.016 17.9103 16.0182 17.9035C16.0195 17.8999 16.0234 17.8895 16.0322 17.8724C16.0498 17.8382 16.0777 17.7943 16.112 17.7488C16.1463 17.7035 16.1817 17.6638 16.2112 17.6361C16.226 17.6223 16.2361 17.6144 16.2412 17.6108C16.2484 17.6059 16.2393 17.6137 16.2161 17.621L16.0374 17.0482C15.9348 17.0802 15.8509 17.1515 15.8007 17.1985C15.7413 17.2542 15.6836 17.3206 15.6335 17.3869C15.5834 17.4532 15.5354 17.5265 15.4986 17.5981C15.4689 17.6559 15.4203 17.7606 15.4223 17.8736L16.0222 17.8633ZM15.8571 17.203C15.8211 17.277 15.772 17.3456 15.7082 17.4226C15.6758 17.4617 15.6423 17.4998 15.6045 17.5432C15.5678 17.5853 15.5278 17.6315 15.4883 17.6806L15.9561 18.0563C15.9873 18.0175 16.0204 17.9792 16.0568 17.9374C16.0922 17.8969 16.1318 17.8517 16.1702 17.8054C16.2478 17.7118 16.3304 17.6013 16.3964 17.4662L15.8571 17.203Z" fill="white" mask="url(#path-18-inside-5_477_48)"/>
<mask id="path-20-inside-6_477_48" fill="white">
<path d="M15.9418 16.9824C16.032 16.863 16.1177 16.7396 16.253 16.6644C16.1783 16.7984 16.0539 16.8845 15.9418 16.9824Z"/>
</mask>
<path d="M15.9418 16.9824L15.7025 16.8015L16.1393 17.2083L15.9418 16.9824ZM16.253 16.6644L16.515 16.8106L17.0282 15.8906L16.1073 16.4022L16.253 16.6644ZM16.1812 17.1633C16.2853 17.0255 16.331 16.9643 16.3987 16.9267L16.1073 16.4022C15.9043 16.5149 15.7787 16.7006 15.7025 16.8015L16.1812 17.1633ZM15.991 16.5183C15.9496 16.5925 15.8916 16.6279 15.7444 16.7565L16.1393 17.2083C16.2162 17.141 16.4069 17.0042 16.515 16.8106L15.991 16.5183Z" fill="white" mask="url(#path-20-inside-6_477_48)"/>
<mask id="path-22-inside-7_477_48" fill="white">
<path d="M15.5788 17.5003C15.5068 17.5819 15.4353 17.6639 15.3633 17.7454C15.3555 17.739 15.3483 17.7327 15.3405 17.7258C15.4098 17.6425 15.4785 17.5596 15.5478 17.4762C15.5583 17.4844 15.5687 17.4921 15.5788 17.5003Z"/>
</mask>
<path d="M15.5788 17.5003L15.8037 17.6989L16.0098 17.4654L15.7687 17.2682L15.5788 17.5003ZM15.3633 17.7454L15.1726 17.977L15.3964 18.1613L15.5882 17.9439L15.3633 17.7454ZM15.3405 17.7258L15.1097 17.5341L14.9237 17.7581L15.142 17.9508L15.3405 17.7258ZM15.5478 17.4762L15.7327 17.2399L15.5032 17.0604L15.317 17.2845L15.5478 17.4762ZM15.3538 17.3018C15.3175 17.343 15.2813 17.3842 15.2455 17.425C15.2096 17.466 15.174 17.5065 15.1384 17.5469L15.5882 17.9439C15.6245 17.9028 15.6607 17.8616 15.6965 17.8207C15.7324 17.7798 15.768 17.7392 15.8037 17.6989L15.3538 17.3018ZM15.554 17.5138C15.5505 17.5109 15.5465 17.5075 15.539 17.5009L15.142 17.9508C15.15 17.9578 15.1606 17.9671 15.1726 17.977L15.554 17.5138ZM15.5713 17.9175C15.6059 17.8758 15.6405 17.8342 15.675 17.7926C15.7095 17.7511 15.744 17.7095 15.7786 17.6679L15.317 17.2845C15.2824 17.3262 15.2478 17.3678 15.2133 17.4094C15.1788 17.451 15.1443 17.4925 15.1097 17.5341L15.5713 17.9175ZM15.3629 17.7124C15.3831 17.7282 15.3811 17.7263 15.3888 17.7325L15.7687 17.2682C15.7563 17.258 15.7335 17.2406 15.7327 17.2399L15.3629 17.7124Z" fill="white" mask="url(#path-22-inside-7_477_48)"/>
<mask id="path-24-inside-8_477_48" fill="white">
<path d="M14.4545 20.9919C14.4818 20.9746 14.5086 20.9569 14.5372 20.9419C14.5386 20.941 14.5527 20.9637 14.5609 20.9751C14.5336 20.9928 14.5063 21.011 14.4791 21.0287C14.4709 21.0169 14.4627 21.0042 14.4545 20.9919Z"/>
</mask>
<path d="M14.4545 20.9919L14.294 20.7385L14.0346 20.9028L14.2049 21.1583L14.4545 20.9919ZM14.5372 20.9419L14.6764 21.2077L14.6905 21.2003L14.7036 21.1915L14.5372 20.9419ZM14.5609 20.9751L14.7244 21.2266L14.9882 21.0551L14.8043 20.7998L14.5609 20.9751ZM14.4791 21.0287L14.2324 21.1995L14.3983 21.439L14.6426 21.2802L14.4791 21.0287ZM14.615 21.2454C14.6493 21.2236 14.6618 21.2153 14.6764 21.2077L14.398 20.6762C14.3554 20.6985 14.3142 20.7256 14.294 20.7385L14.615 21.2454ZM14.7036 21.1915C14.6099 21.254 14.5145 21.2454 14.4648 21.233C14.4178 21.2213 14.3852 21.2009 14.372 21.1921C14.3438 21.1735 14.3256 21.1542 14.3214 21.1499C14.3092 21.1371 14.3013 21.1264 14.3006 21.1255C14.2971 21.1208 14.2954 21.1181 14.2978 21.1217C14.2979 21.1219 14.3098 21.1398 14.3174 21.1504L14.8043 20.7998C14.8054 20.8013 14.8054 20.8013 14.803 20.7978C14.8023 20.7968 14.7973 20.7893 14.7952 20.7861C14.7929 20.7827 14.7869 20.7738 14.7801 20.7647C14.7778 20.7617 14.7684 20.7492 14.7552 20.7354C14.7505 20.7304 14.7318 20.7108 14.7033 20.6919C14.6898 20.683 14.6571 20.6626 14.61 20.6508C14.5601 20.6384 14.4647 20.6298 14.3708 20.6923L14.7036 21.1915ZM14.3974 20.7236C14.3829 20.733 14.3685 20.7424 14.355 20.7513C14.3412 20.7604 14.3283 20.7689 14.3156 20.7772L14.6426 21.2802C14.6571 21.2708 14.6714 21.2614 14.6849 21.2525C14.6987 21.2434 14.7116 21.2349 14.7244 21.2266L14.3974 20.7236ZM14.7257 20.8579C14.7193 20.8487 14.7164 20.8438 14.7041 20.8255L14.2049 21.1583C14.209 21.1645 14.2225 21.1851 14.2324 21.1995L14.7257 20.8579Z" fill="white" mask="url(#path-24-inside-8_477_48)"/>
<mask id="path-26-inside-9_477_48" fill="white">
<path d="M15.5464 18.079C15.5855 18.0326 15.6241 17.9863 15.6632 17.9399C15.6704 17.9458 15.6777 17.9518 15.6845 17.9577C15.6464 18.0049 15.6082 18.0526 15.5705 18.0999C15.5627 18.0931 15.5546 18.0863 15.5464 18.079Z"/>
</mask>
<path d="M15.5464 18.079L15.317 17.8856L15.1286 18.109L15.3471 18.3032L15.5464 18.079ZM15.6632 17.9399L15.8523 17.7071L15.6237 17.5213L15.4338 17.7466L15.6632 17.9399ZM15.6845 17.9577L15.9179 18.1462L16.1 17.9207L15.881 17.731L15.6845 17.9577ZM15.5705 18.0999L15.372 18.3248L15.6083 18.5334L15.805 18.287L15.5705 18.0999ZM15.7757 18.2724C15.7956 18.2488 15.8153 18.2253 15.8347 18.2022C15.8542 18.179 15.8733 18.1561 15.8925 18.1333L15.4338 17.7466C15.4139 17.7701 15.3942 17.7936 15.3749 17.8167C15.3554 17.84 15.3362 17.8628 15.317 17.8856L15.7757 18.2724ZM15.474 18.1728C15.482 18.1793 15.4855 18.1821 15.488 18.1844L15.881 17.731C15.87 17.7214 15.8589 17.7124 15.8523 17.7071L15.474 18.1728ZM15.4511 17.7692C15.4124 17.8171 15.3738 17.8654 15.336 17.9128L15.805 18.287C15.8426 18.2399 15.8803 18.1927 15.9179 18.1462L15.4511 17.7692ZM15.769 17.8749C15.7633 17.8699 15.7576 17.8651 15.7541 17.8621C15.75 17.8586 15.7477 17.8565 15.7457 17.8548L15.3471 18.3032C15.3533 18.3087 15.3591 18.3137 15.3631 18.3172C15.3677 18.3211 15.3699 18.323 15.372 18.3248L15.769 17.8749Z" fill="white" mask="url(#path-26-inside-9_477_48)"/>
<mask id="path-28-inside-10_477_48" fill="white">
<path d="M15.3193 18.4729C15.2971 18.5079 15.2748 18.5429 15.2525 18.5783C15.2466 18.5751 15.2407 18.5715 15.2348 18.5683C15.2548 18.5315 15.2748 18.4947 15.2948 18.4579C15.303 18.4629 15.3111 18.4679 15.3193 18.4729Z"/>
</mask>
<path d="M15.3193 18.4729L15.5724 18.6339L15.7364 18.3762L15.4758 18.2169L15.3193 18.4729ZM15.2525 18.5783L15.1103 18.8424L15.3573 18.9755L15.5066 18.7379L15.2525 18.5783ZM15.2348 18.5683L14.9712 18.4251L14.8275 18.6897L15.0926 18.8324L15.2348 18.5683ZM15.2948 18.4579L15.4512 18.2019L15.1819 18.0373L15.0312 18.3147L15.2948 18.4579ZM15.0662 18.3118C15.044 18.3467 15.0213 18.3824 14.9985 18.4187L15.5066 18.7379C15.5283 18.7033 15.5501 18.6691 15.5724 18.6339L15.0662 18.3118ZM15.3948 18.3142C15.3958 18.3147 15.3964 18.3151 15.3961 18.3149C15.3958 18.3147 15.3952 18.3144 15.3936 18.3134C15.3923 18.3127 15.3898 18.3113 15.3873 18.3098C15.3846 18.3083 15.3811 18.3063 15.377 18.3042L15.0926 18.8324C15.0915 18.8319 15.0909 18.8315 15.0912 18.8317C15.0916 18.8319 15.0921 18.8322 15.0937 18.8332C15.0951 18.8339 15.0975 18.8353 15.1001 18.8368C15.1027 18.8383 15.1063 18.8403 15.1103 18.8424L15.3948 18.3142ZM15.4984 18.7115C15.5084 18.6931 15.5184 18.6747 15.5284 18.6563C15.5384 18.6379 15.5484 18.6195 15.5584 18.6011L15.0312 18.3147C15.0212 18.3331 15.0112 18.3515 15.0012 18.3699C14.9912 18.3883 14.9812 18.4067 14.9712 18.4251L15.4984 18.7115ZM15.1383 18.7139C15.1424 18.7164 15.1465 18.7189 15.1506 18.7214C15.1547 18.7239 15.1588 18.7264 15.1629 18.7289L15.4758 18.2169C15.4717 18.2144 15.4676 18.2119 15.4635 18.2094C15.4594 18.2069 15.4553 18.2044 15.4512 18.2019L15.1383 18.7139Z" fill="white" mask="url(#path-28-inside-10_477_48)"/>
</g>
<defs>
<clipPath id="clip0_477_48">
<rect width="50" height="55" fill="white"/>
</clipPath>
</defs>
</svg>
