<svg width="50" height="55" viewBox="0 0 50 55" fill="none" xmlns="http://www.w3.org/2000/svg">
<g clip-path="url(#clip0_469_75)">
<rect width="50" height="55" fill="white"/>
<path d="M50 0L0 0L0 50L50 50L50 0Z" fill="#161215"/>
<g opacity="0.5">
<path d="M17.3113 29.4969H13.6427C13.6396 29.4525 13.6392 29.408 13.6413 29.3634C13.6505 29.2336 13.6628 29.1039 13.6754 28.9721H17.4826C17.4256 29.1471 17.3685 29.322 17.3113 29.4969Z" stroke="white" stroke-width="0.3"/>
<path d="M10.1349 25.9085H11.4374C11.395 25.9869 11.3526 26.0651 11.3098 26.1431H10.4392C10.4181 26.1269 10.397 26.1107 10.3759 26.0945C10.2949 26.0325 10.2146 25.9708 10.1349 25.9085Z" stroke="white" stroke-width="0.3"/>
<path d="M15.5467 38.2796H13.3028L13.2873 38.0434C13.2974 37.8536 13.2995 37.6632 13.3017 37.4762C13.3017 37.4754 13.3017 37.4746 13.3017 37.4738H15.8435C15.7926 37.6081 15.7423 37.7423 15.6926 37.8765C15.6433 38.0097 15.594 38.1441 15.5467 38.2796Z" stroke="white" stroke-width="0.3"/>
<path d="M20.2049 25.9079C20.2235 25.986 20.2424 26.0643 20.2616 26.1425H14.2911C14.3228 26.0644 14.3545 25.9862 14.3859 25.9079H20.2049Z" stroke="white" stroke-width="0.3"/>
<path d="M13.4711 19.1283L13.4707 19.1279L13.4638 19.1389C13.4344 19.185 13.4131 19.2358 13.4007 19.2891L13.3624 19.4166H10.2584L10.3856 19.1163H13.4803L13.4711 19.1283Z" stroke="white" stroke-width="0.3"/>
<path d="M23.4774 37.7802L23.441 37.7769L23.2778 37.7625V37.9264V38.2796H22.8411C22.7429 38.0108 22.6439 37.7422 22.5443 37.4738H23.4815C23.4808 37.577 23.48 37.6789 23.4774 37.7802Z" stroke="white" stroke-width="0.3"/>
<path d="M23.8273 29.2591L23.8272 29.2595C23.8217 29.339 23.8201 29.4186 23.8225 29.4981H21.0758L20.9046 28.9734H23.85C23.8418 29.0685 23.8342 29.1638 23.8273 29.2591Z" stroke="white" stroke-width="0.3"/>
<path d="M12.0227 23.5314L12.0222 23.5317L12.0293 23.5416C12.0542 23.5768 12.0717 23.6168 12.0807 23.6591C12.0812 23.6616 12.0817 23.6641 12.0822 23.6666H9.70576C9.73016 23.5996 9.75566 23.5329 9.78163 23.4651C9.79573 23.4282 9.80997 23.391 9.82426 23.3531H11.9056C11.9474 23.4107 11.9864 23.4702 12.0227 23.5314Z" stroke="white" stroke-width="0.3"/>
<path d="M23.5392 32.9932L23.5323 33.5179H21.4692C21.4673 33.5132 21.4653 33.5085 21.4632 33.5038L21.4632 33.5038C21.4193 33.4022 21.4082 33.2893 21.4317 33.181L21.4318 33.1811L21.4329 33.175L21.4596 33.0225L21.4647 32.9937L23.5392 32.9932Z" stroke="white" stroke-width="0.3"/>
<mask id="path-11-inside-1_469_75" fill="white">
<path d="M21.3854 17.2671C21.4042 17.2231 21.4236 17.1814 21.4481 17.1329L22.0268 15.9335C22.0649 15.5748 22.1082 15.2165 22.1568 14.8585C22.2023 14.502 22.3835 14.1769 22.6626 13.951C22.9163 13.7499 23.1717 13.5512 23.426 13.3507C23.3468 13.2719 23.2744 13.201 23.2099 13.1274C23.1962 13.1119 23.2099 13.0617 23.2253 13.0314C23.3952 12.6453 23.5663 12.2598 23.7385 11.8748C23.7539 11.8394 23.7687 11.804 23.7886 11.7566L21.8136 10.8313L21.2121 12.2706L20.8563 12.2089C20.8711 12.1672 20.8825 12.1318 20.8962 12.0976C21.1467 11.4975 21.397 10.8979 21.6471 10.299C21.6689 10.2464 21.6805 10.1902 21.6813 10.1334C21.6848 9.81427 21.6848 9.49518 21.6813 9.1761C21.6794 9.12003 21.6658 9.06498 21.6414 9.01446C21.5901 8.90422 21.5234 8.80199 21.4749 8.69004C21.3453 8.4073 21.1498 8.1599 20.9048 7.96867C20.5331 7.64269 20.0572 7.46093 19.5632 7.45634C19.4275 7.46544 19.2913 7.46544 19.1555 7.45634C18.727 7.42809 18.2976 7.49559 17.8983 7.65396C17.8585 7.66873 17.8213 7.68995 17.7883 7.71679C17.6583 7.82359 17.5363 7.94068 17.4011 8.04006C17.2144 8.194 17.0614 8.38496 16.9519 8.60094C16.7699 8.91209 16.6799 9.26863 16.6924 9.62902C16.6847 10.0212 16.7654 10.4101 16.9285 10.7668C17.1366 11.2054 17.3088 11.6612 17.4986 12.1096C17.5112 12.1393 17.5209 12.1695 17.5357 12.2089L17.1799 12.2746C16.9787 11.7943 16.7808 11.3179 16.5773 10.833L14.6011 11.7583C14.6627 11.8988 14.7214 12.0353 14.7813 12.1707C14.9073 12.4563 15.0316 12.7418 15.1621 13.0217C15.1797 13.048 15.1861 13.0801 15.1802 13.1111C15.1742 13.1421 15.1562 13.1695 15.1302 13.1873C15.0618 13.249 15.0031 13.3216 14.946 13.3832C14.9198 13.3724 14.9101 13.3713 14.9078 13.3667C14.7664 13.0708 14.4631 13.0657 14.2083 12.9754C14.1932 12.9739 14.178 12.9755 14.1636 12.9801C14.1491 12.9847 14.1358 12.9923 14.1244 13.0023C13.3262 13.6267 12.5299 14.2529 11.7355 14.8808C11.698 14.9167 11.6742 14.9646 11.6682 15.0162C11.6211 15.3745 11.5779 15.7334 11.5388 16.0928C11.5384 16.1405 11.5552 16.1868 11.5861 16.223C11.6602 16.3139 11.7902 16.387 11.8102 16.4852C11.8301 16.5834 11.7378 16.6948 11.6961 16.7999C11.5521 17.1476 11.4076 17.495 11.2628 17.8423H14.6507L14.7077 17.7692C14.7134 17.7949 14.718 17.8166 14.7231 17.8423H21.1414L21.179 17.7532L21.3854 17.2671ZM20.6733 10.861C20.67 10.8782 20.6628 10.8943 20.6521 10.9081C20.6414 10.922 20.6275 10.933 20.6117 10.9404C20.3266 11.0421 20.0416 11.1426 19.7519 11.234C19.5809 11.2877 19.5809 11.2814 19.5809 11.4624V13.5352H18.7667V11.258C18.4054 11.1827 18.0513 11.076 17.7085 10.9393C17.6942 10.933 17.6817 10.9235 17.6718 10.9115C17.6619 10.8995 17.6549 10.8853 17.6514 10.8701C17.6475 10.6126 17.6514 10.3561 17.6514 10.0848C17.9194 10.1825 18.1851 10.2562 18.4297 10.3755C18.7659 10.5081 19.1301 10.5534 19.4885 10.5075C19.6075 10.4863 19.7227 10.4478 19.8306 10.3932C20.1031 10.2933 20.3802 10.191 20.6733 10.0825C20.6733 10.3527 20.6733 10.6068 20.6733 10.861Z"/>
</mask>
<path d="M21.3854 17.2671L21.1096 17.1491L21.1093 17.1499L21.3854 17.2671ZM21.4481 17.1329L21.716 17.2682L21.7183 17.2633L21.4481 17.1329ZM22.0268 15.9335L22.297 16.0638L22.3197 16.0169L22.3252 15.9651L22.0268 15.9335ZM22.1568 14.8585L22.4541 14.899L22.4544 14.8965L22.1568 14.8585ZM22.6626 13.951L22.4762 13.7158L22.4738 13.7178L22.6626 13.951ZM23.426 13.3507L23.6118 13.5863L23.8776 13.3767L23.6376 13.138L23.426 13.3507ZM23.2099 13.1274L23.4358 12.9299L23.4343 12.9283L23.2099 13.1274ZM23.2253 13.0314L23.4927 13.1674L23.4965 13.1599L23.4999 13.1522L23.2253 13.0314ZM23.7385 11.8748L24.0123 11.9973L24.0136 11.9944L23.7385 11.8748ZM23.7886 11.7566L24.0651 11.873L24.177 11.6072L23.9159 11.4849L23.7886 11.7566ZM21.8136 10.8313L21.9409 10.5596L21.6575 10.4269L21.5368 10.7156L21.8136 10.8313ZM21.2121 12.2706L21.1608 12.5662L21.3966 12.6071L21.4889 12.3863L21.2121 12.2706ZM20.8563 12.2089L20.5736 12.1084L20.4544 12.4437L20.8051 12.5045L20.8563 12.2089ZM20.8962 12.0976L20.6193 11.982L20.6176 11.9863L20.8962 12.0976ZM21.6471 10.299L21.924 10.4146L21.9243 10.4139L21.6471 10.299ZM21.6813 10.1334L21.9813 10.1377L21.9813 10.1366L21.6813 10.1334ZM21.6813 9.1761L21.9814 9.17288L21.9811 9.16558L21.6813 9.1761ZM21.6414 9.01446L21.3694 9.14108L21.3712 9.14472L21.6414 9.01446ZM21.4749 8.69004L21.7503 8.57083L21.7476 8.56502L21.4749 8.69004ZM20.9048 7.96867L20.707 8.19421L20.7134 8.19987L20.7202 8.20516L20.9048 7.96867ZM19.5632 7.45634L19.566 7.15635L19.5545 7.15625L19.5431 7.15701L19.5632 7.45634ZM19.1555 7.45634L19.1756 7.15701L19.1753 7.15699L19.1555 7.45634ZM17.8983 7.65396L18.0026 7.93535L18.0089 7.93282L17.8983 7.65396ZM17.7883 7.71679L17.599 7.48403L17.5978 7.48499L17.7883 7.71679ZM17.4011 8.04006L17.2234 7.79839L17.2167 7.8033L17.2103 7.80857L17.4011 8.04006ZM16.9519 8.60094L17.2108 8.75238L17.2154 8.74465L17.2194 8.73666L16.9519 8.60094ZM16.6924 9.62902L16.9924 9.63491L16.9925 9.62676L16.9923 9.61862L16.6924 9.62902ZM16.9285 10.7668L16.6556 10.8915L16.6574 10.8954L16.9285 10.7668ZM17.4986 12.1096L17.775 11.9928L17.7749 11.9926L17.4986 12.1096ZM17.5357 12.2089L17.5902 12.504L17.9427 12.4389L17.8165 12.1033L17.5357 12.2089ZM17.1799 12.2746L16.9032 12.3906L16.9967 12.6135L17.2344 12.5696L17.1799 12.2746ZM16.5773 10.833L16.8539 10.7169L16.733 10.4289L16.4501 10.5613L16.5773 10.833ZM14.6011 11.7583L14.4739 11.4866L14.2089 11.6107L14.3263 11.8787L14.6011 11.7583ZM14.7813 12.1707L15.0557 12.0496L15.0556 12.0493L14.7813 12.1707ZM15.1621 13.0217L14.8903 13.1485L14.8999 13.1692L14.9126 13.1882L15.1621 13.0217ZM15.1302 13.1873L14.9606 12.9399L14.9441 12.9512L14.9293 12.9645L15.1302 13.1873ZM14.946 13.3832L14.8313 13.6605L15.0245 13.7404L15.1664 13.5869L14.946 13.3832ZM14.9078 13.3667L14.6371 13.4961L14.6394 13.5007L14.9078 13.3667ZM14.2083 12.9754L14.3084 12.6926L14.2745 12.6807L14.2388 12.677L14.2083 12.9754ZM14.1244 13.0023L14.3093 13.2386L14.3161 13.2332L14.3226 13.2275L14.1244 13.0023ZM11.7355 14.8808L11.5495 14.6455L11.5383 14.6543L11.5281 14.6641L11.7355 14.8808ZM11.6682 15.0162L11.9657 15.0553L11.9662 15.0507L11.6682 15.0162ZM11.5388 16.0928L11.2405 16.0603L11.2389 16.0753L11.2388 16.0904L11.5388 16.0928ZM11.5861 16.223L11.8186 16.0333L11.8145 16.0285L11.5861 16.223ZM11.6961 16.7999L11.9733 16.9148L11.9751 16.9104L11.6961 16.7999ZM11.2628 17.8423L10.9859 17.7268L10.8127 18.1423H11.2628V17.8423ZM14.6507 17.8423V18.1423H14.7972L14.8873 18.0268L14.6507 17.8423ZM14.7077 17.7692L15.0006 17.7042L14.8627 17.0826L14.4712 17.5847L14.7077 17.7692ZM14.7231 17.8423L14.4289 17.901L14.4771 18.1423H14.7231V17.8423ZM21.1414 17.8423V18.1423H21.3404L21.4178 17.959L21.1414 17.8423ZM21.179 17.7532L20.9029 17.6359L20.9027 17.6365L21.179 17.7532ZM20.6733 10.861L20.9681 10.9167L20.9733 10.8891V10.861H20.6733ZM20.6117 10.9404L20.7125 11.223L20.7259 11.2182L20.7388 11.2122L20.6117 10.9404ZM19.7519 11.234L19.8418 11.5202L19.8422 11.5201L19.7519 11.234ZM19.5809 13.5352V13.8352H19.8809V13.5352H19.5809ZM18.7667 13.5352H18.4667V13.8352H18.7667V13.5352ZM18.7667 11.258H19.0667V11.014L18.8279 10.9643L18.7667 11.258ZM17.7085 10.9393L17.5872 11.2139L17.5973 11.2179L17.7085 10.9393ZM17.6514 10.8701L17.3515 10.8748L17.352 10.9064L17.359 10.9371L17.6514 10.8701ZM17.6514 10.0848L17.7542 9.80294L17.3514 9.65616V10.0848H17.6514ZM18.4297 10.3755L18.2981 10.6451L18.3087 10.6503L18.3197 10.6546L18.4297 10.3755ZM19.4885 10.5075L19.5267 10.805L19.5339 10.8041L19.541 10.8028L19.4885 10.5075ZM19.8306 10.3932L19.7273 10.1116L19.7108 10.1176L19.6951 10.1256L19.8306 10.3932ZM20.6733 10.0825H20.9733V9.65153L20.5691 9.80119L20.6733 10.0825ZM21.6612 17.3851C21.6775 17.3472 21.6941 17.3113 21.7159 17.2681L21.1803 16.9977C21.1531 17.0516 21.131 17.0991 21.1096 17.1491L21.6612 17.3851ZM21.7183 17.2633L22.297 16.0638L21.7567 15.8031L21.1779 17.0025L21.7183 17.2633ZM22.3252 15.9651C22.3629 15.6093 22.4059 15.254 22.4541 14.899L21.8596 14.8181C21.8105 15.179 21.7668 15.5402 21.7285 15.9018L22.3252 15.9651ZM22.4544 14.8965C22.4902 14.6166 22.6324 14.3614 22.8513 14.1841L22.4738 13.7178C22.1346 13.9924 21.9145 14.3875 21.8593 14.8206L22.4544 14.8965ZM22.8489 14.1861C23.103 13.9847 23.3546 13.789 23.6118 13.5863L23.2403 13.1151C22.9888 13.3134 22.7295 13.5151 22.4763 13.7158L22.8489 14.1861ZM23.6376 13.138C23.5549 13.0557 23.4916 12.9937 23.4358 12.9299L22.9841 13.3248C23.0571 13.4083 23.1387 13.488 23.2145 13.5634L23.6376 13.138ZM23.4343 12.9283C23.4676 12.9658 23.4842 13.0042 23.4925 13.0309C23.5008 13.0576 23.5032 13.0799 23.504 13.0938C23.5054 13.1204 23.5019 13.1385 23.501 13.1435C23.4989 13.1538 23.4967 13.1596 23.4927 13.1674L22.9579 12.8954C22.9386 12.9335 22.9218 12.9796 22.9125 13.0264C22.9079 13.0497 22.9026 13.0852 22.9048 13.1265C22.9066 13.1594 22.9154 13.2475 22.9855 13.3265L23.4343 12.9283ZM23.4999 13.1522C23.6696 12.7667 23.8404 12.3817 24.0123 11.9973L23.4646 11.7523C23.2922 12.1378 23.1209 12.5239 22.9507 12.9106L23.4999 13.1522ZM24.0136 11.9944C24.0299 11.957 24.0456 11.9195 24.0651 11.873L23.5121 11.6402C23.4918 11.6885 23.4778 11.7218 23.4633 11.7552L24.0136 11.9944ZM23.9159 11.4849L21.9409 10.5596L21.6863 11.103L23.6614 12.0283L23.9159 11.4849ZM21.5368 10.7156L20.9353 12.1549L21.4889 12.3863L22.0904 10.947L21.5368 10.7156ZM21.2633 11.975L20.9076 11.9134L20.8051 12.5045L21.1608 12.5662L21.2633 11.975ZM21.139 12.3094C21.1579 12.2563 21.1639 12.2362 21.1748 12.2088L20.6176 11.9863C20.6012 12.0274 20.5844 12.0782 20.5736 12.1084L21.139 12.3094ZM21.1731 12.2131C21.4236 11.613 21.6739 11.0135 21.924 10.4146L21.3703 10.1834C21.1202 10.7824 20.8699 11.3819 20.6194 11.982L21.1731 12.2131ZM21.9243 10.4139C21.9606 10.3262 21.9799 10.2325 21.9813 10.1377L21.3814 10.129C21.3811 10.148 21.3772 10.1667 21.37 10.1841L21.9243 10.4139ZM21.9813 10.1366C21.9848 9.81534 21.9848 9.49411 21.9813 9.17288L21.3813 9.17931C21.3847 9.49625 21.3847 9.8132 21.3813 10.1301L21.9813 10.1366ZM21.9811 9.16558C21.9777 9.06799 21.9541 8.97217 21.9117 8.88419L21.3712 9.14472C21.3775 9.15779 21.381 9.17206 21.3815 9.18661L21.9811 9.16558ZM21.9134 8.88785C21.8827 8.82194 21.8477 8.75906 21.8204 8.70901C21.7911 8.65544 21.7684 8.61279 21.7502 8.57085L21.1996 8.80923C21.2299 8.87924 21.2648 8.94368 21.2939 8.99677C21.3248 9.05339 21.3488 9.09674 21.3694 9.14106L21.9134 8.88785ZM21.7476 8.56502C21.598 8.23864 21.3723 7.953 21.0894 7.73218L20.7202 8.20516C20.9273 8.3668 21.0926 8.57596 21.2022 8.81506L21.7476 8.56502ZM21.1026 7.74313C20.677 7.36983 20.1318 7.16161 19.566 7.15635L19.5604 7.75633C19.9825 7.76025 20.3893 7.91556 20.707 8.19421L21.1026 7.74313ZM19.5431 7.15701C19.4208 7.16521 19.298 7.16521 19.1756 7.15701L19.1355 7.75567C19.2846 7.76566 19.4342 7.76566 19.5833 7.75567L19.5431 7.15701ZM19.1753 7.15699C18.7023 7.12581 18.2284 7.20031 17.7877 7.37509L18.0089 7.93282C18.3668 7.79087 18.7517 7.73037 19.1358 7.75569L19.1753 7.15699ZM17.7941 7.37264C17.7234 7.39883 17.6575 7.43647 17.599 7.48403L17.9776 7.94954C17.9851 7.94344 17.9935 7.93862 18.0025 7.93528L17.7941 7.37264ZM17.5978 7.48499C17.4402 7.61448 17.3537 7.70254 17.2234 7.79839L17.5789 8.28174C17.7188 8.17883 17.8763 8.03271 17.9787 7.94858L17.5978 7.48499ZM17.2103 7.80857C16.9917 7.98882 16.8126 8.21239 16.6843 8.46521L17.2194 8.73666C17.3103 8.55752 17.4371 8.39918 17.592 8.27156L17.2103 7.80857ZM16.6929 8.44949C16.4823 8.80967 16.3781 9.22233 16.3926 9.63943L16.9923 9.61862C16.9817 9.31493 17.0575 9.01451 17.2108 8.75238L16.6929 8.44949ZM16.3925 9.62313C16.3839 10.0603 16.4739 10.4939 16.6557 10.8915L17.2013 10.642C17.057 10.3263 16.9856 9.9821 16.9924 9.63491L16.3925 9.62313ZM16.6574 10.8954C16.8623 11.3271 17.0261 11.7629 17.2224 12.2265L17.7749 11.9926C17.5915 11.5595 17.4109 11.0838 17.1995 10.6382L16.6574 10.8954ZM17.2223 12.2263C17.2325 12.2504 17.2328 12.2557 17.2549 12.3146L17.8165 12.1033C17.809 12.0834 17.7899 12.0282 17.775 11.9928L17.2223 12.2263ZM17.4812 11.9139L17.1255 11.9796L17.2344 12.5696L17.5902 12.504L17.4812 11.9139ZM17.4566 12.1587C17.2563 11.6806 17.057 11.2008 16.8539 10.7169L16.3007 10.9491C16.5046 11.435 16.701 11.908 16.9032 12.3906L17.4566 12.1587ZM16.4501 10.5613L14.4739 11.4866L14.7283 12.03L16.7045 11.1047L16.4501 10.5613ZM14.3263 11.8787C14.3865 12.0161 14.4471 12.1567 14.5069 12.292L15.0556 12.0493C14.9957 11.9139 14.9388 11.7816 14.8759 11.6379L14.3263 11.8787ZM14.5068 12.2918C14.6319 12.5754 14.758 12.865 14.8903 13.1485L15.434 12.8949C15.3052 12.6187 15.1826 12.3371 15.0557 12.0496L14.5068 12.2918ZM14.9126 13.1882C14.8863 13.1488 14.8766 13.1007 14.8856 13.0543L15.4747 13.1679C15.4956 13.0595 15.473 12.9471 15.4117 12.8552L14.9126 13.1882ZM14.8856 13.0543C14.8945 13.0079 14.9214 12.9667 14.9606 12.9399L15.2998 13.4348C15.391 13.3723 15.4538 13.2763 15.4747 13.1679L14.8856 13.0543ZM14.9293 12.9645C14.8477 13.0381 14.7643 13.1379 14.7257 13.1796L15.1664 13.5869C15.2418 13.5052 15.2758 13.46 15.3311 13.4102L14.9293 12.9645ZM15.0607 13.106C15.0406 13.0977 15.0196 13.0903 15.022 13.0912C15.0222 13.0913 15.0257 13.0926 15.0306 13.0946C15.0352 13.0966 15.0453 13.101 15.0578 13.108C15.0812 13.1211 15.1387 13.1575 15.1763 13.2327L14.6394 13.5007C14.6781 13.5782 14.7377 13.6164 14.7644 13.6313C14.7889 13.6451 14.8115 13.6531 14.8139 13.654C14.8283 13.6593 14.8253 13.6579 14.8313 13.6605L15.0607 13.106ZM15.1785 13.2373C15.0654 13.0006 14.8823 12.8827 14.7109 12.815C14.6303 12.7831 14.5487 12.7609 14.4828 12.7432C14.4116 12.7242 14.3583 12.7103 14.3084 12.6926L14.1081 13.2582C14.1856 13.2857 14.2659 13.3063 14.3276 13.3228C14.3947 13.3408 14.4456 13.3553 14.4903 13.373C14.5696 13.4043 14.6089 13.4369 14.6372 13.496L15.1785 13.2373ZM14.2388 12.677C14.1826 12.6712 14.1258 12.6772 14.072 12.6944L14.2551 13.2658C14.2301 13.2738 14.2038 13.2765 14.1777 13.2739L14.2388 12.677ZM14.072 12.6944C14.0183 12.7116 13.9686 12.7398 13.9263 12.7771L14.3226 13.2275C14.303 13.2448 14.28 13.2578 14.2551 13.2658L14.072 12.6944ZM13.9396 12.766C13.141 13.3908 12.3443 14.0173 11.5495 14.6455L11.9215 15.1162C12.7155 14.4886 13.5115 13.8627 14.3093 13.2386L13.9396 12.766ZM11.5281 14.6641C11.44 14.7483 11.3842 14.8607 11.3702 14.9816L11.9662 15.0507C11.9641 15.0685 11.9559 15.0851 11.9429 15.0976L11.5281 14.6641ZM11.3708 14.9771C11.3233 15.3376 11.2799 15.6987 11.2405 16.0603L11.837 16.1253C11.8759 15.7681 11.9188 15.4114 11.9656 15.0553L11.3708 14.9771ZM11.2388 16.0904C11.2378 16.2102 11.28 16.3263 11.3577 16.4175L11.8145 16.0285C11.8304 16.0472 11.839 16.0709 11.8388 16.0952L11.2388 16.0904ZM11.3537 16.4127C11.3857 16.452 11.4201 16.4849 11.4461 16.5089C11.4592 16.5211 11.4728 16.5332 11.4834 16.5428C11.4949 16.5531 11.504 16.5614 11.5122 16.5692C11.5203 16.5768 11.5259 16.5826 11.53 16.5869C11.5341 16.5913 11.5354 16.5931 11.535 16.5926C11.5348 16.5924 11.5224 16.5758 11.5162 16.5449L12.1042 16.4255C12.0736 16.2748 11.9683 16.1748 11.9247 16.1335C11.9039 16.1138 11.8639 16.0781 11.8531 16.0681C11.8332 16.0498 11.8235 16.0395 11.8185 16.0333L11.3537 16.4127ZM11.5162 16.5449C11.5098 16.5135 11.5147 16.4918 11.5157 16.488C11.5163 16.4853 11.5152 16.4907 11.5063 16.5092C11.4966 16.5292 11.4868 16.5467 11.4693 16.5796C11.4545 16.6076 11.4342 16.6467 11.4172 16.6894L11.9751 16.9104C11.9789 16.9006 11.9858 16.8864 11.9993 16.8609C12.0103 16.8402 12.0301 16.804 12.0462 16.7708C12.0746 16.7123 12.1355 16.5799 12.1042 16.4255L11.5162 16.5449ZM11.419 16.6851C11.275 17.0325 11.1307 17.3797 10.9859 17.7268L11.5397 17.9577C11.6846 17.6103 11.8291 17.2626 11.9733 16.9148L11.419 16.6851ZM11.2628 18.1423H14.6507V17.5423H11.2628V18.1423ZM14.8873 18.0268L14.9443 17.9537L14.4712 17.5847L14.4141 17.6578L14.8873 18.0268ZM14.4148 17.8341C14.4201 17.8577 14.4242 17.8773 14.4289 17.901L15.0173 17.7835C15.0118 17.7558 15.0068 17.7321 15.0006 17.7042L14.4148 17.8341ZM14.7231 18.1423H21.1414V17.5423H14.7231V18.1423ZM21.4178 17.959L21.4554 17.8699L20.9027 17.6365L20.865 17.7256L21.4178 17.959ZM21.4552 17.8704L21.6616 17.3844L21.1093 17.1499L20.9029 17.6359L21.4552 17.8704ZM20.3785 10.8053C20.3841 10.7758 20.3966 10.748 20.415 10.7243L20.8891 11.092C20.929 11.0406 20.956 10.9805 20.9681 10.9167L20.3785 10.8053ZM20.415 10.7243C20.4334 10.7005 20.4573 10.6814 20.4846 10.6686L20.7388 11.2122C20.7977 11.1846 20.8493 11.1434 20.8891 11.092L20.415 10.7243ZM20.5109 10.6578C20.226 10.7595 19.9455 10.8583 19.6616 10.9479L19.8422 11.5201C20.1376 11.4269 20.4273 11.3247 20.7125 11.223L20.5109 10.6578ZM19.6621 10.9477C19.6278 10.9585 19.5788 10.9732 19.5399 10.989C19.4988 11.0058 19.4237 11.0406 19.3645 11.1174C19.3042 11.1958 19.2902 11.2788 19.2851 11.3269C19.2805 11.3718 19.2809 11.4239 19.2809 11.4624H19.8809C19.8809 11.4389 19.8809 11.4224 19.8811 11.4086C19.8813 11.4021 19.8814 11.3973 19.8816 11.3938C19.8818 11.3903 19.8819 11.3888 19.8819 11.3889C19.8819 11.389 19.8817 11.3916 19.8808 11.3959C19.88 11.4003 19.8785 11.4073 19.8757 11.416C19.8697 11.4346 19.8589 11.4589 19.84 11.4835C19.8212 11.5078 19.8011 11.5239 19.7863 11.5336C19.773 11.5422 19.7641 11.5456 19.7661 11.5447C19.7681 11.5439 19.774 11.5417 19.7882 11.5371C19.8026 11.5324 19.8183 11.5276 19.8418 11.5202L19.6621 10.9477ZM19.2809 11.4624V13.5352H19.8809V11.4624H19.2809ZM19.5809 13.2352H18.7667V13.8352H19.5809V13.2352ZM19.0667 13.5352V11.258H18.4667V13.5352H19.0667ZM18.8279 10.9643C18.4836 10.8925 18.1463 10.7909 17.8196 10.6606L17.5973 11.2179C17.9563 11.3611 18.3271 11.4728 18.7055 11.5517L18.8279 10.9643ZM17.8296 10.6648C17.8582 10.6774 17.8834 10.6965 17.9032 10.7206L17.4404 11.1024C17.48 11.1504 17.5303 11.1885 17.5873 11.2137L17.8296 10.6648ZM17.9032 10.7206C17.923 10.7446 17.9369 10.7729 17.9439 10.8032L17.359 10.9371C17.3729 10.9978 17.4008 11.0544 17.4404 11.1024L17.9032 10.7206ZM17.9514 10.8655C17.9475 10.6106 17.9514 10.3626 17.9514 10.0848H17.3514C17.3514 10.3496 17.3475 10.6145 17.3515 10.8748L17.9514 10.8655ZM17.5487 10.3667C17.8473 10.4755 18.0717 10.5346 18.2981 10.6451L18.5613 10.1059C18.2985 9.97769 17.9915 9.88946 17.7542 9.80294L17.5487 10.3667ZM18.3197 10.6546C18.703 10.8057 19.1181 10.8574 19.5267 10.805L19.4503 10.2099C19.1421 10.2494 18.8289 10.2104 18.5397 10.0964L18.3197 10.6546ZM19.541 10.8028C19.6889 10.7766 19.8321 10.7287 19.9661 10.6609L19.6951 10.1256C19.6134 10.1669 19.5261 10.1961 19.436 10.2121L19.541 10.8028ZM19.9339 10.6749C20.2068 10.5748 20.4842 10.4725 20.7775 10.3639L20.5691 9.80119C20.2763 9.90964 19.9995 10.0118 19.7273 10.1116L19.9339 10.6749ZM20.3733 10.0825C20.3733 10.0831 20.3733 10.0836 20.3733 10.0841C20.3733 10.0846 20.3733 10.0852 20.3733 10.0857C20.3733 10.0862 20.3733 10.0867 20.3733 10.0873C20.3733 10.0878 20.3733 10.0883 20.3733 10.0889C20.3733 10.0894 20.3733 10.0899 20.3733 10.0904C20.3733 10.091 20.3733 10.0915 20.3733 10.092C20.3733 10.0925 20.3733 10.0931 20.3733 10.0936C20.3733 10.0941 20.3733 10.0946 20.3733 10.0952C20.3733 10.0957 20.3733 10.0962 20.3733 10.0968C20.3733 10.0973 20.3733 10.0978 20.3733 10.0983C20.3733 10.0989 20.3733 10.0994 20.3733 10.0999C20.3733 10.1004 20.3733 10.101 20.3733 10.1015C20.3733 10.102 20.3733 10.1025 20.3733 10.1031C20.3733 10.1036 20.3733 10.1041 20.3733 10.1046C20.3733 10.1052 20.3733 10.1057 20.3733 10.1062C20.3733 10.1068 20.3733 10.1073 20.3733 10.1078C20.3733 10.1083 20.3733 10.1089 20.3733 10.1094C20.3733 10.1099 20.3733 10.1104 20.3733 10.111C20.3733 10.1115 20.3733 10.112 20.3733 10.1125C20.3733 10.1131 20.3733 10.1136 20.3733 10.1141C20.3733 10.1146 20.3733 10.1152 20.3733 10.1157C20.3733 10.1162 20.3733 10.1167 20.3733 10.1173C20.3733 10.1178 20.3733 10.1183 20.3733 10.1188C20.3733 10.1194 20.3733 10.1199 20.3733 10.1204C20.3733 10.1209 20.3733 10.1215 20.3733 10.122C20.3733 10.1225 20.3733 10.123 20.3733 10.1236C20.3733 10.1241 20.3733 10.1246 20.3733 10.1251C20.3733 10.1257 20.3733 10.1262 20.3733 10.1267C20.3733 10.1272 20.3733 10.1278 20.3733 10.1283C20.3733 10.1288 20.3733 10.1293 20.3733 10.1298C20.3733 10.1304 20.3733 10.1309 20.3733 10.1314C20.3733 10.1319 20.3733 10.1325 20.3733 10.133C20.3733 10.1335 20.3733 10.134 20.3733 10.1346C20.3733 10.1351 20.3733 10.1356 20.3733 10.1361C20.3733 10.1367 20.3733 10.1372 20.3733 10.1377C20.3733 10.1382 20.3733 10.1388 20.3733 10.1393C20.3733 10.1398 20.3733 10.1403 20.3733 10.1408C20.3733 10.1414 20.3733 10.1419 20.3733 10.1424C20.3733 10.1429 20.3733 10.1435 20.3733 10.144C20.3733 10.1445 20.3733 10.145 20.3733 10.1456C20.3733 10.1461 20.3733 10.1466 20.3733 10.1471C20.3733 10.1476 20.3733 10.1482 20.3733 10.1487C20.3733 10.1492 20.3733 10.1497 20.3733 10.1503C20.3733 10.1508 20.3733 10.1513 20.3733 10.1518C20.3733 10.1524 20.3733 10.1529 20.3733 10.1534C20.3733 10.1539 20.3733 10.1544 20.3733 10.155C20.3733 10.1555 20.3733 10.156 20.3733 10.1565C20.3733 10.1571 20.3733 10.1576 20.3733 10.1581C20.3733 10.1586 20.3733 10.1591 20.3733 10.1597C20.3733 10.1602 20.3733 10.1607 20.3733 10.1612C20.3733 10.1617 20.3733 10.1623 20.3733 10.1628C20.3733 10.1633 20.3733 10.1638 20.3733 10.1644C20.3733 10.1649 20.3733 10.1654 20.3733 10.1659C20.3733 10.1664 20.3733 10.167 20.3733 10.1675C20.3733 10.168 20.3733 10.1685 20.3733 10.1691C20.3733 10.1696 20.3733 10.1701 20.3733 10.1706C20.3733 10.1711 20.3733 10.1717 20.3733 10.1722C20.3733 10.1727 20.3733 10.1732 20.3733 10.1737C20.3733 10.1743 20.3733 10.1748 20.3733 10.1753C20.3733 10.1758 20.3733 10.1763 20.3733 10.1769C20.3733 10.1774 20.3733 10.1779 20.3733 10.1784C20.3733 10.1789 20.3733 10.1795 20.3733 10.18C20.3733 10.1805 20.3733 10.181 20.3733 10.1816C20.3733 10.1821 20.3733 10.1826 20.3733 10.1831C20.3733 10.1836 20.3733 10.1842 20.3733 10.1847C20.3733 10.1852 20.3733 10.1857 20.3733 10.1862C20.3733 10.1868 20.3733 10.1873 20.3733 10.1878C20.3733 10.1883 20.3733 10.1888 20.3733 10.1894C20.3733 10.1899 20.3733 10.1904 20.3733 10.1909C20.3733 10.1914 20.3733 10.192 20.3733 10.1925C20.3733 10.193 20.3733 10.1935 20.3733 10.194C20.3733 10.1946 20.3733 10.1951 20.3733 10.1956C20.3733 10.1961 20.3733 10.1966 20.3733 10.1971C20.3733 10.1977 20.3733 10.1982 20.3733 10.1987C20.3733 10.1992 20.3733 10.1997 20.3733 10.2003C20.3733 10.2008 20.3733 10.2013 20.3733 10.2018C20.3733 10.2023 20.3733 10.2029 20.3733 10.2034C20.3733 10.2039 20.3733 10.2044 20.3733 10.2049C20.3733 10.2055 20.3733 10.206 20.3733 10.2065C20.3733 10.207 20.3733 10.2075 20.3733 10.208C20.3733 10.2086 20.3733 10.2091 20.3733 10.2096C20.3733 10.2101 20.3733 10.2106 20.3733 10.2112C20.3733 10.2117 20.3733 10.2122 20.3733 10.2127C20.3733 10.2132 20.3733 10.2138 20.3733 10.2143C20.3733 10.2148 20.3733 10.2153 20.3733 10.2158C20.3733 10.2163 20.3733 10.2169 20.3733 10.2174C20.3733 10.2179 20.3733 10.2184 20.3733 10.2189C20.3733 10.2195 20.3733 10.22 20.3733 10.2205C20.3733 10.221 20.3733 10.2215 20.3733 10.222C20.3733 10.2226 20.3733 10.2231 20.3733 10.2236C20.3733 10.2241 20.3733 10.2246 20.3733 10.2251C20.3733 10.2257 20.3733 10.2262 20.3733 10.2267C20.3733 10.2272 20.3733 10.2277 20.3733 10.2283C20.3733 10.2288 20.3733 10.2293 20.3733 10.2298C20.3733 10.2303 20.3733 10.2308 20.3733 10.2314C20.3733 10.2319 20.3733 10.2324 20.3733 10.2329C20.3733 10.2334 20.3733 10.2339 20.3733 10.2345C20.3733 10.235 20.3733 10.2355 20.3733 10.236C20.3733 10.2365 20.3733 10.237 20.3733 10.2376C20.3733 10.2381 20.3733 10.2386 20.3733 10.2391C20.3733 10.2396 20.3733 10.2401 20.3733 10.2407C20.3733 10.2412 20.3733 10.2417 20.3733 10.2422C20.3733 10.2427 20.3733 10.2432 20.3733 10.2438C20.3733 10.2443 20.3733 10.2448 20.3733 10.2453C20.3733 10.2458 20.3733 10.2463 20.3733 10.2469C20.3733 10.2474 20.3733 10.2479 20.3733 10.2484C20.3733 10.2489 20.3733 10.2494 20.3733 10.2499C20.3733 10.2505 20.3733 10.251 20.3733 10.2515C20.3733 10.252 20.3733 10.2525 20.3733 10.253C20.3733 10.2536 20.3733 10.2541 20.3733 10.2546C20.3733 10.2551 20.3733 10.2556 20.3733 10.2561C20.3733 10.2567 20.3733 10.2572 20.3733 10.2577C20.3733 10.2582 20.3733 10.2587 20.3733 10.2592C20.3733 10.2597 20.3733 10.2603 20.3733 10.2608C20.3733 10.2613 20.3733 10.2618 20.3733 10.2623C20.3733 10.2628 20.3733 10.2634 20.3733 10.2639C20.3733 10.2644 20.3733 10.2649 20.3733 10.2654C20.3733 10.2659 20.3733 10.2664 20.3733 10.267C20.3733 10.2675 20.3733 10.268 20.3733 10.2685C20.3733 10.269 20.3733 10.2695 20.3733 10.27C20.3733 10.2706 20.3733 10.2711 20.3733 10.2716C20.3733 10.2721 20.3733 10.2726 20.3733 10.2731C20.3733 10.2737 20.3733 10.2742 20.3733 10.2747C20.3733 10.2752 20.3733 10.2757 20.3733 10.2762C20.3733 10.2767 20.3733 10.2773 20.3733 10.2778C20.3733 10.2783 20.3733 10.2788 20.3733 10.2793C20.3733 10.2798 20.3733 10.2803 20.3733 10.2809C20.3733 10.2814 20.3733 10.2819 20.3733 10.2824C20.3733 10.2829 20.3733 10.2834 20.3733 10.2839C20.3733 10.2844 20.3733 10.285 20.3733 10.2855C20.3733 10.286 20.3733 10.2865 20.3733 10.287C20.3733 10.2875 20.3733 10.288 20.3733 10.2886C20.3733 10.2891 20.3733 10.2896 20.3733 10.2901C20.3733 10.2906 20.3733 10.2911 20.3733 10.2916C20.3733 10.2922 20.3733 10.2927 20.3733 10.2932C20.3733 10.2937 20.3733 10.2942 20.3733 10.2947C20.3733 10.2952 20.3733 10.2957 20.3733 10.2963C20.3733 10.2968 20.3733 10.2973 20.3733 10.2978C20.3733 10.2983 20.3733 10.2988 20.3733 10.2993C20.3733 10.2999 20.3733 10.3004 20.3733 10.3009C20.3733 10.3014 20.3733 10.3019 20.3733 10.3024C20.3733 10.3029 20.3733 10.3034 20.3733 10.304C20.3733 10.3045 20.3733 10.305 20.3733 10.3055C20.3733 10.306 20.3733 10.3065 20.3733 10.307C20.3733 10.3075 20.3733 10.3081 20.3733 10.3086C20.3733 10.3091 20.3733 10.3096 20.3733 10.3101C20.3733 10.3106 20.3733 10.3111 20.3733 10.3116C20.3733 10.3122 20.3733 10.3127 20.3733 10.3132C20.3733 10.3137 20.3733 10.3142 20.3733 10.3147C20.3733 10.3152 20.3733 10.3157 20.3733 10.3163C20.3733 10.3168 20.3733 10.3173 20.3733 10.3178C20.3733 10.3183 20.3733 10.3188 20.3733 10.3193C20.3733 10.3198 20.3733 10.3203 20.3733 10.3209C20.3733 10.3214 20.3733 10.3219 20.3733 10.3224C20.3733 10.3229 20.3733 10.3234 20.3733 10.3239C20.3733 10.3244 20.3733 10.325 20.3733 10.3255C20.3733 10.326 20.3733 10.3265 20.3733 10.327C20.3733 10.3275 20.3733 10.328 20.3733 10.3285C20.3733 10.329 20.3733 10.3296 20.3733 10.3301C20.3733 10.3306 20.3733 10.3311 20.3733 10.3316C20.3733 10.3321 20.3733 10.3326 20.3733 10.3331C20.3733 10.3336 20.3733 10.3342 20.3733 10.3347C20.3733 10.3352 20.3733 10.3357 20.3733 10.3362C20.3733 10.3367 20.3733 10.3372 20.3733 10.3377C20.3733 10.3382 20.3733 10.3388 20.3733 10.3393C20.3733 10.3398 20.3733 10.3403 20.3733 10.3408C20.3733 10.3413 20.3733 10.3418 20.3733 10.3423C20.3733 10.3428 20.3733 10.3433 20.3733 10.3439C20.3733 10.3444 20.3733 10.3449 20.3733 10.3454C20.3733 10.3459 20.3733 10.3464 20.3733 10.3469C20.3733 10.3474 20.3733 10.3479 20.3733 10.3485C20.3733 10.349 20.3733 10.3495 20.3733 10.35C20.3733 10.3505 20.3733 10.351 20.3733 10.3515C20.3733 10.352 20.3733 10.3525 20.3733 10.353C20.3733 10.3536 20.3733 10.3541 20.3733 10.3546C20.3733 10.3551 20.3733 10.3556 20.3733 10.3561C20.3733 10.3566 20.3733 10.3571 20.3733 10.3576C20.3733 10.3581 20.3733 10.3587 20.3733 10.3592C20.3733 10.3597 20.3733 10.3602 20.3733 10.3607C20.3733 10.3612 20.3733 10.3617 20.3733 10.3622C20.3733 10.3627 20.3733 10.3632 20.3733 10.3637C20.3733 10.3643 20.3733 10.3648 20.3733 10.3653C20.3733 10.3658 20.3733 10.3663 20.3733 10.3668C20.3733 10.3673 20.3733 10.3678 20.3733 10.3683C20.3733 10.3688 20.3733 10.3694 20.3733 10.3699C20.3733 10.3704 20.3733 10.3709 20.3733 10.3714C20.3733 10.3719 20.3733 10.3724 20.3733 10.3729C20.3733 10.3734 20.3733 10.3739 20.3733 10.3744C20.3733 10.375 20.3733 10.3755 20.3733 10.376C20.3733 10.3765 20.3733 10.377 20.3733 10.3775C20.3733 10.378 20.3733 10.3785 20.3733 10.379C20.3733 10.3795 20.3733 10.38 20.3733 10.3805C20.3733 10.3811 20.3733 10.3816 20.3733 10.3821C20.3733 10.3826 20.3733 10.3831 20.3733 10.3836C20.3733 10.3841 20.3733 10.3846 20.3733 10.3851C20.3733 10.3856 20.3733 10.3861 20.3733 10.3866C20.3733 10.3872 20.3733 10.3877 20.3733 10.3882C20.3733 10.3887 20.3733 10.3892 20.3733 10.3897C20.3733 10.3902 20.3733 10.3907 20.3733 10.3912C20.3733 10.3917 20.3733 10.3922 20.3733 10.3927C20.3733 10.3933 20.3733 10.3938 20.3733 10.3943C20.3733 10.3948 20.3733 10.3953 20.3733 10.3958C20.3733 10.3963 20.3733 10.3968 20.3733 10.3973C20.3733 10.3978 20.3733 10.3983 20.3733 10.3988C20.3733 10.3993 20.3733 10.3999 20.3733 10.4004C20.3733 10.4009 20.3733 10.4014 20.3733 10.4019C20.3733 10.4024 20.3733 10.4029 20.3733 10.4034C20.3733 10.4039 20.3733 10.4044 20.3733 10.4049C20.3733 10.4054 20.3733 10.4059 20.3733 10.4065C20.3733 10.407 20.3733 10.4075 20.3733 10.408C20.3733 10.4085 20.3733 10.409 20.3733 10.4095C20.3733 10.41 20.3733 10.4105 20.3733 10.411C20.3733 10.4115 20.3733 10.412 20.3733 10.4125C20.3733 10.413 20.3733 10.4136 20.3733 10.4141C20.3733 10.4146 20.3733 10.4151 20.3733 10.4156C20.3733 10.4161 20.3733 10.4166 20.3733 10.4171C20.3733 10.4176 20.3733 10.4181 20.3733 10.4186C20.3733 10.4191 20.3733 10.4196 20.3733 10.4201C20.3733 10.4207 20.3733 10.4212 20.3733 10.4217C20.3733 10.4222 20.3733 10.4227 20.3733 10.4232C20.3733 10.4237 20.3733 10.4242 20.3733 10.4247C20.3733 10.4252 20.3733 10.4257 20.3733 10.4262C20.3733 10.4267 20.3733 10.4272 20.3733 10.4277C20.3733 10.4282 20.3733 10.4288 20.3733 10.4293C20.3733 10.4298 20.3733 10.4303 20.3733 10.4308C20.3733 10.4313 20.3733 10.4318 20.3733 10.4323C20.3733 10.4328 20.3733 10.4333 20.3733 10.4338C20.3733 10.4343 20.3733 10.4348 20.3733 10.4353C20.3733 10.4358 20.3733 10.4363 20.3733 10.4369C20.3733 10.4374 20.3733 10.4379 20.3733 10.4384C20.3733 10.4389 20.3733 10.4394 20.3733 10.4399C20.3733 10.4404 20.3733 10.4409 20.3733 10.4414C20.3733 10.4419 20.3733 10.4424 20.3733 10.4429C20.3733 10.4434 20.3733 10.4439 20.3733 10.4444C20.3733 10.4449 20.3733 10.4455 20.3733 10.446C20.3733 10.4465 20.3733 10.447 20.3733 10.4475C20.3733 10.448 20.3733 10.4485 20.3733 10.449C20.3733 10.4495 20.3733 10.45 20.3733 10.4505C20.3733 10.451 20.3733 10.4515 20.3733 10.452C20.3733 10.4525 20.3733 10.453 20.3733 10.4535C20.3733 10.454 20.3733 10.4545 20.3733 10.4551C20.3733 10.4556 20.3733 10.4561 20.3733 10.4566C20.3733 10.4571 20.3733 10.4576 20.3733 10.4581C20.3733 10.4586 20.3733 10.4591 20.3733 10.4596C20.3733 10.4601 20.3733 10.4606 20.3733 10.4611C20.3733 10.4616 20.3733 10.4621 20.3733 10.4626C20.3733 10.4631 20.3733 10.4636 20.3733 10.4641C20.3733 10.4646 20.3733 10.4652 20.3733 10.4657C20.3733 10.4662 20.3733 10.4667 20.3733 10.4672C20.3733 10.4677 20.3733 10.4682 20.3733 10.4687C20.3733 10.4692 20.3733 10.4697 20.3733 10.4702C20.3733 10.4707 20.3733 10.4712 20.3733 10.4717C20.3733 10.4722 20.3733 10.4727 20.3733 10.4732C20.3733 10.4737 20.3733 10.4742 20.3733 10.4747C20.3733 10.4752 20.3733 10.4757 20.3733 10.4763C20.3733 10.4768 20.3733 10.4773 20.3733 10.4778C20.3733 10.4783 20.3733 10.4788 20.3733 10.4793C20.3733 10.4798 20.3733 10.4803 20.3733 10.4808C20.3733 10.4813 20.3733 10.4818 20.3733 10.4823C20.3733 10.4828 20.3733 10.4833 20.3733 10.4838C20.3733 10.4843 20.3733 10.4848 20.3733 10.4853C20.3733 10.4858 20.3733 10.4863 20.3733 10.4868C20.3733 10.4873 20.3733 10.4878 20.3733 10.4883C20.3733 10.4889 20.3733 10.4894 20.3733 10.4899C20.3733 10.4904 20.3733 10.4909 20.3733 10.4914C20.3733 10.4919 20.3733 10.4924 20.3733 10.4929C20.3733 10.4934 20.3733 10.4939 20.3733 10.4944C20.3733 10.4949 20.3733 10.4954 20.3733 10.4959C20.3733 10.4964 20.3733 10.4969 20.3733 10.4974C20.3733 10.4979 20.3733 10.4984 20.3733 10.4989C20.3733 10.4994 20.3733 10.4999 20.3733 10.5004C20.3733 10.5009 20.3733 10.5014 20.3733 10.5019C20.3733 10.5024 20.3733 10.503 20.3733 10.5035C20.3733 10.504 20.3733 10.5045 20.3733 10.505C20.3733 10.5055 20.3733 10.506 20.3733 10.5065C20.3733 10.507 20.3733 10.5075 20.3733 10.508C20.3733 10.5085 20.3733 10.509 20.3733 10.5095C20.3733 10.51 20.3733 10.5105 20.3733 10.511C20.3733 10.5115 20.3733 10.512 20.3733 10.5125C20.3733 10.513 20.3733 10.5135 20.3733 10.514C20.3733 10.5145 20.3733 10.515 20.3733 10.5155C20.3733 10.516 20.3733 10.5165 20.3733 10.517C20.3733 10.5175 20.3733 10.518 20.3733 10.5185C20.3733 10.519 20.3733 10.5195 20.3733 10.5201C20.3733 10.5206 20.3733 10.5211 20.3733 10.5216C20.3733 10.5221 20.3733 10.5226 20.3733 10.5231C20.3733 10.5236 20.3733 10.5241 20.3733 10.5246C20.3733 10.5251 20.3733 10.5256 20.3733 10.5261C20.3733 10.5266 20.3733 10.5271 20.3733 10.5276C20.3733 10.5281 20.3733 10.5286 20.3733 10.5291C20.3733 10.5296 20.3733 10.5301 20.3733 10.5306C20.3733 10.5311 20.3733 10.5316 20.3733 10.5321C20.3733 10.5326 20.3733 10.5331 20.3733 10.5336C20.3733 10.5341 20.3733 10.5346 20.3733 10.5351C20.3733 10.5356 20.3733 10.5361 20.3733 10.5366C20.3733 10.5371 20.3733 10.5376 20.3733 10.5381C20.3733 10.5386 20.3733 10.5391 20.3733 10.5396C20.3733 10.5401 20.3733 10.5406 20.3733 10.5411C20.3733 10.5416 20.3733 10.5421 20.3733 10.5426C20.3733 10.5432 20.3733 10.5437 20.3733 10.5442C20.3733 10.5447 20.3733 10.5452 20.3733 10.5457C20.3733 10.5462 20.3733 10.5467 20.3733 10.5472C20.3733 10.5477 20.3733 10.5482 20.3733 10.5487C20.3733 10.5492 20.3733 10.5497 20.3733 10.5502C20.3733 10.5507 20.3733 10.5512 20.3733 10.5517C20.3733 10.5522 20.3733 10.5527 20.3733 10.5532C20.3733 10.5537 20.3733 10.5542 20.3733 10.5547C20.3733 10.5552 20.3733 10.5557 20.3733 10.5562C20.3733 10.5567 20.3733 10.5572 20.3733 10.5577C20.3733 10.5582 20.3733 10.5587 20.3733 10.5592C20.3733 10.5597 20.3733 10.5602 20.3733 10.5607C20.3733 10.5612 20.3733 10.5617 20.3733 10.5622C20.3733 10.5627 20.3733 10.5632 20.3733 10.5637C20.3733 10.5642 20.3733 10.5647 20.3733 10.5652C20.3733 10.5657 20.3733 10.5662 20.3733 10.5667C20.3733 10.5672 20.3733 10.5677 20.3733 10.5682C20.3733 10.5687 20.3733 10.5692 20.3733 10.5697C20.3733 10.5702 20.3733 10.5707 20.3733 10.5712C20.3733 10.5717 20.3733 10.5722 20.3733 10.5727C20.3733 10.5732 20.3733 10.5737 20.3733 10.5742C20.3733 10.5747 20.3733 10.5752 20.3733 10.5757C20.3733 10.5762 20.3733 10.5767 20.3733 10.5772C20.3733 10.5777 20.3733 10.5782 20.3733 10.5787C20.3733 10.5792 20.3733 10.5797 20.3733 10.5802C20.3733 10.5807 20.3733 10.5812 20.3733 10.5817C20.3733 10.5822 20.3733 10.5827 20.3733 10.5832C20.3733 10.5837 20.3733 10.5842 20.3733 10.5847C20.3733 10.5852 20.3733 10.5857 20.3733 10.5862C20.3733 10.5867 20.3733 10.5872 20.3733 10.5877C20.3733 10.5882 20.3733 10.5887 20.3733 10.5892C20.3733 10.5897 20.3733 10.5903 20.3733 10.5908C20.3733 10.5913 20.3733 10.5918 20.3733 10.5923C20.3733 10.5928 20.3733 10.5933 20.3733 10.5938C20.3733 10.5943 20.3733 10.5948 20.3733 10.5953C20.3733 10.5958 20.3733 10.5963 20.3733 10.5968C20.3733 10.5973 20.3733 10.5978 20.3733 10.5983C20.3733 10.5988 20.3733 10.5993 20.3733 10.5998C20.3733 10.6003 20.3733 10.6008 20.3733 10.6013C20.3733 10.6018 20.3733 10.6023 20.3733 10.6028C20.3733 10.6033 20.3733 10.6038 20.3733 10.6043C20.3733 10.6048 20.3733 10.6053 20.3733 10.6058C20.3733 10.6063 20.3733 10.6068 20.3733 10.6073C20.3733 10.6078 20.3733 10.6083 20.3733 10.6088C20.3733 10.6093 20.3733 10.6098 20.3733 10.6103C20.3733 10.6108 20.3733 10.6113 20.3733 10.6118C20.3733 10.6123 20.3733 10.6128 20.3733 10.6133C20.3733 10.6138 20.3733 10.6143 20.3733 10.6147C20.3733 10.6152 20.3733 10.6157 20.3733 10.6162C20.3733 10.6167 20.3733 10.6172 20.3733 10.6177C20.3733 10.6182 20.3733 10.6187 20.3733 10.6192C20.3733 10.6197 20.3733 10.6202 20.3733 10.6207C20.3733 10.6212 20.3733 10.6217 20.3733 10.6222C20.3733 10.6227 20.3733 10.6232 20.3733 10.6237C20.3733 10.6242 20.3733 10.6247 20.3733 10.6252C20.3733 10.6257 20.3733 10.6262 20.3733 10.6267C20.3733 10.6272 20.3733 10.6277 20.3733 10.6282C20.3733 10.6287 20.3733 10.6292 20.3733 10.6297C20.3733 10.6302 20.3733 10.6307 20.3733 10.6312C20.3733 10.6317 20.3733 10.6322 20.3733 10.6327C20.3733 10.6332 20.3733 10.6337 20.3733 10.6342C20.3733 10.6347 20.3733 10.6352 20.3733 10.6357C20.3733 10.6362 20.3733 10.6367 20.3733 10.6372C20.3733 10.6377 20.3733 10.6382 20.3733 10.6387C20.3733 10.6392 20.3733 10.6397 20.3733 10.6402C20.3733 10.6407 20.3733 10.6412 20.3733 10.6417C20.3733 10.6422 20.3733 10.6427 20.3733 10.6432C20.3733 10.6437 20.3733 10.6442 20.3733 10.6447C20.3733 10.6452 20.3733 10.6457 20.3733 10.6462C20.3733 10.6467 20.3733 10.6472 20.3733 10.6477C20.3733 10.6482 20.3733 10.6487 20.3733 10.6492C20.3733 10.6497 20.3733 10.6502 20.3733 10.6507C20.3733 10.6512 20.3733 10.6517 20.3733 10.6522C20.3733 10.6527 20.3733 10.6532 20.3733 10.6537C20.3733 10.6542 20.3733 10.6547 20.3733 10.6552C20.3733 10.6557 20.3733 10.6562 20.3733 10.6567C20.3733 10.6572 20.3733 10.6577 20.3733 10.6582C20.3733 10.6587 20.3733 10.6592 20.3733 10.6597C20.3733 10.6602 20.3733 10.6607 20.3733 10.6612C20.3733 10.6617 20.3733 10.6622 20.3733 10.6627C20.3733 10.6632 20.3733 10.6637 20.3733 10.6642C20.3733 10.6647 20.3733 10.6652 20.3733 10.6657C20.3733 10.6662 20.3733 10.6666 20.3733 10.6671C20.3733 10.6676 20.3733 10.6681 20.3733 10.6686C20.3733 10.6691 20.3733 10.6696 20.3733 10.6701C20.3733 10.6706 20.3733 10.6711 20.3733 10.6716C20.3733 10.6721 20.3733 10.6726 20.3733 10.6731C20.3733 10.6736 20.3733 10.6741 20.3733 10.6746C20.3733 10.6751 20.3733 10.6756 20.3733 10.6761C20.3733 10.6766 20.3733 10.6771 20.3733 10.6776C20.3733 10.6781 20.3733 10.6786 20.3733 10.6791C20.3733 10.6796 20.3733 10.6801 20.3733 10.6806C20.3733 10.6811 20.3733 10.6816 20.3733 10.6821C20.3733 10.6826 20.3733 10.6831 20.3733 10.6836C20.3733 10.6841 20.3733 10.6846 20.3733 10.6851C20.3733 10.6856 20.3733 10.6861 20.3733 10.6866C20.3733 10.6871 20.3733 10.6876 20.3733 10.6881C20.3733 10.6886 20.3733 10.6891 20.3733 10.6896C20.3733 10.6901 20.3733 10.6906 20.3733 10.6911C20.3733 10.6916 20.3733 10.6921 20.3733 10.6926C20.3733 10.6931 20.3733 10.6935 20.3733 10.694C20.3733 10.6945 20.3733 10.695 20.3733 10.6955C20.3733 10.696 20.3733 10.6965 20.3733 10.697C20.3733 10.6975 20.3733 10.698 20.3733 10.6985C20.3733 10.699 20.3733 10.6995 20.3733 10.7C20.3733 10.7005 20.3733 10.701 20.3733 10.7015C20.3733 10.702 20.3733 10.7025 20.3733 10.703C20.3733 10.7035 20.3733 10.704 20.3733 10.7045C20.3733 10.705 20.3733 10.7055 20.3733 10.706C20.3733 10.7065 20.3733 10.707 20.3733 10.7075C20.3733 10.708 20.3733 10.7085 20.3733 10.709C20.3733 10.7095 20.3733 10.71 20.3733 10.7105C20.3733 10.711 20.3733 10.7115 20.3733 10.712C20.3733 10.7125 20.3733 10.713 20.3733 10.7135C20.3733 10.714 20.3733 10.7145 20.3733 10.715C20.3733 10.7155 20.3733 10.7159 20.3733 10.7164C20.3733 10.7169 20.3733 10.7174 20.3733 10.7179C20.3733 10.7184 20.3733 10.7189 20.3733 10.7194C20.3733 10.7199 20.3733 10.7204 20.3733 10.7209C20.3733 10.7214 20.3733 10.7219 20.3733 10.7224C20.3733 10.7229 20.3733 10.7234 20.3733 10.7239C20.3733 10.7244 20.3733 10.7249 20.3733 10.7254C20.3733 10.7259 20.3733 10.7264 20.3733 10.7269C20.3733 10.7274 20.3733 10.7279 20.3733 10.7284C20.3733 10.7289 20.3733 10.7294 20.3733 10.7299C20.3733 10.7304 20.3733 10.7309 20.3733 10.7314C20.3733 10.7319 20.3733 10.7324 20.3733 10.7329C20.3733 10.7334 20.3733 10.7339 20.3733 10.7344C20.3733 10.7348 20.3733 10.7353 20.3733 10.7358C20.3733 10.7363 20.3733 10.7368 20.3733 10.7373C20.3733 10.7378 20.3733 10.7383 20.3733 10.7388C20.3733 10.7393 20.3733 10.7398 20.3733 10.7403C20.3733 10.7408 20.3733 10.7413 20.3733 10.7418C20.3733 10.7423 20.3733 10.7428 20.3733 10.7433C20.3733 10.7438 20.3733 10.7443 20.3733 10.7448C20.3733 10.7453 20.3733 10.7458 20.3733 10.7463C20.3733 10.7468 20.3733 10.7473 20.3733 10.7478C20.3733 10.7483 20.3733 10.7488 20.3733 10.7493C20.3733 10.7498 20.3733 10.7503 20.3733 10.7508C20.3733 10.7513 20.3733 10.7518 20.3733 10.7522C20.3733 10.7527 20.3733 10.7532 20.3733 10.7537C20.3733 10.7542 20.3733 10.7547 20.3733 10.7552C20.3733 10.7557 20.3733 10.7562 20.3733 10.7567C20.3733 10.7572 20.3733 10.7577 20.3733 10.7582C20.3733 10.7587 20.3733 10.7592 20.3733 10.7597C20.3733 10.7602 20.3733 10.7607 20.3733 10.7612C20.3733 10.7617 20.3733 10.7622 20.3733 10.7627C20.3733 10.7632 20.3733 10.7637 20.3733 10.7642C20.3733 10.7647 20.3733 10.7652 20.3733 10.7657C20.3733 10.7662 20.3733 10.7667 20.3733 10.7672C20.3733 10.7677 20.3733 10.7682 20.3733 10.7686C20.3733 10.7691 20.3733 10.7696 20.3733 10.7701C20.3733 10.7706 20.3733 10.7711 20.3733 10.7716C20.3733 10.7721 20.3733 10.7726 20.3733 10.7731C20.3733 10.7736 20.3733 10.7741 20.3733 10.7746C20.3733 10.7751 20.3733 10.7756 20.3733 10.7761C20.3733 10.7766 20.3733 10.7771 20.3733 10.7776C20.3733 10.7781 20.3733 10.7786 20.3733 10.7791C20.3733 10.7796 20.3733 10.7801 20.3733 10.7806C20.3733 10.7811 20.3733 10.7816 20.3733 10.7821C20.3733 10.7826 20.3733 10.7831 20.3733 10.7836C20.3733 10.7841 20.3733 10.7845 20.3733 10.785C20.3733 10.7855 20.3733 10.786 20.3733 10.7865C20.3733 10.787 20.3733 10.7875 20.3733 10.788C20.3733 10.7885 20.3733 10.789 20.3733 10.7895C20.3733 10.79 20.3733 10.7905 20.3733 10.791C20.3733 10.7915 20.3733 10.792 20.3733 10.7925C20.3733 10.793 20.3733 10.7935 20.3733 10.794C20.3733 10.7945 20.3733 10.795 20.3733 10.7955C20.3733 10.796 20.3733 10.7965 20.3733 10.797C20.3733 10.7975 20.3733 10.798 20.3733 10.7985C20.3733 10.799 20.3733 10.7994 20.3733 10.7999C20.3733 10.8004 20.3733 10.8009 20.3733 10.8014C20.3733 10.8019 20.3733 10.8024 20.3733 10.8029C20.3733 10.8034 20.3733 10.8039 20.3733 10.8044C20.3733 10.8049 20.3733 10.8054 20.3733 10.8059C20.3733 10.8064 20.3733 10.8069 20.3733 10.8074C20.3733 10.8079 20.3733 10.8084 20.3733 10.8089C20.3733 10.8094 20.3733 10.8099 20.3733 10.8104C20.3733 10.8109 20.3733 10.8114 20.3733 10.8119C20.3733 10.8124 20.3733 10.8129 20.3733 10.8134C20.3733 10.8138 20.3733 10.8143 20.3733 10.8148C20.3733 10.8153 20.3733 10.8158 20.3733 10.8163C20.3733 10.8168 20.3733 10.8173 20.3733 10.8178C20.3733 10.8183 20.3733 10.8188 20.3733 10.8193C20.3733 10.8198 20.3733 10.8203 20.3733 10.8208C20.3733 10.8213 20.3733 10.8218 20.3733 10.8223C20.3733 10.8228 20.3733 10.8233 20.3733 10.8238C20.3733 10.8243 20.3733 10.8248 20.3733 10.8253C20.3733 10.8258 20.3733 10.8263 20.3733 10.8268C20.3733 10.8273 20.3733 10.8278 20.3733 10.8282C20.3733 10.8287 20.3733 10.8292 20.3733 10.8297C20.3733 10.8302 20.3733 10.8307 20.3733 10.8312C20.3733 10.8317 20.3733 10.8322 20.3733 10.8327C20.3733 10.8332 20.3733 10.8337 20.3733 10.8342C20.3733 10.8347 20.3733 10.8352 20.3733 10.8357C20.3733 10.8362 20.3733 10.8367 20.3733 10.8372C20.3733 10.8377 20.3733 10.8382 20.3733 10.8387C20.3733 10.8392 20.3733 10.8397 20.3733 10.8402C20.3733 10.8407 20.3733 10.8412 20.3733 10.8417C20.3733 10.8421 20.3733 10.8426 20.3733 10.8431C20.3733 10.8436 20.3733 10.8441 20.3733 10.8446C20.3733 10.8451 20.3733 10.8456 20.3733 10.8461C20.3733 10.8466 20.3733 10.8471 20.3733 10.8476C20.3733 10.8481 20.3733 10.8486 20.3733 10.8491C20.3733 10.8496 20.3733 10.8501 20.3733 10.8506C20.3733 10.8511 20.3733 10.8516 20.3733 10.8521C20.3733 10.8526 20.3733 10.8531 20.3733 10.8536C20.3733 10.8541 20.3733 10.8546 20.3733 10.8551C20.3733 10.8556 20.3733 10.856 20.3733 10.8565C20.3733 10.857 20.3733 10.8575 20.3733 10.858C20.3733 10.8585 20.3733 10.859 20.3733 10.8595C20.3733 10.86 20.3733 10.8605 20.3733 10.861H20.9733C20.9733 10.8605 20.9733 10.86 20.9733 10.8595C20.9733 10.859 20.9733 10.8585 20.9733 10.858C20.9733 10.8575 20.9733 10.857 20.9733 10.8565C20.9733 10.856 20.9733 10.8556 20.9733 10.8551C20.9733 10.8546 20.9733 10.8541 20.9733 10.8536C20.9733 10.8531 20.9733 10.8526 20.9733 10.8521C20.9733 10.8516 20.9733 10.8511 20.9733 10.8506C20.9733 10.8501 20.9733 10.8496 20.9733 10.8491C20.9733 10.8486 20.9733 10.8481 20.9733 10.8476C20.9733 10.8471 20.9733 10.8466 20.9733 10.8461C20.9733 10.8456 20.9733 10.8451 20.9733 10.8446C20.9733 10.8441 20.9733 10.8436 20.9733 10.8431C20.9733 10.8426 20.9733 10.8421 20.9733 10.8417C20.9733 10.8412 20.9733 10.8407 20.9733 10.8402C20.9733 10.8397 20.9733 10.8392 20.9733 10.8387C20.9733 10.8382 20.9733 10.8377 20.9733 10.8372C20.9733 10.8367 20.9733 10.8362 20.9733 10.8357C20.9733 10.8352 20.9733 10.8347 20.9733 10.8342C20.9733 10.8337 20.9733 10.8332 20.9733 10.8327C20.9733 10.8322 20.9733 10.8317 20.9733 10.8312C20.9733 10.8307 20.9733 10.8302 20.9733 10.8297C20.9733 10.8292 20.9733 10.8287 20.9733 10.8282C20.9733 10.8278 20.9733 10.8273 20.9733 10.8268C20.9733 10.8263 20.9733 10.8258 20.9733 10.8253C20.9733 10.8248 20.9733 10.8243 20.9733 10.8238C20.9733 10.8233 20.9733 10.8228 20.9733 10.8223C20.9733 10.8218 20.9733 10.8213 20.9733 10.8208C20.9733 10.8203 20.9733 10.8198 20.9733 10.8193C20.9733 10.8188 20.9733 10.8183 20.9733 10.8178C20.9733 10.8173 20.9733 10.8168 20.9733 10.8163C20.9733 10.8158 20.9733 10.8153 20.9733 10.8148C20.9733 10.8143 20.9733 10.8138 20.9733 10.8134C20.9733 10.8129 20.9733 10.8124 20.9733 10.8119C20.9733 10.8114 20.9733 10.8109 20.9733 10.8104C20.9733 10.8099 20.9733 10.8094 20.9733 10.8089C20.9733 10.8084 20.9733 10.8079 20.9733 10.8074C20.9733 10.8069 20.9733 10.8064 20.9733 10.8059C20.9733 10.8054 20.9733 10.8049 20.9733 10.8044C20.9733 10.8039 20.9733 10.8034 20.9733 10.8029C20.9733 10.8024 20.9733 10.8019 20.9733 10.8014C20.9733 10.8009 20.9733 10.8004 20.9733 10.7999C20.9733 10.7994 20.9733 10.799 20.9733 10.7985C20.9733 10.798 20.9733 10.7975 20.9733 10.797C20.9733 10.7965 20.9733 10.796 20.9733 10.7955C20.9733 10.795 20.9733 10.7945 20.9733 10.794C20.9733 10.7935 20.9733 10.793 20.9733 10.7925C20.9733 10.792 20.9733 10.7915 20.9733 10.791C20.9733 10.7905 20.9733 10.79 20.9733 10.7895C20.9733 10.789 20.9733 10.7885 20.9733 10.788C20.9733 10.7875 20.9733 10.787 20.9733 10.7865C20.9733 10.786 20.9733 10.7855 20.9733 10.785C20.9733 10.7845 20.9733 10.7841 20.9733 10.7836C20.9733 10.7831 20.9733 10.7826 20.9733 10.7821C20.9733 10.7816 20.9733 10.7811 20.9733 10.7806C20.9733 10.7801 20.9733 10.7796 20.9733 10.7791C20.9733 10.7786 20.9733 10.7781 20.9733 10.7776C20.9733 10.7771 20.9733 10.7766 20.9733 10.7761C20.9733 10.7756 20.9733 10.7751 20.9733 10.7746C20.9733 10.7741 20.9733 10.7736 20.9733 10.7731C20.9733 10.7726 20.9733 10.7721 20.9733 10.7716C20.9733 10.7711 20.9733 10.7706 20.9733 10.7701C20.9733 10.7696 20.9733 10.7691 20.9733 10.7686C20.9733 10.7682 20.9733 10.7677 20.9733 10.7672C20.9733 10.7667 20.9733 10.7662 20.9733 10.7657C20.9733 10.7652 20.9733 10.7647 20.9733 10.7642C20.9733 10.7637 20.9733 10.7632 20.9733 10.7627C20.9733 10.7622 20.9733 10.7617 20.9733 10.7612C20.9733 10.7607 20.9733 10.7602 20.9733 10.7597C20.9733 10.7592 20.9733 10.7587 20.9733 10.7582C20.9733 10.7577 20.9733 10.7572 20.9733 10.7567C20.9733 10.7562 20.9733 10.7557 20.9733 10.7552C20.9733 10.7547 20.9733 10.7542 20.9733 10.7537C20.9733 10.7532 20.9733 10.7527 20.9733 10.7522C20.9733 10.7518 20.9733 10.7513 20.9733 10.7508C20.9733 10.7503 20.9733 10.7498 20.9733 10.7493C20.9733 10.7488 20.9733 10.7483 20.9733 10.7478C20.9733 10.7473 20.9733 10.7468 20.9733 10.7463C20.9733 10.7458 20.9733 10.7453 20.9733 10.7448C20.9733 10.7443 20.9733 10.7438 20.9733 10.7433C20.9733 10.7428 20.9733 10.7423 20.9733 10.7418C20.9733 10.7413 20.9733 10.7408 20.9733 10.7403C20.9733 10.7398 20.9733 10.7393 20.9733 10.7388C20.9733 10.7383 20.9733 10.7378 20.9733 10.7373C20.9733 10.7368 20.9733 10.7363 20.9733 10.7358C20.9733 10.7353 20.9733 10.7348 20.9733 10.7344C20.9733 10.7339 20.9733 10.7334 20.9733 10.7329C20.9733 10.7324 20.9733 10.7319 20.9733 10.7314C20.9733 10.7309 20.9733 10.7304 20.9733 10.7299C20.9733 10.7294 20.9733 10.7289 20.9733 10.7284C20.9733 10.7279 20.9733 10.7274 20.9733 10.7269C20.9733 10.7264 20.9733 10.7259 20.9733 10.7254C20.9733 10.7249 20.9733 10.7244 20.9733 10.7239C20.9733 10.7234 20.9733 10.7229 20.9733 10.7224C20.9733 10.7219 20.9733 10.7214 20.9733 10.7209C20.9733 10.7204 20.9733 10.7199 20.9733 10.7194C20.9733 10.7189 20.9733 10.7184 20.9733 10.7179C20.9733 10.7174 20.9733 10.7169 20.9733 10.7164C20.9733 10.7159 20.9733 10.7155 20.9733 10.715C20.9733 10.7145 20.9733 10.714 20.9733 10.7135C20.9733 10.713 20.9733 10.7125 20.9733 10.712C20.9733 10.7115 20.9733 10.711 20.9733 10.7105C20.9733 10.71 20.9733 10.7095 20.9733 10.709C20.9733 10.7085 20.9733 10.708 20.9733 10.7075C20.9733 10.707 20.9733 10.7065 20.9733 10.706C20.9733 10.7055 20.9733 10.705 20.9733 10.7045C20.9733 10.704 20.9733 10.7035 20.9733 10.703C20.9733 10.7025 20.9733 10.702 20.9733 10.7015C20.9733 10.701 20.9733 10.7005 20.9733 10.7C20.9733 10.6995 20.9733 10.699 20.9733 10.6985C20.9733 10.698 20.9733 10.6975 20.9733 10.697C20.9733 10.6965 20.9733 10.696 20.9733 10.6955C20.9733 10.695 20.9733 10.6945 20.9733 10.694C20.9733 10.6935 20.9733 10.6931 20.9733 10.6926C20.9733 10.6921 20.9733 10.6916 20.9733 10.6911C20.9733 10.6906 20.9733 10.6901 20.9733 10.6896C20.9733 10.6891 20.9733 10.6886 20.9733 10.6881C20.9733 10.6876 20.9733 10.6871 20.9733 10.6866C20.9733 10.6861 20.9733 10.6856 20.9733 10.6851C20.9733 10.6846 20.9733 10.6841 20.9733 10.6836C20.9733 10.6831 20.9733 10.6826 20.9733 10.6821C20.9733 10.6816 20.9733 10.6811 20.9733 10.6806C20.9733 10.6801 20.9733 10.6796 20.9733 10.6791C20.9733 10.6786 20.9733 10.6781 20.9733 10.6776C20.9733 10.6771 20.9733 10.6766 20.9733 10.6761C20.9733 10.6756 20.9733 10.6751 20.9733 10.6746C20.9733 10.6741 20.9733 10.6736 20.9733 10.6731C20.9733 10.6726 20.9733 10.6721 20.9733 10.6716C20.9733 10.6711 20.9733 10.6706 20.9733 10.6701C20.9733 10.6696 20.9733 10.6691 20.9733 10.6686C20.9733 10.6681 20.9733 10.6676 20.9733 10.6671C20.9733 10.6666 20.9733 10.6662 20.9733 10.6657C20.9733 10.6652 20.9733 10.6647 20.9733 10.6642C20.9733 10.6637 20.9733 10.6632 20.9733 10.6627C20.9733 10.6622 20.9733 10.6617 20.9733 10.6612C20.9733 10.6607 20.9733 10.6602 20.9733 10.6597C20.9733 10.6592 20.9733 10.6587 20.9733 10.6582C20.9733 10.6577 20.9733 10.6572 20.9733 10.6567C20.9733 10.6562 20.9733 10.6557 20.9733 10.6552C20.9733 10.6547 20.9733 10.6542 20.9733 10.6537C20.9733 10.6532 20.9733 10.6527 20.9733 10.6522C20.9733 10.6517 20.9733 10.6512 20.9733 10.6507C20.9733 10.6502 20.9733 10.6497 20.9733 10.6492C20.9733 10.6487 20.9733 10.6482 20.9733 10.6477C20.9733 10.6472 20.9733 10.6467 20.9733 10.6462C20.9733 10.6457 20.9733 10.6452 20.9733 10.6447C20.9733 10.6442 20.9733 10.6437 20.9733 10.6432C20.9733 10.6427 20.9733 10.6422 20.9733 10.6417C20.9733 10.6412 20.9733 10.6407 20.9733 10.6402C20.9733 10.6397 20.9733 10.6392 20.9733 10.6387C20.9733 10.6382 20.9733 10.6377 20.9733 10.6372C20.9733 10.6367 20.9733 10.6362 20.9733 10.6357C20.9733 10.6352 20.9733 10.6347 20.9733 10.6342C20.9733 10.6337 20.9733 10.6332 20.9733 10.6327C20.9733 10.6322 20.9733 10.6317 20.9733 10.6312C20.9733 10.6307 20.9733 10.6302 20.9733 10.6297C20.9733 10.6292 20.9733 10.6287 20.9733 10.6282C20.9733 10.6277 20.9733 10.6272 20.9733 10.6267C20.9733 10.6262 20.9733 10.6257 20.9733 10.6252C20.9733 10.6247 20.9733 10.6242 20.9733 10.6237C20.9733 10.6232 20.9733 10.6227 20.9733 10.6222C20.9733 10.6217 20.9733 10.6212 20.9733 10.6207C20.9733 10.6202 20.9733 10.6197 20.9733 10.6192C20.9733 10.6187 20.9733 10.6182 20.9733 10.6177C20.9733 10.6172 20.9733 10.6167 20.9733 10.6162C20.9733 10.6157 20.9733 10.6152 20.9733 10.6147C20.9733 10.6143 20.9733 10.6138 20.9733 10.6133C20.9733 10.6128 20.9733 10.6123 20.9733 10.6118C20.9733 10.6113 20.9733 10.6108 20.9733 10.6103C20.9733 10.6098 20.9733 10.6093 20.9733 10.6088C20.9733 10.6083 20.9733 10.6078 20.9733 10.6073C20.9733 10.6068 20.9733 10.6063 20.9733 10.6058C20.9733 10.6053 20.9733 10.6048 20.9733 10.6043C20.9733 10.6038 20.9733 10.6033 20.9733 10.6028C20.9733 10.6023 20.9733 10.6018 20.9733 10.6013C20.9733 10.6008 20.9733 10.6003 20.9733 10.5998C20.9733 10.5993 20.9733 10.5988 20.9733 10.5983C20.9733 10.5978 20.9733 10.5973 20.9733 10.5968C20.9733 10.5963 20.9733 10.5958 20.9733 10.5953C20.9733 10.5948 20.9733 10.5943 20.9733 10.5938C20.9733 10.5933 20.9733 10.5928 20.9733 10.5923C20.9733 10.5918 20.9733 10.5913 20.9733 10.5908C20.9733 10.5903 20.9733 10.5897 20.9733 10.5892C20.9733 10.5887 20.9733 10.5882 20.9733 10.5877C20.9733 10.5872 20.9733 10.5867 20.9733 10.5862C20.9733 10.5857 20.9733 10.5852 20.9733 10.5847C20.9733 10.5842 20.9733 10.5837 20.9733 10.5832C20.9733 10.5827 20.9733 10.5822 20.9733 10.5817C20.9733 10.5812 20.9733 10.5807 20.9733 10.5802C20.9733 10.5797 20.9733 10.5792 20.9733 10.5787C20.9733 10.5782 20.9733 10.5777 20.9733 10.5772C20.9733 10.5767 20.9733 10.5762 20.9733 10.5757C20.9733 10.5752 20.9733 10.5747 20.9733 10.5742C20.9733 10.5737 20.9733 10.5732 20.9733 10.5727C20.9733 10.5722 20.9733 10.5717 20.9733 10.5712C20.9733 10.5707 20.9733 10.5702 20.9733 10.5697C20.9733 10.5692 20.9733 10.5687 20.9733 10.5682C20.9733 10.5677 20.9733 10.5672 20.9733 10.5667C20.9733 10.5662 20.9733 10.5657 20.9733 10.5652C20.9733 10.5647 20.9733 10.5642 20.9733 10.5637C20.9733 10.5632 20.9733 10.5627 20.9733 10.5622C20.9733 10.5617 20.9733 10.5612 20.9733 10.5607C20.9733 10.5602 20.9733 10.5597 20.9733 10.5592C20.9733 10.5587 20.9733 10.5582 20.9733 10.5577C20.9733 10.5572 20.9733 10.5567 20.9733 10.5562C20.9733 10.5557 20.9733 10.5552 20.9733 10.5547C20.9733 10.5542 20.9733 10.5537 20.9733 10.5532C20.9733 10.5527 20.9733 10.5522 20.9733 10.5517C20.9733 10.5512 20.9733 10.5507 20.9733 10.5502C20.9733 10.5497 20.9733 10.5492 20.9733 10.5487C20.9733 10.5482 20.9733 10.5477 20.9733 10.5472C20.9733 10.5467 20.9733 10.5462 20.9733 10.5457C20.9733 10.5452 20.9733 10.5447 20.9733 10.5442C20.9733 10.5437 20.9733 10.5432 20.9733 10.5426C20.9733 10.5421 20.9733 10.5416 20.9733 10.5411C20.9733 10.5406 20.9733 10.5401 20.9733 10.5396C20.9733 10.5391 20.9733 10.5386 20.9733 10.5381C20.9733 10.5376 20.9733 10.5371 20.9733 10.5366C20.9733 10.5361 20.9733 10.5356 20.9733 10.5351C20.9733 10.5346 20.9733 10.5341 20.9733 10.5336C20.9733 10.5331 20.9733 10.5326 20.9733 10.5321C20.9733 10.5316 20.9733 10.5311 20.9733 10.5306C20.9733 10.5301 20.9733 10.5296 20.9733 10.5291C20.9733 10.5286 20.9733 10.5281 20.9733 10.5276C20.9733 10.5271 20.9733 10.5266 20.9733 10.5261C20.9733 10.5256 20.9733 10.5251 20.9733 10.5246C20.9733 10.5241 20.9733 10.5236 20.9733 10.5231C20.9733 10.5226 20.9733 10.5221 20.9733 10.5216C20.9733 10.5211 20.9733 10.5206 20.9733 10.5201C20.9733 10.5195 20.9733 10.519 20.9733 10.5185C20.9733 10.518 20.9733 10.5175 20.9733 10.517C20.9733 10.5165 20.9733 10.516 20.9733 10.5155C20.9733 10.515 20.9733 10.5145 20.9733 10.514C20.9733 10.5135 20.9733 10.513 20.9733 10.5125C20.9733 10.512 20.9733 10.5115 20.9733 10.511C20.9733 10.5105 20.9733 10.51 20.9733 10.5095C20.9733 10.509 20.9733 10.5085 20.9733 10.508C20.9733 10.5075 20.9733 10.507 20.9733 10.5065C20.9733 10.506 20.9733 10.5055 20.9733 10.505C20.9733 10.5045 20.9733 10.504 20.9733 10.5035C20.9733 10.503 20.9733 10.5024 20.9733 10.5019C20.9733 10.5014 20.9733 10.5009 20.9733 10.5004C20.9733 10.4999 20.9733 10.4994 20.9733 10.4989C20.9733 10.4984 20.9733 10.4979 20.9733 10.4974C20.9733 10.4969 20.9733 10.4964 20.9733 10.4959C20.9733 10.4954 20.9733 10.4949 20.9733 10.4944C20.9733 10.4939 20.9733 10.4934 20.9733 10.4929C20.9733 10.4924 20.9733 10.4919 20.9733 10.4914C20.9733 10.4909 20.9733 10.4904 20.9733 10.4899C20.9733 10.4894 20.9733 10.4889 20.9733 10.4883C20.9733 10.4878 20.9733 10.4873 20.9733 10.4868C20.9733 10.4863 20.9733 10.4858 20.9733 10.4853C20.9733 10.4848 20.9733 10.4843 20.9733 10.4838C20.9733 10.4833 20.9733 10.4828 20.9733 10.4823C20.9733 10.4818 20.9733 10.4813 20.9733 10.4808C20.9733 10.4803 20.9733 10.4798 20.9733 10.4793C20.9733 10.4788 20.9733 10.4783 20.9733 10.4778C20.9733 10.4773 20.9733 10.4768 20.9733 10.4763C20.9733 10.4757 20.9733 10.4752 20.9733 10.4747C20.9733 10.4742 20.9733 10.4737 20.9733 10.4732C20.9733 10.4727 20.9733 10.4722 20.9733 10.4717C20.9733 10.4712 20.9733 10.4707 20.9733 10.4702C20.9733 10.4697 20.9733 10.4692 20.9733 10.4687C20.9733 10.4682 20.9733 10.4677 20.9733 10.4672C20.9733 10.4667 20.9733 10.4662 20.9733 10.4657C20.9733 10.4652 20.9733 10.4646 20.9733 10.4641C20.9733 10.4636 20.9733 10.4631 20.9733 10.4626C20.9733 10.4621 20.9733 10.4616 20.9733 10.4611C20.9733 10.4606 20.9733 10.4601 20.9733 10.4596C20.9733 10.4591 20.9733 10.4586 20.9733 10.4581C20.9733 10.4576 20.9733 10.4571 20.9733 10.4566C20.9733 10.4561 20.9733 10.4556 20.9733 10.4551C20.9733 10.4545 20.9733 10.454 20.9733 10.4535C20.9733 10.453 20.9733 10.4525 20.9733 10.452C20.9733 10.4515 20.9733 10.451 20.9733 10.4505C20.9733 10.45 20.9733 10.4495 20.9733 10.449C20.9733 10.4485 20.9733 10.448 20.9733 10.4475C20.9733 10.447 20.9733 10.4465 20.9733 10.446C20.9733 10.4455 20.9733 10.4449 20.9733 10.4444C20.9733 10.4439 20.9733 10.4434 20.9733 10.4429C20.9733 10.4424 20.9733 10.4419 20.9733 10.4414C20.9733 10.4409 20.9733 10.4404 20.9733 10.4399C20.9733 10.4394 20.9733 10.4389 20.9733 10.4384C20.9733 10.4379 20.9733 10.4374 20.9733 10.4369C20.9733 10.4363 20.9733 10.4358 20.9733 10.4353C20.9733 10.4348 20.9733 10.4343 20.9733 10.4338C20.9733 10.4333 20.9733 10.4328 20.9733 10.4323C20.9733 10.4318 20.9733 10.4313 20.9733 10.4308C20.9733 10.4303 20.9733 10.4298 20.9733 10.4293C20.9733 10.4288 20.9733 10.4282 20.9733 10.4277C20.9733 10.4272 20.9733 10.4267 20.9733 10.4262C20.9733 10.4257 20.9733 10.4252 20.9733 10.4247C20.9733 10.4242 20.9733 10.4237 20.9733 10.4232C20.9733 10.4227 20.9733 10.4222 20.9733 10.4217C20.9733 10.4212 20.9733 10.4207 20.9733 10.4201C20.9733 10.4196 20.9733 10.4191 20.9733 10.4186C20.9733 10.4181 20.9733 10.4176 20.9733 10.4171C20.9733 10.4166 20.9733 10.4161 20.9733 10.4156C20.9733 10.4151 20.9733 10.4146 20.9733 10.4141C20.9733 10.4136 20.9733 10.413 20.9733 10.4125C20.9733 10.412 20.9733 10.4115 20.9733 10.411C20.9733 10.4105 20.9733 10.41 20.9733 10.4095C20.9733 10.409 20.9733 10.4085 20.9733 10.408C20.9733 10.4075 20.9733 10.407 20.9733 10.4065C20.9733 10.4059 20.9733 10.4054 20.9733 10.4049C20.9733 10.4044 20.9733 10.4039 20.9733 10.4034C20.9733 10.4029 20.9733 10.4024 20.9733 10.4019C20.9733 10.4014 20.9733 10.4009 20.9733 10.4004C20.9733 10.3999 20.9733 10.3993 20.9733 10.3988C20.9733 10.3983 20.9733 10.3978 20.9733 10.3973C20.9733 10.3968 20.9733 10.3963 20.9733 10.3958C20.9733 10.3953 20.9733 10.3948 20.9733 10.3943C20.9733 10.3938 20.9733 10.3933 20.9733 10.3927C20.9733 10.3922 20.9733 10.3917 20.9733 10.3912C20.9733 10.3907 20.9733 10.3902 20.9733 10.3897C20.9733 10.3892 20.9733 10.3887 20.9733 10.3882C20.9733 10.3877 20.9733 10.3872 20.9733 10.3866C20.9733 10.3861 20.9733 10.3856 20.9733 10.3851C20.9733 10.3846 20.9733 10.3841 20.9733 10.3836C20.9733 10.3831 20.9733 10.3826 20.9733 10.3821C20.9733 10.3816 20.9733 10.3811 20.9733 10.3805C20.9733 10.38 20.9733 10.3795 20.9733 10.379C20.9733 10.3785 20.9733 10.378 20.9733 10.3775C20.9733 10.377 20.9733 10.3765 20.9733 10.376C20.9733 10.3755 20.9733 10.375 20.9733 10.3744C20.9733 10.3739 20.9733 10.3734 20.9733 10.3729C20.9733 10.3724 20.9733 10.3719 20.9733 10.3714C20.9733 10.3709 20.9733 10.3704 20.9733 10.3699C20.9733 10.3694 20.9733 10.3688 20.9733 10.3683C20.9733 10.3678 20.9733 10.3673 20.9733 10.3668C20.9733 10.3663 20.9733 10.3658 20.9733 10.3653C20.9733 10.3648 20.9733 10.3643 20.9733 10.3637C20.9733 10.3632 20.9733 10.3627 20.9733 10.3622C20.9733 10.3617 20.9733 10.3612 20.9733 10.3607C20.9733 10.3602 20.9733 10.3597 20.9733 10.3592C20.9733 10.3587 20.9733 10.3581 20.9733 10.3576C20.9733 10.3571 20.9733 10.3566 20.9733 10.3561C20.9733 10.3556 20.9733 10.3551 20.9733 10.3546C20.9733 10.3541 20.9733 10.3536 20.9733 10.353C20.9733 10.3525 20.9733 10.352 20.9733 10.3515C20.9733 10.351 20.9733 10.3505 20.9733 10.35C20.9733 10.3495 20.9733 10.349 20.9733 10.3485C20.9733 10.3479 20.9733 10.3474 20.9733 10.3469C20.9733 10.3464 20.9733 10.3459 20.9733 10.3454C20.9733 10.3449 20.9733 10.3444 20.9733 10.3439C20.9733 10.3433 20.9733 10.3428 20.9733 10.3423C20.9733 10.3418 20.9733 10.3413 20.9733 10.3408C20.9733 10.3403 20.9733 10.3398 20.9733 10.3393C20.9733 10.3388 20.9733 10.3382 20.9733 10.3377C20.9733 10.3372 20.9733 10.3367 20.9733 10.3362C20.9733 10.3357 20.9733 10.3352 20.9733 10.3347C20.9733 10.3342 20.9733 10.3336 20.9733 10.3331C20.9733 10.3326 20.9733 10.3321 20.9733 10.3316C20.9733 10.3311 20.9733 10.3306 20.9733 10.3301C20.9733 10.3296 20.9733 10.329 20.9733 10.3285C20.9733 10.328 20.9733 10.3275 20.9733 10.327C20.9733 10.3265 20.9733 10.326 20.9733 10.3255C20.9733 10.325 20.9733 10.3244 20.9733 10.3239C20.9733 10.3234 20.9733 10.3229 20.9733 10.3224C20.9733 10.3219 20.9733 10.3214 20.9733 10.3209C20.9733 10.3203 20.9733 10.3198 20.9733 10.3193C20.9733 10.3188 20.9733 10.3183 20.9733 10.3178C20.9733 10.3173 20.9733 10.3168 20.9733 10.3163C20.9733 10.3157 20.9733 10.3152 20.9733 10.3147C20.9733 10.3142 20.9733 10.3137 20.9733 10.3132C20.9733 10.3127 20.9733 10.3122 20.9733 10.3116C20.9733 10.3111 20.9733 10.3106 20.9733 10.3101C20.9733 10.3096 20.9733 10.3091 20.9733 10.3086C20.9733 10.3081 20.9733 10.3075 20.9733 10.307C20.9733 10.3065 20.9733 10.306 20.9733 10.3055C20.9733 10.305 20.9733 10.3045 20.9733 10.304C20.9733 10.3034 20.9733 10.3029 20.9733 10.3024C20.9733 10.3019 20.9733 10.3014 20.9733 10.3009C20.9733 10.3004 20.9733 10.2999 20.9733 10.2993C20.9733 10.2988 20.9733 10.2983 20.9733 10.2978C20.9733 10.2973 20.9733 10.2968 20.9733 10.2963C20.9733 10.2957 20.9733 10.2952 20.9733 10.2947C20.9733 10.2942 20.9733 10.2937 20.9733 10.2932C20.9733 10.2927 20.9733 10.2922 20.9733 10.2916C20.9733 10.2911 20.9733 10.2906 20.9733 10.2901C20.9733 10.2896 20.9733 10.2891 20.9733 10.2886C20.9733 10.288 20.9733 10.2875 20.9733 10.287C20.9733 10.2865 20.9733 10.286 20.9733 10.2855C20.9733 10.285 20.9733 10.2844 20.9733 10.2839C20.9733 10.2834 20.9733 10.2829 20.9733 10.2824C20.9733 10.2819 20.9733 10.2814 20.9733 10.2809C20.9733 10.2803 20.9733 10.2798 20.9733 10.2793C20.9733 10.2788 20.9733 10.2783 20.9733 10.2778C20.9733 10.2773 20.9733 10.2767 20.9733 10.2762C20.9733 10.2757 20.9733 10.2752 20.9733 10.2747C20.9733 10.2742 20.9733 10.2737 20.9733 10.2731C20.9733 10.2726 20.9733 10.2721 20.9733 10.2716C20.9733 10.2711 20.9733 10.2706 20.9733 10.27C20.9733 10.2695 20.9733 10.269 20.9733 10.2685C20.9733 10.268 20.9733 10.2675 20.9733 10.267C20.9733 10.2664 20.9733 10.2659 20.9733 10.2654C20.9733 10.2649 20.9733 10.2644 20.9733 10.2639C20.9733 10.2634 20.9733 10.2628 20.9733 10.2623C20.9733 10.2618 20.9733 10.2613 20.9733 10.2608C20.9733 10.2603 20.9733 10.2597 20.9733 10.2592C20.9733 10.2587 20.9733 10.2582 20.9733 10.2577C20.9733 10.2572 20.9733 10.2567 20.9733 10.2561C20.9733 10.2556 20.9733 10.2551 20.9733 10.2546C20.9733 10.2541 20.9733 10.2536 20.9733 10.253C20.9733 10.2525 20.9733 10.252 20.9733 10.2515C20.9733 10.251 20.9733 10.2505 20.9733 10.2499C20.9733 10.2494 20.9733 10.2489 20.9733 10.2484C20.9733 10.2479 20.9733 10.2474 20.9733 10.2469C20.9733 10.2463 20.9733 10.2458 20.9733 10.2453C20.9733 10.2448 20.9733 10.2443 20.9733 10.2438C20.9733 10.2432 20.9733 10.2427 20.9733 10.2422C20.9733 10.2417 20.9733 10.2412 20.9733 10.2407C20.9733 10.2401 20.9733 10.2396 20.9733 10.2391C20.9733 10.2386 20.9733 10.2381 20.9733 10.2376C20.9733 10.237 20.9733 10.2365 20.9733 10.236C20.9733 10.2355 20.9733 10.235 20.9733 10.2345C20.9733 10.2339 20.9733 10.2334 20.9733 10.2329C20.9733 10.2324 20.9733 10.2319 20.9733 10.2314C20.9733 10.2308 20.9733 10.2303 20.9733 10.2298C20.9733 10.2293 20.9733 10.2288 20.9733 10.2283C20.9733 10.2277 20.9733 10.2272 20.9733 10.2267C20.9733 10.2262 20.9733 10.2257 20.9733 10.2251C20.9733 10.2246 20.9733 10.2241 20.9733 10.2236C20.9733 10.2231 20.9733 10.2226 20.9733 10.222C20.9733 10.2215 20.9733 10.221 20.9733 10.2205C20.9733 10.22 20.9733 10.2195 20.9733 10.2189C20.9733 10.2184 20.9733 10.2179 20.9733 10.2174C20.9733 10.2169 20.9733 10.2163 20.9733 10.2158C20.9733 10.2153 20.9733 10.2148 20.9733 10.2143C20.9733 10.2138 20.9733 10.2132 20.9733 10.2127C20.9733 10.2122 20.9733 10.2117 20.9733 10.2112C20.9733 10.2106 20.9733 10.2101 20.9733 10.2096C20.9733 10.2091 20.9733 10.2086 20.9733 10.208C20.9733 10.2075 20.9733 10.207 20.9733 10.2065C20.9733 10.206 20.9733 10.2055 20.9733 10.2049C20.9733 10.2044 20.9733 10.2039 20.9733 10.2034C20.9733 10.2029 20.9733 10.2023 20.9733 10.2018C20.9733 10.2013 20.9733 10.2008 20.9733 10.2003C20.9733 10.1997 20.9733 10.1992 20.9733 10.1987C20.9733 10.1982 20.9733 10.1977 20.9733 10.1971C20.9733 10.1966 20.9733 10.1961 20.9733 10.1956C20.9733 10.1951 20.9733 10.1946 20.9733 10.194C20.9733 10.1935 20.9733 10.193 20.9733 10.1925C20.9733 10.192 20.9733 10.1914 20.9733 10.1909C20.9733 10.1904 20.9733 10.1899 20.9733 10.1894C20.9733 10.1888 20.9733 10.1883 20.9733 10.1878C20.9733 10.1873 20.9733 10.1868 20.9733 10.1862C20.9733 10.1857 20.9733 10.1852 20.9733 10.1847C20.9733 10.1842 20.9733 10.1836 20.9733 10.1831C20.9733 10.1826 20.9733 10.1821 20.9733 10.1816C20.9733 10.181 20.9733 10.1805 20.9733 10.18C20.9733 10.1795 20.9733 10.1789 20.9733 10.1784C20.9733 10.1779 20.9733 10.1774 20.9733 10.1769C20.9733 10.1763 20.9733 10.1758 20.9733 10.1753C20.9733 10.1748 20.9733 10.1743 20.9733 10.1737C20.9733 10.1732 20.9733 10.1727 20.9733 10.1722C20.9733 10.1717 20.9733 10.1711 20.9733 10.1706C20.9733 10.1701 20.9733 10.1696 20.9733 10.1691C20.9733 10.1685 20.9733 10.168 20.9733 10.1675C20.9733 10.167 20.9733 10.1664 20.9733 10.1659C20.9733 10.1654 20.9733 10.1649 20.9733 10.1644C20.9733 10.1638 20.9733 10.1633 20.9733 10.1628C20.9733 10.1623 20.9733 10.1617 20.9733 10.1612C20.9733 10.1607 20.9733 10.1602 20.9733 10.1597C20.9733 10.1591 20.9733 10.1586 20.9733 10.1581C20.9733 10.1576 20.9733 10.1571 20.9733 10.1565C20.9733 10.156 20.9733 10.1555 20.9733 10.155C20.9733 10.1544 20.9733 10.1539 20.9733 10.1534C20.9733 10.1529 20.9733 10.1524 20.9733 10.1518C20.9733 10.1513 20.9733 10.1508 20.9733 10.1503C20.9733 10.1497 20.9733 10.1492 20.9733 10.1487C20.9733 10.1482 20.9733 10.1476 20.9733 10.1471C20.9733 10.1466 20.9733 10.1461 20.9733 10.1456C20.9733 10.145 20.9733 10.1445 20.9733 10.144C20.9733 10.1435 20.9733 10.1429 20.9733 10.1424C20.9733 10.1419 20.9733 10.1414 20.9733 10.1408C20.9733 10.1403 20.9733 10.1398 20.9733 10.1393C20.9733 10.1388 20.9733 10.1382 20.9733 10.1377C20.9733 10.1372 20.9733 10.1367 20.9733 10.1361C20.9733 10.1356 20.9733 10.1351 20.9733 10.1346C20.9733 10.134 20.9733 10.1335 20.9733 10.133C20.9733 10.1325 20.9733 10.1319 20.9733 10.1314C20.9733 10.1309 20.9733 10.1304 20.9733 10.1298C20.9733 10.1293 20.9733 10.1288 20.9733 10.1283C20.9733 10.1278 20.9733 10.1272 20.9733 10.1267C20.9733 10.1262 20.9733 10.1257 20.9733 10.1251C20.9733 10.1246 20.9733 10.1241 20.9733 10.1236C20.9733 10.123 20.9733 10.1225 20.9733 10.122C20.9733 10.1215 20.9733 10.1209 20.9733 10.1204C20.9733 10.1199 20.9733 10.1194 20.9733 10.1188C20.9733 10.1183 20.9733 10.1178 20.9733 10.1173C20.9733 10.1167 20.9733 10.1162 20.9733 10.1157C20.9733 10.1152 20.9733 10.1146 20.9733 10.1141C20.9733 10.1136 20.9733 10.1131 20.9733 10.1125C20.9733 10.112 20.9733 10.1115 20.9733 10.111C20.9733 10.1104 20.9733 10.1099 20.9733 10.1094C20.9733 10.1089 20.9733 10.1083 20.9733 10.1078C20.9733 10.1073 20.9733 10.1068 20.9733 10.1062C20.9733 10.1057 20.9733 10.1052 20.9733 10.1046C20.9733 10.1041 20.9733 10.1036 20.9733 10.1031C20.9733 10.1025 20.9733 10.102 20.9733 10.1015C20.9733 10.101 20.9733 10.1004 20.9733 10.0999C20.9733 10.0994 20.9733 10.0989 20.9733 10.0983C20.9733 10.0978 20.9733 10.0973 20.9733 10.0968C20.9733 10.0962 20.9733 10.0957 20.9733 10.0952C20.9733 10.0946 20.9733 10.0941 20.9733 10.0936C20.9733 10.0931 20.9733 10.0925 20.9733 10.092C20.9733 10.0915 20.9733 10.091 20.9733 10.0904C20.9733 10.0899 20.9733 10.0894 20.9733 10.0889C20.9733 10.0883 20.9733 10.0878 20.9733 10.0873C20.9733 10.0867 20.9733 10.0862 20.9733 10.0857C20.9733 10.0852 20.9733 10.0846 20.9733 10.0841C20.9733 10.0836 20.9733 10.0831 20.9733 10.0825H20.3733Z" fill="white" mask="url(#path-11-inside-1_469_75)"/>
<path d="M15.1852 19.4166C15.1632 19.3167 15.142 19.2166 15.1219 19.1163H20.4381C20.3957 19.2165 20.3533 19.3165 20.311 19.4166H15.1852Z" stroke="white" stroke-width="0.3"/>
<path d="M19.777 23.6666H15.6355C15.667 23.5618 15.6985 23.4576 15.7312 23.3531H19.8989C19.8877 23.3759 19.8739 23.4041 19.8592 23.4339L19.8132 23.5271L19.7982 23.5576L19.794 23.5661L19.7929 23.5683L19.7926 23.5689L19.7925 23.569L19.7925 23.5691L19.7925 23.5691L19.927 23.6355L19.7925 23.5691L19.777 23.6005V23.6355V23.6666Z" stroke="white" stroke-width="0.3"/>
<path d="M13.3522 33.5184C13.3544 33.3435 13.3567 33.1686 13.3591 32.9937H16.9317C16.9689 33.1673 16.9644 33.3472 16.9187 33.5184H13.3522Z" stroke="white" stroke-width="0.3"/>
<path d="M19.9729 21.1055L19.9728 21.1055L19.9723 21.1119C19.966 21.2071 19.9594 21.3023 19.9527 21.3974H15.7901C15.7779 21.2919 15.7596 21.1873 15.7354 21.084H19.9752C19.9744 21.0911 19.9737 21.0983 19.9729 21.1055Z" stroke="white" stroke-width="0.3"/>
<path d="M12.527 21.084L12.3554 21.3974H9.77834C9.77936 21.3829 9.78039 21.3684 9.78141 21.3539C9.78776 21.264 9.79412 21.174 9.80033 21.084H12.527Z" stroke="white" stroke-width="0.3"/>
</g>
<mask id="path-18-inside-2_469_75" fill="white">
<path d="M37.7233 43.0058H36.1776C36.0111 42.9167 35.8475 42.8236 35.6776 42.7413C35.5809 42.6962 35.501 42.6214 35.4495 42.5277C35.1781 42.0565 34.8999 41.5893 34.6251 41.1204C34.5305 41.0044 34.4586 40.8717 34.413 40.7291C34.423 40.5766 34.46 40.4271 34.5225 40.2876C34.535 40.2431 34.5441 40.1974 34.5607 40.154C34.6649 39.9174 34.6834 39.6518 34.6131 39.4029C34.6029 39.3611 34.5951 39.3188 34.5897 39.2761C34.5613 39.0386 34.5144 38.8037 34.4495 38.5736C34.0646 37.5084 33.6621 36.45 33.2658 35.3894C33.1626 35.1124 33.06 34.8354 32.9557 34.5549L33.2977 34.3385C33.1923 34.0746 33.0965 33.8164 32.9859 33.5651C32.9296 33.4343 32.9158 33.289 32.9465 33.1499C33.0848 32.535 33.1465 31.9054 33.1301 31.2753C33.1285 31.2186 33.1201 31.1622 33.105 31.1074C32.6265 29.6369 32.1468 28.1667 31.666 26.6969C31.6546 26.6627 31.6386 26.6295 31.6209 26.5856C31.5365 26.6644 31.4601 26.7295 31.3928 26.802C31.3693 26.8283 31.3401 26.8489 31.3073 26.8619C31.2746 26.875 31.2393 26.8803 31.2041 26.8774C30.9723 26.8713 30.7402 26.8713 30.508 26.8774C30.4728 26.8803 30.4375 26.875 30.4048 26.8619C30.372 26.8489 30.3427 26.8283 30.3192 26.802C30.2485 26.7278 30.171 26.6615 30.0912 26.5856C30.0775 26.6187 30.0678 26.637 30.061 26.6564C29.5733 28.1467 29.0867 29.6373 28.6014 31.128C28.5901 31.1651 28.5836 31.2035 28.582 31.2422C28.5547 31.797 28.603 32.3529 28.7256 32.8946C28.8104 33.1912 28.779 33.509 28.6378 33.7833C28.5636 33.9379 28.499 34.097 28.4446 34.2596C28.4349 34.2853 28.4275 34.3116 28.4183 34.3396L28.753 34.5543C28.7416 34.588 28.7348 34.6115 28.7262 34.6355L27.4975 37.9288C27.396 38.2029 27.2906 38.4771 27.2124 38.7586C27.148 38.9951 27.1292 39.2441 27.0807 39.4863C27.0396 39.6598 27.0485 39.8414 27.1064 40.0101C27.1788 40.2111 27.2261 40.4213 27.2894 40.6258C27.3003 40.6569 27.3039 40.6902 27.2999 40.723C27.2958 40.7558 27.2842 40.7872 27.266 40.8148C26.9171 41.402 26.5727 41.992 26.2232 42.5791C26.189 42.6321 26.1422 42.6756 26.087 42.7059C25.9045 42.8099 25.7175 42.9058 25.5322 43.0046H23.9836C23.8787 42.7122 23.7761 42.4186 23.6672 42.1279C23.6555 42.0987 23.6509 42.067 23.6538 42.0357C23.6567 42.0043 23.6669 41.9741 23.6837 41.9474C23.9688 41.4145 24.2482 40.8788 24.5333 40.3482C24.5852 40.2549 24.6112 40.1494 24.6085 40.0426C24.6034 39.7713 24.6085 39.4989 24.6085 39.2196L24.8394 39.2401C24.8754 39.1019 24.9176 38.9654 24.9432 38.826C24.9571 38.7619 24.9507 38.695 24.925 38.6347C24.8285 38.4509 24.7847 38.2439 24.7984 38.0367C24.8132 37.7471 24.8098 37.4564 24.8138 37.1663C24.8374 35.396 24.8609 33.6255 24.8845 31.8545C24.8845 31.8174 24.8879 31.7802 24.8902 31.7363L25.3338 31.8596C25.3771 31.7243 25.4176 31.5997 25.4558 31.473C25.4604 31.4523 25.4604 31.4308 25.4558 31.4101C25.376 30.9086 25.2933 30.4077 25.2157 29.9057C25.1743 29.7245 25.1531 29.5393 25.1525 29.3534C25.1958 28.7537 25.2665 28.154 25.3178 27.5571C25.3388 27.3226 25.3966 27.0928 25.4889 26.8763C25.7078 26.3485 25.9182 25.8168 26.132 25.2862C26.185 25.1554 26.2386 25.0246 26.303 24.8744L26.6223 25.381C26.6372 25.3399 26.6457 25.3176 26.6525 25.2942C26.8521 24.6305 27.0471 23.9657 27.2529 23.3037C27.3139 23.113 27.3409 22.9131 27.3327 22.7131C27.3213 22.4378 27.3042 22.1608 27.3202 21.8861C27.3452 21.4571 27.266 21.0285 27.0893 20.6369C26.9558 20.348 26.8478 20.048 26.7666 19.7402C26.6417 19.2262 26.5562 18.7036 26.453 18.185C26.4268 18.0519 26.396 17.9199 26.3646 17.7669C25.9832 18.2649 25.6166 18.7413 25.2528 19.2193C25.2319 19.2525 25.2169 19.289 25.2083 19.3273C25.0688 19.7819 24.9305 20.2366 24.7933 20.6912C24.7813 20.73 24.7659 20.7677 24.7505 20.8094L24.5618 20.7089L23.3416 22.9393C23.3947 22.9827 23.4363 23.0232 23.483 23.0535C23.6201 23.1608 23.7315 23.2974 23.8092 23.4533C23.8713 23.5344 23.9039 23.6343 23.9016 23.7365C23.8993 23.8387 23.8623 23.9371 23.7966 24.0153C23.7218 24.1333 23.6551 24.2562 23.5971 24.3832L23.1706 23.9782C23.1472 24.3072 23.1404 24.6128 23.0976 24.9126C23.0785 25.0099 23.0861 25.1105 23.1197 25.2038C23.1532 25.297 23.2114 25.3794 23.288 25.4421C23.3222 25.4729 23.3451 25.5169 23.3793 25.5478C23.4266 25.59 23.4192 25.6266 23.3907 25.678C23.2624 25.9093 23.1415 26.1452 23.0115 26.3754C22.9986 26.3952 22.9819 26.4123 22.9623 26.4255C22.9427 26.4388 22.9207 26.4479 22.8975 26.4525C22.7264 26.4759 22.5554 26.493 22.3843 26.5062C22.3462 26.5071 22.3089 26.4952 22.2783 26.4725C22.0582 26.3064 21.8402 26.138 21.6243 25.967C21.5921 25.94 21.569 25.9037 21.5582 25.863C21.4618 25.4712 21.3712 25.0777 21.2731 24.6853C21.2161 24.4614 21.1591 24.2387 21.1021 24.0153V23.908C21.1226 23.8712 21.1405 23.833 21.1556 23.7937C21.3075 23.4239 21.4321 23.0434 21.5285 22.6554C21.562 22.5605 21.5669 22.4579 21.5427 22.3602C21.5185 22.2625 21.4662 22.1741 21.3923 22.106C21.3689 22.086 21.3541 22.0534 21.3307 22.0317C21.2997 22.0001 21.2767 21.9615 21.2636 21.9192C21.2505 21.8769 21.2477 21.832 21.2554 21.7884C21.2874 21.3669 21.3124 20.9448 21.3444 20.5239C21.3496 20.4208 21.3709 20.3192 21.4077 20.2229C21.7566 19.389 22.1118 18.5574 22.4659 17.7252C22.4807 17.6909 22.4984 17.6578 22.5229 17.6109L22.7983 18.1113C22.8205 18.061 22.8336 18.0325 22.8456 18.0033L23.3473 16.7953C23.3912 16.6897 23.4825 16.5737 23.4614 16.4806C23.4403 16.3875 23.3108 16.3093 23.2373 16.2185C23.2071 16.1819 23.1909 16.1357 23.1917 16.0882C23.2297 15.7292 23.2728 15.3703 23.3211 15.0116C23.3271 14.96 23.3509 14.9121 23.3884 14.8762C24.1824 14.2476 24.9786 13.6214 25.7768 12.9977C25.7882 12.9877 25.8015 12.9801 25.8159 12.9755C25.8303 12.9709 25.8455 12.9693 25.8606 12.9709C26.116 13.0611 26.4194 13.0657 26.5602 13.3621C26.5602 13.3667 26.5722 13.3678 26.5984 13.3787C26.6554 13.317 26.7124 13.2444 26.7825 13.1828C26.8086 13.1649 26.8265 13.1375 26.8325 13.1065C26.8385 13.0755 26.832 13.0434 26.8145 13.0171C26.6839 12.735 26.5596 12.45 26.4336 12.1661C26.3732 12.0307 26.3156 11.8942 26.2534 11.7537L28.2296 10.8284L28.8317 12.2701L29.1875 12.2044C29.1727 12.165 29.163 12.1335 29.1504 12.105C28.9628 11.6561 28.7906 11.2008 28.5803 10.7622C28.4177 10.4054 28.3376 10.0165 28.3459 9.62445C28.3331 9.26416 28.4226 8.90763 28.6042 8.59636C28.7139 8.38043 28.8668 8.18949 29.0535 8.03549C29.1886 7.93553 29.3106 7.81845 29.4406 7.71221C29.4736 7.68538 29.5108 7.66415 29.5507 7.64938C29.9526 7.49132 30.3846 7.42517 30.8153 7.45576C30.951 7.46486 31.0872 7.46486 31.2229 7.45576C31.7174 7.45957 32.194 7.64096 32.5662 7.96695C32.8113 8.15834 33.0069 8.40594 33.1364 8.68889C33.1837 8.80312 33.2504 8.90307 33.3029 9.01331C33.3271 9.06387 33.3407 9.11889 33.3428 9.17495C33.3466 9.49403 33.3466 9.81312 33.3428 10.1322C33.3418 10.1891 33.3302 10.2452 33.3086 10.2978C33.0592 10.8991 32.8086 11.4992 32.5565 12.0981C32.5423 12.1324 32.5315 12.1678 32.5166 12.2095L32.8724 12.2712L33.4739 10.8319L35.4507 11.7577C35.4313 11.8051 35.4165 11.84 35.4005 11.876C35.2294 12.2613 35.0584 12.6472 34.8874 13.0337C34.8742 13.0634 34.8577 13.1137 34.8714 13.1285C34.9501 13.2187 35.0367 13.2998 35.1394 13.4032C35.2352 13.1382 35.4495 13.0794 35.6679 13.0268C35.7097 13.0171 35.7505 13.0037 35.7899 12.9869C35.817 12.9744 35.8472 12.9707 35.8765 12.9763C35.9057 12.982 35.9325 12.9966 35.953 13.0183C36.7312 13.6328 37.5118 14.2434 38.2906 14.8591C38.3399 14.9018 38.3727 14.9604 38.3836 15.0247C38.4269 15.3223 38.4486 15.6227 38.4976 15.9186C38.5215 15.9963 38.5198 16.0797 38.4927 16.1563C38.4656 16.233 38.4145 16.2988 38.3471 16.3441C38.3237 16.3601 38.3077 16.3864 38.2855 16.4012C38.2738 16.4088 38.2636 16.4186 38.2557 16.43C38.2478 16.4415 38.2422 16.4544 38.2393 16.4681C38.2364 16.4817 38.2362 16.4958 38.2387 16.5095C38.2413 16.5233 38.2465 16.5363 38.2541 16.548C38.4617 17.0386 38.6629 17.531 38.8676 18.0228C38.8779 18.0462 38.8933 18.0702 38.9121 18.1044L39.1841 17.6081C39.2023 17.6441 39.2109 17.6595 39.2177 17.6755C39.5864 18.544 39.9547 19.4128 40.3227 20.2817C40.336 20.3145 40.3438 20.3492 40.3461 20.3845C40.3746 20.7843 40.3814 21.1881 40.4361 21.5839C40.4584 21.7004 40.4501 21.8207 40.412 21.9331C40.3739 22.0454 40.3074 22.1459 40.2189 22.2248C40.1851 22.2535 40.1604 22.2915 40.1479 22.3342C40.1353 22.3768 40.1354 22.4221 40.1482 22.4646C40.1739 22.5755 40.1716 22.6931 40.2052 22.8028C40.2833 23.0587 40.3763 23.3105 40.4624 23.563C40.5034 23.6772 40.5542 23.7914 40.6009 23.9057V24.0131C40.5914 24.0313 40.5836 24.0505 40.5775 24.0702C40.4361 24.6611 40.2934 25.2513 40.1494 25.8408C40.1374 25.8915 40.1101 25.9374 40.0712 25.9721C39.8591 26.1435 39.643 26.3074 39.4258 26.4713C39.3952 26.4941 39.3579 26.5059 39.3198 26.505C39.1453 26.4913 38.9708 26.4736 38.7975 26.4479C38.7778 26.4441 38.759 26.4363 38.7423 26.425C38.7257 26.4137 38.7115 26.3992 38.7006 26.3822C38.5677 26.1458 38.4429 25.9036 38.3117 25.6654C38.2987 25.647 38.2932 25.6243 38.2963 25.6019C38.2993 25.5795 38.3108 25.5592 38.3283 25.5449C38.4144 25.4489 38.4993 25.3501 38.5769 25.249C38.6033 25.2167 38.6184 25.1766 38.6196 25.1348C38.6105 24.9349 38.5945 24.735 38.5797 24.5345C38.5666 24.3552 38.5512 24.1758 38.5352 23.9765L38.1105 24.3797C37.9964 24.1673 37.8892 23.9657 37.7843 23.7635C37.7797 23.7526 37.7773 23.741 37.7773 23.7292C37.7773 23.7174 37.7797 23.7057 37.7843 23.6949C37.8731 23.4178 38.0469 23.1758 38.2809 23.0033C38.3103 22.9822 38.3375 22.9585 38.3625 22.9324L37.1435 20.7049L36.9519 20.8037C36.9422 20.7769 36.9337 20.7563 36.9285 20.738C36.7871 20.2651 36.6434 19.7928 36.5003 19.3227C36.4836 19.2685 36.4578 19.2175 36.4239 19.1719C36.2215 18.9035 36.0157 18.6367 35.8104 18.3723L35.348 17.7709C35.3382 17.7953 35.3296 17.8203 35.3224 17.8457C35.2483 18.2175 35.1793 18.5882 35.1006 18.9606C35.0299 19.2953 34.9695 19.6346 34.8668 19.9607C34.7385 20.3691 34.5726 20.766 34.4244 21.1681C34.4076 21.211 34.398 21.2563 34.3959 21.3023C34.3871 21.8507 34.3803 22.399 34.3753 22.9473C34.3751 22.997 34.3822 23.0465 34.3964 23.0941C34.6112 23.8175 34.8271 24.5397 35.0441 25.2605C35.0544 25.2953 35.0704 25.3279 35.088 25.3747L35.4011 24.8784C35.4222 24.9258 35.437 24.9566 35.4501 24.9886C35.7352 25.6911 36.0203 26.3925 36.2996 27.0967C36.3362 27.1972 36.359 27.3021 36.3675 27.4086C36.4182 27.8889 36.4638 28.3704 36.5089 28.8502C36.5455 29.0617 36.5597 29.2765 36.5511 29.491C36.4804 30.0513 36.3886 30.6094 36.2831 31.164C36.242 31.3994 36.2755 31.6419 36.3789 31.8573L36.8162 31.7357C36.8162 31.7671 36.8208 31.7882 36.8213 31.8099C36.8495 33.8882 36.8785 35.9663 36.9086 38.0441C36.9197 38.244 36.8766 38.4432 36.7837 38.6204C36.7587 38.6548 36.7448 38.6961 36.7438 38.7387C36.7791 38.9054 36.8248 39.0694 36.8669 39.235L37.079 39.2161C37.0859 39.5091 37.0893 39.7953 37.1024 40.0809C37.1054 40.1583 37.1249 40.2343 37.1594 40.3036C37.4445 40.8559 37.7387 41.4048 38.0267 41.9566C38.0496 41.9981 38.0565 42.0467 38.046 42.0931C37.9406 42.3986 37.8311 42.7031 37.7233 43.0058ZM32.3348 10.0819C32.0417 10.1899 31.7646 10.2927 31.4875 10.3932C31.3797 10.448 31.2644 10.4865 31.1454 10.5075C30.7874 10.5533 30.4236 10.5079 30.0878 10.3755C29.8426 10.2573 29.5746 10.183 29.3095 10.0848C29.3095 10.355 29.3095 10.6126 29.3095 10.8701C29.3127 10.8856 29.3195 10.9002 29.3294 10.9125C29.3393 10.9248 29.3521 10.9346 29.3665 10.941C29.7097 11.0778 30.0642 11.1844 30.4259 11.2597V13.5369H31.2395V11.4619C31.2395 11.2797 31.2395 11.2865 31.4105 11.2334C31.699 11.1414 31.9852 11.0409 32.2703 10.9398C32.286 10.9322 32.2996 10.921 32.3103 10.9073C32.321 10.8935 32.3284 10.8775 32.3319 10.8604C32.337 10.6068 32.3348 10.3527 32.3348 10.0819Z"/>
</mask>
<path d="M37.7233 43.0058H36.1776C36.0111 42.9167 35.8475 42.8236 35.6776 42.7413C35.5809 42.6962 35.501 42.6214 35.4495 42.5277C35.1781 42.0565 34.8999 41.5893 34.6251 41.1204C34.5305 41.0044 34.4586 40.8717 34.413 40.7291C34.423 40.5766 34.46 40.4271 34.5225 40.2876C34.535 40.2431 34.5441 40.1974 34.5607 40.154C34.6649 39.9174 34.6834 39.6518 34.6131 39.4029C34.6029 39.3611 34.5951 39.3188 34.5897 39.2761C34.5613 39.0386 34.5144 38.8037 34.4495 38.5736C34.0646 37.5084 33.6621 36.45 33.2658 35.3894C33.1626 35.1124 33.06 34.8354 32.9557 34.5549L33.2977 34.3385C33.1923 34.0746 33.0965 33.8164 32.9859 33.5651C32.9296 33.4343 32.9158 33.289 32.9465 33.1499C33.0848 32.535 33.1465 31.9054 33.1301 31.2753C33.1285 31.2186 33.1201 31.1622 33.105 31.1074C32.6265 29.6369 32.1468 28.1667 31.666 26.6969C31.6546 26.6627 31.6386 26.6295 31.6209 26.5856C31.5365 26.6644 31.4601 26.7295 31.3928 26.802C31.3693 26.8283 31.3401 26.8489 31.3073 26.8619C31.2746 26.875 31.2393 26.8803 31.2041 26.8774C30.9723 26.8713 30.7402 26.8713 30.508 26.8774C30.4728 26.8803 30.4375 26.875 30.4048 26.8619C30.372 26.8489 30.3427 26.8283 30.3192 26.802C30.2485 26.7278 30.171 26.6615 30.0912 26.5856C30.0775 26.6187 30.0678 26.637 30.061 26.6564C29.5733 28.1467 29.0867 29.6373 28.6014 31.128C28.5901 31.1651 28.5836 31.2035 28.582 31.2422C28.5547 31.797 28.603 32.3529 28.7256 32.8946C28.8104 33.1912 28.779 33.509 28.6378 33.7833C28.5636 33.9379 28.499 34.097 28.4446 34.2596C28.4349 34.2853 28.4275 34.3116 28.4183 34.3396L28.753 34.5543C28.7416 34.588 28.7348 34.6115 28.7262 34.6355L27.4975 37.9288C27.396 38.2029 27.2906 38.4771 27.2124 38.7586C27.148 38.9951 27.1292 39.2441 27.0807 39.4863C27.0396 39.6598 27.0485 39.8414 27.1064 40.0101C27.1788 40.2111 27.2261 40.4213 27.2894 40.6258C27.3003 40.6569 27.3039 40.6902 27.2999 40.723C27.2958 40.7558 27.2842 40.7872 27.266 40.8148C26.9171 41.402 26.5727 41.992 26.2232 42.5791C26.189 42.6321 26.1422 42.6756 26.087 42.7059C25.9045 42.8099 25.7175 42.9058 25.5322 43.0046H23.9836C23.8787 42.7122 23.7761 42.4186 23.6672 42.1279C23.6555 42.0987 23.6509 42.067 23.6538 42.0357C23.6567 42.0043 23.6669 41.9741 23.6837 41.9474C23.9688 41.4145 24.2482 40.8788 24.5333 40.3482C24.5852 40.2549 24.6112 40.1494 24.6085 40.0426C24.6034 39.7713 24.6085 39.4989 24.6085 39.2196L24.8394 39.2401C24.8754 39.1019 24.9176 38.9654 24.9432 38.826C24.9571 38.7619 24.9507 38.695 24.925 38.6347C24.8285 38.4509 24.7847 38.2439 24.7984 38.0367C24.8132 37.7471 24.8098 37.4564 24.8138 37.1663C24.8374 35.396 24.8609 33.6255 24.8845 31.8545C24.8845 31.8174 24.8879 31.7802 24.8902 31.7363L25.3338 31.8596C25.3771 31.7243 25.4176 31.5997 25.4558 31.473C25.4604 31.4523 25.4604 31.4308 25.4558 31.4101C25.376 30.9086 25.2933 30.4077 25.2157 29.9057C25.1743 29.7245 25.1531 29.5393 25.1525 29.3534C25.1958 28.7537 25.2665 28.154 25.3178 27.5571C25.3388 27.3226 25.3966 27.0928 25.4889 26.8763C25.7078 26.3485 25.9182 25.8168 26.132 25.2862C26.185 25.1554 26.2386 25.0246 26.303 24.8744L26.6223 25.381C26.6372 25.3399 26.6457 25.3176 26.6525 25.2942C26.8521 24.6305 27.0471 23.9657 27.2529 23.3037C27.3139 23.113 27.3409 22.9131 27.3327 22.7131C27.3213 22.4378 27.3042 22.1608 27.3202 21.8861C27.3452 21.4571 27.266 21.0285 27.0893 20.6369C26.9558 20.348 26.8478 20.048 26.7666 19.7402C26.6417 19.2262 26.5562 18.7036 26.453 18.185C26.4268 18.0519 26.396 17.9199 26.3646 17.7669C25.9832 18.2649 25.6166 18.7413 25.2528 19.2193C25.2319 19.2525 25.2169 19.289 25.2083 19.3273C25.0688 19.7819 24.9305 20.2366 24.7933 20.6912C24.7813 20.73 24.7659 20.7677 24.7505 20.8094L24.5618 20.7089L23.3416 22.9393C23.3947 22.9827 23.4363 23.0232 23.483 23.0535C23.6201 23.1608 23.7315 23.2974 23.8092 23.4533C23.8713 23.5344 23.9039 23.6343 23.9016 23.7365C23.8993 23.8387 23.8623 23.9371 23.7966 24.0153C23.7218 24.1333 23.6551 24.2562 23.5971 24.3832L23.1706 23.9782C23.1472 24.3072 23.1404 24.6128 23.0976 24.9126C23.0785 25.0099 23.0861 25.1105 23.1197 25.2038C23.1532 25.297 23.2114 25.3794 23.288 25.4421C23.3222 25.4729 23.3451 25.5169 23.3793 25.5478C23.4266 25.59 23.4192 25.6266 23.3907 25.678C23.2624 25.9093 23.1415 26.1452 23.0115 26.3754C22.9986 26.3952 22.9819 26.4123 22.9623 26.4255C22.9427 26.4388 22.9207 26.4479 22.8975 26.4525C22.7264 26.4759 22.5554 26.493 22.3843 26.5062C22.3462 26.5071 22.3089 26.4952 22.2783 26.4725C22.0582 26.3064 21.8402 26.138 21.6243 25.967C21.5921 25.94 21.569 25.9037 21.5582 25.863C21.4618 25.4712 21.3712 25.0777 21.2731 24.6853C21.2161 24.4614 21.1591 24.2387 21.1021 24.0153V23.908C21.1226 23.8712 21.1405 23.833 21.1556 23.7937C21.3075 23.4239 21.4321 23.0434 21.5285 22.6554C21.562 22.5605 21.5669 22.4579 21.5427 22.3602C21.5185 22.2625 21.4662 22.1741 21.3923 22.106C21.3689 22.086 21.3541 22.0534 21.3307 22.0317C21.2997 22.0001 21.2767 21.9615 21.2636 21.9192C21.2505 21.8769 21.2477 21.832 21.2554 21.7884C21.2874 21.3669 21.3124 20.9448 21.3444 20.5239C21.3496 20.4208 21.3709 20.3192 21.4077 20.2229C21.7566 19.389 22.1118 18.5574 22.4659 17.7252C22.4807 17.6909 22.4984 17.6578 22.5229 17.6109L22.7983 18.1113C22.8205 18.061 22.8336 18.0325 22.8456 18.0033L23.3473 16.7953C23.3912 16.6897 23.4825 16.5737 23.4614 16.4806C23.4403 16.3875 23.3108 16.3093 23.2373 16.2185C23.2071 16.1819 23.1909 16.1357 23.1917 16.0882C23.2297 15.7292 23.2728 15.3703 23.3211 15.0116C23.3271 14.96 23.3509 14.9121 23.3884 14.8762C24.1824 14.2476 24.9786 13.6214 25.7768 12.9977C25.7882 12.9877 25.8015 12.9801 25.8159 12.9755C25.8303 12.9709 25.8455 12.9693 25.8606 12.9709C26.116 13.0611 26.4194 13.0657 26.5602 13.3621C26.5602 13.3667 26.5722 13.3678 26.5984 13.3787C26.6554 13.317 26.7124 13.2444 26.7825 13.1828C26.8086 13.1649 26.8265 13.1375 26.8325 13.1065C26.8385 13.0755 26.832 13.0434 26.8145 13.0171C26.6839 12.735 26.5596 12.45 26.4336 12.1661C26.3732 12.0307 26.3156 11.8942 26.2534 11.7537L28.2296 10.8284L28.8317 12.2701L29.1875 12.2044C29.1727 12.165 29.163 12.1335 29.1504 12.105C28.9628 11.6561 28.7906 11.2008 28.5803 10.7622C28.4177 10.4054 28.3376 10.0165 28.3459 9.62445C28.3331 9.26416 28.4226 8.90763 28.6042 8.59636C28.7139 8.38043 28.8668 8.18949 29.0535 8.03549C29.1886 7.93553 29.3106 7.81845 29.4406 7.71221C29.4736 7.68538 29.5108 7.66415 29.5507 7.64938C29.9526 7.49132 30.3846 7.42517 30.8153 7.45576C30.951 7.46486 31.0872 7.46486 31.2229 7.45576C31.7174 7.45957 32.194 7.64096 32.5662 7.96695C32.8113 8.15834 33.0069 8.40594 33.1364 8.68889C33.1837 8.80312 33.2504 8.90307 33.3029 9.01331C33.3271 9.06387 33.3407 9.11889 33.3428 9.17495C33.3466 9.49403 33.3466 9.81312 33.3428 10.1322C33.3418 10.1891 33.3302 10.2452 33.3086 10.2978C33.0592 10.8991 32.8086 11.4992 32.5565 12.0981C32.5423 12.1324 32.5315 12.1678 32.5166 12.2095L32.8724 12.2712L33.4739 10.8319L35.4507 11.7577C35.4313 11.8051 35.4165 11.84 35.4005 11.876C35.2294 12.2613 35.0584 12.6472 34.8874 13.0337C34.8742 13.0634 34.8577 13.1137 34.8714 13.1285C34.9501 13.2187 35.0367 13.2998 35.1394 13.4032C35.2352 13.1382 35.4495 13.0794 35.6679 13.0268C35.7097 13.0171 35.7505 13.0037 35.7899 12.9869C35.817 12.9744 35.8472 12.9707 35.8765 12.9763C35.9057 12.982 35.9325 12.9966 35.953 13.0183C36.7312 13.6328 37.5118 14.2434 38.2906 14.8591C38.3399 14.9018 38.3727 14.9604 38.3836 15.0247C38.4269 15.3223 38.4486 15.6227 38.4976 15.9186C38.5215 15.9963 38.5198 16.0797 38.4927 16.1563C38.4656 16.233 38.4145 16.2988 38.3471 16.3441C38.3237 16.3601 38.3077 16.3864 38.2855 16.4012C38.2738 16.4088 38.2636 16.4186 38.2557 16.43C38.2478 16.4415 38.2422 16.4544 38.2393 16.4681C38.2364 16.4817 38.2362 16.4958 38.2387 16.5095C38.2413 16.5233 38.2465 16.5363 38.2541 16.548C38.4617 17.0386 38.6629 17.531 38.8676 18.0228C38.8779 18.0462 38.8933 18.0702 38.9121 18.1044L39.1841 17.6081C39.2023 17.6441 39.2109 17.6595 39.2177 17.6755C39.5864 18.544 39.9547 19.4128 40.3227 20.2817C40.336 20.3145 40.3438 20.3492 40.3461 20.3845C40.3746 20.7843 40.3814 21.1881 40.4361 21.5839C40.4584 21.7004 40.4501 21.8207 40.412 21.9331C40.3739 22.0454 40.3074 22.1459 40.2189 22.2248C40.1851 22.2535 40.1604 22.2915 40.1479 22.3342C40.1353 22.3768 40.1354 22.4221 40.1482 22.4646C40.1739 22.5755 40.1716 22.6931 40.2052 22.8028C40.2833 23.0587 40.3763 23.3105 40.4624 23.563C40.5034 23.6772 40.5542 23.7914 40.6009 23.9057V24.0131C40.5914 24.0313 40.5836 24.0505 40.5775 24.0702C40.4361 24.6611 40.2934 25.2513 40.1494 25.8408C40.1374 25.8915 40.1101 25.9374 40.0712 25.9721C39.8591 26.1435 39.643 26.3074 39.4258 26.4713C39.3952 26.4941 39.3579 26.5059 39.3198 26.505C39.1453 26.4913 38.9708 26.4736 38.7975 26.4479C38.7778 26.4441 38.759 26.4363 38.7423 26.425C38.7257 26.4137 38.7115 26.3992 38.7006 26.3822C38.5677 26.1458 38.4429 25.9036 38.3117 25.6654C38.2987 25.647 38.2932 25.6243 38.2963 25.6019C38.2993 25.5795 38.3108 25.5592 38.3283 25.5449C38.4144 25.4489 38.4993 25.3501 38.5769 25.249C38.6033 25.2167 38.6184 25.1766 38.6196 25.1348C38.6105 24.9349 38.5945 24.735 38.5797 24.5345C38.5666 24.3552 38.5512 24.1758 38.5352 23.9765L38.1105 24.3797C37.9964 24.1673 37.8892 23.9657 37.7843 23.7635C37.7797 23.7526 37.7773 23.741 37.7773 23.7292C37.7773 23.7174 37.7797 23.7057 37.7843 23.6949C37.8731 23.4178 38.0469 23.1758 38.2809 23.0033C38.3103 22.9822 38.3375 22.9585 38.3625 22.9324L37.1435 20.7049L36.9519 20.8037C36.9422 20.7769 36.9337 20.7563 36.9285 20.738C36.7871 20.2651 36.6434 19.7928 36.5003 19.3227C36.4836 19.2685 36.4578 19.2175 36.4239 19.1719C36.2215 18.9035 36.0157 18.6367 35.8104 18.3723L35.348 17.7709C35.3382 17.7953 35.3296 17.8203 35.3224 17.8457C35.2483 18.2175 35.1793 18.5882 35.1006 18.9606C35.0299 19.2953 34.9695 19.6346 34.8668 19.9607C34.7385 20.3691 34.5726 20.766 34.4244 21.1681C34.4076 21.211 34.398 21.2563 34.3959 21.3023C34.3871 21.8507 34.3803 22.399 34.3753 22.9473C34.3751 22.997 34.3822 23.0465 34.3964 23.0941C34.6112 23.8175 34.8271 24.5397 35.0441 25.2605C35.0544 25.2953 35.0704 25.3279 35.088 25.3747L35.4011 24.8784C35.4222 24.9258 35.437 24.9566 35.4501 24.9886C35.7352 25.6911 36.0203 26.3925 36.2996 27.0967C36.3362 27.1972 36.359 27.3021 36.3675 27.4086C36.4182 27.8889 36.4638 28.3704 36.5089 28.8502C36.5455 29.0617 36.5597 29.2765 36.5511 29.491C36.4804 30.0513 36.3886 30.6094 36.2831 31.164C36.242 31.3994 36.2755 31.6419 36.3789 31.8573L36.8162 31.7357C36.8162 31.7671 36.8208 31.7882 36.8213 31.8099C36.8495 33.8882 36.8785 35.9663 36.9086 38.0441C36.9197 38.244 36.8766 38.4432 36.7837 38.6204C36.7587 38.6548 36.7448 38.6961 36.7438 38.7387C36.7791 38.9054 36.8248 39.0694 36.8669 39.235L37.079 39.2161C37.0859 39.5091 37.0893 39.7953 37.1024 40.0809C37.1054 40.1583 37.1249 40.2343 37.1594 40.3036C37.4445 40.8559 37.7387 41.4048 38.0267 41.9566C38.0496 41.9981 38.0565 42.0467 38.046 42.0931C37.9406 42.3986 37.8311 42.7031 37.7233 43.0058ZM32.3348 10.0819C32.0417 10.1899 31.7646 10.2927 31.4875 10.3932C31.3797 10.448 31.2644 10.4865 31.1454 10.5075C30.7874 10.5533 30.4236 10.5079 30.0878 10.3755C29.8426 10.2573 29.5746 10.183 29.3095 10.0848C29.3095 10.355 29.3095 10.6126 29.3095 10.8701C29.3127 10.8856 29.3195 10.9002 29.3294 10.9125C29.3393 10.9248 29.3521 10.9346 29.3665 10.941C29.7097 11.0778 30.0642 11.1844 30.4259 11.2597V13.5369H31.2395V11.4619C31.2395 11.2797 31.2395 11.2865 31.4105 11.2334C31.699 11.1414 31.9852 11.0409 32.2703 10.9398C32.286 10.9322 32.2996 10.921 32.3103 10.9073C32.321 10.8935 32.3284 10.8775 32.3319 10.8604C32.337 10.6068 32.3348 10.3527 32.3348 10.0819Z" stroke="white" stroke-width="0.6" mask="url(#path-18-inside-2_469_75)"/>
<rect y="50" width="50" height="5" fill="#161215"/>
</g>
<defs>
<clipPath id="clip0_469_75">
<rect width="50" height="55" fill="white"/>
</clipPath>
</defs>
</svg>
