<svg width="50" height="55" viewBox="0 0 50 55" fill="none" xmlns="http://www.w3.org/2000/svg">
<g clip-path="url(#clip0_469_74)">
<rect width="50" height="55" fill="white"/>
<path d="M50 0L0 0L0 50L50 50L50 0Z" fill="#161215"/>
<g filter="url(#filter0_d_469_74)">
<g opacity="0.5">
<path d="M13.4916 29.3545C13.4867 29.4523 13.493 29.5505 13.5104 29.6469H17.42C17.5101 29.372 17.5998 29.0971 17.6891 28.8221H13.5389C13.5224 28.9998 13.5041 29.1774 13.4916 29.3545Z" fill="#FF9B26"/>
<path d="M9.90188 25.8642C9.91262 25.9049 9.93574 25.9412 9.96802 25.9682C10.1066 26.0778 10.248 26.1852 10.3882 26.2931H11.3985C11.4966 26.1155 11.5924 25.9367 11.6893 25.7585H9.87622C9.88477 25.7934 9.89276 25.8288 9.90188 25.8642Z" fill="#FF9B26"/>
<path d="M13.1376 38.0355C13.1306 38.1686 13.1466 38.3019 13.1849 38.4296H15.6537C15.7107 38.2616 15.7717 38.0949 15.8333 37.9286C15.908 37.727 15.9838 37.5254 16.0613 37.3238H13.1535C13.1501 37.5614 13.1501 37.7984 13.1376 38.0355Z" fill="#FF9B26"/>
<path d="M20.3233 25.7579H14.2842C14.2135 25.9361 14.1405 26.1143 14.0681 26.2925H20.4659C20.4467 26.2446 20.4303 26.1956 20.4168 26.1458C20.3849 26.0167 20.3541 25.887 20.3233 25.7579Z" fill="#FF9B26"/>
<path d="M13.5459 19.3273C13.5543 19.289 13.5693 19.2524 13.5903 19.2193L13.7836 18.9663H10.2863L10.032 19.5666H13.474L13.5459 19.3273Z" fill="#FF9B26"/>
<path d="M23.6216 37.9435C23.6302 37.7653 23.6307 37.586 23.6319 37.4072V37.3238H22.3285C22.4657 37.692 22.6016 38.0606 22.7362 38.4296H23.4278V37.9264L23.6216 37.9435Z" fill="#FF9B26"/>
<path d="M23.9769 29.27C23.9877 29.1209 24.0002 28.9719 24.0139 28.8234H20.6979L20.967 29.6481H23.9826C23.9699 29.5225 23.968 29.396 23.9769 29.27Z" fill="#FF9B26"/>
<path d="M11.9801 23.2031H9.72001C9.6476 23.4013 9.56663 23.5961 9.5022 23.7971C9.5022 23.804 9.4965 23.8097 9.49365 23.8166H12.2287C12.2411 23.7542 12.2406 23.69 12.2274 23.6278C12.2141 23.5657 12.1884 23.5069 12.1517 23.455C12.1 23.3676 12.0428 23.2835 11.9807 23.2031H11.9801Z" fill="#FF9B26"/>
<path d="M21.3387 32.8437C21.321 32.9454 21.3028 33.0476 21.2851 33.1493C21.255 33.2882 21.2691 33.433 21.3256 33.5634C21.3404 33.5976 21.3541 33.6342 21.3683 33.6679H23.6803L23.6911 32.8431L21.3387 32.8437Z" fill="#FF9B26"/>
<path d="M21.3854 17.2671C21.4042 17.2231 21.4236 17.1814 21.4481 17.1329L22.0268 15.9335C22.0649 15.5748 22.1082 15.2165 22.1568 14.8585C22.2023 14.502 22.3835 14.1769 22.6626 13.951C22.9163 13.7499 23.1717 13.5512 23.426 13.3507C23.3468 13.2719 23.2744 13.201 23.2099 13.1274C23.1962 13.1119 23.2099 13.0617 23.2253 13.0314C23.3952 12.6453 23.5663 12.2598 23.7385 11.8748C23.7539 11.8394 23.7687 11.804 23.7886 11.7566L21.8136 10.8313L21.2121 12.2706L20.8563 12.2089C20.8711 12.1672 20.8825 12.1318 20.8962 12.0976C21.1467 11.4975 21.397 10.8979 21.6471 10.299C21.6689 10.2464 21.6805 10.1902 21.6813 10.1334C21.6848 9.81427 21.6848 9.49518 21.6813 9.1761C21.6794 9.12003 21.6658 9.06498 21.6414 9.01446C21.5901 8.90422 21.5234 8.80199 21.4749 8.69004C21.3453 8.4073 21.1498 8.1599 20.9048 7.96867C20.5331 7.64269 20.0572 7.46093 19.5632 7.45634C19.4275 7.46544 19.2913 7.46544 19.1555 7.45634C18.727 7.42809 18.2976 7.49559 17.8983 7.65396C17.8585 7.66873 17.8213 7.68995 17.7883 7.71679C17.6583 7.82359 17.5363 7.94068 17.4011 8.04006C17.2144 8.194 17.0614 8.38496 16.9519 8.60094C16.7699 8.91209 16.6799 9.26863 16.6924 9.62902C16.6847 10.0212 16.7654 10.4101 16.9285 10.7668C17.1366 11.2054 17.3088 11.6612 17.4986 12.1096C17.5112 12.1393 17.5209 12.1695 17.5357 12.2089L17.1799 12.2746C16.9787 11.7943 16.7808 11.3179 16.5773 10.833L14.6011 11.7583C14.6627 11.8988 14.7214 12.0353 14.7813 12.1707C14.9073 12.4563 15.0316 12.7418 15.1621 13.0217C15.1797 13.048 15.1861 13.0801 15.1802 13.1111C15.1742 13.1421 15.1562 13.1695 15.1302 13.1873C15.0618 13.249 15.0031 13.3216 14.946 13.3832C14.9198 13.3724 14.9101 13.3713 14.9078 13.3667C14.7664 13.0708 14.4631 13.0657 14.2083 12.9754C14.1932 12.9739 14.178 12.9755 14.1636 12.9801C14.1491 12.9847 14.1358 12.9923 14.1244 13.0023C13.3262 13.6267 12.5299 14.2529 11.7355 14.8808C11.698 14.9167 11.6742 14.9646 11.6682 15.0162C11.6211 15.3745 11.5779 15.7334 11.5388 16.0928C11.5384 16.1405 11.5552 16.1868 11.5861 16.223C11.6602 16.3139 11.7902 16.387 11.8102 16.4852C11.8301 16.5834 11.7378 16.6948 11.6961 16.7999C11.5521 17.1476 11.4076 17.495 11.2628 17.8423H14.6507L14.7077 17.7692C14.7134 17.7949 14.718 17.8166 14.7231 17.8423H21.1414L21.179 17.7532L21.3854 17.2671ZM20.6733 10.861C20.67 10.8782 20.6628 10.8943 20.6521 10.9081C20.6414 10.922 20.6275 10.933 20.6117 10.9404C20.3266 11.0421 20.0416 11.1426 19.7519 11.234C19.5809 11.2877 19.5809 11.2814 19.5809 11.4624V13.5352H18.7667V11.258C18.4054 11.1827 18.0513 11.076 17.7085 10.9393C17.6942 10.933 17.6817 10.9235 17.6718 10.9115C17.6619 10.8995 17.6549 10.8853 17.6514 10.8701C17.6475 10.6126 17.6514 10.3561 17.6514 10.0848C17.9194 10.1825 18.1851 10.2562 18.4297 10.3755C18.7659 10.5081 19.1301 10.5534 19.4885 10.5075C19.6075 10.4863 19.7227 10.4478 19.8306 10.3932C20.1031 10.2933 20.3802 10.191 20.6733 10.0825C20.6733 10.3527 20.6733 10.6068 20.6733 10.861Z" fill="#FF9B26"/>
<path d="M14.9398 18.9663C14.9778 19.1674 15.0196 19.3675 15.0653 19.5666H20.4105C20.4949 19.3667 20.5796 19.1666 20.6648 18.9663H14.9398Z" fill="#FF9B26"/>
<path d="M20.0639 23.3568C20.0815 23.3048 20.1015 23.254 20.1209 23.2031H15.6166C15.6086 23.2363 15.6001 23.2694 15.5898 23.3025C15.5362 23.4739 15.4855 23.6452 15.4336 23.8166H19.927V23.6355C19.927 23.6355 20.0593 23.3676 20.0639 23.3568Z" fill="#FF9B26"/>
<path d="M17.0523 32.8437H13.2112C13.2073 33.1186 13.2037 33.3935 13.2003 33.6684H17.0284C17.1197 33.4205 17.1314 33.1501 17.062 32.8951C17.058 32.878 17.0557 32.8631 17.0523 32.8437Z" fill="#FF9B26"/>
<path d="M20.1385 20.934H15.5391C15.6013 21.1332 15.6396 21.3391 15.6531 21.5474H20.0924C20.1026 21.4057 20.1125 21.2639 20.122 21.1219C20.1288 21.0596 20.1334 20.9968 20.1385 20.934Z" fill="#FF9B26"/>
<path d="M9.61743 21.5474H12.4443L12.7801 20.934H9.66019C9.64651 21.1384 9.63169 21.3429 9.61743 21.5474Z" fill="#FF9B26"/>
</g>
<path d="M37.7233 43.0058H36.1776C36.0111 42.9167 35.8475 42.8236 35.6776 42.7413C35.5809 42.6962 35.501 42.6214 35.4495 42.5277C35.1781 42.0565 34.8999 41.5893 34.6251 41.1204C34.5305 41.0044 34.4586 40.8717 34.413 40.7291C34.423 40.5766 34.46 40.4271 34.5225 40.2876C34.535 40.2431 34.5441 40.1974 34.5607 40.154C34.6649 39.9174 34.6834 39.6518 34.6131 39.4029C34.6029 39.3611 34.5951 39.3188 34.5897 39.2761C34.5613 39.0386 34.5144 38.8037 34.4495 38.5736C34.0646 37.5084 33.6621 36.45 33.2658 35.3894C33.1626 35.1124 33.06 34.8354 32.9557 34.5549L33.2977 34.3385C33.1923 34.0746 33.0965 33.8164 32.9859 33.5651C32.9296 33.4343 32.9158 33.289 32.9465 33.1499C33.0848 32.535 33.1465 31.9054 33.1301 31.2753C33.1285 31.2186 33.1201 31.1622 33.105 31.1074C32.6265 29.6369 32.1468 28.1667 31.666 26.6969C31.6546 26.6627 31.6386 26.6295 31.6209 26.5856C31.5365 26.6644 31.4601 26.7295 31.3928 26.802C31.3693 26.8283 31.3401 26.8489 31.3073 26.8619C31.2746 26.875 31.2393 26.8803 31.2041 26.8774C30.9723 26.8713 30.7402 26.8713 30.508 26.8774C30.4728 26.8803 30.4375 26.875 30.4048 26.8619C30.372 26.8489 30.3427 26.8283 30.3192 26.802C30.2485 26.7278 30.171 26.6615 30.0912 26.5856C30.0775 26.6187 30.0678 26.637 30.061 26.6564C29.5733 28.1467 29.0867 29.6373 28.6014 31.128C28.5901 31.1651 28.5836 31.2035 28.582 31.2422C28.5547 31.797 28.603 32.3529 28.7256 32.8946C28.8104 33.1912 28.779 33.509 28.6378 33.7833C28.5636 33.9379 28.499 34.097 28.4446 34.2596C28.4349 34.2853 28.4275 34.3116 28.4183 34.3396L28.753 34.5543C28.7416 34.588 28.7348 34.6115 28.7262 34.6355L27.4975 37.9288C27.396 38.2029 27.2906 38.4771 27.2124 38.7586C27.148 38.9951 27.1292 39.2441 27.0807 39.4863C27.0396 39.6598 27.0485 39.8414 27.1064 40.0101C27.1788 40.2111 27.2261 40.4213 27.2894 40.6258C27.3003 40.6569 27.3039 40.6902 27.2999 40.723C27.2958 40.7558 27.2842 40.7872 27.266 40.8148C26.9171 41.402 26.5727 41.992 26.2232 42.5791C26.189 42.6321 26.1422 42.6756 26.087 42.7059C25.9045 42.8099 25.7175 42.9058 25.5322 43.0046H23.9836C23.8787 42.7122 23.7761 42.4186 23.6672 42.1279C23.6555 42.0987 23.6509 42.067 23.6538 42.0357C23.6567 42.0043 23.6669 41.9741 23.6837 41.9474C23.9688 41.4145 24.2482 40.8788 24.5333 40.3482C24.5852 40.2549 24.6112 40.1494 24.6085 40.0426C24.6034 39.7713 24.6085 39.4989 24.6085 39.2196L24.8394 39.2401C24.8754 39.1019 24.9176 38.9654 24.9432 38.826C24.9571 38.7619 24.9507 38.695 24.925 38.6347C24.8285 38.4509 24.7847 38.2439 24.7984 38.0367C24.8132 37.7471 24.8098 37.4564 24.8138 37.1663C24.8374 35.396 24.8609 33.6255 24.8845 31.8545C24.8845 31.8174 24.8879 31.7802 24.8902 31.7363L25.3338 31.8596C25.3771 31.7243 25.4176 31.5997 25.4558 31.473C25.4604 31.4523 25.4604 31.4308 25.4558 31.4101C25.376 30.9086 25.2933 30.4077 25.2157 29.9057C25.1743 29.7245 25.1531 29.5393 25.1525 29.3534C25.1958 28.7537 25.2665 28.154 25.3178 27.5571C25.3388 27.3226 25.3966 27.0928 25.4889 26.8763C25.7078 26.3485 25.9182 25.8168 26.132 25.2862C26.185 25.1554 26.2386 25.0246 26.303 24.8744L26.6223 25.381C26.6372 25.3399 26.6457 25.3176 26.6525 25.2942C26.8521 24.6305 27.0471 23.9657 27.2529 23.3037C27.3139 23.113 27.3409 22.9131 27.3327 22.7131C27.3213 22.4378 27.3042 22.1608 27.3202 21.8861C27.3452 21.4571 27.266 21.0285 27.0893 20.6369C26.9558 20.348 26.8478 20.048 26.7666 19.7402C26.6417 19.2262 26.5562 18.7036 26.453 18.185C26.4268 18.0519 26.396 17.9199 26.3646 17.7669C25.9832 18.2649 25.6166 18.7413 25.2528 19.2193C25.2319 19.2525 25.2169 19.289 25.2083 19.3273C25.0688 19.7819 24.9305 20.2366 24.7933 20.6912C24.7813 20.73 24.7659 20.7677 24.7505 20.8094L24.5618 20.7089L23.3416 22.9393C23.3947 22.9827 23.4363 23.0232 23.483 23.0535C23.6201 23.1608 23.7315 23.2974 23.8092 23.4533C23.8713 23.5344 23.9039 23.6343 23.9016 23.7365C23.8993 23.8387 23.8623 23.9371 23.7966 24.0153C23.7218 24.1333 23.6551 24.2562 23.5971 24.3832L23.1706 23.9782C23.1472 24.3072 23.1404 24.6128 23.0976 24.9126C23.0785 25.0099 23.0861 25.1105 23.1197 25.2038C23.1532 25.297 23.2114 25.3794 23.288 25.4421C23.3222 25.4729 23.3451 25.5169 23.3793 25.5478C23.4266 25.59 23.4192 25.6266 23.3907 25.678C23.2624 25.9093 23.1415 26.1452 23.0115 26.3754C22.9986 26.3952 22.9819 26.4123 22.9623 26.4255C22.9427 26.4388 22.9207 26.4479 22.8975 26.4525C22.7264 26.4759 22.5554 26.493 22.3843 26.5062C22.3462 26.5071 22.3089 26.4952 22.2783 26.4725C22.0582 26.3064 21.8402 26.138 21.6243 25.967C21.5921 25.94 21.569 25.9037 21.5582 25.863C21.4618 25.4712 21.3712 25.0777 21.2731 24.6853C21.2161 24.4614 21.1591 24.2387 21.1021 24.0153V23.908C21.1226 23.8712 21.1405 23.833 21.1556 23.7937C21.3075 23.4239 21.4321 23.0434 21.5285 22.6554C21.562 22.5605 21.5669 22.4579 21.5427 22.3602C21.5185 22.2625 21.4662 22.1741 21.3923 22.106C21.3689 22.086 21.3541 22.0534 21.3307 22.0317C21.2997 22.0001 21.2767 21.9615 21.2636 21.9192C21.2505 21.8769 21.2477 21.832 21.2554 21.7884C21.2874 21.3669 21.3124 20.9448 21.3444 20.5239C21.3496 20.4208 21.3709 20.3192 21.4077 20.2229C21.7566 19.389 22.1118 18.5574 22.4659 17.7252C22.4807 17.6909 22.4984 17.6578 22.5229 17.6109L22.7983 18.1113C22.8205 18.061 22.8336 18.0325 22.8456 18.0033L23.3473 16.7953C23.3912 16.6897 23.4825 16.5737 23.4614 16.4806C23.4403 16.3875 23.3108 16.3093 23.2373 16.2185C23.2071 16.1819 23.1909 16.1357 23.1917 16.0882C23.2297 15.7292 23.2728 15.3703 23.3211 15.0116C23.3271 14.96 23.3509 14.9121 23.3884 14.8762C24.1824 14.2476 24.9786 13.6214 25.7768 12.9977C25.7882 12.9877 25.8015 12.9801 25.8159 12.9755C25.8303 12.9709 25.8455 12.9693 25.8606 12.9709C26.116 13.0611 26.4194 13.0657 26.5602 13.3621C26.5602 13.3667 26.5722 13.3678 26.5984 13.3787C26.6554 13.317 26.7124 13.2444 26.7825 13.1828C26.8086 13.1649 26.8265 13.1375 26.8325 13.1065C26.8385 13.0755 26.832 13.0434 26.8145 13.0171C26.6839 12.735 26.5596 12.45 26.4336 12.1661C26.3732 12.0307 26.3156 11.8942 26.2534 11.7537L28.2296 10.8284L28.8317 12.2701L29.1875 12.2044C29.1727 12.165 29.163 12.1335 29.1504 12.105C28.9628 11.6561 28.7906 11.2008 28.5803 10.7622C28.4177 10.4054 28.3376 10.0165 28.3459 9.62445C28.3331 9.26416 28.4226 8.90763 28.6042 8.59636C28.7139 8.38043 28.8668 8.18949 29.0535 8.03549C29.1886 7.93553 29.3106 7.81845 29.4406 7.71221C29.4736 7.68538 29.5108 7.66415 29.5507 7.64938C29.9526 7.49132 30.3846 7.42517 30.8153 7.45576C30.951 7.46486 31.0872 7.46486 31.2229 7.45576C31.7174 7.45957 32.194 7.64096 32.5662 7.96695C32.8113 8.15834 33.0069 8.40594 33.1364 8.68889C33.1837 8.80312 33.2504 8.90307 33.3029 9.01331C33.3271 9.06387 33.3407 9.11889 33.3428 9.17495C33.3466 9.49403 33.3466 9.81312 33.3428 10.1322C33.3418 10.1891 33.3302 10.2452 33.3086 10.2978C33.0592 10.8991 32.8086 11.4992 32.5565 12.0981C32.5423 12.1324 32.5315 12.1678 32.5166 12.2095L32.8724 12.2712L33.4739 10.8319L35.4507 11.7577C35.4313 11.8051 35.4165 11.84 35.4005 11.876C35.2294 12.2613 35.0584 12.6472 34.8874 13.0337C34.8742 13.0634 34.8577 13.1137 34.8714 13.1285C34.9501 13.2187 35.0367 13.2998 35.1394 13.4032C35.2352 13.1382 35.4495 13.0794 35.6679 13.0268C35.7097 13.0171 35.7505 13.0037 35.7899 12.9869C35.817 12.9744 35.8472 12.9707 35.8765 12.9763C35.9057 12.982 35.9325 12.9966 35.953 13.0183C36.7312 13.6328 37.5118 14.2434 38.2906 14.8591C38.3399 14.9018 38.3727 14.9604 38.3836 15.0247C38.4269 15.3223 38.4486 15.6227 38.4976 15.9186C38.5215 15.9963 38.5198 16.0797 38.4927 16.1563C38.4656 16.233 38.4145 16.2988 38.3471 16.3441C38.3237 16.3601 38.3077 16.3864 38.2855 16.4012C38.2738 16.4088 38.2636 16.4186 38.2557 16.43C38.2478 16.4415 38.2422 16.4544 38.2393 16.4681C38.2364 16.4817 38.2362 16.4958 38.2387 16.5095C38.2413 16.5233 38.2465 16.5363 38.2541 16.548C38.4617 17.0386 38.6629 17.531 38.8676 18.0228C38.8779 18.0462 38.8933 18.0702 38.9121 18.1044L39.1841 17.6081C39.2023 17.6441 39.2109 17.6595 39.2177 17.6755C39.5864 18.544 39.9547 19.4128 40.3227 20.2817C40.336 20.3145 40.3438 20.3492 40.3461 20.3845C40.3746 20.7843 40.3814 21.1881 40.4361 21.5839C40.4584 21.7004 40.4501 21.8207 40.412 21.9331C40.3739 22.0454 40.3074 22.1459 40.2189 22.2248C40.1851 22.2535 40.1604 22.2915 40.1479 22.3342C40.1353 22.3768 40.1354 22.4221 40.1482 22.4646C40.1739 22.5755 40.1716 22.6931 40.2052 22.8028C40.2833 23.0587 40.3763 23.3105 40.4624 23.563C40.5034 23.6772 40.5542 23.7914 40.6009 23.9057V24.0131C40.5914 24.0313 40.5836 24.0505 40.5775 24.0702C40.4361 24.6611 40.2934 25.2513 40.1494 25.8408C40.1374 25.8915 40.1101 25.9374 40.0712 25.9721C39.8591 26.1435 39.643 26.3074 39.4258 26.4713C39.3952 26.4941 39.3579 26.5059 39.3198 26.505C39.1453 26.4913 38.9708 26.4736 38.7975 26.4479C38.7778 26.4441 38.759 26.4363 38.7423 26.425C38.7257 26.4137 38.7115 26.3992 38.7006 26.3822C38.5677 26.1458 38.4429 25.9036 38.3117 25.6654C38.2987 25.647 38.2932 25.6243 38.2963 25.6019C38.2993 25.5795 38.3108 25.5592 38.3283 25.5449C38.4144 25.4489 38.4993 25.3501 38.5769 25.249C38.6033 25.2167 38.6184 25.1766 38.6196 25.1348C38.6105 24.9349 38.5945 24.735 38.5797 24.5345C38.5666 24.3552 38.5512 24.1758 38.5352 23.9765L38.1105 24.3797C37.9964 24.1673 37.8892 23.9657 37.7843 23.7635C37.7797 23.7526 37.7773 23.741 37.7773 23.7292C37.7773 23.7174 37.7797 23.7057 37.7843 23.6949C37.8731 23.4178 38.0469 23.1758 38.2809 23.0033C38.3103 22.9822 38.3375 22.9585 38.3625 22.9324L37.1435 20.7049L36.9519 20.8037C36.9422 20.7769 36.9337 20.7563 36.9285 20.738C36.7871 20.2651 36.6434 19.7928 36.5003 19.3227C36.4836 19.2685 36.4578 19.2175 36.4239 19.1719C36.2215 18.9035 36.0157 18.6367 35.8104 18.3723L35.348 17.7709C35.3382 17.7953 35.3296 17.8203 35.3224 17.8457C35.2483 18.2175 35.1793 18.5882 35.1006 18.9606C35.0299 19.2953 34.9695 19.6346 34.8668 19.9607C34.7385 20.3691 34.5726 20.766 34.4244 21.1681C34.4076 21.211 34.398 21.2563 34.3959 21.3023C34.3871 21.8507 34.3803 22.399 34.3753 22.9473C34.3751 22.997 34.3822 23.0465 34.3964 23.0941C34.6112 23.8175 34.8271 24.5397 35.0441 25.2605C35.0544 25.2953 35.0704 25.3279 35.088 25.3747L35.4011 24.8784C35.4222 24.9258 35.437 24.9566 35.4501 24.9886C35.7352 25.6911 36.0203 26.3925 36.2996 27.0967C36.3362 27.1972 36.359 27.3021 36.3675 27.4086C36.4182 27.8889 36.4638 28.3704 36.5089 28.8502C36.5455 29.0617 36.5597 29.2765 36.5511 29.491C36.4804 30.0513 36.3886 30.6094 36.2831 31.164C36.242 31.3994 36.2755 31.6419 36.3789 31.8573L36.8162 31.7357C36.8162 31.7671 36.8208 31.7882 36.8213 31.8099C36.8495 33.8882 36.8785 35.9663 36.9086 38.0441C36.9197 38.244 36.8766 38.4432 36.7837 38.6204C36.7587 38.6548 36.7448 38.6961 36.7438 38.7387C36.7791 38.9054 36.8248 39.0694 36.8669 39.235L37.079 39.2161C37.0859 39.5091 37.0893 39.7953 37.1024 40.0809C37.1054 40.1583 37.1249 40.2343 37.1594 40.3036C37.4445 40.8559 37.7387 41.4048 38.0267 41.9566C38.0496 41.9981 38.0565 42.0467 38.046 42.0931C37.9406 42.3986 37.8311 42.7031 37.7233 43.0058ZM32.3348 10.0819C32.0417 10.1899 31.7646 10.2927 31.4875 10.3932C31.3797 10.448 31.2644 10.4865 31.1454 10.5075C30.7874 10.5533 30.4236 10.5079 30.0878 10.3755C29.8426 10.2573 29.5746 10.183 29.3095 10.0848C29.3095 10.355 29.3095 10.6126 29.3095 10.8701C29.3127 10.8856 29.3195 10.9002 29.3294 10.9125C29.3393 10.9248 29.3521 10.9346 29.3665 10.941C29.7097 11.0778 30.0642 11.1844 30.4259 11.2597V13.5369H31.2395V11.4619C31.2395 11.2797 31.2395 11.2865 31.4105 11.2334C31.699 11.1414 31.9852 11.0409 32.2703 10.9398C32.286 10.9322 32.2996 10.921 32.3103 10.9073C32.321 10.8935 32.3284 10.8775 32.3319 10.8604C32.337 10.6068 32.3348 10.3527 32.3348 10.0819Z" fill="#FF9B26"/>
</g>
<rect y="50" width="50" height="5" fill="#FF8900"/>
</g>
<defs>
<filter id="filter0_d_469_74" x="-0.506348" y="-2.55151" width="51.1073" height="55.5573" filterUnits="userSpaceOnUse" color-interpolation-filters="sRGB">
<feFlood flood-opacity="0" result="BackgroundImageFix"/>
<feColorMatrix in="SourceAlpha" type="matrix" values="0 0 0 0 0 0 0 0 0 0 0 0 0 0 0 0 0 0 127 0" result="hardAlpha"/>
<feOffset/>
<feGaussianBlur stdDeviation="5"/>
<feComposite in2="hardAlpha" operator="out"/>
<feColorMatrix type="matrix" values="0 0 0 0 1 0 0 0 0 0.537255 0 0 0 0 0 0 0 0 0.4 0"/>
<feBlend mode="normal" in2="BackgroundImageFix" result="effect1_dropShadow_469_74"/>
<feBlend mode="normal" in="SourceGraphic" in2="effect1_dropShadow_469_74" result="shape"/>
</filter>
<clipPath id="clip0_469_74">
<rect width="50" height="55" fill="white"/>
</clipPath>
</defs>
</svg>
